<svg
	id="Layer_1"
	data-name="Layer 1"
	xmlns="http://www.w3.org/2000/svg"
	viewBox="0 0 1000 1000"
>
	<defs>
		<style>
			.tree-cls-1 {
				fill: #754c24;
			}
			.tree-cls-2 {
				fill: #603813;
			}
			.tree-cls-3 {
				fill: #c69c6d;
			}
			.tree-cls-4 {
				fill: #42210b;
			}
			.tree-cls-5 {
				fill: #a0425f;
			}
			.tree-cls-6,
			.tree-cls-8 {
				fill: #5b1a32;
			}
			.tree-cls-7 {
				fill: #c95070;
			}
			.tree-cls-8 {
				opacity: 0.5;
			}
			.tree-cls-9 {
				fill: #7f4829;
			}
			.tree-cls-10,
			.tree-cls-11 {
				fill: #2b1204;
			}
			.tree-cls-10 {
				opacity: 0.7;
			}
			.tree-cls-12 {
				fill: #e86e83;
			}
			.tree-cls-13,
			.tree-cls-15 {
				fill: #fff;
			}
			.tree-cls-13 {
				opacity: 0.25;
			}
			.tree-cls-14 {
				fill: #f088a0;
			}
			.tree-cls-15 {
				opacity: 0.35;
			}
			.tree-cls-16 {
				fill: #efefef;
			}
			.tree-cls-17 {
				fill: #ffc3d1;
			}
			.tree-cls-18 {
				fill: #e73037;
			}
			.tree-cls-19 {
				fill: none;
			}
		</style>
	</defs>
	<path
		class="tree-cls-1"
		d="M460.56,762.8a97,97,0,0,1,35.35,12.86c.95.58,8.48-2.65,9.91-3a101.88,101.88,0,0,1,10.67-2,105,105,0,0,1,21.7-.69,103.08,103.08,0,0,1,40.58,11.52A94.71,94.71,0,0,1,596.1,793.2l3.58-.36c16.08-1.61,35.38-2.13,49.06,7.57a55.82,55.82,0,0,1,23,47.67C541.45,890.55,413.32,887,287,848.08a77.66,77.66,0,0,1,31.21-47.75A75.49,75.49,0,0,1,348,788.21c8.53-1.51,17.35-2.53,26-1.24,1.56.23,4.7,1.65,6.15,1.28,1.17-.3,3.14-2.82,4-3.67,14.37-14.22,36.53-21.69,56.47-22.79A95.72,95.72,0,0,1,460.56,762.8Z"
	/>
	<path
		class="tree-cls-2"
		d="M285.68,844A712.58,712.58,0,0,1,468,833.78a67.09,67.09,0,0,1,83,1h88.15c1.7-8.91-3.44-19.7-10.72-25.11-6.57-4.87-15.71-6.15-23.69-6.65a72.11,72.11,0,0,0-25.3,2.86c-2.34.7-4.72,1.54-7.16,1.37s-4.9-1.42-7.38-2c-6.72-1.65-13.56,1.44-20,3.92a141,141,0,0,1-28,7.74c-25.78,4.14-63.1,1.75-71.39-15.73,12.38,2,21-2.46,32-8.52,11.66-6.43,22.43-16.79,35.4-20a98.32,98.32,0,0,1,41.13-.86A86.39,86.39,0,0,1,588.24,786c2.24,1.58,4.47,3.29,7.09,4.07,3.18.94,6.57.4,9.87.08,16.11-1.57,34.94,1.6,47.15,13,11.54,10.72,15.72,27.14,17.56,42.79-122.57,42.87-249.54,50.46-373.2,6C292.77,850.41,288.55,849.16,285.68,844Z"
	/>
	<path
		class="tree-cls-3"
		d="M393.92,791.09c-.65-.26-1.3-.5-2-.72a116.09,116.09,0,0,0-34.06-6c-5.78-.12-12.62,2.39-18,4.21a85.83,85.83,0,0,0-16.34,7.4c-14.44,8.54-26.37,23.39-30.82,39.57a126.78,126.78,0,0,1,123.4-28c-1.49-.46-3.91-4.21-5.16-5.35a62.05,62.05,0,0,0-6.12-5A53.61,53.61,0,0,0,393.92,791.09Z"
	/>
	<path
		class="tree-cls-3"
		d="M395.88,790.49c12.16-12.8,30.14-23,47.75-24.34-10.57-3.39-23-2-33.62,1.18a55.68,55.68,0,0,0-27.18,18.35c3.05.79,6.12,1.45,9.17,2.25a11,11,0,0,1,3,1.07C395.87,789.53,395.66,789.45,395.88,790.49Z"
	/>
	<path
		class="tree-cls-4"
		d="M563.88,816.57c12.45-23.64,42.64-35.19,68.53-29.27,20.22,4.4,37.06,21,42.09,41,2.07,7.49,2.14,15.32,1.24,23l-2.53.84c-126.85,42.89-266.08,38-393.23-.89a85,85,0,0,1,14.92-36.47c31-44,103.88-46.14,131,2.52-10.95-10.7-23.45-18.81-37.17-23.58a75.64,75.64,0,0,0-42.55-2.27c-28.37,6.16-51.1,29.61-57.61,57.71,0,0-2.79-4.66-2.77-4.65,124.67,37.87,260.77,41.87,384.92,0,0,0-2.74,3.44-2.73,3.4,2-23.56-14.39-47-37.48-52.62-24.1-6.19-48.72,4.4-66.61,21.25Z"
	/>
	<path
		class="tree-cls-4"
		d="M593.42,796.14a92.41,92.41,0,0,0-47.53-22.81c-16.57-2.58-35.09.29-52.12,8.12l-1.94.89L490,781.22a103,103,0,0,0-57.51-15c-21.74.9-41.68,13.75-54.78,23.35L373,783.16c13.94-10.21,35.24-23.9,59.17-24.88a111.3,111.3,0,0,1,60.2,15c18.12-7.93,37-10.65,54.76-7.88a100.39,100.39,0,0,1,51.68,24.8Z"
	/>
	<path
		class="tree-cls-5"
		d="M644.11,517.27c-1.83,1.86-5.2,1.13-7.32,2.74a9.06,9.06,0,0,0-2.45,3.84c-3,6.37-6.41.15-11.31,1.29-2.16.47-4,2.89-3,4.87.69,1.46,2.38,2,3.88,2.67s3,1.86,2.82,3.48-2.46,2.41-3.88,3.47a5.51,5.51,0,0,0,.07,8.39c1.46,1.06,3.37,1.28,5.16,1.57a19.84,19.84,0,0,1,2,.4h0a6.25,6.25,0,0,1,2.9,1.61c1.24,1.32,1.35,3.81-.19,4.73a14.84,14.84,0,0,0-6.15-.81,5.32,5.32,0,0,0-1,.22,4.88,4.88,0,0,0-3.3,3.74,3,3,0,0,0,.26,1.9c1,1.87,3.59,2.34,4.83,4.1,1,1.43.88,3.37.66,5.12-.22,2-.44,4.14-.66,6.19-.22,1.87-.47,3.85-1.65,5.31-2.48,3.11-6.62-.44-9.07,3.55-2.16,3.48,1.31,8.68-1.21,11.86-1.94,2.42-5.75,1.69-8.61.48s-6.15-2.71-8.82-1.17c-3.62,2.08-2.82,7.5-4.57,11.31-1.91,4.13-6.12,6-10.07,3.18a9.06,9.06,0,0,1-3.55-5.12c-.33-1.72,1.28-4.43-.15-5.64-1.9-1.61-3.18.59-3.77,2.05a3.84,3.84,0,0,1-2.27,2.64c-1.76.47-3.4-1.32-3.62-3.12s.51-3.51.91-5.27c1.1-4.9-.18-10-1.46-14.86-.66-2.49-1.47-5.16-3.48-6.77-5.86-4.62-13.18,9.33-13.55,13.84-.18,2.45-.73,5.34-3,6.29s-5.05-.88-6.15-3.18-1.17-4.95-1.87-7.4-2.41-5-4.94-5.23-5,2-7.62,1.9c-8.89-.37-8.2-19.62-19.43-16.47C505,566.25,502,571.3,497,571c-7.65-.48-9-14.35-16.69-14.28-5.72.08-9.27,8.5-14.87,7.32-3.55-.73-5.49-5.16-9-5.74-5.56-.88-8.53,7.68-14.13,8.12-6.55.52-10.32-10.28-16.77-8.86-4.17.92-5.34,6.3-5.45,10.58s-.66,9.6-4.65,11.21c-7.21,3-13.62-10.36-20.87-7.51-5.49,2.2-4.25,10.84-8.49,14.9-3.37,3.22-8.79,2.42-13.33,1.36s-8.78-2-13.18-3c-2.56-.59-7.46.07-9-2.45-1-1.73-.87-3.78-.95-5.75s-.47-4.14-2.08-5.24c-3.78-2.52-8.61,3.22-13,1.91-2.6-.77-3.81-3.77-4.36-6.45s-1-5.67-3-7.43c-4.17-3.59-12.26,0-15.3-4.57-1.39-2.13-.81-5,.29-7.29s2.71-4.43,3.22-6.92c1.28-6.26-7.28-7.94-8.6-12.67a4.67,4.67,0,0,1-.11-2.16c.51-3.14,4.47-4.42,6.15-7.17,1.57-2.49.92-5.78-.22-8.53s-2.63-5.42-2.74-8.35c-.22-5.89,5.12-10.32,9.92-13.73,2-1.39,3.95-2.78,5.89-4.17,2.45-1.76,4.91-3.48,7.32-5.2,14.17-10,31-2.78,46.24-10.61,9.37-4.8,16.62-13,25.73-18.27a48.76,48.76,0,0,1,62.35,11.38c2.49,3,4.87,6.63,8.64,7.91,5.16,1.72,10.51-1.57,15.48-3.81a34.38,34.38,0,0,1,13.18-3c3.92-.15,5.49,1.32,8.72,3.59,6.92,4.83,14.71,9.26,23.39,9.44,4.17.07,8.31-.84,12.45-.33,5.93.73,11.09,4.32,15.59,8.24s8.57,8.38,13.66,11.53,11.53,4.8,17.06,2.6,8.93-7.61,14-10.54c6.74-3.92,16.25-2.35,22.62,1.72a9,9,0,0,1,4.25,6c.33,2.53-.84,5.13-.22,7.58.48,2,2.09,3.55,3.7,4.87a19,19,0,0,1,4.43,4.28C645.36,513.24,645.58,515.76,644.11,517.27Z"
	/>
	<path
		class="tree-cls-6"
		d="M587.27,615.32a9.42,9.42,0,0,1-5.42-1.81,11.62,11.62,0,0,1-4.63-6.82,5.6,5.6,0,0,1-.09-.8,5.34,5.34,0,0,1-2.78,1.92,5,5,0,0,1-4.16-.72,6.6,6.6,0,0,1-2.81-4.64,12.66,12.66,0,0,1,.63-5c.11-.4.23-.81.32-1.21,1-4.37-.3-9.25-1.45-13.56-.62-2.32-1.23-4.33-2.54-5.36a1.34,1.34,0,0,0-1.61-.16c-3.43,1.5-7.39,9.25-7.61,12.1-.13,1.68-.53,6.8-4.6,8.55-3.83,1.65-8-1-9.6-4.48a20,20,0,0,1-1.48-5.25c-.16-.86-.31-1.73-.55-2.57-.43-1.51-1.43-3.19-2.64-3.31a6.18,6.18,0,0,0-2.62.73,11.22,11.22,0,0,1-4.81,1.16c-5.59-.21-8.17-5.24-10.45-9.68-2.92-5.69-4.49-7.9-8.19-6.86A14.29,14.29,0,0,0,506,570c-2.47,1.82-5.27,3.88-9.17,3.63-5.11-.33-7.87-4.64-10.31-8.44-2.33-3.64-4-5.84-6.15-5.82-1.74,0-3.53,1.55-5.42,3.16-2.59,2.22-5.81,5-10,4.09-2.47-.51-4.19-2.11-5.71-3.51-1.18-1.09-2.2-2-3.23-2.2-1.49-.24-2.93,1-5.11,3.18s-4.77,4.67-8.37,5c-4.38.35-7.52-2.66-10.28-5.32s-4.33-4-6.11-3.61c-2.95.65-3.33,6.33-3.37,8-.09,3.34-.3,11.15-6.31,13.61-5,2.05-9.48-1.35-13.07-4.08s-5.77-4.22-7.83-3.4c-1.73.68-2.46,2.74-3.45,6-.84,2.82-1.8,6-4.19,8.3-4.76,4.55-12.19,2.84-15.77,2l-13.16-3a16.43,16.43,0,0,0-2.3-.25c-2.79-.19-6.61-.46-8.38-3.48a12.05,12.05,0,0,1-1.29-6.16l0-.82c-.06-1.61-.4-2.75-.94-3.12-.74-.5-2,0-4.14.92-2.28,1-5.11,2.2-8.06,1.32-2.17-.65-5-2.64-6.22-8.46l-.17-.82c-.42-2.13-.82-4.13-2-5.14s-3.49-1.15-5.86-1.24c-3.37-.13-7.56-.28-9.93-3.88-1.73-2.63-1.69-6.16.14-9.93.36-.75.77-1.48,1.18-2.22a15,15,0,0,0,1.81-4.07c.39-1.87-.71-3-3.5-5.19-2.55-2-6.05-4.83-5.24-9.54.48-2.84,2.58-4.53,4.26-5.89a10.42,10.42,0,0,0,2.27-2.21c1-1.67.34-4.26-.42-6.13-.24-.6-.51-1.19-.77-1.78a20.5,20.5,0,0,1-2.18-7.5c-.25-7,5.44-12,11-16l13.23-9.39c8.19-5.82,17.11-6.27,25.74-6.71,7.31-.37,14.22-.72,20.81-4.1,4.8-2.46,9-5.83,13.44-9.4a101.54,101.54,0,0,1,12.17-8.8,51.45,51.45,0,0,1,65.76,12l1.05,1.33c2,2.52,3.88,4.9,6.36,5.74,3.36,1.13,7.15-.68,11.16-2.59.81-.39,1.61-.77,2.4-1.13a37.28,37.28,0,0,1,14.16-3.17c4.42-.15,6.64,1.41,9.42,3.4l.92.65c6.18,4.34,13.61,8.79,21.92,9,1.58,0,3.18-.1,4.87-.23a38.87,38.87,0,0,1,7.86-.06c7.21.9,13.16,5.5,17,8.89,1.27,1.12,2.51,2.28,3.76,3.43a62.73,62.73,0,0,0,9.54,7.82c5.08,3.13,10.56,4,14.66,2.38,2.61-1,4.8-3.07,7.13-5.21a38,38,0,0,1,6.53-5.16c8.11-4.71,18.84-2.36,25.37,1.8a11.38,11.38,0,0,1,5.45,7.91,15.38,15.38,0,0,1-.17,4.18,8.9,8.9,0,0,0-.1,3.09c.33,1.31,1.66,2.52,2.78,3.43l.72.57a17.44,17.44,0,0,1,4.33,4.4c1.59,2.58,1.93,6.52-.51,9a9.05,9.05,0,0,1-5.25,2.3,6.56,6.56,0,0,0-2.39.73,6.14,6.14,0,0,0-1.4,2.3l-.25.53c-2.87,6.19-7.24,4.43-9.59,3.48a6.24,6.24,0,0,0-3.52-.73,1.72,1.72,0,0,0-1.23,1.18c.16.34,1.24.79,2,1.09l.57.24c3.06,1.34,4.75,3.74,4.39,6.28s-2.44,3.78-3.83,4.58a11.46,11.46,0,0,0-1.07.68,2.54,2.54,0,0,0-.84,2.05,2.57,2.57,0,0,0,.89,2,8.67,8.67,0,0,0,3.61,1l.38.06c2.31.36,4.69,1,6.46,2.84a6.38,6.38,0,0,1,1.6,5.16,5,5,0,0,1-2.42,3.69l-1,.57-1.08-.31c-2.26-.63-4.11-1.08-5.63-.6a2.46,2.46,0,0,0-1.42,1.3.75.75,0,0,0-.06.55,5,5,0,0,0,1.54,1.18,9.85,9.85,0,0,1,3.09,2.6c1.67,2.35,1.35,5.25,1.16,7l-.69,6.18c-.22,1.94-.51,4.58-2.21,6.7-2,2.47-4.61,2.46-6.34,2.44s-2.09.08-2.56.84-.32,2.43-.1,4.07c.33,2.46.74,5.52-1.28,8.06-2.38,3-6.65,3.42-11.72,1.25-2.44-1-5-2.14-6.46-1.3-1.16.66-1.54,2.31-2,4.94a21.26,21.26,0,0,1-1.43,5.16,10.26,10.26,0,0,1-6.46,5.79A8.31,8.31,0,0,1,587.27,615.32Zm-8.9-18a4.6,4.6,0,0,1,3,1.17c2.11,1.75,1.59,4.36,1.27,5.92a8.11,8.11,0,0,0-.19,1.3,6.28,6.28,0,0,0,2.46,3.44,3.68,3.68,0,0,0,3.13.73,5,5,0,0,0,3-2.89,17,17,0,0,0,1-3.9c.56-3,1.25-6.65,4.63-8.58,3.78-2.16,8-.36,11,1,2.29,1,4.8,1.44,5.63.39.6-.75.39-2.33.16-4-.3-2.26-.68-5.08.85-7.57,2.1-3.42,5.24-3.38,7.14-3.39,1.51,0,1.83,0,2.14-.44.68-.84.88-2.22,1.07-4l.69-6.18c.11-1,.29-2.61-.2-3.3a5.88,5.88,0,0,0-1.54-1.14,8.66,8.66,0,0,1-3.48-3.27,5.9,5.9,0,0,1-.14-5.05,7.81,7.81,0,0,1,4.74-4.35,11.65,11.65,0,0,1,5.7-.18,9,9,0,0,0-2.87-.81l-.36-.05a13,13,0,0,1-5.94-2,8.13,8.13,0,0,1-.14-12.63,14.5,14.5,0,0,1,1.62-1c.33-.2.8-.47,1.08-.68a3.8,3.8,0,0,0-1.09-.69l-.51-.22c-1.55-.65-3.67-1.54-4.71-3.74a5.51,5.51,0,0,1,.11-4.83,7.18,7.18,0,0,1,4.75-3.8,10.83,10.83,0,0,1,6.72,1,6.15,6.15,0,0,0,1.87.59,3.75,3.75,0,0,0,.89-1.37l.22-.5a10.51,10.51,0,0,1,3.06-4.37,10.63,10.63,0,0,1,4.61-1.69,5.21,5.21,0,0,0,2.41-.78,2.43,2.43,0,0,0-.21-2.5,12.93,12.93,0,0,0-3.1-3l-.76-.61c-1.77-1.43-3.9-3.45-4.6-6.29a13.05,13.05,0,0,1,0-5.1,10.83,10.83,0,0,0,.16-2.77,6.19,6.19,0,0,0-3-4.1c-5.38-3.43-13.92-5.11-19.83-1.69a33.38,33.38,0,0,0-5.59,4.48c-2.58,2.37-5.24,4.82-8.75,6.23-5.75,2.3-12.84,1.29-19.45-2.79a66.61,66.61,0,0,1-10.38-8.46c-1.21-1.12-2.41-2.24-3.64-3.33-3.33-2.91-8.41-6.88-14.15-7.6a34.54,34.54,0,0,0-6.8.09,52.68,52.68,0,0,1-5.39.24c-9.79-.2-18.44-5.41-24.87-9.92l-1-.68c-2.48-1.77-3.54-2.52-6.13-2.41a31.75,31.75,0,0,0-12.16,2.71c-.76.34-1.52.7-2.29,1.07-4.58,2.18-9.76,4.65-15.16,2.83-4-1.34-6.56-4.6-8.84-7.48l-1-1.27a46.12,46.12,0,0,0-58.94-10.75,96.37,96.37,0,0,0-11.51,8.35c-4.46,3.58-9.06,7.28-14.34,10-7.62,3.9-15.43,4.3-23,4.68-8.23.42-16,.81-22.92,5.73l-13.23,9.39c-4.67,3.31-9,7-8.8,11.44a16,16,0,0,0,1.73,5.53c.28.64.57,1.29.83,1.93,1.75,4.32,1.76,8.1,0,10.93a14.31,14.31,0,0,1-3.45,3.56c-1.19,1-2.22,1.8-2.37,2.66-.25,1.45.82,2.47,3.32,4.46,2.74,2.19,6.48,5.18,5.39,10.44a19.77,19.77,0,0,1-2.37,5.6c-.36.64-.72,1.28-1,1.94-1,2-1.13,3.69-.49,4.66.81,1.22,2.69,1.38,5.68,1.49s6.48.24,9.14,2.53,3.22,5.49,3.74,8.13l.16.79c.52,2.49,1.44,4.11,2.53,4.43s2.78-.4,4.41-1.11c2.7-1.17,6.06-2.62,9.27-.42,2,1.39,3.14,3.86,3.26,7.34l0,.89a7.94,7.94,0,0,0,.55,3.57c.35.6,3,.78,4.15.86a21,21,0,0,1,3.12.37l13.17,3c4.06.93,8.52,1.58,10.88-.68,1.38-1.31,2.06-3.57,2.77-6,1.1-3.65,2.34-7.79,6.6-9.47,5-2,9.46,1.4,13,4.12s5.76,4.23,7.82,3.38c2.46-1,2.89-5.24,3-8.81.2-7.42,2.88-12.08,7.56-13.12s8.16,2.3,11,5c2.14,2.05,4.13,4,6.17,3.84,1.67-.14,3.31-1.75,5.06-3.45,2.42-2.38,5.44-5.33,9.7-4.64,2.61.43,4.41,2.09,6,3.55a8.07,8.07,0,0,0,3.18,2.21c1.54.33,3.1-.89,5.48-2.92s5.14-4.4,8.81-4.45h.12c5.29,0,8.1,4.4,10.59,8.28,1.93,3,3.74,5.84,6.17,6,2,.15,3.67-1.14,5.66-2.61a18.75,18.75,0,0,1,5.9-3.3c8.28-2.31,11.8,4.55,14.38,9.56,2.13,4.17,3.6,6.7,5.9,6.79a6.28,6.28,0,0,0,2.56-.75,10.53,10.53,0,0,1,5.21-1.12c4,.4,6.33,4,7.23,7.16.29,1,.48,2,.67,3.07a15.81,15.81,0,0,0,1,3.91c.58,1.23,2,2.18,2.68,1.88.42-.18,1.15-.95,1.39-4.06.33-4.21,5.12-14.1,10.8-16.58a6.63,6.63,0,0,1,7,.87c2.8,2.21,3.72,5.65,4.39,8.16,1.24,4.67,2.78,10.48,1.49,16.13-.11.48-.24,1-.37,1.43a8.57,8.57,0,0,0-.49,3,1.47,1.47,0,0,0,.33.7,4.14,4.14,0,0,0,.43-.88c.61-1.6,1.78-3.63,3.9-4.19A4.13,4.13,0,0,1,578.37,597.32Z"
	/>
	<path
		class="tree-cls-7"
		d="M732.38,433.39c-.55,3.41-4.14,5.28-7.18,6.89s-6.3,4.46-5.53,7.83c.66,3,4.54,5.16,3.88,8.17-.47,2.12-3.07,3.14-5.2,2.81s-4-1.68-5.93-2.67-4.24-1.68-6.22-.77c-2.78,1.25-3.4,4.8-3.77,7.8s-1.32,6.59-4.21,7.51c-3.29,1-6.22-2.24-8.2-5.06s-5.09-6-8.31-4.76c-3.92,1.47-3.41,7.69-6.74,10.22-2.74,2.12-6.7.77-9.92-.59s-7.25-2.56-9.85-.22-1.72,6.89.33,9.81,5,5.31,6.26,8.64a9.85,9.85,0,0,1-10,13.33,35.66,35.66,0,0,0-4.47-.55c-1.46,0-3.11.81-3.51,2.27-.55,2,1.43,3.7,2.2,5.6,1.17,2.89-.85,6.41-3.77,7.51s-6.3.11-8.75-1.83a20.74,20.74,0,0,1-5.39-7.55c-3.55-.8-7,1.83-9.48,4.51s-5.27,5.71-8.93,6a9.36,9.36,0,0,1-7.25-3.18c-2.49-2.6-4.28-7.51-8.86-5.86-2.08.77-3.66,2.52-5.27,4s-3.7,2.92-5.93,2.74c-3.18-.33-5-3.66-7.54-5.71a11,11,0,0,0-15.3,2.16c-1.8,2.6-2.31,5.89-4,8.6s-5.34,4.73-7.9,2.93c-2.27-1.61-2.49-5.34-5-6.44s-5.35,1.39-6.41,4-1.46,5.64-3.51,7.58c-3.26,3.07-9,1.28-11.61-2.38s-2.85-8.39-3-12.85c-.26-5.93-.44-12.12,2-17.5,1.35-3,3.59-6.12,2.74-9.34-.76-2.89-3.73-4.57-6.51-5.71s-5.9-2.16-7.47-4.68c.07-1.94-2.12-2.93-3.92-3.55a13.35,13.35,0,0,0-5.67-.37c-6.08.48-12.16.95-18.23,1.46-3.63.3-7.4.63-10.47,2.53-2.89,1.79-4.87,4.87-7.87,6.48-5.53,3-13.44-.62-14.72-6.77-.66-3.19.18-6.7-1.28-9.59-2.2-4.43-8.53-5.17-11.46-9.19-3.33-4.62-.7-11.21-2.23-16.7a14.62,14.62,0,0,0-2.57-4.87C426.84,431.45,421,428,419,422.34c-3.11-9,5.09-19.11,1.91-28.12-1.25-3.47-4.07-6.15-6.89-8.56s-5.85-4.69-7.79-7.87c-3.26-5.28-2.49-12.56-.08-18s8.2-8.23,13.36-11,10.29-6.11,11.87-11.6c1.42-5,.36-12.16,5.27-13.84,4.21-1.43,7.91,3.11,12.15,4.28,9.74,2.67,18-12.48,27.57-9.37,6.51,2.12,8.42,11.53,14.93,13.62,4.54,1.46,9.85-1.21,14.14.91,7.21,3.56,4.83,16.95,12.44,19.66,5.38,1.91,10.69-3.66,16.44-3.66,8,0,12,10.14,19.4,13.22,13.14,5.53,27-13.44,40.38-8.53,5.49,2,8.75,7.43,12.52,11.9s9.74,8.45,15.08,6.15,6.67-8.94,10.47-13.15c6-6.59,18.57-4.72,22.37,3.3,2.35,4.9,11.5,3.22,15.45,1.43a25.43,25.43,0,0,1,4.65-2.05c1.68-.37,3.73.14,4.39,1.72s-.25,3.58.66,5.09c1.21,2,4.32,1,6-.63s3.33-3.77,5.68-3.66c1.79.08,3.22,1.61,4.17,3.15s1.72,3.33,3.19,4.39,3.58,1.39,5.49,1.58,4,.47,5.45,1.65c3.22,2.59,0,9.4-.91,12.55-.15.55-.3,1.1-.41,1.69-.69,3.25-.66,6.84,1.65,9.18,3.48,3.56,10.25,2.13,13.36,6.05,1.91,2.37,1.61,5.82.92,8.78-.55,2.42-1.87,6-1.17,8.53.8,2.71,3.84,3.7,5.89,5.42S732.82,430.8,732.38,433.39Z"
	/>
	<path
		class="tree-cls-8"
		d="M732.38,433.39c-.55,3.41-4.14,5.28-7.18,6.89s-6.3,4.46-5.53,7.83c.66,3,4.54,5.16,3.88,8.17-.47,2.12-3.07,3.14-5.2,2.81s-4-1.68-5.93-2.67-4.24-1.68-6.22-.77c-2.78,1.25-3.4,4.8-3.77,7.8s-1.32,6.59-4.21,7.51c-3.29,1-6.22-2.24-8.2-5.06s-5.09-6-8.31-4.76c-3.92,1.47-3.41,7.69-6.74,10.22-2.74,2.12-6.7.77-9.92-.59s-7.25-2.56-9.85-.22-1.72,6.89.33,9.81,5,5.31,6.26,8.64a9.85,9.85,0,0,1-10,13.33,35.66,35.66,0,0,0-4.47-.55c-1.46,0-3.11.81-3.51,2.27-.55,2,1.43,3.7,2.2,5.6,1.17,2.89-.85,6.41-3.77,7.51s-6.3.11-8.75-1.83a20.74,20.74,0,0,1-5.39-7.55c-3.55-.8-7,1.83-9.48,4.51s-5.27,5.71-8.93,6a9.36,9.36,0,0,1-7.25-3.18c-2.49-2.6-4.28-7.51-8.86-5.86-2.08.77-3.66,2.52-5.27,4s-3.7,2.92-5.93,2.74c-3.18-.33-5-3.66-7.54-5.71a11,11,0,0,0-15.3,2.16c-1.8,2.6-2.31,5.89-4,8.6s-5.34,4.73-7.9,2.93c-2.27-1.61-2.49-5.34-5-6.44s-5.35,1.39-6.41,4-1.46,5.64-3.51,7.58c-3.26,3.07-9,1.28-11.61-2.38s-2.85-8.39-3-12.85c-.26-5.93-.44-12.12,2-17.5,1.35-3,3.59-6.12,2.74-9.34-.76-2.89-3.73-4.57-6.51-5.71s-5.9-2.16-7.47-4.68c.07-1.94-2.12-2.93-3.92-3.55a13.35,13.35,0,0,0-5.67-.37c-6.08.48-12.16.95-18.23,1.46-3.63.3-7.4.63-10.47,2.53-2.89,1.79-4.87,4.87-7.87,6.48-5.53,3-13.44-.62-14.72-6.77-.66-3.19.18-6.7-1.28-9.59-2.2-4.43-8.53-5.17-11.46-9.19-3.33-4.62-.7-11.21-2.23-16.7a14.62,14.62,0,0,0-2.57-4.87c.41-.22.77-.47,1.18-.73a23.68,23.68,0,0,1,24.63-.91c3.19,1.86,6,4.5,9.63,5.38,6.55,1.65,12.81-3.08,18.45-6.81s13.8-6.48,18.71-1.79c4.61,4.42,3.88,13.65,9.92,15.81,3.95,1.39,8-1.46,12-2.71a16.7,16.7,0,0,1,15.15,2.82c4.14,3.33,7.11,10.07,7.51,15.38s-3.7,11.34.36,16c4.29,4.87,12.31,1.09,18.68,2.27,7.65,1.39,13.21,10.14,20.9,9.22,5.71-.66,9.3-6.4,11.79-11.6s5.3-11.13,10.8-12.85c5.23-1.61,10.61,1.21,15.77,3s12.2,1.76,14.68-3.07c3.34-6.52-5-14.28-2.59-21.2,1.64-4.79,7.76-6.55,12.7-5.56s9.26,3.91,14,5.78,10.54,2.49,14.42-.73c5-4.21,5.31-13.66,11.68-15.16,3.48-.8,6.84,1.36,10.1,2.75s7.87,1.72,9.59-1.39c1.4-2.49-.14-5.71-2.3-7.54s-4.94-2.82-7.21-4.51c-6.3-4.68-7.4-14.93-2.24-20.83a43.84,43.84,0,0,1,9.7-8.45c-.69,3.25-.66,6.84,1.65,9.18,3.48,3.56,10.25,2.13,13.36,6.05,1.91,2.37,1.61,5.82.92,8.78-.55,2.42-1.87,6-1.17,8.53.8,2.71,3.84,3.7,5.89,5.42S732.82,430.8,732.38,433.39Z"
	/>
	<path
		class="tree-cls-6"
		d="M528.58,533.35a9.45,9.45,0,0,1-1.05-.05,12.25,12.25,0,0,1-8.55-5c-3.11-4.42-3.34-9.9-3.53-14.3-.25-5.91-.54-12.6,2.23-18.69.3-.67.64-1.34,1-2,1.05-2.05,2-4,1.63-5.55s-2-2.71-4.95-3.9l-.63-.25c-2.88-1.14-6.15-2.44-8.1-5.51l-.45-.7,0-.84c0,.12-.37-.3-2.13-.93a11.52,11.52,0,0,0-4.58-.2l-18.24,1.45c-3.11.25-6.65.53-9.24,2.14a21.11,21.11,0,0,0-3.25,2.76,22.14,22.14,0,0,1-4.77,3.81A13.23,13.23,0,0,1,445.38,477a23,23,0,0,1-.37-4.38,11,11,0,0,0-.66-4.57c-.82-1.63-2.69-2.66-4.85-3.85s-4.69-2.59-6.39-4.94c-2.49-3.46-2.37-7.58-2.27-11.22a21.81,21.81,0,0,0-.39-6.32c-.89-3.18-3.53-5.71-6.33-8.39-3-2.89-6.14-5.87-7.59-10.1-1.81-5.26-.43-10.49.91-15.55,1.19-4.52,2.32-8.79,1-12.52-1-2.88-3.52-5.28-6.08-7.44l-1-.87c-2.64-2.21-5.37-4.49-7.31-7.62-4-6.46-2.75-14.83-.26-20.52,2.62-6,8.32-9,13.35-11.6l1.2-.64c4.5-2.38,9.26-5.43,10.56-10a29.08,29.08,0,0,0,.74-4.35c.53-4.25,1.18-9.54,6.25-11.26,3.79-1.31,7.13.69,9.8,2.29a17.75,17.75,0,0,0,3.92,1.94c3.63,1,7.44-1.63,11.48-4.4,4.73-3.25,10.09-6.94,16.17-5,4.09,1.33,6.6,4.75,8.81,7.78,1.9,2.6,3.7,5.06,6.15,5.85a14.79,14.79,0,0,0,5.56.13c2.79-.26,5.94-.55,8.91.92,4.55,2.25,6,7.15,7.36,11.46s2.35,7.21,4.79,8.08c2.07.73,4.47-.31,7.24-1.52,2.48-1.07,5.28-2.29,8.32-2.29h0c5.72,0,9.67,4,13.16,7.6,2.38,2.44,4.63,4.73,7.27,5.84,5.49,2.31,11.6-.79,18.06-4.07,7.13-3.62,14.5-7.35,22.2-4.52,5.07,1.86,8.29,6,11.41,9.94.74.93,1.47,1.86,2.22,2.76,3,3.57,8,7.14,12,5.42,2.44-1,3.89-3.6,5.56-6.57a31.85,31.85,0,0,1,4-5.95,17,17,0,0,1,26.75,4c1.23,2.58,8.09,1.86,12,.13.45-.2.89-.43,1.33-.66a15.19,15.19,0,0,1,3.85-1.57c2.71-.59,6.13.34,7.39,3.27a7.66,7.66,0,0,1,.46,3.6c0,.29,0,.71,0,1a3.8,3.8,0,0,0,1.95-1c.27-.25.53-.52.8-.79,1.57-1.59,3.76-3.7,6.84-3.61,1.7.08,4.17.91,6.33,4.43.23.36.44.73.66,1.11a8.72,8.72,0,0,0,1.86,2.55c1,.73,2.59.89,4.15,1.05,1.86.18,4.66.47,6.85,2.22,4.15,3.32,2,9.47.61,13.54-.24.68-.46,1.3-.6,1.81-.64,2.23-1.42,6.27.55,8.27,1.14,1.16,3.14,1.61,5.25,2.09,2.87.66,6.11,1.4,8.31,4.14,3.09,3.87,1.84,9.3,1.43,11.08-.12.52-.27,1.1-.44,1.7-.47,1.78-1.12,4.21-.76,5.49.25.85,1.19,1.5,2.7,2.46a20.28,20.28,0,0,1,2.34,1.64c3.2,2.69,4.73,6.09,4.21,9.33-.74,4.63-5.12,7-8.32,8.69-2.41,1.29-4.82,3.27-4.43,5a7.9,7.9,0,0,0,1.52,2.48c1.26,1.65,3,3.91,2.37,6.87-.8,3.71-4.91,5.4-8.24,4.85a16.89,16.89,0,0,1-5.39-2.19c-.43-.25-.87-.49-1.31-.72-1.67-.86-3.06-1.12-3.91-.73-1.42.64-1.91,3.13-2.22,5.72-.67,5.4-2.71,8.66-6.07,9.7-3.79,1.15-7.54-.88-11.18-6.06-1.54-2.2-3.71-4.34-5.18-3.79-.93.35-1.46,1.62-2.23,3.68s-1.69,4.53-3.82,6.16c-4.27,3.26-9.88.88-12.58-.27-3.5-1.49-5.87-1.72-7-.68-1.39,1.26-.71,4.25.72,6.3A35.36,35.36,0,0,0,660,481.6a21.71,21.71,0,0,1,4.35,6.46A12.5,12.5,0,0,1,651.58,505c-.67-.06-1.34-.17-2-.28a9.48,9.48,0,0,0-2.12-.25,1.76,1.76,0,0,0-1.08.37,10,10,0,0,0,.87,1.55,13.36,13.36,0,0,1,1.25,2.29,7.79,7.79,0,0,1-.2,6.11,9.27,9.27,0,0,1-5.1,4.88,11.85,11.85,0,0,1-11.35-2.23,20.77,20.77,0,0,1-5.44-7.08c-1.65.18-3.62,1.45-5.85,3.79l-.39.42c-2.57,2.69-5.76,6.05-10.24,6.42a11.79,11.79,0,0,1-9.41-4,23.87,23.87,0,0,1-1.9-2.38c-2.09-2.84-2.75-3.29-4.11-2.8a11.31,11.31,0,0,0-3.51,2.65l-.87.83c-2.75,2.55-5.36,3.67-8,3.42-3.23-.3-5.37-2.57-7.09-4.4a19.51,19.51,0,0,0-1.9-1.87,8.28,8.28,0,0,0-11.41,1.6,18.55,18.55,0,0,0-1.86,4,25.66,25.66,0,0,1-2,4.47,10.37,10.37,0,0,1-6.43,4.74,6.58,6.58,0,0,1-5.28-1,10.44,10.44,0,0,1-3.11-4.08c-.47-.93-1-1.88-1.45-2.1a.69.69,0,0,0-.62,0,4.88,4.88,0,0,0-2.24,2.53c-.28.69-.51,1.41-.75,2.13-.68,2.13-1.45,4.53-3.41,6.37A8.56,8.56,0,0,1,528.58,533.35Zm-17.12-57.66c1.13,1.32,3.12,2.11,5.22,2.94l.65.26c2.95,1.19,7,3.26,8.12,7.49.93,3.53-.65,6.61-2,9.33-.3.6-.61,1.2-.88,1.79-2.23,4.93-2,10.95-1.75,16.27.2,4.71.51,8.54,2.56,11.45a7,7,0,0,0,4.74,2.77,3.54,3.54,0,0,0,2.84-.81c1-.9,1.43-2.39,2-4.12.27-.85.55-1.71.89-2.53a10.05,10.05,0,0,1,5.18-5.45,6,6,0,0,1,4.77,0c2.22,1,3.23,3,4,4.55a6.27,6.27,0,0,0,1.42,2.14,1.31,1.31,0,0,0,1.12.16,5.14,5.14,0,0,0,3-2.29,21.23,21.23,0,0,0,1.6-3.59,23.63,23.63,0,0,1,2.45-5.11,13.58,13.58,0,0,1,19.2-2.7,25.38,25.38,0,0,1,2.4,2.34c1.33,1.41,2.48,2.63,3.7,2.74,1,.11,2.29-.58,3.84-2l.81-.77a15.56,15.56,0,0,1,5.4-3.82c5.37-1.93,8.4,2.2,10.21,4.67a20.8,20.8,0,0,0,1.47,1.86,6.75,6.75,0,0,0,5.1,2.37c2.46-.2,4.67-2.53,6.81-4.78l.4-.42c1.55-1.62,6.26-6.57,12-5.26l1.28.29.55,1.19c1.47,3.18,2.89,5.21,4.61,6.58a6.62,6.62,0,0,0,6.16,1.4,3.89,3.89,0,0,0,2.09-2,2.59,2.59,0,0,0,.13-2,8.86,8.86,0,0,0-.8-1.41c-.91-1.45-2.16-3.42-1.49-5.88.77-2.8,3.57-4.14,6-4.23a14.67,14.67,0,0,1,3.23.32c.51.09,1,.18,1.53.22a7.16,7.16,0,0,0,7.29-9.69,17.49,17.49,0,0,0-3.38-4.87,38.16,38.16,0,0,1-2.59-3.21c-2.82-4-3.7-9.9.08-13.31,4.27-3.84,10.6-1.15,12.69-.27,2.69,1.15,5.66,2.16,7.25.94.91-.69,1.47-2.2,2.06-3.79.93-2.48,2.09-5.57,5.35-6.8,2.19-.83,6.58-1.19,11.43,5.71,2.1,3,4,4.42,5.24,4s2-2.22,2.34-5.25c.34-2.78,1-8,5.3-9.93,2.44-1.11,5.32-.82,8.57.85.49.25,1,.53,1.47.8a12.21,12.21,0,0,0,3.66,1.58c1,.18,2.07-.32,2.15-.71s-.65-1.53-1.38-2.49a11.91,11.91,0,0,1-2.5-4.55c-.9-4,1.61-7.92,6.9-10.75,2.68-1.44,5.47-2.94,5.8-4.95.25-1.56-1.07-3.3-2.38-4.41a16.26,16.26,0,0,0-1.77-1.22c-1.84-1.17-4.14-2.63-5-5.49-.78-2.7.06-5.83.73-8.34.15-.54.28-1,.39-1.52.73-3.16.6-5.3-.4-6.55s-3-1.74-5.32-2.26c-2.65-.61-5.65-1.29-7.87-3.56-2.91-3-3.56-7.62-1.88-13.48.17-.59.41-1.3.69-2.09.69-2,2.3-6.66,1.1-7.63-.89-.71-2.36-.91-4.05-1.07-2.08-.21-4.67-.47-6.83-2.1a12.74,12.74,0,0,1-3.28-4.16c-.18-.32-.37-.65-.57-1-.7-1.14-1.48-1.87-2-1.89-.75-.17-1.84,1.06-2.8,2-.31.31-.61.62-.92.91a8.46,8.46,0,0,1-6.49,2.38,4.92,4.92,0,0,1-3.65-2.32,6.82,6.82,0,0,1-.79-4.18,5.2,5.2,0,0,0,0-1.23,1.87,1.87,0,0,0-1.37-.17,11.1,11.1,0,0,0-2.51,1.07c-.54.28-1.07.56-1.62.81-4.56,2.05-15.66,4.21-19-2.71a11.67,11.67,0,0,0-18-2.68,27.17,27.17,0,0,0-3.27,5c-1.88,3.33-4,7.11-8.12,8.86-6.71,2.86-13.79-1.69-18.19-6.9-.79-.93-1.56-1.91-2.33-2.9-2.78-3.54-5.41-6.89-9.06-8.23-5.52-2-11.55,1-17.94,4.27-7.27,3.69-14.78,7.5-22.55,4.24-3.63-1.52-6.37-4.32-9-7-3.15-3.21-5.87-6-9.36-6h0c-1.93,0-4,.9-6.19,1.85-3.33,1.45-7.09,3.09-11.14,1.65-5.16-1.82-6.74-7-8.12-11.54-1.1-3.61-2.14-7-4.62-8.24-1.61-.8-3.67-.61-6-.39a18.86,18.86,0,0,1-7.69-.36c-4.1-1.32-6.61-4.75-8.83-7.78-1.9-2.6-3.7-5.06-6.14-5.85-3.59-1.16-7.43,1.48-11.51,4.27-4.64,3.19-9.89,6.8-15.9,5.15a21.34,21.34,0,0,1-5.25-2.5c-2.42-1.45-4-2.29-5.35-1.83-1.77.61-2.19,3-2.67,6.88a33.25,33.25,0,0,1-.91,5.15c-1.85,6.49-7.7,10.34-13.19,13.25l-1.22.65c-4.46,2.34-9.08,4.76-10.94,9s-3,10.87-.09,15.57c1.49,2.4,3.77,4.31,6.2,6.34l1.05.89c3.12,2.64,6.21,5.65,7.66,9.71,1.88,5.29.49,10.57-.86,15.68-1.18,4.49-2.3,8.73-1,12.45,1,3,3.57,5.43,6.24,8,3.19,3.06,6.5,6.22,7.78,10.81a26.2,26.2,0,0,1,.58,7.9c-.09,3.2-.17,6,1.27,7.94,1,1.39,2.76,2.36,4.64,3.4,2.57,1.42,5.48,3,7,6.13a15.43,15.43,0,0,1,1.23,6.87,18.68,18.68,0,0,0,.25,3.38,7.92,7.92,0,0,0,10.83,5,18,18,0,0,0,3.63-3,25.13,25.13,0,0,1,4.13-3.44c3.69-2.3,8.1-2.65,11.64-2.94l18.24-1.45a15.94,15.94,0,0,1,6.79.5C507.17,471.05,510.91,472.39,511.46,475.69Z"
	/>
	<path
		class="tree-cls-8"
		d="M627.38,565.48c1,1.43.88,3.37.66,5.12-.22,2-.44,4.14-.66,6.19-.22,1.87-.47,3.85-1.65,5.31-2.48,3.11-6.62-.44-9.07,3.55-2.16,3.48,1.31,8.68-1.21,11.86-1.94,2.42-5.75,1.69-8.61.48s-6.15-2.71-8.82-1.17c-3.62,2.08-2.82,7.5-4.57,11.31-1.91,4.13-6.12,6-10.07,3.18a9.06,9.06,0,0,1-3.55-5.12c-.33-1.72,1.28-4.43-.15-5.64-1.9-1.61-3.18.59-3.77,2.05a3.84,3.84,0,0,1-2.27,2.64c-1.76.47-3.4-1.32-3.62-3.12s.51-3.51.91-5.27c1.1-4.9-.18-10-1.46-14.86-.66-2.49-1.47-5.16-3.48-6.77-5.86-4.62-13.18,9.33-13.55,13.84-.18,2.45-.73,5.34-3,6.29s-5.05-.88-6.15-3.18-1.17-4.95-1.87-7.4-2.41-5-4.94-5.23-5,2-7.62,1.9c-8.89-.37-8.2-19.62-19.43-16.47C505,566.25,502,571.3,497,571c-7.65-.48-9-14.35-16.69-14.28-5.72.08-9.27,8.5-14.87,7.32-3.55-.73-5.49-5.16-9-5.74-5.56-.88-8.53,7.68-14.13,8.12-6.55.52-10.32-10.28-16.77-8.86-4.17.92-5.34,6.3-5.45,10.58s-.66,9.6-4.65,11.21c-7.21,3-13.62-10.36-20.87-7.51-5.49,2.2-4.25,10.84-8.49,14.9-3.37,3.22-8.79,2.42-13.33,1.36s-8.78-2-13.18-3c-2.56-.59-7.46.07-9-2.45-1-1.73-.87-3.78-.95-5.75s-.47-4.14-2.08-5.24c-3.78-2.52-8.61,3.22-13,1.91-2.6-.77-3.81-3.77-4.36-6.45s-1-5.67-3-7.43c-4.17-3.59-12.26,0-15.3-4.57-1.39-2.13-.81-5,.29-7.29s2.71-4.43,3.22-6.92c1.28-6.26-7.28-7.94-8.6-12.67,5.86-2.85,13.14-2.92,18.49.88,3.22,2.31,5.89,5.71,9.74,6.52,6.33,1.35,11.71-4.94,18.08-6.08,10.73-1.9,19.73,11.13,30.57,9.67,5.71-.81,10.07-5.46,13.29-10.22s6-10.06,10.72-13.43,12.08-3.88,15.6.69c-.77-7.43-1.39-15.52,2.56-21.85s14.54-8.79,18.78-2.64c2.93,4.29,1.43,10,.77,15.16s.73,11.79,5.82,12.88c4.58,1,8.9-3.44,13.55-2.92,5.05.58,7.54,6.4,8.53,11.42s1.86,10.8,6.29,13.32c8.2,4.69,17.32-6.92,26.76-6,10.36,1,15,16.29,25.48,16.73,9.56.44,17.54-12.41,26.4-8.75,4.57,1.91,6.33,7.33,8.46,11.83s6.55,9.19,11.23,7.58c5.64-1.94,5.5-10.77,10.55-13.95,4.46-2.78,10.28.29,14.13,3.92s7.65,8.09,12.88,8.49a11.07,11.07,0,0,0,6.81-1.9,3,3,0,0,0,.26,1.9C623.54,563.25,626.14,563.72,627.38,565.48Z"
	/>
	<path
		class="tree-cls-4"
		d="M530.73,792.77c.69-7.42-3.35-12.35-5.89-18.63-2.73-6.76-2.93-14.8-3.32-22-.88-16.29.37-32.61-.53-48.9-1.2-21.7-6.15-43-11.09-64.15-5.75-24.66-11.53-49.54-11.95-74.86-.71-42.51,16.6-81.16,31.13-120.21a458.57,458.57,0,0,0,18.46-63.2c2.3-10.71,3.34-21.78,5.86-32.42,1.54-6.49,5.34-11.59,8.3-17.49-7.91-6-23-7.42-32.62-9.13-1.56,57.5-21.08,105-48.15,155C451.06,532,431.72,592.7,447.43,655.68c4.05,16.23,10.19,31.91,13.44,48.32,3.09,15.65,1.93,29.3-2.22,44.49-3.68,13.47-11.26,27.07-12.85,41-3.28,29,46.29,20.88,62,19,8.22-1,17.58-3.13,21.38-10.49A14.13,14.13,0,0,0,530.73,792.77Z"
	/>
	<path
		class="tree-cls-9"
		d="M511.06,418.92c-6.2,42.32-25.74,81.35-45,119.54l-11.56,22.91c-.83,1.64-1.77,3.4-3.45,4.13s-4.17-.38-4-2.2L463,513.16l34.74-67.33Z"
	/>
	<path
		class="tree-cls-4"
		d="M453.61,643.39c-.12.22-3.77-1.48-4.09-1.88-1-1.22-.8-3.46-1-5-.55-4.25-1.17-8.5-2.06-12.69-1.7-8-4.36-15.88-9.14-22.58C432,593.72,424.13,588,420,579.66c-5.23-10.5-3.73-23.52-9.52-33.73-4.39-7.72-12.4-12.73-20.66-16s-17-5.07-25.32-8.25a82.87,82.87,0,0,1-39.93-32.6c-4-6.25-7.19-13.56-6-20.88,11.56,7.53,18.14,20.53,29.44,29.09A88.81,88.81,0,0,0,385.55,514c8.72,1.58,17.89,1.92,25.78,6,8.46,4.31,14.33,12.29,19.89,20l39.37,54.49C466.92,610.35,461.83,629.29,453.61,643.39Z"
	/>
	<path
		class="tree-cls-4"
		d="M559.05,437.58a99.35,99.35,0,0,0,64.15,31c0,.72.5,1.36.49,2.07a144.56,144.56,0,0,1-76.37-28.88C550.31,438.42,554.72,436.44,559.05,437.58Z"
	/>
	<path
		class="tree-cls-9"
		d="M442.86,617l14.26,47.82c5.94,19.93,11.93,40.18,12.23,61s-5.85,42.6-21,56.91c15.38-26.88,17.62-59.82,10.85-90C453.61,667.56,439.34,642.56,442.86,617Z"
	/>
	<path
		class="tree-cls-4"
		d="M536.68,432.84c5.93-1.1,8.15-5.63,12.8-8.3,4.82-2.78,11.68-3.86,17-5.1,11.51-2.65,23.27-3.95,34.87-6.09,9.9-1.82,19.77-4.34,28.93-8.56a67.1,67.1,0,0,0,13-7.72,20.8,20.8,0,0,0,4.13-4.09c1.13-1.49,1.87-3.93,4.46-2.9,3.07,1.22,2.54,5.78,1,8.69-6.63,12.42-20.84,18.68-34.48,22.14s-28.07,5.17-40.21,12.29c-8.73,5.12-15.85,12.82-25,17.17-7.85,3.74-17,4.92-23.91,10.17-6.3,4.78-9.85,12.24-13.75,19.12S506.62,493.53,499.1,496a318.68,318.68,0,0,1,13-54.94c1-3,2.09-6.08,4.11-8.53,2.61-3.15,5.26-4.13,8.61-2.16C528.53,432.57,532.26,433.66,536.68,432.84Z"
	/>
	<path
		class="tree-cls-10"
		d="M535.24,389.83,522.59,433c-.8,2.72-1.56,5.79-.16,8.25,2.05,3.61,7.17,3.57,11.28,3.07a144.86,144.86,0,0,0-45.53,93.29c-.81,9.49-.75,19.35-4.72,28-2,4.39-6.47,10.56-11.5,11.62s-11-2.1-14.09,3.9c-1.57,3.08-.4,7,1.79,9.64s5.24,4.47,8,6.48c19.69,14.14,27.92,39.68,29.43,63.87s-2.44,48.44-1.32,72.66c.39,8.57.95,17.35,1.72,25.86.82,9.17,3.52,16.56-1,25.48a28.71,28.71,0,0,1-21.19,15.28c-10,1.44-19.95-2.52-28.67-7.56-1.61,4.25,1,9,4.74,11.63s8.37,3.45,12.88,4a145.6,145.6,0,0,0,42.25-1.22c7.4-1.31,15.31-3.6,19.73-9.67,3.63-5,4.16-11.69,2.83-17.71s-4.31-11.52-7.26-16.93c2.77-36.25-.62-70.89-7.69-106.55-5-25-12.3-49.52-14.78-74.85a198.32,198.32,0,0,1,23-113.14c3.84-7.08,13.32-12.24,20.63-15.21,6.51-2.65,14-3.59,20.57-1,3.62,1.41,6.76,3.79,10.15,5.69s7.29,3.35,11.11,2.64c-1.59-1.42-19.47-16.57-18.32-17.86,10.28-11.45,26.86-15.77,41.78-19.54s30.81-8.31,40.67-20.12c-2.38-1.11-4.8-1.95-7.18-3.07-19.12,4-38.37,10.09-57.49,14.08-17.2,3.6-35,7.44-49.2,17.74,4.07-11.79,7.73-24.11,11.81-35.9C543.39,393.78,538.77,391.84,535.24,389.83Z"
	/>
	<path
		class="tree-cls-4"
		d="M412.16,529.7c-13.53,15.59-34.61,23.59-55.16,21.78-.48-.9.15-1.41-.33-2.31a57.35,57.35,0,0,0,43.88-20.78C403.71,528.7,409,529.39,412.16,529.7Z"
	/>
	<path
		class="tree-cls-4"
		d="M426.26,535.45c-3.28,1.15-6.77-.8-9.7-2.67-4.87-3.09-9.37-6.32-12.59-11.18s-3.61-10.56-3.42-16.14c.18-5.25.94-10.48.72-15.72a43,43,0,0,0-5.74-19.57,23.85,23.85,0,0,0-6-7.35c-.88-.66-5.71-4.66-5.1-6,.77-1.69,4,.7,5,1.3a42.43,42.43,0,0,1,6.5,4.72c6.54,5.91,9.16,15.1,10.89,23.44,3.6,17.35,9.19,34.94,20.22,49.19"
	/>
	<path
		class="tree-cls-9"
		d="M412.67,513a64.57,64.57,0,0,0,34.19,50.11,75.6,75.6,0,0,0-17.64-27.68c-3.3-3.29-6.91-6.29-9.88-9.88S412.85,517.65,412.67,513Z"
	/>
	<path
		class="tree-cls-11"
		d="M478.68,813.66c-11.9,0-23.88-1.81-30.47-8.3-4.11-4.06-5.81-9.48-5.06-16.12,1-8.93,4.35-17.64,7.58-26.06a162.38,162.38,0,0,0,5.34-15.39c4.36-16,5-28.91,2.18-43.27a281,281,0,0,0-7.52-27.79c-2.05-6.64-4.17-13.51-5.89-20.4a192,192,0,0,1-5.67-46.57,44.15,44.15,0,0,0-4-7,83.87,83.87,0,0,0-7.08-8.28c-3.84-4.12-7.82-8.38-10.45-13.67s-3.69-11.28-4.67-17c-1-6-2-11.7-4.78-16.61a26.41,26.41,0,0,0-4.75-6,69.68,69.68,0,0,1-46.66,12.85,2.63,2.63,0,0,1-2.12-1.4,4.33,4.33,0,0,1-.46-2.62,2.62,2.62,0,0,1,.21-2.31,2.66,2.66,0,0,1,2.28-1.29s.07,0,.1,0a54.54,54.54,0,0,0,34.9-12.89q-1.4-.63-2.82-1.2c-4.14-1.63-8.54-2.93-12.8-4.19s-8.37-2.47-12.49-4.05a85.41,85.41,0,0,1-41.23-33.65c-5.4-8.48-7.49-15.92-6.41-22.74a2.66,2.66,0,0,1,1.55-2A2.7,2.7,0,0,1,320,466c6.46,4.21,11.44,10,16.24,15.65,4.08,4.77,8.29,9.71,13.35,13.54A86.07,86.07,0,0,0,386,511.4c2.16.39,4.34.71,6.53,1,1.87.26,3.77.54,5.68.86a44.65,44.65,0,0,1-.36-7.92c.07-2,.22-4,.37-6a81.52,81.52,0,0,0,.36-9.55,40.16,40.16,0,0,0-5.39-18.35A21.6,21.6,0,0,0,388,465c-5-3.77-7-6.87-5.93-9.23a3.59,3.59,0,0,1,2.29-2c2.06-.61,4.17.6,6.16,1.89l.38.23a45.06,45.06,0,0,1,6.91,5c7.11,6.43,9.91,16.18,11.71,24.87,3.65,17.58,8.51,30.83,15.3,41.69a126.23,126.23,0,0,1,8.59,11L446.08,556c6.34-25.43,17-51.82,32.5-80.47,23.88-44.13,46.19-93.3,47.83-153.83a2.67,2.67,0,0,1,3.13-2.55c1.61.28,3.37.56,5.23.85,9.55,1.5,21.43,3.37,28.54,8.79a2.68,2.68,0,0,1,.77,3.32c-.9,1.8-1.88,3.53-2.86,5.25C559,341.17,557,344.8,556,349c-1.34,5.63-2.27,11.54-3.18,17.25-.78,5-1.6,10.1-2.68,15.11a459.28,459.28,0,0,1-13.4,48.75c2.66-.65,4.42-2.23,6.44-4.05a28.93,28.93,0,0,1,5-3.82c4.31-2.48,9.87-3.67,14.77-4.73l3-.66c7.21-1.66,14.6-2.81,21.74-3.92,4.36-.68,8.86-1.38,13.25-2.19,11.51-2.12,20.5-4.77,28.3-8.36A65.43,65.43,0,0,0,641.68,395a18.77,18.77,0,0,0,3.63-3.6c.18-.24.34-.5.51-.77.8-1.27,2.91-4.62,7-3h0a5.94,5.94,0,0,1,3.44,3.58c1.1,3,.1,6.63-1.08,8.85-5.93,11.12-17.77,18.79-36.18,23.47-3.39.86-6.82,1.61-10.26,2.37-10.53,2.3-20.47,4.48-29.25,9.63a100.48,100.48,0,0,0-10.63,7.56l-.13.1a96.29,96.29,0,0,0,54.63,22.74,2.67,2.67,0,0,1,2.46,2.72c0-.15,0,0,.07,0a5.35,5.35,0,0,1,.41,2,2.65,2.65,0,0,1-.87,1.92,2.71,2.71,0,0,1-2,.68,148.08,148.08,0,0,1-66.67-21.79c-.85.48-1.66.9-2.45,1.28a81.31,81.31,0,0,1-9.71,3.67c-5,1.67-9.82,3.24-13.73,6.21-5,3.79-8.12,9.44-11.44,15.43l-1.27,2.27c-9.44,25.87-18.1,53.92-17.59,83.8.42,25.14,6.25,50.13,11.88,74.29,4.89,20.95,9.94,42.61,11.15,64.61.46,8.27.37,16.64.28,24.73s-.18,16.15.25,24.18l.1,1.81c.34,6.68.69,13.57,3,19.36.64,1.58,1.41,3.13,2.15,4.63,2.22,4.45,4.51,9.05,3.92,15.25a17,17,0,0,1-1.82,6.25c-4.45,8.59-14.87,10.88-23.44,11.91l-3.12.39A209.79,209.79,0,0,1,478.68,813.66Zm-75.11-278.5a2.64,2.64,0,0,1,1.71.63,32.94,32.94,0,0,1,7.53,8.83c3.24,5.72,4.34,12.14,5.4,18.34,1,5.57,1.85,10.83,4.19,15.52s5.82,8.38,9.57,12.4a90.77,90.77,0,0,1,7.53,8.82,50.61,50.61,0,0,1,4.77,8.38,2.67,2.67,0,0,1,.24,1.11A186.6,186.6,0,0,0,450,655c1.68,6.75,3.78,13.55,5.8,20.12a281.52,281.52,0,0,1,7.66,28.33c3,15,2.27,29.11-2.26,45.71-1.45,5.31-3.51,10.69-5.51,15.89-3.1,8.11-6.32,16.5-7.26,24.75-.56,5,.58,8.83,3.5,11.72,10.23,10.09,39.77,6.32,52.38,4.72l3.15-.4c7.27-.87,16-2.69,19.34-9.06a11.53,11.53,0,0,0,1.25-4.3c.44-4.69-1.33-8.25-3.38-12.38-.79-1.59-1.61-3.23-2.32-5-2.68-6.62-3.07-14.3-3.42-21.08l-.1-1.8c-.44-8.2-.35-16.5-.26-24.53s.18-16.28-.26-24.38c-1.19-21.53-6.19-43-11-63.69-5.7-24.44-11.6-49.7-12-75.42-.52-30.81,8.35-59.5,18-85.91a2.87,2.87,0,0,1,.18-.4l1.35-2.43c3.44-6.2,7-12.62,12.88-17.09,4.62-3.5,10-5.29,15.28-7a77.87,77.87,0,0,0,9.09-3.42c1.06-.51,2.19-1.12,3.44-1.87a2.68,2.68,0,0,1,2.81,0A139.81,139.81,0,0,0,578.86,457a101.4,101.4,0,0,1-16.06-12,2.67,2.67,0,0,1,.17-4.09l2.66-2.06a106.38,106.38,0,0,1,11.21-8c9.51-5.58,20.34-7.95,30.81-10.24,3.38-.75,6.76-1.48,10.09-2.33,16.87-4.29,27.6-11.09,32.78-20.81a6.49,6.49,0,0,0,.79-4.5.67.67,0,0,0-.39-.45,9.93,9.93,0,0,0-.59.86c-.25.41-.51.81-.78,1.17a24.21,24.21,0,0,1-4.62,4.59,70.41,70.41,0,0,1-13.48,8c-8.22,3.78-17.61,6.57-29.56,8.77-4.47.82-9,1.52-13.4,2.21-7,1.09-14.34,2.23-21.36,3.85-1,.23-2,.45-3.09.68-4.52,1-9.64,2.07-13.23,4.13a24.31,24.31,0,0,0-4.06,3.17c-2.41,2.16-5.13,4.61-9.58,5.44a17.53,17.53,0,0,1-4.4.24,2.66,2.66,0,0,1-2.36-3.52,457.1,457.1,0,0,0,14.52-51.95c1.05-4.87,1.85-9.93,2.62-14.82.92-5.81,1.88-11.82,3.25-17.65,1.17-4.92,3.52-9.06,5.78-13.06.55-1,1.11-1.95,1.64-2.94-6.28-3.69-16.18-5.25-24.28-6.52l-2.3-.36c-2.32,60.23-24.58,109.19-48.36,153.16-16.43,30.35-27.33,58.09-33.34,84.8a2.67,2.67,0,0,1-4.77,1l-16.11-22.3a123,123,0,0,0-8.38-10.69,2.72,2.72,0,0,1-.29-.38c-7.19-11.44-12.32-25.31-16.12-43.63-1.09-5.26-2.56-10.92-5.2-15.71a45.35,45.35,0,0,1,4.86,18.52,85.29,85.29,0,0,1-.36,10.17c-.15,1.92-.29,3.83-.36,5.75a31.56,31.56,0,0,0,1.05,10.35,2.67,2.67,0,0,1-3.13,3.39c-3-.68-6.23-1.14-9.33-1.59-2.25-.32-4.5-.65-6.72-1.05a91.42,91.42,0,0,1-38.7-17.23c-5.52-4.18-9.93-9.34-14.18-14.32a99,99,0,0,0-11.1-11.67c.48,4.26,2.38,9,5.73,14.23a80,80,0,0,0,38.64,31.54c3.92,1.5,8.07,2.73,12.09,3.91,4.37,1.29,8.89,2.63,13.25,4.35a62.21,62.21,0,0,1,6.81,3.17,2.66,2.66,0,0,1,.59,4.25A59.89,59.89,0,0,1,382,546.1a62.88,62.88,0,0,0,19.91-10.37A2.69,2.69,0,0,1,403.57,535.16Zm-49.25,15.27Z"
	/>
	<path
		class="tree-cls-12"
		d="M797.54,362.78c-2.09,2.34-4.21,4.68-6.3,7-2.49,2.78-5.45,5.78-9.19,5.78-2.78,0-5.23-1.79-7.68-3.19s-5.61-2.34-8-.87-3.3,5.41-6.15,6.26c-1.47.44-3-.08-4.47-.55a7.18,7.18,0,0,0-4.43-.48c-2.52.88-1.75,4.87-2.27,7s-1.83,4.1-3.88,4.28c-1.65.18-3.11-.91-4.32-2a7.27,7.27,0,0,0-2.56-1.54c-.73-.33-1.39-1.25-2.23-1.36a1.47,1.47,0,0,0-1.32.74c-.26.44-.4.95-.62,1.42-.44,1.1-1.39,2.24-2.6,2.09a2.75,2.75,0,0,1-1.8-1.28c-2-2.82-3.69-3.33-7.1-2.78a14.27,14.27,0,0,0-8.38,4.54c-2.78,3.18-4,7.39-5.13,11.42s-2.41,8.27-5.23,11.35c-2.13,2.34-6.56,4.65-9.81,3.48-1.5-.55-2-2.16-2.86-3.37a18.92,18.92,0,0,0-4.1-4.8c-2.78-2.3-6.73-3.51-10-2.08-1.87.8-3.59,2.41-5.6,2.16-2.82-.37-4.06-4.07-6.81-4.8-3.19-.88-5.82,2.67-9,3.59-3.36.91-6.73-1.21-9.62-3.11s-6.56-3.81-9.74-2.42c-2,.88-3.26,2.82-4.65,4.47s-3.44,3.18-5.57,2.74a5.43,5.43,0,0,1-3.4-3c-.73-1.36-1.14-2.86-1.83-4.25A11.73,11.73,0,0,0,612,393a13.65,13.65,0,0,0-10.8,3.69c-2.45,2.49-4.28,6.23-7.91,7.18-4.39,1.13-9.11-2.82-13.36-1.17-2.74,1.1-4.1,4.13-5.42,6.81s-3.29,5.52-6.26,5.67c-2.34.11-4.39-1.54-5.63-3.51s-2-4.21-3-6.26-2.82-4-5.13-4.4-5,.81-7.1-.44c-2.42-1.46-2.12-5.09-3.7-7.46s-5.09-3-8-2.49-5.64,1.79-8.57,2.23-6.33-.22-7.87-2.75c-.8-1.35-1-3-1.46-4.46-1-2.68-2.75-4-5.71-3.74-2.09.19-4.07,1-6.15,1.28s-4.5-.25-5.57-2.08c-1.13-2-.18-4.4,0-6.66a9.75,9.75,0,0,0-8.78-10.11,43.45,43.45,0,0,0-5.64.51,7.44,7.44,0,0,1-5.38-1.17c-1.83-1.43-2.34-4-2.31-6.37.08-3,1.76-8.71-2-9.88a12.07,12.07,0,0,0-3.66-.3,6.6,6.6,0,0,1-3.55-.73,6.74,6.74,0,0,1-2.27-2.89,12.79,12.79,0,0,0-2-3.15c-1.9-1.83-5.42-.44-7.69.11a14.54,14.54,0,0,0-8.13,4.8c-1.53,1.79-2.7,4-4.83,5.09-5,2.49-11.68-3.08-16.25.07S425.08,362.3,420,364c-2,.7-4.29-.18-6.45-.4a10,10,0,0,0-8.71,3.92c-3.15,4.28.26,9.29-4.65,12.3-3.73,2.27-10.32,1.06-12.48,5.63-1.65,3.48,1.21,7.87-.48,11.35-1.9,3.88-8.23,3.92-10,7.87-1.54,3.52,1.57,7.25,2.09,11.06a8.3,8.3,0,0,1-14.5,6.55c-1.91-2.23-2.64-5.42-5-7.1-3.4-2.38-8-.51-11.82,1-3,1.2-7.69,2.27-10.4-.22s-2.05-8.72.11-11.46c1.61-2.05,3.88-3.48,5.71-5.31s3.26-4.54,2.42-7c-.48-1.54-1.72-2.68-2.67-3.92s-1.72-3-1.1-4.43c.51-1.17,1.79-1.83,2.67-2.75,2.05-2,.18-5.12-1.61-6.62a6.8,6.8,0,0,0-9.26.88c-1.43,1.72-1.91,4-3,5.93s-3.48,3.59-5.5,2.56c-2.92-1.46-1.46-6.22-3.36-8.9-1.36-1.86-4.1-2.19-6.34-1.57s-4.21,2-6.33,2.89-4.72,1.32-6.7.11c-2.86-1.72-2.56-7.36-3-10.25-2.89.73-5.93,1.47-8.82.73s-5.46-3.51-4.95-6.44c.85-4.54,7.69-5.53,9.23-9.88,1.32-3.81-2.05-8.75.62-11.79,2.12-2.38,6.85-1.69,8.16-4.61,1.07-2.42-1.17-4.91-3.14-6.63s-4.14-4.28-3-6.63,4.69-2.12,6.88-3.62c3.23-2.12,2.79-6.88,2-10.69s-.95-8.64,2.46-10.47,7.94.88,11.42-.84c2.63-1.28,3.84-4.8,6.66-5.57,3.08-.84,5.82,2,8.9,2.93,9.48,2.86,14.49-11.93,1.86-12.08-1.79,0-3.77-.29-5-1.61-2.13-2.42-.37-5.57-.33-8.27,0-3.45-1.4-6.26-3.45-8.94s-4.17-6.37-2.27-9.15a9.58,9.58,0,0,1,3.23-2.49,7.23,7.23,0,0,0,2.3-1.9c2-2.71.26-6.52-1.75-9.23-1.83-2.52-6.48-11-1.14-12.92a8.65,8.65,0,0,1,3.62-.07,4.63,4.63,0,0,0,3.52-.74c1.61-1.39,1-4.06-.29-5.78s-3-3.22-3.52-5.31a4.7,4.7,0,0,1,8.86-3,15.92,15.92,0,0,1,.84,4.06c.3,1.36,1,2.79,2.31,3.23,1.54.51,3.15-.59,4.1-1.87s1.57-2.89,2.78-4a5.64,5.64,0,0,1,.88-.7c4.06-2.67,11.17-1.35,14.68-5.23,1.94-2.16,1.9-5.13,3.52-7.32,2.56-3.48,5.74-.77,9.4-2.35,2.35-1,4-4.13,2.53-6.26-1-1.43-3.08-2.16-3.33-3.84-.33-2.49,3.33-3.37,4.72-5.46s.22-5-.91-7.28-2.09-5.38-.26-7.21c2.12-2.13,5.71-.44,8.05,1.39s5.64,3.81,8.13,2.16c3.26-2.24,1.43-8.57,5-10.29,1.72-.8,3.77,0,5.34,1s3.12,2.38,5,2.6,4.14-1.32,3.66-3.15c-1.06-4.29,2.09-9.45,6.45-10.11,4.06-.58,8.71,2.13,12.08-.29,2.71-2,2.89-6.48,5.93-8,2.63-1.36,5.78.51,8,2.53s4.54,4.43,7.5,4.39,5.17-2.45,6-5.13.55-5.56.14-8.34c-.58-4.1-.69-11,3.45-13.48a7.44,7.44,0,0,1,5.85-.51c2.93,1,2.68,3.37,4.76,5.09,1.32,1.06,3.33.51,4.61-.62s2-2.67,3.08-4,2.75-2.34,4.36-1.94c.87,3.37,1.79,6.78,2.67,10.18a3.48,3.48,0,0,0,1,2c1,.8,2.46.33,3.52-.4s2-1.65,3.26-1.8c2.23-.29,3.22,4.28,4.43,5.75,1.94,2.27,5.08,3.84,8,3,6-1.76,6.48-10,13-11.38,7.17-1.54,9.29,5.82,10.65,11.2.55,2.23,1.83,4.5,4,5.09,3.25.84,6.26-2.49,9.62-2.42,3.74.07,6.92,4.36,10.47,3.26,3.92-1.25,4.47-8,8.57-8.24,3.52-.22,5.35,4.83,8.86,5.24s6.19-4.25,9.77-4c2.53.18,4.18,2.74,4.84,5.16s.73,5.09,2,7.25c3.29,5.45,9-2,12.15,3.88,1.39,2.6,1,5.75,1,8.71s.84,6.33,3.47,7.65c3.34,1.58,7.07-1.06,9.52-3.81s5.24-6,8.9-5.85c5.31.18,9.11,7.5,14.17,6,2.23-.66,3.84-3,6.15-3,2.08,0,3.66,1.86,4.57,3.73s1.58,4,3.11,5.34c3.74,3.19,10.66.66,13.55,4.58a7.28,7.28,0,0,1,1.1,5c0,.88-.08,1.76-.11,2.6-.15,4.21,2.52,10,7.76,8.27,1.65-.55,3.26-1.9,4.9-1.43,2.49.74,2.64,4.84,5.09,5.57,2.13.58,3.92-1.76,6-2.2A5,5,0,0,1,701,197a13,13,0,0,1,2.38,4.43,19,19,0,0,0,3,5.74A5.4,5.4,0,0,0,712,209c4.9-.95,9.88-3.95,13.29,2,.84,1.43,1.42,3.37,3.07,3.77,2,.44,3.48-1.83,5.16-3,2.75-1.87,7.8,0,9.38,2.78,2.12,3.66-1.29,8.42-.52,12.3.66,3.44,4,6.26,3.44,9.7-.58,3.88-5.89,6-5.82,10,0,4.25,5.9,5.6,8.31,9.08,2.9,4.21-3.88,10.07-.76,12.56,1.31,1.1,3.22,1,4.9.73s3.44-.7,5.05-.15c2.64.88,3.85,4,3.88,6.74s-.73,5.53-.58,8.27a12,12,0,0,0,8,10.11,8.93,8.93,0,0,0,6.3,0c2.08-.95,2.89-2.82,5.71-1.43,2.05,1,3.33,3.08,4.61,5s2.82,3.88,5,4.5a20.85,20.85,0,0,0,4.61.22c1.57.08,3.29.66,3.92,2.09.77,1.83-.66,3.81-2.2,5.05s-3.44,2.34-4,4.21c-1.13,3.7,3.37,7.8,1.43,11.13-1.65,2.71-5.71,1.79-8.86,2.42a8.25,8.25,0,0,0-6.22,9.41c1.06,5.08,6.51,7.76,11.31,9.7l4.91,2c2.34.92,4.9,2.09,6,4.4C802.92,355.93,800.14,359.85,797.54,362.78Z"
	/>
	<path
		class="tree-cls-13"
		d="M672.78,182.48a17.79,17.79,0,0,1-9.23,2.49c-3.18-.07-6.59-.92-9.41.62-2.45,1.36-3.66,4.14-5.2,6.52s-4.24,4.54-6.91,3.66c-3.52-1.17-5.61-5.68-9.27-7.32a84.39,84.39,0,0,0-9.4-3.55c-7.25-2.2-10.66.95-12.38,8.23-.77,3.15-2.41,6.63-5.56,7.29s-6.15-1.94-8.86-3.92-7.14-3-8.93-.22c-2.9,4.47,5.82,9.37,4.39,14.53-.73,2.57-3.81,4-4.54,6.52-1.76,6.3,7.76,7.83,10.4,11.79,4,6-.88,11.46-6.74,13-3.08.84-6.33,1.21-9.19,2.64s-5.23,4.5-4.65,7.61c.51,2.78,3.15,4.76,3.88,7.51,1.21,4.43-3.88,8.82-8.38,8s-7.62-5.46-8-10.07c-.26-2.89.4-5.86-.29-8.71s-3.52-5.53-6.27-4.58c-2.26.81-3.11,3.52-4.35,5.57s-4.5,3.62-5.9,1.64c-.62-.88-.51-2.05-1-3-1.17-2.12-4.76-1.43-6,.66-2.09,3.48-3.45,15.27-3.08,19.29s3.19,6.37,1.17,10.73a10.9,10.9,0,0,1-9.77,6,13.66,13.66,0,0,1-10.47-5.23c-1.61-2-2.71-4.32-4.43-6.15s-4.4-3.22-6.77-2.38c-5.94,2.12-2.86,13.36-8.68,15.7-4.8,1.94-8.13-4.35-12.48-5.2s-9.23,2-12.49-2.41a7.44,7.44,0,0,1-.62-6.63c1.32-3.73,2.82-3.91,2-7.36-.81-3.29-3.81-5-2.53-8.89,1.25-3.66,5.75-5.79,6-9.63.4-5-6.81-8.79-5.23-13.55s8.86-3.73,12.55-5.19c4.07-1.61,5.49-3.63,6.67-7.66,3.33-11.64-.52-24.85-3.56-36.09-2.67-9.67-10.58-10.29-16.51-2.2-2,2.75-4.46,5.71-7.87,6-4.06.37-7.36-3.22-9.44-6.73s-4-7.58-7.8-9.19c-5.42-2.27-11.28,1.68-15.81,5.38s-9.45,8.27-9.23,14.09c.37,9.92,15.12,14.9,14.86,24.82a9.11,9.11,0,0,1-14.6,7c-2-1.5-3.3-3.74-4.95-5.6s-4.1-3.48-6.55-2.93c-5.31,1.21-5.2,10.5-10.54,11.71-4.29,1-7.18-4.21-11.06-6.3-6.59-3.58-9.26,2.64-13.1,6a12.39,12.39,0,0,1-13.44,1.42c-5.78-2.89-9.19-9.7-10.58-16.4,4.06-2.67,11.17-1.35,14.68-5.23,1.94-2.16,1.9-5.13,3.52-7.32,2.56-3.48,5.74-.77,9.4-2.35,2.35-1,4-4.13,2.53-6.26-1-1.43-3.08-2.16-3.33-3.84-.33-2.49,3.33-3.37,4.72-5.46s.22-5-.91-7.28-2.09-5.38-.26-7.21c2.12-2.13,5.71-.44,8.05,1.39s5.64,3.81,8.13,2.16c3.26-2.24,1.43-8.57,5-10.29,1.72-.8,3.77,0,5.34,1s3.12,2.38,5,2.6,4.14-1.32,3.66-3.15c-1.06-4.29,2.09-9.45,6.45-10.11,4.06-.58,8.71,2.13,12.08-.29,2.71-2,2.89-6.48,5.93-8,2.63-1.36,5.78.51,8,2.53s4.54,4.43,7.5,4.39,5.17-2.45,6-5.13.55-5.56.14-8.34c-.58-4.1-.69-11,3.45-13.48a7.44,7.44,0,0,1,5.85-.51c2.93,1,2.68,3.37,4.76,5.09,1.32,1.06,3.33.51,4.61-.62s2-2.67,3.08-4,2.75-2.34,4.36-1.94c.87,3.37,1.79,6.78,2.67,10.18a3.48,3.48,0,0,0,1,2c1,.8,2.46.33,3.52-.4s2-1.65,3.26-1.8c2.23-.29,3.22,4.28,4.43,5.75,1.94,2.27,5.08,3.84,8,3,6-1.76,6.48-10,13-11.38,7.17-1.54,9.29,5.82,10.65,11.2.55,2.23,1.83,4.5,4,5.09,3.25.84,6.26-2.49,9.62-2.42,3.74.07,6.92,4.36,10.47,3.26,3.92-1.25,4.47-8,8.57-8.24,3.52-.22,5.35,4.83,8.86,5.24s6.19-4.25,9.77-4c2.53.18,4.18,2.74,4.84,5.16s.73,5.09,2,7.25c3.29,5.45,9-2,12.15,3.88,1.39,2.6,1,5.75,1,8.71s.84,6.33,3.47,7.65c3.34,1.58,7.07-1.06,9.52-3.81s5.24-6,8.9-5.85c5.31.18,9.11,7.5,14.17,6,2.23-.66,3.84-3,6.15-3,2.08,0,3.66,1.86,4.57,3.73s1.58,4,3.11,5.34c3.74,3.19,10.66.66,13.55,4.58A7.28,7.28,0,0,1,672.78,182.48Z"
	/>
	<path
		class="tree-cls-8"
		d="M797.54,362.78c-2.09,2.34-4.21,4.68-6.3,7-2.49,2.78-5.45,5.78-9.19,5.78-2.78,0-5.23-1.79-7.68-3.19s-5.61-2.34-8-.87-3.3,5.41-6.15,6.26c-1.47.44-3-.08-4.47-.55a7.18,7.18,0,0,0-4.43-.48c-2.52.88-1.75,4.87-2.27,7s-1.83,4.1-3.88,4.28c-1.65.18-3.11-.91-4.32-2a7.27,7.27,0,0,0-2.56-1.54c-.73-.33-1.39-1.25-2.23-1.36a1.47,1.47,0,0,0-1.32.74c-.26.44-.4.95-.62,1.42-.44,1.1-1.39,2.24-2.6,2.09a2.75,2.75,0,0,1-1.8-1.28c-2-2.82-3.69-3.33-7.1-2.78a14.27,14.27,0,0,0-8.38,4.54c-2.78,3.18-4,7.39-5.13,11.42s-2.41,8.27-5.23,11.35c-2.13,2.34-6.56,4.65-9.81,3.48-1.5-.55-2-2.16-2.86-3.37a18.92,18.92,0,0,0-4.1-4.8c-2.78-2.3-6.73-3.51-10-2.08-1.87.8-3.59,2.41-5.6,2.16-2.82-.37-4.06-4.07-6.81-4.8-3.19-.88-5.82,2.67-9,3.59-3.36.91-6.73-1.21-9.62-3.11s-6.56-3.81-9.74-2.42c-2,.88-3.26,2.82-4.65,4.47s-3.44,3.18-5.57,2.74a5.43,5.43,0,0,1-3.4-3c-.73-1.36-1.14-2.86-1.83-4.25A11.73,11.73,0,0,0,612,393a13.65,13.65,0,0,0-10.8,3.69c-2.45,2.49-4.28,6.23-7.91,7.18-4.39,1.13-9.11-2.82-13.36-1.17-2.74,1.1-4.1,4.13-5.42,6.81s-3.29,5.52-6.26,5.67c-2.34.11-4.39-1.54-5.63-3.51s-2-4.21-3-6.26-2.82-4-5.13-4.4-5,.81-7.1-.44c-2.42-1.46-2.12-5.09-3.7-7.46s-5.09-3-8-2.49-5.64,1.79-8.57,2.23-6.33-.22-7.87-2.75c-.8-1.35-1-3-1.46-4.46-1-2.68-2.75-4-5.71-3.74-2.09.19-4.07,1-6.15,1.28s-4.5-.25-5.57-2.08c-1.13-2-.18-4.4,0-6.66a9.75,9.75,0,0,0-8.78-10.11,43.45,43.45,0,0,0-5.64.51,7.44,7.44,0,0,1-5.38-1.17c-1.83-1.43-2.34-4-2.31-6.37.08-3,1.76-8.71-2-9.88a12.07,12.07,0,0,0-3.66-.3,6.6,6.6,0,0,1-3.55-.73,6.74,6.74,0,0,1-2.27-2.89,12.79,12.79,0,0,0-2-3.15c-1.9-1.83-5.42-.44-7.69.11a14.54,14.54,0,0,0-8.13,4.8c-1.53,1.79-2.7,4-4.83,5.09-5,2.49-11.68-3.08-16.25.07S425.08,362.3,420,364c-2,.7-4.29-.18-6.45-.4a10,10,0,0,0-8.71,3.92c-3.15,4.28.26,9.29-4.65,12.3-3.73,2.27-10.32,1.06-12.48,5.63-1.65,3.48,1.21,7.87-.48,11.35-1.9,3.88-8.23,3.92-10,7.87-1.54,3.52,1.57,7.25,2.09,11.06a8.3,8.3,0,0,1-14.5,6.55c-1.91-2.23-2.64-5.42-5-7.1-3.4-2.38-8-.51-11.82,1-3,1.2-7.69,2.27-10.4-.22s-2.05-8.72.11-11.46c1.61-2.05,3.88-3.48,5.71-5.31s3.26-4.54,2.42-7c-.48-1.54-1.72-2.68-2.67-3.92s-1.72-3-1.1-4.43c.51-1.17,1.79-1.83,2.67-2.75,2.05-2,.18-5.12-1.61-6.62a6.8,6.8,0,0,0-9.26.88c-1.43,1.72-1.91,4-3,5.93s-3.48,3.59-5.5,2.56c-2.92-1.46-1.46-6.22-3.36-8.9-1.36-1.86-4.1-2.19-6.34-1.57s-4.21,2-6.33,2.89-4.72,1.32-6.7.11c-2.86-1.72-2.56-7.36-3-10.25-2.89.73-5.93,1.47-8.82.73s-5.46-3.51-4.95-6.44c.85-4.54,7.69-5.53,9.23-9.88,1.32-3.81-2.05-8.75.62-11.79,2.12-2.38,6.85-1.69,8.16-4.61,1.07-2.42-1.17-4.91-3.14-6.63s-4.14-4.28-3-6.63,4.69-2.12,6.88-3.62c3.23-2.12,2.79-6.88,2-10.69s-.95-8.64,2.46-10.47,7.94.88,11.42-.84c2.63-1.28,3.84-4.8,6.66-5.57,3.08-.84,5.82,2,8.9,2.93,9.48,2.86,14.49-11.93,1.86-12.08-1.79,0-3.77-.29-5-1.61-2.13-2.42-.37-5.57-.33-8.27,0-3.45-1.4-6.26-3.45-8.94s-4.17-6.37-2.27-9.15a9.58,9.58,0,0,1,3.23-2.49,30.11,30.11,0,0,0,4.46,0c2.89-2.42,7.58-1,9.85,2.05s2.78,6.91,3.19,10.65.95,7.65,3.25,10.61c3,3.92,8.57,5.31,11.5,9.34,2.78,3.73,2.56,9.15.15,13.14s-6.63,6.63-11.06,7.95-10,1.86-12,6c-.92,1.75-.92,3.84-1,5.85v18.46c0,3.36,0,6.8,1.39,9.88s4.51,5.56,7.8,5.16c9.26-1.17,11.57-12.3,22.85-7.87,4.06,1.61,8.2,4.06,12.48,3.22,5.45-1.1,8.42-6.95,10.14-12.26s3.48-11.28,8.35-14c6.33-3.58,14.82.26,21.34-3,7.87-3.95,8.31-15.78,15.41-21,6.37-4.72,15.67-2.23,21.93,2.63s10.69,11.72,16.69,16.88A42,42,0,0,0,515.65,322c7.18-2.19,15.56-6.11,21.38-1.42,5.6,4.5,4.65,14.42,10.76,18.19,5.09,3.15,12-.25,15.49-5.12s4.87-10.91,7.87-16.11,8.71-9.78,14.5-8.24c6.33,1.69,9.44,9.7,15.81,11.2,7.54,1.83,15.2-6.55,22.48-3.77,3.81,1.43,5.93,5.53,6.66,9.52s.33,8.13.85,12.16,2.12,8.23,5.67,10.25c6.92,4,11.2-4.87,16.4-7.77a26.23,26.23,0,0,1,20.76-2c5.2,1.8,10.47,5.31,15.7,3.74s8.2-7.84,13.48-9.45,10.72,2,16.21,3.11c10,2.05,19.52-4.39,27.68-10.47,4.87-3.62,10.21-8.05,10.62-14.09.4-5.53-3.56-10.51-8.13-13.62s-9.89-5-14.43-8.2-8.45-8.16-7.94-13.69c.29-3.19,2-6.23,1.72-9.41-.44-3.81-3.77-6.74-7.32-8.13s-7.47-1.65-11.2-2.52c-4.32-1-8.57-3.08-11.32-6.56s-3.66-8.67-1.39-12.48c2.82-4.69,9.19-6,12.67-10.21,4.47-5.39,1.76-14.94-4.87-17.21.18-.84.37-1.68.59-2.53A5.4,5.4,0,0,0,712,209c4.9-.95,9.88-3.95,13.29,2,.84,1.43,1.42,3.37,3.07,3.77,2,.44,3.48-1.83,5.16-3,2.75-1.87,7.8,0,9.38,2.78,2.12,3.66-1.29,8.42-.52,12.3.66,3.44,4,6.26,3.44,9.7-.58,3.88-5.89,6-5.82,10,0,4.25,5.9,5.6,8.31,9.08,2.9,4.21-3.88,10.07-.76,12.56,1.31,1.1,3.22,1,4.9.73s3.44-.7,5.05-.15c2.64.88,3.85,4,3.88,6.74s-.73,5.53-.58,8.27a12,12,0,0,0,8,10.11,8.93,8.93,0,0,0,6.3,0c2.08-.95,2.89-2.82,5.71-1.43,2.05,1,3.33,3.08,4.61,5s2.82,3.88,5,4.5a20.85,20.85,0,0,0,4.61.22c1.57.08,3.29.66,3.92,2.09.77,1.83-.66,3.81-2.2,5.05s-3.44,2.34-4,4.21c-1.13,3.7,3.37,7.8,1.43,11.13-1.65,2.71-5.71,1.79-8.86,2.42a8.25,8.25,0,0,0-6.22,9.41c1.06,5.08,6.51,7.76,11.31,9.7l4.91,2c2.34.92,4.9,2.09,6,4.4C802.92,355.93,800.14,359.85,797.54,362.78Z"
	/>
	<path
		class="tree-cls-6"
		d="M371.17,427.81a11.15,11.15,0,0,1-8.41-3.78,20,20,0,0,1-2.26-3.49,9,9,0,0,0-2.28-3.17c-2.16-1.53-5.89,0-9.18,1.28s-9.35,3-13.31-.69c-4.19-3.85-2.87-11.63-.15-15.08a24.43,24.43,0,0,1,3.71-3.58,26.86,26.86,0,0,0,2.19-1.94c1.11-1.12,2.24-2.92,1.79-4.29a7.39,7.39,0,0,0-1.41-2.07c-.3-.35-.59-.7-.86-1.06-1.83-2.39-2.35-5-1.41-7.11a7.61,7.61,0,0,1,2.49-2.91,9.19,9.19,0,0,0,.74-.64c.08-.07.1-.1.1-.25a4.26,4.26,0,0,0-1.54-2.44,4.18,4.18,0,0,0-5.51.52,11.1,11.1,0,0,0-1.47,2.82,19.74,19.74,0,0,1-1.28,2.74c-1.75,3.06-5.5,5.37-9,3.63-2.95-1.47-3.34-4.53-3.63-6.77a7.71,7.71,0,0,0-.73-3c-.53-.73-2-1-3.46-.57a18.78,18.78,0,0,0-3.44,1.52c-.84.44-1.68.88-2.55,1.25-3.44,1.48-6.69,1.46-9.14,0-3.11-1.91-3.67-6-4-9.25a16.13,16.13,0,0,1-7.12,0c-4-1-7.72-4.94-6.89-9.48.63-3.48,3.46-5.39,5.73-6.93,1.61-1.08,3.13-2.11,3.56-3.36a9.27,9.27,0,0,0-.17-4.1c-.46-2.64-1-5.91,1.33-8.57a10.46,10.46,0,0,1,5.17-2.77c1.14-.35,2.33-.71,2.55-1.19s-.46-1.78-2.45-3.49c-5.21-4.49-4.49-8.11-3.6-9.87,1.26-2.46,3.74-3.21,5.56-3.75a9.33,9.33,0,0,0,2.22-.87c1.46-1,1.75-3.57.9-8-1.63-8.41,1.16-11.9,3.78-13.34s5.1-1.05,7.4-.77c1.62.19,3.15.38,4.15-.11a8.34,8.34,0,0,0,2.16-2,10.37,10.37,0,0,1,5-3.72c3-.83,5.64.59,7.73,1.72a15.55,15.55,0,0,0,2.63,1.23,4.44,4.44,0,0,0,4.9-1.23,3.67,3.67,0,0,0,.87-3.69c-.54-1.23-2.21-1.92-4.68-1.95-2,0-5-.31-6.94-2.5-2.38-2.66-1.77-5.74-1.32-8a13.51,13.51,0,0,0,.31-2.1c0-2.4-.86-4.63-2.9-7.23-4.74-6.06-3.9-10-2.36-12.3a10.42,10.42,0,0,1,3.65-3,6.84,6.84,0,0,0,1.93-1.42c1-1.35-.25-4-1.75-6.09-.22-.31-5.49-7.64-3.82-13a6,6,0,0,1,3.94-4,9.65,9.65,0,0,1,4.27-.27l.5.05c1.26.11,1.53-.1,1.53-.11a3.09,3.09,0,0,0-.71-2.19c-.32-.44-.68-.86-1-1.28a11.78,11.78,0,0,1-2.93-5,7.38,7.38,0,0,1,13.88-4.74,11.92,11.92,0,0,1,.88,3.53c.05.38.1.76.17,1.14a2.33,2.33,0,0,0,.54,1.25,3.16,3.16,0,0,0,1.1-1,15.15,15.15,0,0,0,.83-1.31,13,13,0,0,1,2.28-3c2.41-2.23,5.62-2.79,8.73-3.33,2.72-.48,5.29-.92,6.65-2.44a8.3,8.3,0,0,0,1.43-3,14.26,14.26,0,0,1,1.93-4.12c2.35-3.19,5.4-3,7.42-2.91a6.7,6.7,0,0,0,3.07-.28,2.75,2.75,0,0,0,1.41-1.62.83.83,0,0,0,0-.69,5.15,5.15,0,0,0-1-.9,6.41,6.41,0,0,1-2.79-4.1c-.44-3.13,2-4.83,3.54-5.95A7.25,7.25,0,0,0,382,180c.67-1-.58-3.52-1.12-4.6-2.89-5.82-1.08-8.93.25-10.27,2.71-2.72,7.15-2.29,11.59,1.13,3.27,2.51,4.53,2.37,5,2.07.67-.45,1-2,1.24-3.42.44-2.36,1.06-5.58,4.1-7.05,1.61-.78,4.3-1.2,8,1.21l.95.65a7.72,7.72,0,0,0,2.92,1.53,1.13,1.13,0,0,0,.65-.2,11.07,11.07,0,0,1,1.76-8.41,10.41,10.41,0,0,1,7-4.64,18.64,18.64,0,0,1,5.83.33c2.46.4,4,.6,5.06-.15a7.81,7.81,0,0,0,1.88-2.88c.9-1.84,2-4.13,4.42-5.34,3.2-1.6,7.2-.52,11,3l.56.52c1.69,1.57,3.47,3.13,5.11,3.18s3-1.7,3.5-3.26c.69-2.14.42-4.61.05-7.16-.52-3.67-1.12-12.6,4.66-16.15a10.07,10.07,0,0,1,8.12-.75,7.79,7.79,0,0,1,4.48,4,5.06,5.06,0,0,0,1.14,1.54,2,2,0,0,0,1.12-.52,11.28,11.28,0,0,0,1.52-1.92c.42-.6.83-1.2,1.3-1.76,2-2.38,4.63-3.43,7-2.83l1.53.38,3.08,11.7.08.28a3,3,0,0,0,.36-.21l.58-.43a8,8,0,0,1,3.86-1.82c3.49-.42,5.08,3.08,6.05,5.17a11.15,11.15,0,0,0,.77,1.5c1.18,1.42,3.31,2.7,5.17,2.16s3.22-2.38,4.66-4.49c1.83-2.66,4.1-6,8.5-6.92,9.9-2.13,12.63,8.58,13.8,13.16.42,1.69,1.26,2.93,2.12,3.15s2-.33,3.41-1a11.61,11.61,0,0,1,5.61-1.55,12.89,12.89,0,0,1,6,2.11c1.7,1,2.8,1.52,3.62,1.27s1.73-1.67,2.53-3c1.31-2.17,3.09-5.13,6.66-5.35,3-.2,5,1.77,6.64,3.33.94.92,1.91,1.86,2.68,1.95s1.93-.69,3.11-1.52c1.71-1.2,3.83-2.71,6.57-2.5,4,.3,6.33,3.89,7.21,7.15.22.83.39,1.69.55,2.54a12.68,12.68,0,0,0,1.21,4c.56.93.79,1,3.17.54s6.48-1.34,9,3.43c1.46,2.72,1.41,5.7,1.36,8.32,0,.55,0,1.09,0,1.63,0,1,.18,4.4,2,5.28s4.57-1.16,6.38-3.17l.33-.37c2.62-2.92,5.93-6.52,10.63-6.37,3.25.12,5.82,2,8.09,3.73s3.85,2.78,5.22,2.36a8,8,0,0,0,1.86-1.06,8.84,8.84,0,0,1,5.05-2c2.8-.13,5.34,1.9,7,5.23.23.47.44,1,.65,1.42a8.91,8.91,0,0,0,1.82,3.07c1.1.95,3.05,1.14,5.11,1.34,2.93.29,6.58.64,8.83,3.68,1.9,2.56,1.72,5.65,1.57,8.14l-.06,1.11c-.08,2.13.81,4.52,2,5.43a2.16,2.16,0,0,0,2.2.22,10,10,0,0,0,1.17-.52c1.35-.66,3.2-1.57,5.36-.92s3.35,2.63,4.12,4.05a6.26,6.26,0,0,0,1,1.49,8,8,0,0,0,1.45-.78,10.52,10.52,0,0,1,3.26-1.47,7.58,7.58,0,0,1,7,2.51,15.59,15.59,0,0,1,2.93,5.29c1.91,5.13,3.1,6.41,5.54,5.91.88-.17,1.75-.41,2.62-.65,3.87-1.07,9.72-2.69,13.5,3.88q.29.52.57,1.08a6,6,0,0,0,.9,1.47c.06-.12.79-.77,1.21-1.17a17.77,17.77,0,0,1,1.76-1.45,8.19,8.19,0,0,1,6.48-.95,10.53,10.53,0,0,1,6.7,4.59c1.74,3,1,6.3.31,8.93a11.23,11.23,0,0,0-.53,4.21,12,12,0,0,0,1.45,3.26c1.17,2.08,2.5,4.44,2,7.36-.42,2.65-2.13,4.49-3.64,6.11-1.18,1.28-2.2,2.38-2.18,3.38s1.25,2.07,3.29,3.5a17.41,17.41,0,0,1,4.55,4.11c2.33,3.35.83,7-.26,9.64a13.93,13.93,0,0,0-.86,2.48,4.67,4.67,0,0,0,2.64.06l.6-.11a11.33,11.33,0,0,1,5.75.05c4.12,1.38,5.64,5.84,5.68,9.24a29.81,29.81,0,0,1-.32,4.2,21.77,21.77,0,0,0-.26,3.94,9.19,9.19,0,0,0,6.24,7.73,6.15,6.15,0,0,0,4.33.08,7.53,7.53,0,0,0,1.09-.68A6,6,0,0,1,782,290c2.57,1.28,4.09,3.54,5.42,5.55l.23.33c1,1.55,2.18,3,3.53,3.41a8.56,8.56,0,0,0,2.29.13c.58,0,1.17,0,1.75,0,2.94.15,5.26,1.52,6.2,3.68,1.16,2.68,0,5.82-3,8.2l-.9.69c-1,.77-2,1.5-2.23,2.23s.29,2.24.82,3.59c.91,2.33,2,5.22.34,8.09-1.88,3.16-5.46,3.33-8.08,3.46a16.7,16.7,0,0,0-2.53.23,5.58,5.58,0,0,0-4.14,6.24c.77,3.69,5.12,5.91,9.7,7.76l4.89,2c2.19.88,5.84,2.36,7.41,5.77,2.6,5.65-2.5,11.36-4.17,13.24l-6.29,7c-2.88,3.22-6.34,6.65-11.11,6.65h-.08c-3,0-5.56-1.49-7.78-2.8l-1.22-.7c-1.08-.6-3.75-1.89-5.29-.94a7.73,7.73,0,0,0-1.88,2.22c-1.08,1.6-2.44,3.59-4.93,4.34-2.3.69-4.48-.06-6.07-.6a5.47,5.47,0,0,0-2.7-.47,14.69,14.69,0,0,0-.24,2.41,13.92,13.92,0,0,1-.32,2.67c-.71,2.81-2.72,5.94-6.22,6.29-2.79.29-5-1.42-6.39-2.72a4.22,4.22,0,0,0-1.58-.94,8.13,8.13,0,0,1-.95-.5c-1,2.36-3.13,3.75-5.3,3.49a5.25,5.25,0,0,1-3.64-2.4c-1.32-1.86-1.95-2.09-4.51-1.67a11.43,11.43,0,0,0-6.81,3.65c-2.37,2.74-3.48,6.64-4.55,10.41s-2.48,8.74-5.85,12.42c-2.92,3.19-8.36,5.73-12.69,4.16a7.16,7.16,0,0,1-3.71-3.65c-.15-.26-.29-.52-.45-.76a18.21,18.21,0,0,0-3.57-4.2c-1.92-1.58-4.91-2.71-7.29-1.68a13.41,13.41,0,0,0-1.4.74,8.73,8.73,0,0,1-5.59,1.62c-2.42-.31-4-1.93-5.18-3.23a6,6,0,0,0-2-1.65c-.75-.2-1.76.4-3.34,1.42a15.7,15.7,0,0,1-4.25,2.15c-4.63,1.3-9-1.56-11.83-3.45-3.31-2.19-5.6-2.88-7.18-2.18a9,9,0,0,0-2.81,2.68c-.3.36-.59.73-.9,1.08-2.48,2.89-5.37,4.17-8.12,3.6a7.92,7.92,0,0,1-5.21-4.29,22.81,22.81,0,0,1-1.11-2.53c-.24-.6-.47-1.21-.77-1.79a9.1,9.1,0,0,0-6.8-4.79,11.1,11.1,0,0,0-8.58,2.94,28.17,28.17,0,0,0-1.84,2.16c-1.8,2.25-3.85,4.81-7.27,5.71-2.81.73-5.49,0-7.85-.7-2.06-.58-3.84-1.09-5.21-.55-1.65.65-2.74,2.88-3.79,5l-.21.43c-2.25,4.59-5.12,7-8.53,7.19-3,.17-6-1.61-8-4.73a27.13,27.13,0,0,1-2-4c-.35-.83-.71-1.66-1.13-2.45-.93-1.73-2.11-2.83-3.23-3a9,9,0,0,0-2.23,0,9,9,0,0,1-5.77-.82c-2.36-1.42-3.05-3.83-3.61-5.78a9.47,9.47,0,0,0-.94-2.48c-.95-1.42-3.36-1.72-5.33-1.38a28.76,28.76,0,0,0-3.8,1,31.65,31.65,0,0,1-4.79,1.23c-4.51.7-8.66-.87-10.56-4a12,12,0,0,1-1.33-3.58c-.12-.47-.24-.94-.4-1.39-.56-1.6-1.3-2.1-2.94-2a18.23,18.23,0,0,0-2.84.59,25.23,25.23,0,0,1-3.21.69c-2.83.34-6.46-.36-8.2-3.41-1.3-2.25-.9-4.64-.58-6.55.09-.55.19-1.1.23-1.63a7.11,7.11,0,0,0-6.29-7.23,16.81,16.81,0,0,0-3.22.25c-.67.09-1.33.18-2,.24a10,10,0,0,1-7.28-1.72c-2.24-1.76-3.39-4.7-3.32-8.52,0-.7.1-1.54.2-2.44.18-1.61.52-4.59-.35-4.86a7.72,7.72,0,0,0-2.3-.17h-.55a9.63,9.63,0,0,1-5-1.12,9.3,9.3,0,0,1-3.27-4l-.21-.43a7.73,7.73,0,0,0-1.24-2c-.48-.47-2.88.17-3.9.44l-1.33.35A12.17,12.17,0,0,0,451,347h0c-.37.44-.72.9-1.06,1.36a13.42,13.42,0,0,1-4.62,4.4c-3.27,1.63-6.73.81-9.78.08s-4.85-1.07-6.16-.17-1.87,3-2.48,5.27c-.88,3.24-2,7.27-6.05,8.64a10.94,10.94,0,0,1-5.77,0c-.58-.11-1.17-.22-1.75-.28a7.28,7.28,0,0,0-6.32,2.85c-.92,1.24-1,2.7-1.11,4.4-.16,2.61-.38,6.18-4.32,8.58A17.81,17.81,0,0,1,395.6,384c-3,.59-4.79,1-5.52,2.58-.47,1-.25,2.5,0,4.1.34,2.24.72,4.78-.49,7.26-1.34,2.75-3.93,4-6.2,5.11-1.74.85-3.24,1.58-3.74,2.69s0,2.61.89,4.89a21.45,21.45,0,0,1,1.4,4.69,11.17,11.17,0,0,1-6.34,11.51A10.77,10.77,0,0,1,371.17,427.81ZM356,411.4A9,9,0,0,1,361.3,413a13.67,13.67,0,0,1,3.89,5,14.19,14.19,0,0,0,1.62,2.57,5.63,5.63,0,0,0,9.84-4.45,16.59,16.59,0,0,0-1.1-3.5c-1-2.56-2.22-5.74-.78-9,1.28-2.89,3.93-4.18,6.27-5.32,1.65-.8,3.21-1.56,3.75-2.65s.25-2.51,0-4.12c-.33-2.21-.71-4.72.45-7.18,1.92-4.06,6-4.88,9.31-5.53a14,14,0,0,0,4.2-1.26c1.5-.91,1.62-1.92,1.76-4.34A11.88,11.88,0,0,1,413.76,361c.76.07,1.52.21,2.27.35a6.85,6.85,0,0,0,3.07.19c1.28-.44,1.84-2.18,2.6-5s1.7-6.28,4.62-8.27c3.35-2.31,7.1-1.41,10.41-.62,2.38.57,4.62,1.1,6.16.34a9.33,9.33,0,0,0,2.72-2.82c.41-.55.82-1.09,1.25-1.6h0a17.58,17.58,0,0,1,9.58-5.69c.35-.07.73-.18,1.13-.29,2.54-.68,6.36-1.71,9,.89a11.84,11.84,0,0,1,2.29,3.47l.2.39a4.61,4.61,0,0,0,1.3,1.82,4.46,4.46,0,0,0,2.15.33h.5a12.45,12.45,0,0,1,4,.41c5.07,1.59,4.41,7.42,4.05,10.56-.08.72-.16,1.38-.17,1.94,0,2,.43,3.56,1.28,4.22a5.17,5.17,0,0,0,3.52.61c.58,0,1.16-.13,1.74-.21a21.26,21.26,0,0,1,4.29-.3,12.43,12.43,0,0,1,11.28,13c-.06.69-.17,1.4-.29,2.1-.21,1.24-.4,2.42-.06,3s1.6.94,2.91.76a20.7,20.7,0,0,0,2.53-.55,21.05,21.05,0,0,1,3.73-.74,7.66,7.66,0,0,1,8.44,5.51c.21.6.37,1.23.53,1.85a8.22,8.22,0,0,0,.71,2.11c.88,1.44,3.32,1.79,5.2,1.5a27.59,27.59,0,0,0,4-1.05,33.78,33.78,0,0,1,4.51-1.19c3.54-.6,8.21,0,10.64,3.66a13.32,13.32,0,0,1,1.65,4c.34,1.21.67,2.34,1.22,2.67a5.11,5.11,0,0,0,2.52.09,13.1,13.1,0,0,1,3.7,0c2.77.51,5.24,2.56,7,5.76.49.93.91,1.89,1.33,2.86a22.46,22.46,0,0,0,1.59,3.22c.71,1.1,2,2.35,3.27,2.29,1.65-.08,3.09-2.33,4-4.2l.21-.43c1.36-2.79,3.05-6.26,6.63-7.66,3.05-1.2,6-.36,8.62.38,1.87.53,3.64,1,5,.67,1.72-.45,3-2,4.46-3.88a31.53,31.53,0,0,1,2.23-2.59,16.32,16.32,0,0,1,13-4.47A14.37,14.37,0,0,1,623.19,398c.37.73.67,1.49,1,2.25a19,19,0,0,0,.85,2,3,3,0,0,0,1.6,1.59c.72.16,1.89-.58,3-1.86.27-.31.53-.63.79-1a13.29,13.29,0,0,1,4.8-4.2c5-2.22,10.29,1.29,12.28,2.61,2.83,1.86,5.34,3.35,7.46,2.77a11.66,11.66,0,0,0,2.78-1.5c2-1.31,4.53-2.94,7.65-2.09a9.87,9.87,0,0,1,4.46,3.13c.71.76,1.45,1.54,2,1.61a5.13,5.13,0,0,0,2.24-.94,18.25,18.25,0,0,1,2-1c3.91-1.69,8.94-.73,12.8,2.46a23.35,23.35,0,0,1,4.64,5.39c.22.33.42.69.63,1a4.46,4.46,0,0,0,.89,1.28c1.91.69,5.23-.89,6.93-2.75,2.33-2.55,3.45-6,4.66-10.28,1.17-4.12,2.5-8.81,5.65-12.44a16.69,16.69,0,0,1,10-5.42c3.76-.62,6.68-.24,9.49,3.54l.08-.22a7.26,7.26,0,0,1,.78-1.65,4.07,4.07,0,0,1,3.82-1.88,5.14,5.14,0,0,1,2.71,1.32,2.74,2.74,0,0,0,.35.27,9.51,9.51,0,0,1,3.23,2c1.32,1.21,2,1.35,2.24,1.32.56-.05,1.27-1.08,1.58-2.29a10.56,10.56,0,0,0,.16-1.66c.13-2.22.34-5.94,3.81-7.15,2.39-.83,4.76,0,6.18.46a6,6,0,0,0,2.82.54c.67-.21,1.34-1.19,2.05-2.23a11.94,11.94,0,0,1,3.48-3.76c2.86-1.76,6.56-1.48,10.7.82l1.32.76c1.8,1.06,3.5,2.06,5.12,2.07h0c2.57,0,5-2.51,7.14-4.87l6.29-7.05c3-3.36,4.07-5.8,3.3-7.47-.63-1.36-2.59-2.25-4.56-3l-4.89-2c-3.72-1.5-11.46-4.63-12.92-11.61a10.9,10.9,0,0,1,8.33-12.57,22.19,22.19,0,0,1,3.31-.32c2-.09,3.36-.21,3.74-.86s-.06-1.73-.72-3.41c-.78-2-1.76-4.5-.94-7.13.74-2.37,2.61-3.78,4.12-4.91l.79-.6a3.37,3.37,0,0,0,1.4-1.89,2.47,2.47,0,0,0-1.58-.48c-.45,0-.91,0-1.36,0a12.9,12.9,0,0,1-3.86-.34c-3-.84-5-3.29-6.51-5.56l-.23-.35c-1.06-1.59-2.07-3.09-3.37-3.74a1.82,1.82,0,0,0-.62-.22h0a5.46,5.46,0,0,0-.85.53,11.69,11.69,0,0,1-1.91,1.15,11.24,11.24,0,0,1-8.24.14,14.52,14.52,0,0,1-9.89-12.47,26.29,26.29,0,0,1,.3-4.92,27,27,0,0,0,.28-3.47c0-1.78-.74-3.81-2-4.26a7.29,7.29,0,0,0-3.13.15l-.65.12c-1.94.32-4.79.54-7-1.28-3-2.47-1.55-6.13-.55-8.54.89-2.18,1.43-3.68.81-4.58a13.31,13.31,0,0,0-3.24-2.78c-2.45-1.72-5.51-3.87-5.56-7.8,0-3.14,2-5.32,3.61-7.07,1.09-1.17,2.11-2.28,2.28-3.32s-.57-2.41-1.42-3.92a16.48,16.48,0,0,1-2-4.85,15.17,15.17,0,0,1,.59-6.48c.49-2.07.92-3.85.25-5a5.39,5.39,0,0,0-3.27-2.05A3.11,3.11,0,0,0,735,214a10.4,10.4,0,0,0-1.16,1c-1.32,1.21-3.32,3-6.1,2.39-2.52-.57-3.63-2.77-4.37-4.22-.14-.28-.28-.56-.43-.82-1.59-2.76-3.13-2.61-7.46-1.41-1,.27-2,.55-3,.75-7.56,1.49-10.18-5.52-11.58-9.29A11,11,0,0,0,699,198.8a2.41,2.41,0,0,0-2-.91,6.68,6.68,0,0,0-1.63.82c-1.4.84-3.32,2-5.71,1.32s-3.38-2.62-4.16-4.05a6.25,6.25,0,0,0-1-1.5,5.8,5.8,0,0,0-1.47.61,16.83,16.83,0,0,1-1.81.79,7.5,7.5,0,0,1-7.1-1c-3.06-2.28-4.3-6.62-4.17-9.91l.07-1.22c.11-1.87.21-3.64-.53-4.64s-2.44-1.29-5.07-1.55-5.7-.56-8.07-2.61a13.15,13.15,0,0,1-3.22-4.95c-.18-.42-.36-.83-.56-1.23-.64-1.33-1.53-2.25-2.16-2.25h0a5.13,5.13,0,0,0-2.06,1.07,12,12,0,0,1-3.34,1.77c-4,1.21-7.31-1.23-9.94-3.2-1.81-1.34-3.51-2.61-5.09-2.67-2.26-.13-4.4,2.3-6.47,4.6l-.34.38c-4.2,4.66-8.81,6.27-12.66,4.4-3.18-1.54-5-5.1-5-10,0-.59,0-1.19,0-1.79,0-2.16.07-4.2-.73-5.69-.6-1.13-.77-1.25-3.26-.74-2.33.49-6.22,1.29-8.81-3a17,17,0,0,1-1.89-5.77c-.14-.73-.27-1.46-.46-2.16-.42-1.54-1.39-3.14-2.45-3.22-.86-.05-2,.72-3.12,1.54-1.76,1.24-4,2.8-6.78,2.46-2.57-.3-4.35-2-5.78-3.42-1-.92-1.85-1.87-2.62-1.83s-1.4,1.12-2.39,2.77c-1.2,2-2.69,4.48-5.51,5.36-3.08,1-5.72-.52-7.84-1.71a8.91,8.91,0,0,0-3.49-1.43,10.3,10.3,0,0,0-3.24,1.06c-1.91.88-4.3,2-7,1.28s-5-3.29-5.94-7c-2-7.71-3.85-10.05-7.5-9.26-2.22.48-3.43,2.11-5.23,4.73s-3.77,5.49-7.58,6.6-7.89-.45-10.74-3.86a11.73,11.73,0,0,1-1.52-2.69,19.54,19.54,0,0,0-1-1.93,9.56,9.56,0,0,0-.89.62c-.25.19-.5.38-.76.55-2.32,1.59-4.86,1.71-6.64.32a6.1,6.1,0,0,1-2-3.43l-2-7.61a5.63,5.63,0,0,0-.4.43,15.28,15.28,0,0,0-1,1.36,15.2,15.2,0,0,1-2.38,2.87c-2.11,1.88-5.55,2.71-8,.67a10.4,10.4,0,0,1-2.38-3c-.6-1-.81-1.36-1.59-1.63a4.88,4.88,0,0,0-3.59.26c-2.53,1.55-2.75,6.81-2.18,10.84.44,3.07.78,6.33-.25,9.54-1.29,4.05-4.79,6.91-8.5,7s-6.59-2.53-8.82-4.61l-.54-.49c-1.57-1.45-3.71-2.76-5-2.12-.79.4-1.36,1.56-2,2.9a12,12,0,0,1-3.56,4.88c-2.91,2.09-6.31,1.53-9.05,1.08a14.43,14.43,0,0,0-4.17-.31,5,5,0,0,0-3.31,2.32,5.81,5.81,0,0,0-.95,4.49,4.8,4.8,0,0,1-1.14,4.4,6.38,6.38,0,0,1-5.44,2.05,11.9,11.9,0,0,1-5.28-2.44l-.84-.57c-1.31-.87-2.3-1.06-2.7-.87-.62.31-.91,1.8-1.18,3.25-.44,2.29-1,5.15-3.5,6.84-4.39,3-9.52-1-11.21-2.26-1.92-1.48-4-2.19-4.56-1.6-.44.44-.37,1.88.75,4.14,1,2.08,3.17,6.4.75,10a10.77,10.77,0,0,1-2.94,2.7,13.16,13.16,0,0,0-1.23,1l.76.61a9.7,9.7,0,0,1,2,2,6.08,6.08,0,0,1,.74,5.18,8.09,8.09,0,0,1-4.42,5,11.34,11.34,0,0,1-5.49.72c-1.88-.11-2.23-.07-2.83.75a9.63,9.63,0,0,0-1.16,2.65,12.82,12.82,0,0,1-2.52,4.86c-2.59,2.89-6.37,3.55-9.71,4.13-2.45.43-4.76.83-6,2a8.82,8.82,0,0,0-1.31,1.87c-.36.59-.72,1.18-1.12,1.74-1.88,2.54-4.67,3.65-7.12,2.84-2.05-.68-3.53-2.6-4.05-5.26-.1-.48-.17-1-.23-1.47a7.48,7.48,0,0,0-.43-2,2,2,0,0,0-3.83,1.31,7.38,7.38,0,0,0,1.78,2.71c.44.53.89,1.05,1.28,1.59,2.09,2.84,2.71,7-.13,9.41a7.15,7.15,0,0,1-5.47,1.36l-.56,0a5.55,5.55,0,0,0-2,0c-.5.18-.56.37-.61.54-.56,1.78,1.39,6,3,8.28,3.43,4.71,4.06,9.23,1.72,12.4a11.06,11.06,0,0,1-3.51,2.85,6.2,6.2,0,0,0-1.95,1.45c-1.07,1.57,1.15,4.73,2.15,6a16.66,16.66,0,0,1,4,10.59,15.9,15.9,0,0,1-.41,3.07c-.37,1.89-.48,2.78.06,3.39.42.46,1.44.71,3,.73,6.32.07,8.66,3.23,9.5,5.11a8.89,8.89,0,0,1-1.75,9.39,9.77,9.77,0,0,1-10.44,2.8,19.84,19.84,0,0,1-3.63-1.64c-1.75-.95-2.87-1.51-3.78-1.26a6.14,6.14,0,0,0-2.35,2.06,12.41,12.41,0,0,1-3.85,3.33c-2.42,1.19-4.93.88-7.14.61-1.72-.21-3.21-.39-4.18.15-2.05,1.13-1.59,5.28-1.12,7.66.53,2.73,1.93,10-3.18,13.41a13,13,0,0,1-3.65,1.53c-1,.32-2.11.64-2.33,1.07s.49,1.83,2.32,3.41c4.89,4.2,4.78,7.6,3.83,9.71-1.22,2.71-3.91,3.52-5.87,4.11a6.78,6.78,0,0,0-2.72,1.21c-.61.68-.43,2-.07,4.12s.77,4.43,0,6.76c-1,2.92-3.46,4.58-5.61,6s-3.26,2.28-3.48,3.46c-.25,1.4,1.4,3,3,3.37,2.29.59,5-.11,7.47-.72l2.82-.71.47,2.87c.11.71.19,1.56.27,2.49.15,1.84.44,5.27,1.5,5.92.91.56,2.5.44,4.25-.31.74-.32,1.46-.7,2.18-1.07a22.18,22.18,0,0,1,4.48-1.94c3.05-.85,7.09-.38,9.23,2.61a11.3,11.3,0,0,1,1.68,5.39c.15,1.11.32,2.48.72,2.68s1.33-.39,2-1.52a19.23,19.23,0,0,0,1-2.11,15.55,15.55,0,0,1,2.3-4.21,9.5,9.5,0,0,1,13-1.21,9.33,9.33,0,0,1,3.47,6.3,5.57,5.57,0,0,1-1.66,4.28,14,14,0,0,1-1.16,1,4.77,4.77,0,0,0-1,.9c-.05.12,0,.78.76,1.73l.71.87a11.4,11.4,0,0,1,2.4,3.84c1,3.1-.13,6.72-3.06,9.7a33,33,0,0,1-2.58,2.29,19.59,19.59,0,0,0-2.93,2.78c-1.52,1.93-2,6.4-.42,7.86s4.93.77,7.6-.3S352.82,411.4,356,411.4Z"
	/>
	<path
		class="tree-cls-14"
		d="M497.24,391c-2.05,2.48-5.09,3.91-7.8,5.63s-5.42,4.07-6,7.25c-.66,4,2.16,8.09.77,11.86-3.44,9.34-15.7-2.12-18.7,9.63-1.18,4.5.25,9.23.76,13.84s-.44,10.1-4.5,12.37c-4.94,2.75-12.15-.62-16.25,3.22-2.71,2.57-2.46,6.85-2.49,10.58s-1.28,8.31-4.91,9.08c-3,.66-5.86-1.75-7.36-4.43s-2.38-5.78-4.39-8.09-6-3.44-8.09-1.2c-2.56,2.7-4.54,6.88-3.55,10.47s2.09,7.9-.48,10.54c-3.58,3.73-11,.66-14.35,4.61s.52,10.95-3.4,14c-2.53,1.94-6.19.43-8.79-1.4s-5.38-4.1-8.53-3.58c-4.9.8-6.11,7.32-9.85,10.58a8.87,8.87,0,0,1-10,1.06,9,9,0,0,1-4.36-9c.66-3.88-7.24-2.93-10.94-1.61s-6.59,4.28-10.22,5.74c-4.76,1.91-10.06,1.1-15.15.88s-10.84.48-14.13,4.39c-2.46,2.93-3,7-4.51,10.51s-5.27,6.81-8.82,5.46c-3.37-1.29-4.14-5.72-3.81-9.3s1.1-7.58-.95-10.55c-4.9-7.1-19.4,1.25-22-7.5-.62-2-.25-4.69-1.94-6s-4.46-.22-6.33,1.17c-4.83,3.7-13.11,2.6-16.69-2.89-1.94-3-.81-6.3-.41-9.56-2-2.74-6.29-2.27-9.29-.66-7.33,3.88-23.87,10.84-19.59-4.35.59-2.09.92-4.51-.37-6.26-2.34-3.15-8-1.69-10.58-4.69-1.64-1.94-1.13-5.05.44-7.06,4.76-6.08,11.17-4.76,17.47-7.33a9.88,9.88,0,0,0,5.82-6.84c.66-2.93,0-4.36-1.91-6.22-3.37-3.26-3.88-6.19-3.84-10.88s3.55-9.59,8.24-9.59c3,0,6.48,1.83,8.75-.15a4.24,4.24,0,0,0,.76-.87c.88-1.4,1.14-3.23,2.27-4.43,4.65-4.8,8,3.51,11.54,4.28.32.07.62.11.91.15,6.7.69,2.09-9.74,3.48-13.4,2.16-5.82,10.36-6.12,16.25-4.1s12.08,5.31,17.9,3.15c4.73-1.76,7.77-6.78,12.6-8.31,9.85-3.12,19.69,9.95,29.39,6.4,3.67-1.35,6.08-4.76,8.1-8.09,2.78-4.57,6.15-10.36,12.15-10.76,7.36-.48,13.36,5,21.45,2.78,7-2,8.17-6.77,7.18-13.32a5.94,5.94,0,0,1,.88-4.76c1.31-1.58,3.66-1.8,5.71-1.43s4,1.24,6,1.28c5,.11,7-5.46,10-8.35,3.92-3.84,9.59-4.43,14.79-3.62a23.34,23.34,0,0,1,2.86.58,27.78,27.78,0,0,1,12.19,6.12c1.83,1.5,3.84,3.11,6.22,3.22,2.56.15,4.87-1.43,7.21-2.49s5.49-1.57,7.21.37c2.24,2.45,1.07,6.66,3.3,9.29,2.42,2.9,7.1,2,10.32,1.21,3-.73,6.19-1.72,9.26-1.13,5.75,1.13,7.14,6,9.93,10.25,2.92,4.43,9.73-.18,13.54,3.55C500,384.41,499.29,388.48,497.24,391Z"
	/>
	<path
		class="tree-cls-15"
		d="M432.11,415.13c-2.74,5.12-10.36,6.81-15,3.29-2.19-1.65-3.62-4.06-5.42-6.11s-4.39-3.81-7.06-3.37c-3.55.59-5.46,4.54-8.6,6.3a7.73,7.73,0,0,1-8.53-.77c-3.45-2.86-2.82-4.94-7.91-4.83-3.22,0-7.07,1.24-9.08-2.2-1.57-2.71-.33-6.26-1.17-9.3A6.82,6.82,0,0,0,356,400.45c.22,3.26,2.67,5.89,4.35,8.71s2.31,7.1-.4,9c-3.88,2.71-9.34-2.6-13.69-.77A79.92,79.92,0,0,0,348,427.54c.66,2.82.48,6.18-1.68,8.09-2.89,2.56-7.47,1.17-10.76-.84s-6.74-4.58-10.55-4.1c-6,.76-8.45,7.79-14.05,9.22-8.24,2.12-10.29-7.21-10-13.47-.37-1.94-3.19-2.42-4.8-1.32s-2.45,3-3.36,4.76-2.42,3.48-4.4,3.55c-2.82.11-4.46-3.15-5.09-5.93s-1.35-6-4-7.06c-3-1.18-6,1.46-7.94,3.95s-4.43,5.38-7.58,5c-2.78-.36-4.54-3.22-5.56-5.85s-1.94-5.6-4.36-7.07c-2.93-1.79-6.66-.55-10.1-.4a15.67,15.67,0,0,1-8.83-2.34c.88-1.4,1.14-3.23,2.27-4.43,4.65-4.8,8,3.51,11.54,4.28.32.07.62.11.91.15,6.7.69,2.09-9.74,3.48-13.4,2.16-5.82,10.36-6.12,16.25-4.1s12.08,5.31,17.9,3.15c4.73-1.76,7.77-6.78,12.6-8.31,9.85-3.12,19.69,9.95,29.39,6.4,3.67-1.35,6.08-4.76,8.1-8.09,2.78-4.57,6.15-10.36,12.15-10.76,7.36-.48,13.36,5,21.45,2.78,7-2,8.17-6.77,7.18-13.32a5.94,5.94,0,0,1,.88-4.76c1.31-1.58,3.66-1.8,5.71-1.43s4,1.24,6,1.28c5,.11,7-5.46,10-8.35,3.92-3.84,9.59-4.43,14.79-3.62a23.34,23.34,0,0,1,2.86.58,16,16,0,0,0,2.67,5.2c1.57,2.05,3.77,4.07,3.66,6.67-.07,1.83-1.35,3.4-2.6,4.79s-2.6,2.86-2.82,4.69c-.51,3.62,5.42,4.79,7.73,6.59,2.12,1.64,3.8,4.57,2.49,6.92-1.21,2.12-4.14,2.45-6.08,4a5.69,5.69,0,0,0-2,5.71c1,4.1,6.52,4.5,9,7.69S434.23,411.21,432.11,415.13Z"
	/>
	<path
		class="tree-cls-6"
		d="M292.89,526.28a7.18,7.18,0,0,1-2.62-.49c-4-1.53-6-6-5.5-12l.15-1.48c.3-2.85.58-5.54-.64-7.31-1.4-2-4.44-2.11-8.92-2-4.85.12-11.49.29-13.46-6.23a15.08,15.08,0,0,1-.49-2.54,5.06,5.06,0,0,0-.57-2.19c-.29-.23-1.55.07-3,1.21a14.32,14.32,0,0,1-11.09,2.46,14.13,14.13,0,0,1-9.45-6c-2.13-3.29-1.57-6.76-1.11-9.54,0-.16.05-.32.08-.48-1.27-.63-3.49-.23-5.2.68-7.22,3.83-16.82,7.57-21.64,3.67-2.64-2.13-3.23-5.87-1.74-11.11.53-1.88.55-3.24,0-3.93s-2.1-1.08-3.7-1.4c-2.18-.43-4.9-1-6.75-3.14-2.65-3.11-1.8-7.7.34-10.43,3.79-4.82,8.55-5.78,12.76-6.62a31.44,31.44,0,0,0,5.83-1.54,7.21,7.21,0,0,0,4.2-4.95c.44-2,.19-2.44-1.16-3.74-4-3.84-4.7-7.47-4.64-12.81.08-5.89,4.46-12.21,10.87-12.24h0a19,19,0,0,1,3.53.43c1.76.34,2.95.52,3.48.06a4.94,4.94,0,0,0,.89-1.7,10.06,10.06,0,0,1,2-3.41,6.69,6.69,0,0,1,4.75-2.3c2.81-.09,5.08,2.1,6.84,3.82a10.36,10.36,0,0,0,2.4,2,5.44,5.44,0,0,0,.63.1,1.3,1.3,0,0,0,.68,0c.36-.57,0-3.46-.13-5-.28-2.46-.54-4.79.15-6.65,2.68-7.15,12.11-8.26,19.62-5.69,1.07.37,2.16.79,3.25,1.2,4.64,1.76,9,3.41,12.85,2a18.74,18.74,0,0,0,5.28-3.62c2.18-1.87,4.43-3.8,7.44-4.75,5.89-1.86,11.57,1,16.58,3.44,4.57,2.27,8.88,4.41,12.71,3,2.85-1.05,4.92-4,6.74-7l.18-.29c2.87-4.76,6.81-11.26,14.09-11.75,3.69-.25,6.91.76,10,1.74,3.62,1.12,7,2.19,10.85,1.12,4.85-1.35,6.23-4.06,5.27-10.34-.44-2.86.05-5.17,1.45-6.87,1.77-2.14,4.78-3,8.25-2.34.82.15,1.62.37,2.43.59a13.69,13.69,0,0,0,3.16.63c2-.08,3.35-1.59,5.34-4.28a26,26,0,0,1,2.76-3.33c4.07-3.93,10-5.43,17.07-4.32a31.51,31.51,0,0,1,16.33,7.26c1.68,1.39,3.2,2.55,4.67,2.64,1.29.07,2.78-.68,4.34-1.48.54-.27,1.07-.55,1.61-.8,3.21-1.49,7.6-2,10.31,1,1.65,1.84,2,4,2.3,6a7.14,7.14,0,0,0,1.05,3.39c1.4,1.67,5,1,7.65.35l1-.26c2.84-.73,6.06-1.55,9.37-.9,5.72,1.13,8,5.19,10.07,8.76.5.88,1,1.78,1.57,2.64s1.55,1,4.36.82,6.15-.34,8.82,2.27c3.48,3.38,2.63,9-.19,12.4a23.84,23.84,0,0,1-6.67,5.13c-.6.35-1.2.7-1.79,1.07-2.84,1.79-4.43,3.62-4.74,5.45a12.08,12.08,0,0,0,.5,4.42c.56,2.4,1.18,5.12.14,7.91-2.32,6.27-7.87,5.92-11.55,5.69-4.3-.27-6.08-.23-7.09,3.67-.71,2.78-.22,5.84.29,9.07.21,1.28.41,2.55.55,3.82.74,6.94-1.45,12.55-5.85,15-2.88,1.59-6.14,1.55-9,1.54s-5.26-.05-6.71,1.31c-1.62,1.54-1.63,4.62-1.63,7.6v1.06c0,4.91-1.91,10.55-7,11.66-4.57,1-8.38-2.47-10.25-5.73-.6-1.05-1.1-2.15-1.6-3.26a17.65,17.65,0,0,0-2.48-4.38,4.49,4.49,0,0,0-3-1.5,1.48,1.48,0,0,0-1.11.37c-1.89,2-3.61,5.34-2.9,7.91,1,3.47,2.58,9.28-1.13,13.13-2.47,2.56-5.86,2.79-8.85,3-2.74.19-4.46.38-5.34,1.45s-.85,3-.82,5.13c0,3.05.08,6.84-3.05,9.25s-7.48,1.83-11.93-1.31l-.69-.5c-2-1.44-4.1-2.93-5.87-2.64s-2.81,1.94-4.47,4.65a21.83,21.83,0,0,1-4.07,5.32,11.38,11.38,0,0,1-18.8-10,16,16,0,0,0-7.33.86,23.74,23.74,0,0,0-4.79,2.67,30.47,30.47,0,0,1-5.35,3c-4.46,1.8-9.11,1.51-13.6,1.22l-2.67-.15c-5.82-.25-9.82.91-11.94,3.44a16.93,16.93,0,0,0-2.67,5.86,41.92,41.92,0,0,1-1.44,4C300.76,522.93,297,526.28,292.89,526.28Zm-15.33-28.67c4.06,0,8.49.52,11.11,4.34,2.34,3.39,1.92,7.37,1.55,10.88l-.14,1.4c-.24,2.78.31,5.89,2.1,6.58s4.36-1.55,5.45-4a35.44,35.44,0,0,0,1.25-3.49c.84-2.62,1.7-5.34,3.66-7.67,3.24-3.85,8.73-5.65,16.26-5.32.92,0,1.84.09,2.77.15,4.08.26,7.93.49,11.27-.85a25.31,25.31,0,0,0,4.41-2.54,27.75,27.75,0,0,1,5.94-3.25c2.46-.88,9.59-2.56,12.91.21a4.54,4.54,0,0,1,1.54,4.35,6.06,6.06,0,0,0,10,5.56,18,18,0,0,0,3-4.1c1.85-3,3.94-6.42,8.15-7.12,4-.65,7.22,1.68,9.84,3.56l.67.48c1.94,1.37,4.42,2.35,5.6,1.44.95-.73,1-2.36,1-5,0-2.82-.07-6,2-8.58,2.4-2.92,6.11-3.18,9.09-3.38,2.23-.16,4.34-.3,5.38-1.38,1.47-1.53.72-4.8-.17-8-1.36-4.9,1.4-10.06,4.17-13a6.52,6.52,0,0,1,5.08-2.05,9.83,9.83,0,0,1,6.95,3.32,21.75,21.75,0,0,1,3.33,5.71c.43.95.86,1.9,1.37,2.8,1.05,1.83,2.92,3.49,4.49,3.17,1.91-.42,2.8-3.66,2.83-6.5v-1c0-3.73,0-8.36,3.32-11.47,3-2.83,6.94-2.81,10.41-2.77,2.43,0,4.73,0,6.37-.87,2.91-1.61,3.52-6.09,3.13-9.75-.12-1.18-.31-2.36-.5-3.54-.58-3.64-1.18-7.4-.19-11.25,2.14-8.33,8.43-7.92,12.59-7.66s5.38,0,6.21-2.22c.48-1.3.1-3-.33-4.86a16.54,16.54,0,0,1-.57-6.51c.58-3.44,2.92-6.41,7.16-9.07.63-.4,1.27-.78,1.91-1.16a19.34,19.34,0,0,0,5.26-3.91c1.25-1.52,1.77-4.07.6-5.2-.93-.91-2.44-.9-4.81-.76-2.84.15-6.73.37-9.1-3.21-.63-1-1.2-2-1.76-2.94-2-3.52-3.29-5.54-6.46-6.16-2.13-.42-4.51.19-7,.83l-1.08.27c-2.79.69-9.32,2.3-13-2.1a11.62,11.62,0,0,1-2.23-6,6.78,6.78,0,0,0-1-3.25c-.59-.65-2.36-.53-4.11.27-.47.22-.95.47-1.42.71-2,1-4.33,2.21-7.08,2.05-3.34-.19-5.9-2.31-7.76-3.86a25.9,25.9,0,0,0-13.75-6.09c-3.75-.59-9-.56-12.54,2.89a22.07,22.07,0,0,0-2.18,2.66c-2.13,2.88-4.77,6.44-9.53,6.44h-.21a18.23,18.23,0,0,1-4.47-.81c-.66-.18-1.32-.37-2-.5-1.42-.26-2.69-.07-3.15.49a3.67,3.67,0,0,0-.3,2.67c.87,5.66.86,13.5-9.1,16.29-5.34,1.49-9.87.08-13.87-1.17-2.79-.87-5.42-1.7-8.1-1.51-4.51.3-7.36,5-9.88,9.19l-.18.29c-2.32,3.83-5.07,7.59-9.46,9.2-6,2.2-11.79-.68-16.92-3.23-4.51-2.24-8.76-4.35-12.61-3.14-2,.63-3.72,2.13-5.57,3.72a23.14,23.14,0,0,1-6.89,4.57c-5.71,2.13-11.49-.07-16.6-2-1-.4-2.07-.79-3.1-1.14-4.26-1.47-11.31-1.68-12.88,2.51a15.09,15.09,0,0,0,.15,4.19c.37,3.35.8,7.15-1.47,9.42a5.8,5.8,0,0,1-5,1.51h0a11.82,11.82,0,0,1-1.19-.2c-2-.43-3.52-1.93-5-3.39-.93-.91-2.34-2.3-3-2.3a2,2,0,0,0-1,.67,6.12,6.12,0,0,0-.85,1.69,9,9,0,0,1-2.39,3.78c-2.5,2.14-5.51,1.58-7.92,1.13a13.19,13.19,0,0,0-2.57-.34c-3.13,0-5.51,3.69-5.55,7-.06,4.18.35,6.34,3,8.9,2.35,2.26,3.61,4.51,2.66,8.75a12.47,12.47,0,0,1-7.4,8.72,36.68,36.68,0,0,1-6.79,1.84c-3.93.78-7,1.4-9.6,4.67-.94,1.2-1.16,2.88-.48,3.68s2.14,1.06,3.72,1.37c2.3.45,5.15,1,7,3.46,2.33,3.15,1.18,7.22.8,8.56-.94,3.32-.64,5,0,5.5,1.54,1.24,7.45.19,15.79-4.23,4.06-2.16,9.77-2.61,12.7,1.48l.61.84-.13,1c-.08.67-.19,1.35-.3,2-.42,2.61-.64,4.29.32,5.77a8.77,8.77,0,0,0,5.9,3.67,9.06,9.06,0,0,0,6.95-1.45c3.53-2.68,7.11-3.1,9.59-1.13,2,1.58,2.3,3.93,2.53,5.64a11.74,11.74,0,0,0,.31,1.71c.69,2.27,2.57,2.59,8.23,2.45C276,497.63,276.76,497.61,277.56,497.61Z"
	/>
	<path
		class="tree-cls-16"
		d="M400.26,251.42c0,4.32-2,7.82-4.44,7.82s-4.43-3.5-4.43-7.82c0-3.06,1.3-8.45,2.44-7,1.36,1.75,2.59,1.12,3.72-.22S400.26,248.18,400.26,251.42Z"
	/>
	<path
		class="tree-cls-16"
		d="M391.39,260.42c0-4.32,2-7.82,4.43-7.82s4.44,3.5,4.44,7.82c0,3.05-1.31,8.45-2.44,7-1.36-1.75-2.6-1.12-3.72.21S391.39,263.66,391.39,260.42Z"
	/>
	<path
		class="tree-cls-16"
		d="M401.22,260.35c-4.32,0-7.82-2-7.82-4.43s3.5-4.44,7.82-4.44c3.06,0,8.45,1.31,7,2.44-1.75,1.36-1.12,2.6.22,3.72S404.46,260.35,401.22,260.35Z"
	/>
	<path
		class="tree-cls-16"
		d="M390.42,251.48c4.32,0,7.82,2,7.82,4.44s-3.5,4.43-7.82,4.43c-3.05,0-8.45-1.3-7-2.44,1.75-1.36,1.12-2.59-.21-3.72S387.18,251.48,390.42,251.48Z"
	/>
	<path
		class="tree-cls-17"
		d="M396.77,249.67c2.54,3.5,3,7.5,1,8.94s-5.64-.23-8.18-3.73c-1.79-2.48-3.91-7.61-2.12-7.09,2.12.61,2.75-.62,2.88-2.36S394.87,247.05,396.77,249.67Z"
	/>
	<path
		class="tree-cls-17"
		d="M394.87,262.16c-2.53-3.49-3-7.49-1-8.93s5.65.23,8.18,3.73c1.8,2.47,3.91,7.6,2.13,7.09-2.13-.62-2.75.62-2.88,2.36S396.78,264.79,394.87,262.16Z"
	/>
	<path
		class="tree-cls-17"
		d="M402.8,256.34c-3.5,2.53-7.5,3-8.94,1s.23-5.65,3.73-8.18c2.47-1.79,7.61-3.91,7.09-2.13-.62,2.13.62,2.76,2.36,2.89S405.42,254.44,402.8,256.34Z"
	/>
	<path
		class="tree-cls-17"
		d="M388.85,255.5c3.5-2.54,7.5-3,8.93-1s-.23,5.64-3.73,8.18c-2.47,1.79-7.6,3.9-7.09,2.12.62-2.12-.61-2.75-2.36-2.88S386.23,257.4,388.85,255.5Z"
	/>
	<circle class="tree-cls-18" cx="395.82" cy="255.73" r="3.01" />
	<path
		class="tree-cls-16"
		d="M706.1,358c-2.2,3.72-5.69,5.71-7.8,4.46s-2-5.27.18-9c1.56-2.63,5.43-6.61,5.66-4.77.28,2.2,1.66,2.28,3.31,1.71S707.76,355.2,706.1,358Z"
	/>
	<path
		class="tree-cls-16"
		d="M693.89,361.2c2.2-3.71,5.69-5.71,7.8-4.46s2,5.27-.18,9c-1.55,2.63-5.43,6.6-5.66,4.76-.28-2.19-1.66-2.28-3.31-1.71S692.23,364,693.89,361.2Z"
	/>
	<path
		class="tree-cls-16"
		d="M702.38,366.17c-3.72-2.21-5.72-5.7-4.47-7.81s5.28-2,9,.18c2.63,1.56,6.61,5.43,4.77,5.66-2.2.28-2.28,1.66-1.71,3.31S705.16,367.82,702.38,366.17Z"
	/>
	<path
		class="tree-cls-16"
		d="M697.61,353c3.72,2.2,5.72,5.7,4.47,7.8s-5.27,2-9-.17c-2.63-1.56-6.61-5.44-4.77-5.67,2.2-.28,2.29-1.66,1.71-3.31S694.83,351.38,697.61,353Z"
	/>
	<path
		class="tree-cls-17"
		d="M704,354.71c.39,4.3-1.26,8-3.7,8.2s-4.74-3.08-5.13-7.39c-.28-3,.52-8.53,1.79-7.18,1.51,1.62,2.68.87,3.68-.56S703.7,351.48,704,354.71Z"
	/>
	<path
		class="tree-cls-17"
		d="M696,364.48c-.39-4.3,1.26-8,3.7-8.19s4.74,3.08,5.13,7.38c.29,3-.52,8.54-1.78,7.18-1.52-1.61-2.69-.87-3.69.56S696.29,367.71,696,364.48Z"
	/>
	<path
		class="tree-cls-17"
		d="M705.78,363.52c-4.3.39-8-1.26-8.2-3.7s3.08-4.74,7.38-5.13c3-.28,8.54.52,7.19,1.78-1.62,1.52-.87,2.69.56,3.69S709,363.22,705.78,363.52Z"
	/>
	<path
		class="tree-cls-17"
		d="M694.21,355.68c4.3-.4,8,1.26,8.2,3.69s-3.08,4.74-7.38,5.14c-3,.28-8.54-.52-7.19-1.79,1.62-1.51.88-2.68-.56-3.68S691,356,694.21,355.68Z"
	/>
	<circle class="tree-cls-18" cx="700.09" cy="359.43" r="3.01" />
	<path
		class="tree-cls-16"
		d="M680.65,267.4c-2.85,3.25-6.65,4.57-8.49,3s-1-5.56,1.82-8.81c2-2.29,6.56-5.49,6.45-3.64-.13,2.21,1.21,2.55,2.94,2.29S682.79,265,680.65,267.4Z"
	/>
	<path
		class="tree-cls-16"
		d="M668.05,268.32c2.85-3.25,6.65-4.57,8.49-3s1,5.56-1.82,8.81c-2,2.29-6.56,5.49-6.45,3.64.13-2.21-1.21-2.55-2.94-2.29S665.91,270.75,668.05,268.32Z"
	/>
	<path
		class="tree-cls-16"
		d="M675.48,274.75c-3.24-2.84-4.57-6.65-3-8.49s5.55-1,8.8,1.83c2.3,2,5.5,6.55,3.65,6.44-2.21-.13-2.55,1.21-2.29,2.94S677.92,276.89,675.48,274.75Z"
	/>
	<path
		class="tree-cls-16"
		d="M673.22,261c3.24,2.85,4.57,6.65,2.95,8.49s-5.56,1-8.8-1.83c-2.3-2-5.5-6.55-3.65-6.44,2.21.13,2.55-1.21,2.29-2.94S670.78,258.83,673.22,261Z"
	/>
	<path
		class="tree-cls-17"
		d="M679.18,263.79c-.4,4.3-2.7,7.61-5.14,7.38s-4.09-3.9-3.69-8.2c.28-3,2.08-8.3,3.08-6.73,1.19,1.86,2.48,1.35,3.72.13S679.48,260.57,679.18,263.79Z"
	/>
	<path
		class="tree-cls-17"
		d="M669.52,271.93c.4-4.3,2.7-7.6,5.14-7.38s4.09,3.9,3.69,8.2c-.29,3-2.08,8.3-3.08,6.73-1.19-1.86-2.48-1.35-3.72-.12S669.22,275.16,669.52,271.93Z"
	/>
	<path
		class="tree-cls-17"
		d="M679.31,272.78c-4.3-.4-7.6-2.71-7.37-5.14s3.89-4.09,8.2-3.69c3,.28,8.29,2.08,6.73,3.07-1.87,1.2-1.35,2.48-.13,3.73S682.54,273.08,679.31,272.78Z"
	/>
	<path
		class="tree-cls-17"
		d="M669.38,263c4.31.4,7.61,2.7,7.38,5.14s-3.9,4.09-8.2,3.69c-3-.29-8.29-2.08-6.73-3.08,1.87-1.19,1.35-2.48.13-3.73S666.16,262.65,669.38,263Z"
	/>
	<circle class="tree-cls-18" cx="674.48" cy="267.72" r="3.01" />
	<path
		class="tree-cls-16"
		d="M534.66,191.72c-1.29,2.33-3.41,3.63-4.73,2.89s-1.35-3.21,0-5.54c.91-1.65,3.23-4.17,3.41-3,.21,1.35,1.06,1.38,2.07,1S535.63,190,534.66,191.72Z"
	/>
	<path
		class="tree-cls-16"
		d="M527.18,193.92c1.3-2.33,3.42-3.62,4.74-2.89s1.34,3.21.05,5.54c-.92,1.65-3.23,4.17-3.41,3-.21-1.35-1.06-1.37-2.07-1S526.21,195.67,527.18,193.92Z"
	/>
	<path
		class="tree-cls-16"
		d="M532.51,196.83c-2.33-1.29-3.63-3.41-2.89-4.73s3.21-1.35,5.54-.06c1.65.92,4.17,3.24,3,3.41-1.35.21-1.38,1.07-1,2.07S534.25,197.8,532.51,196.83Z"
	/>
	<path
		class="tree-cls-16"
		d="M529.34,188.81c2.33,1.3,3.62,3.41,2.89,4.74s-3.22,1.34-5.55,0c-1.64-.92-4.17-3.24-3-3.41,1.35-.21,1.38-1.07,1-2.07S527.59,187.84,529.34,188.81Z"
	/>
	<path
		class="tree-cls-17"
		d="M533.3,189.74c.32,2.64-.63,4.93-2.13,5.12s-3-1.82-3.3-4.46c-.22-1.88.17-5.28,1-4.47,1,1,1.67.49,2.26-.41S533.06,187.75,533.3,189.74Z"
	/>
	<path
		class="tree-cls-17"
		d="M528.54,195.91c-.32-2.65.64-4.94,2.14-5.12s3,1.81,3.29,4.46c.23,1.87-.17,5.27-1,4.46-1-1-1.67-.49-2.26.41S528.78,197.89,528.54,195.91Z"
	/>
	<path
		class="tree-cls-17"
		d="M534.56,195.13c-2.65.33-4.94-.63-5.12-2.13s1.81-3,4.46-3.3c1.87-.22,5.27.17,4.46,1-1,1-.49,1.67.41,2.26S536.54,194.89,534.56,195.13Z"
	/>
	<path
		class="tree-cls-17"
		d="M527.29,190.51c2.64-.32,4.93.63,5.12,2.13s-1.82,3-4.46,3.3c-1.88.22-5.28-.17-4.47-1,1-1,.5-1.67-.41-2.26S525.3,190.75,527.29,190.51Z"
	/>
	<circle class="tree-cls-18" cx="530.98" cy="192.72" r="1.86" />
	<path
		class="tree-cls-16"
		d="M280.57,467.54c-2.63.41-5-.45-5.2-2s1.71-3,4.34-3.46c1.86-.29,5.27,0,4.49.81-.93,1-.43,1.69.5,2.25S282.54,467.22,280.57,467.54Z"
	/>
	<path
		class="tree-cls-16"
		d="M274.23,463c2.63-.42,4.95.45,5.19,1.94s-1.7,3-4.33,3.46c-1.86.3-5.28,0-4.5-.81.94-1,.43-1.69-.49-2.24S272.25,463.32,274.23,463Z"
	/>
	<path
		class="tree-cls-16"
		d="M275.22,469c-.42-2.63.45-5,1.94-5.19s3,1.7,3.46,4.33c.3,1.86,0,5.27-.8,4.49-1-.93-1.69-.42-2.25.5S275.54,471,275.22,469Z"
	/>
	<path
		class="tree-cls-16"
		d="M279.58,461.55c.41,2.63-.45,5-1.95,5.2s-3-1.71-3.46-4.34c-.29-1.86,0-5.27.81-4.49,1,.93,1.69.43,2.25-.5S279.26,459.58,279.58,461.55Z"
	/>
	<path
		class="tree-cls-17"
		d="M281.3,465.24c-1.89,1.89-4.28,2.55-5.35,1.48s-.41-3.46,1.48-5.35c1.33-1.33,4.25-3.11,4.11-2-.17,1.36.64,1.62,1.72,1.53S282.71,463.83,281.3,465.24Z"
	/>
	<path
		class="tree-cls-17"
		d="M273.5,465.3c1.89-1.88,4.28-2.55,5.35-1.48s.4,3.46-1.48,5.35c-1.33,1.33-4.25,3.12-4.11,2,.17-1.35-.65-1.62-1.72-1.53S272.09,466.71,273.5,465.3Z"
	/>
	<path
		class="tree-cls-17"
		d="M277.82,469.56c-1.88-1.88-2.55-4.28-1.48-5.35s3.46-.4,5.35,1.48c1.33,1.33,3.12,4.26,2,4.11-1.35-.16-1.62.65-1.53,1.72S279.23,471,277.82,469.56Z"
	/>
	<path
		class="tree-cls-17"
		d="M277,461c1.88,1.89,2.54,4.28,1.48,5.35s-3.47.4-5.35-1.48c-1.33-1.33-3.12-4.25-2-4.11,1.35.17,1.61-.65,1.52-1.72S275.56,459.57,277,461Z"
	/>
	<circle class="tree-cls-18" cx="277.52" cy="465.25" r="1.86" />
	<path
		class="tree-cls-16"
		d="M363.5,324.2c-1.29,2.33-3.41,3.63-4.73,2.9s-1.35-3.22,0-5.55c.91-1.65,3.23-4.17,3.4-3,.21,1.35,1.07,1.38,2.08,1S364.47,322.46,363.5,324.2Z"
	/>
	<path
		class="tree-cls-16"
		d="M356,326.4c1.3-2.33,3.41-3.62,4.74-2.89s1.34,3.22.05,5.55c-.92,1.65-3.24,4.17-3.41,3-.21-1.35-1.07-1.38-2.07-1S355.05,328.15,356,326.4Z"
	/>
	<path
		class="tree-cls-16"
		d="M361.35,329.31c-2.33-1.29-3.63-3.41-2.9-4.73s3.22-1.34,5.55-.05c1.65.91,4.17,3.23,3,3.41-1.35.21-1.38,1.06-1,2.07S363.09,330.28,361.35,329.31Z"
	/>
	<path
		class="tree-cls-16"
		d="M358.18,321.3c2.33,1.29,3.62,3.41,2.89,4.73s-3.22,1.34-5.55.05c-1.65-.91-4.17-3.23-3-3.41,1.35-.21,1.38-1.06,1-2.07S356.43,320.33,358.18,321.3Z"
	/>
	<path
		class="tree-cls-17"
		d="M362.14,322.22c.32,2.64-.63,4.94-2.13,5.12s-3-1.82-3.3-4.46c-.23-1.87.17-5.27,1-4.46,1,1,1.67.49,2.26-.41S361.9,320.24,362.14,322.22Z"
	/>
	<path
		class="tree-cls-17"
		d="M357.38,328.39c-.32-2.65.63-4.94,2.13-5.12s3,1.81,3.3,4.46c.23,1.87-.17,5.27-1,4.46-1-1-1.67-.49-2.27.41S357.62,330.37,357.38,328.39Z"
	/>
	<path
		class="tree-cls-17"
		d="M363.4,327.62c-2.65.32-4.94-.64-5.12-2.14s1.81-3,4.46-3.29c1.87-.23,5.27.17,4.46,1-1,1-.49,1.67.41,2.26S365.38,327.38,363.4,327.62Z"
	/>
	<path
		class="tree-cls-17"
		d="M356.13,323c2.64-.32,4.93.63,5.11,2.13s-1.81,3-4.46,3.3c-1.87.23-5.27-.17-4.46-1,1-1,.49-1.67-.41-2.27S354.14,323.23,356.13,323Z"
	/>
	<circle class="tree-cls-18" cx="359.82" cy="325.2" r="1.86" />
	<path
		class="tree-cls-16"
		d="M508.24,301.69c1.25,2.35,1.18,4.83-.15,5.54s-3.43-.62-4.68-3c-.88-1.66-1.73-5-.69-4.51,1.25.56,1.74-.14,2-1.2S507.31,299.92,508.24,301.69Z"
	/>
	<path
		class="tree-cls-16"
		d="M506,309.16c-1.25-2.36-1.18-4.84.16-5.55s3.43.63,4.68,3c.88,1.67,1.73,5,.69,4.51-1.25-.55-1.74.15-2,1.2S507,310.92,506,309.16Z"
	/>
	<path
		class="tree-cls-16"
		d="M511.35,306.28c-2.35,1.25-4.83,1.18-5.54-.16s.62-3.43,3-4.68c1.66-.88,5-1.73,4.51-.69-.56,1.25.14,1.74,1.2,2S513.12,305.34,511.35,306.28Z"
	/>
	<path
		class="tree-cls-16"
		d="M502.91,304.57c2.35-1.25,4.83-1.18,5.54.15s-.63,3.43-3,4.68c-1.66.88-5,1.73-4.51.69.55-1.25-.15-1.73-1.2-2S501.14,305.5,502.91,304.57Z"
	/>
	<path
		class="tree-cls-17"
		d="M505.84,301.75c2.39,1.17,3.79,3.22,3.13,4.57s-3.14,1.51-5.54.34c-1.69-.83-4.33-3-3.21-3.25,1.34-.28,1.33-1.13.89-2.12S504,300.87,505.84,301.75Z"
	/>
	<path
		class="tree-cls-17"
		d="M508.42,309.1c-2.39-1.17-3.8-3.22-3.13-4.58s3.14-1.51,5.53-.33c1.7.83,4.33,3,3.21,3.25-1.33.27-1.32,1.13-.88,2.11S510.21,310,508.42,309.1Z"
	/>
	<path
		class="tree-cls-17"
		d="M511.05,303.63c-1.17,2.4-3.22,3.8-4.58,3.13s-1.5-3.14-.33-5.53c.83-1.69,3-4.33,3.25-3.21.28,1.34,1.13,1.32,2.12.89S511.93,301.84,511.05,303.63Z"
	/>
	<path
		class="tree-cls-17"
		d="M503.21,307.21c1.17-2.39,3.22-3.79,4.58-3.13s1.5,3.14.33,5.54c-.83,1.69-3,4.33-3.25,3.21-.28-1.34-1.13-1.33-2.12-.89S502.33,309,503.21,307.21Z"
	/>
	<circle class="tree-cls-18" cx="507.07" cy="305.32" r="1.86" />
	<path
		class="tree-cls-16"
		d="M569.38,477.82c1.25,2.35,1.18,4.83-.15,5.54s-3.43-.62-4.68-3c-.88-1.66-1.73-5-.69-4.51,1.25.56,1.74-.14,2-1.2S568.45,476.05,569.38,477.82Z"
	/>
	<path
		class="tree-cls-16"
		d="M567.15,485.29c-1.25-2.36-1.18-4.84.16-5.55s3.43.63,4.68,3c.88,1.67,1.73,5,.69,4.51-1.25-.55-1.74.15-2,1.2S568.09,487.05,567.15,485.29Z"
	/>
	<path
		class="tree-cls-16"
		d="M572.49,482.41c-2.35,1.25-4.83,1.18-5.54-.16s.62-3.43,3-4.68c1.66-.88,5-1.73,4.51-.69-.56,1.25.14,1.74,1.2,2S574.26,481.47,572.49,482.41Z"
	/>
	<path
		class="tree-cls-16"
		d="M564,480.7c2.36-1.25,4.84-1.18,5.55.15s-.63,3.43-3,4.68c-1.67.88-5,1.73-4.51.69.55-1.25-.15-1.73-1.2-2S562.28,481.63,564,480.7Z"
	/>
	<path
		class="tree-cls-17"
		d="M567,477.87c2.39,1.18,3.79,3.23,3.13,4.58s-3.14,1.51-5.54.34c-1.69-.83-4.33-3-3.21-3.25,1.34-.28,1.33-1.13.89-2.12S565.18,477,567,477.87Z"
	/>
	<path
		class="tree-cls-17"
		d="M569.56,485.23c-2.39-1.17-3.8-3.22-3.13-4.58s3.14-1.51,5.53-.33c1.7.82,4.33,3,3.21,3.24-1.33.28-1.32,1.14-.88,2.12S571.35,486.11,569.56,485.23Z"
	/>
	<path
		class="tree-cls-17"
		d="M572.19,479.76c-1.17,2.4-3.22,3.8-4.58,3.13s-1.5-3.14-.33-5.53c.83-1.69,3-4.33,3.25-3.21.28,1.34,1.13,1.32,2.12.89S573.07,478,572.19,479.76Z"
	/>
	<path
		class="tree-cls-17"
		d="M564.35,483.34c1.17-2.39,3.22-3.79,4.58-3.13s1.5,3.14.33,5.54c-.83,1.69-3,4.32-3.25,3.2-.28-1.33-1.13-1.32-2.12-.88S563.47,485.13,564.35,483.34Z"
	/>
	<circle class="tree-cls-18" cx="568.21" cy="481.45" r="1.86" />
	<path
		class="tree-cls-16"
		d="M395.57,389.84c1.25,2.35,1.18,4.84-.16,5.54s-3.43-.62-4.68-3c-.88-1.66-1.73-5-.69-4.51,1.25.56,1.74-.14,2-1.19S394.63,388.07,395.57,389.84Z"
	/>
	<path
		class="tree-cls-16"
		d="M393.34,397.31c-1.25-2.36-1.18-4.84.15-5.55s3.43.63,4.68,3c.88,1.67,1.73,5,.69,4.52-1.25-.56-1.73.14-2,1.19S394.27,399.07,393.34,397.31Z"
	/>
	<path
		class="tree-cls-16"
		d="M398.68,394.43c-2.36,1.25-4.84,1.18-5.55-.16s.63-3.42,3-4.67c1.67-.89,5-1.74,4.51-.69-.55,1.24.15,1.73,1.2,2S400.44,393.49,398.68,394.43Z"
	/>
	<path
		class="tree-cls-16"
		d="M390.23,392.72c2.35-1.25,4.83-1.18,5.54.15s-.62,3.43-3,4.68c-1.66.88-5,1.74-4.51.69.56-1.24-.14-1.73-1.2-2S388.46,393.66,390.23,392.72Z"
	/>
	<path
		class="tree-cls-17"
		d="M393.16,389.9c2.4,1.17,3.8,3.22,3.13,4.58s-3.14,1.5-5.53.33c-1.7-.83-4.33-3-3.21-3.25,1.33-.28,1.32-1.13.89-2.12S391.37,389,393.16,389.9Z"
	/>
	<path
		class="tree-cls-17"
		d="M395.74,397.25c-2.39-1.17-3.79-3.22-3.13-4.58s3.14-1.5,5.54-.33c1.69.83,4.33,3,3.21,3.25-1.34.28-1.32,1.13-.89,2.12S397.54,398.13,395.74,397.25Z"
	/>
	<path
		class="tree-cls-17"
		d="M398.37,391.79c-1.17,2.39-3.22,3.79-4.58,3.13s-1.5-3.15-.33-5.54c.83-1.69,3-4.33,3.25-3.21.28,1.34,1.13,1.32,2.12.89S399.25,390,398.37,391.79Z"
	/>
	<path
		class="tree-cls-17"
		d="M390.53,395.36c1.17-2.39,3.22-3.79,4.58-3.13s1.51,3.14.33,5.54c-.83,1.69-3,4.33-3.25,3.21-.27-1.34-1.13-1.32-2.11-.89S389.65,397.16,390.53,395.36Z"
	/>
	<circle class="tree-cls-18" cx="394.4" cy="393.47" r="1.86" />
	<path
		class="tree-cls-16"
		d="M598,342c-3.42.84-6.57,0-7.05-2s1.91-4.19,5.32-5c2.42-.59,6.94-.62,6,.57-1.12,1.42-.38,2.27.89,2.9S600.51,341.4,598,342Z"
	/>
	<path
		class="tree-cls-16"
		d="M589.11,336.77c3.41-.84,6.57.05,7,2s-1.91,4.18-5.33,5c-2.41.59-6.94.61-6-.57,1.12-1.42.38-2.27-.9-2.9S586.54,337.4,589.11,336.77Z"
	/>
	<path
		class="tree-cls-16"
		d="M591.07,344.54c-.84-3.42,0-6.58,2-7.05s4.19,1.9,5,5.32c.59,2.42.61,6.94-.57,6-1.42-1.12-2.27-.38-2.9.9S591.7,347.1,591.07,344.54Z"
	/>
	<path
		class="tree-cls-16"
		d="M596,334.27c.85,3.42,0,6.57-2,7.05s-4.19-1.91-5-5.32c-.59-2.42-.61-6.94.57-6,1.42,1.12,2.27.38,2.9-.89S595.35,331.71,596,334.27Z"
	/>
	<path
		class="tree-cls-17"
		d="M598.65,338.94c-2.27,2.68-5.35,3.82-6.87,2.53s-.91-4.51,1.36-7.2c1.61-1.9,5.25-4.57,5.19-3.06-.07,1.8,1,2.06,2.43,1.82S600.36,336.92,598.65,338.94Z"
	/>
	<path
		class="tree-cls-17"
		d="M588.4,339.87c2.28-2.69,5.35-3.82,6.88-2.53s.91,4.51-1.36,7.19c-1.61,1.9-5.26,4.57-5.19,3.06.07-1.8-1-2-2.43-1.82S586.7,341.88,588.4,339.87Z"
	/>
	<path
		class="tree-cls-17"
		d="M594.55,345c-2.68-2.27-3.82-5.35-2.53-6.87s4.51-.92,7.2,1.36c1.9,1.6,4.57,5.25,3.06,5.19-1.8-.07-2.06,1-1.82,2.43S596.57,346.7,594.55,345Z"
	/>
	<path
		class="tree-cls-17"
		d="M592.5,333.81c2.69,2.27,3.82,5.34,2.54,6.87s-4.51.91-7.2-1.36c-1.9-1.61-4.57-5.26-3.06-5.19,1.8.07,2.05-1,1.82-2.43S590.49,332.1,592.5,333.81Z"
	/>
	<circle class="tree-cls-18" cx="593.68" cy="339.37" r="2.45" />
	<path
		class="tree-cls-16"
		d="M593.44,255.25c-3.51-.15-6.29-1.89-6.21-3.88s3-3.49,6.52-3.34c2.49.11,6.83,1.35,5.6,2.23-1.47,1-1,2.07,0,3S596.08,255.36,593.44,255.25Z"
	/>
	<path
		class="tree-cls-16"
		d="M586.43,247.72c3.51.15,6.29,1.89,6.21,3.88s-3,3.49-6.52,3.34c-2.48-.11-6.83-1.35-5.6-2.23,1.47-1.05,1-2.07,0-3S583.79,247.61,586.43,247.72Z"
	/>
	<path
		class="tree-cls-16"
		d="M586.14,255.72c.15-3.51,1.89-6.29,3.88-6.21s3.49,3,3.34,6.52c-.11,2.49-1.35,6.83-2.23,5.6-1-1.47-2.07-1-3,.05S586,258.36,586.14,255.72Z"
	/>
	<path
		class="tree-cls-16"
		d="M593.73,247.24c-.15,3.52-1.88,6.3-3.88,6.22s-3.49-3-3.34-6.52c.11-2.49,1.35-6.84,2.23-5.61,1,1.47,2.07,1,3,0S593.84,244.61,593.73,247.24Z"
	/>
	<path
		class="tree-cls-17"
		d="M595,252.47c-2.94,1.94-6.21,2.17-7.31.51s.38-4.59,3.32-6.53c2.07-1.38,6.32-2.92,5.84-1.49-.58,1.71.41,2.26,1.82,2.43S597.19,251,595,252.47Z"
	/>
	<path
		class="tree-cls-17"
		d="M584.89,250.5c2.93-1.95,6.2-2.17,7.3-.51s-.38,4.59-3.31,6.53c-2.08,1.37-6.33,2.92-5.85,1.48.58-1.7-.41-2.26-1.82-2.42S582.69,252,584.89,250.5Z"
	/>
	<path
		class="tree-cls-17"
		d="M589.35,257.14c-1.94-2.93-2.17-6.2-.5-7.3s4.58.38,6.53,3.31c1.37,2.08,2.91,6.33,1.48,5.85-1.71-.58-2.26.41-2.43,1.82S590.81,259.34,589.35,257.14Z"
	/>
	<path
		class="tree-cls-17"
		d="M590.52,245.82c1.94,2.94,2.17,6.21.51,7.31s-4.59-.38-6.53-3.32c-1.38-2.07-2.92-6.32-1.49-5.84,1.71.57,2.26-.41,2.43-1.82S589.06,243.62,590.52,245.82Z"
	/>
	<circle class="tree-cls-18" cx="590.09" cy="251.49" r="2.45" />
	<path
		class="tree-cls-16"
		d="M358.32,457.71c-3.52-.15-6.3-1.89-6.21-3.88s3-3.49,6.51-3.34c2.49.11,6.84,1.35,5.61,2.23-1.47,1-1,2.07,0,3S361,457.82,358.32,457.71Z"
	/>
	<path
		class="tree-cls-16"
		d="M351.3,450.18c3.52.15,6.3,1.89,6.21,3.88s-3,3.49-6.51,3.34c-2.49-.11-6.84-1.35-5.61-2.23,1.47-1,1-2.07-.05-3S348.67,450.07,351.3,450.18Z"
	/>
	<path
		class="tree-cls-16"
		d="M351,458.19c.15-3.52,1.88-6.3,3.87-6.22s3.49,3,3.34,6.52c-.1,2.49-1.35,6.83-2.22,5.6-1.05-1.46-2.07-1-3,.05S350.91,460.82,351,458.19Z"
	/>
	<path
		class="tree-cls-16"
		d="M358.6,449.7c-.14,3.52-1.88,6.3-3.87,6.22s-3.49-3-3.34-6.52c.1-2.49,1.35-6.83,2.22-5.6,1.05,1.46,2.07,1,3-.05S358.72,447.07,358.6,449.7Z"
	/>
	<path
		class="tree-cls-17"
		d="M359.86,454.93c-2.93,1.95-6.2,2.17-7.31.51s.39-4.59,3.32-6.53c2.08-1.37,6.33-2.92,5.84-1.49-.57,1.71.41,2.27,1.82,2.43S362.06,453.47,359.86,454.93Z"
	/>
	<path
		class="tree-cls-17"
		d="M349.76,453c2.93-1.94,6.2-2.17,7.31-.51s-.39,4.59-3.32,6.53c-2.07,1.37-6.32,2.92-5.84,1.49.57-1.71-.41-2.27-1.82-2.43S347.56,454.42,349.76,453Z"
	/>
	<path
		class="tree-cls-17"
		d="M354.23,459.61c-1.94-2.94-2.17-6.21-.51-7.31s4.59.38,6.53,3.32c1.37,2.07,2.92,6.32,1.49,5.84-1.71-.57-2.27.41-2.43,1.82S355.69,461.81,354.23,459.61Z"
	/>
	<path
		class="tree-cls-17"
		d="M355.39,448.28c1.95,2.94,2.17,6.21.51,7.31s-4.59-.38-6.53-3.32c-1.37-2.07-2.92-6.32-1.49-5.84,1.71.58,2.27-.41,2.43-1.82S353.93,446.09,355.39,448.28Z"
	/>
	<circle class="tree-cls-18" cx="354.97" cy="453.95" r="2.45" />
	<path
		class="tree-cls-16"
		d="M465.5,194.09c-1.41,3.22-4,5.19-5.86,4.39s-2.17-4.06-.76-7.28c1-2.28,3.72-5.89,4.1-4.42.44,1.74,1.57,1.67,2.84,1.05S466.55,191.67,465.5,194.09Z"
	/>
	<path
		class="tree-cls-16"
		d="M455.94,197.91c1.41-3.22,4-5.19,5.86-4.39s2.17,4.06.76,7.28c-1,2.28-3.73,5.89-4.1,4.42-.44-1.74-1.57-1.67-2.85-1.05S454.89,200.33,455.94,197.91Z"
	/>
	<path
		class="tree-cls-16"
		d="M463.3,201.07c-3.22-1.41-5.19-4-4.39-5.86s4.06-2.17,7.28-.76c2.28,1,5.89,3.73,4.42,4.1-1.74.45-1.67,1.57-1.05,2.85S465.72,202.13,463.3,201.07Z"
	/>
	<path
		class="tree-cls-16"
		d="M458.14,190.93c3.22,1.41,5.19,4,4.39,5.86s-4.06,2.17-7.29.76c-2.28-1-5.88-3.73-4.42-4.1,1.75-.45,1.68-1.57,1.05-2.85S455.72,189.87,458.14,190.93Z"
	/>
	<path
		class="tree-cls-17"
		d="M463.46,191.65c.76,3.44-.21,6.57-2.16,7s-4.14-2-4.89-5.45c-.53-2.43-.44-6.95.72-6,1.39,1.15,2.26.43,2.92-.82S462.9,189.07,463.46,191.65Z"
	/>
	<path
		class="tree-cls-17"
		d="M458,200.35c-.75-3.43.22-6.57,2.17-7s4.14,2,4.89,5.45c.53,2.43.44,6.95-.73,6-1.38-1.15-2.25-.43-2.92.82S458.54,202.93,458,200.35Z"
	/>
	<path
		class="tree-cls-17"
		d="M465.79,198.59c-3.44.75-6.57-.22-7-2.17s2-4.14,5.45-4.89c2.43-.53,6.95-.43,6,.73-1.16,1.38-.44,2.25.82,2.92S468.36,198,465.79,198.59Z"
	/>
	<path
		class="tree-cls-17"
		d="M455.65,193.41c3.44-.75,6.57.22,7,2.17s-2,4.14-5.45,4.89c-2.44.53-7,.43-6-.73,1.15-1.38.44-2.25-.82-2.92S453.07,194,455.65,193.41Z"
	/>
	<circle class="tree-cls-18" cx="460.78" cy="195.86" r="2.45" />
	<circle class="tree-cls-17" cx="389.52" cy="298.26" r="4.08" />
	<circle class="tree-cls-17" cx="285.77" cy="425.13" r="4.08" />
	<circle class="tree-cls-17" cx="551.39" cy="356.83" r="4.08" />
	<circle class="tree-cls-17" cx="507.07" cy="231.92" r="2.88" />
	<circle class="tree-cls-17" cx="538.48" cy="483.59" r="2.88" />
	<circle class="tree-cls-17" cx="429.98" cy="413.2" r="2.88" />
	<circle class="tree-cls-17" cx="308.51" cy="466.77" r="2.88" />
	<circle class="tree-cls-17" cx="722.54" cy="298.26" r="2.88" />
	<circle class="tree-cls-17" cx="653.11" cy="432.57" r="2.88" />
	<circle class="tree-cls-17" cx="522.9" cy="556.94" r="2.88" />
	<circle class="tree-cls-17" cx="432.87" cy="508.37" r="2.88" />
	<circle class="tree-cls-17" cx="642.26" cy="215.79" r="1.78" />
	<circle class="tree-cls-17" cx="576.61" cy="535.79" r="1.78" />
	<circle class="tree-cls-17" cx="697.57" cy="430.8" r="1.78" />
	<circle class="tree-cls-17" cx="345.17" cy="535.79" r="1.78" />
	<circle class="tree-cls-17" cx="367.79" cy="421.05" r="1.78" />
	<circle class="tree-cls-17" cx="412.16" cy="207.66" r="1.78" />
	<circle class="tree-cls-17" cx="456.59" cy="278.13" r="1.78" />
	<circle class="tree-cls-17" cx="654.12" cy="324.9" r="1.78" />
	<circle class="tree-cls-17" cx="630.66" cy="450.08" r="1.78" />
	<path
		class="tree-cls-8"
		d="M480.26,380.47c-.75,2.42-2.66,4.65-5.16,5s-4.85-1.1-7.21-2-5.62-.92-6.81,1.31a4.74,4.74,0,0,0,.2,4.1c.6,1.28,1.49,2.41,2.14,3.67,7.77,15.12-11.84,11.87-16.62,19.69-3.4,5.57,1.88,13.52-1.53,19.08-4.51,7.34-16.91,1.49-24.07,6.26-4.67,3.12-5.67,9.88-10.17,13.24-6.57,4.92-17.11.29-23.56,5.35-6.74,5.28-5.41,18.47-13.66,20.76-5,1.39-11.88-2.16-16.88-3-5.54-.89-9.69-2-15,1-4.26,2.45-8.89,5.73-13.61,4.37-5.29-1.53-7.84-8.28-13.2-9.57-5.69-1.36-10.59,4.16-13.24,9.37s-5.23,11.4-10.8,13.2c-5.3,1.71-11-1.53-14.78-5.62-4.74-5.11-8.9-15.89-17.42-14.23-2,.39-4,1.37-5.89.6a4.61,4.61,0,0,1-2.48-4.13c-.14-3.69,1.74-5.36.27-9.08a13.09,13.09,0,0,0-4.95-6.09,14.18,14.18,0,0,0-18.51,3.43c-2.65,3.65-3.35,8.37-5.67,12.23s-7.76,6.7-11.25,3.85c-.88,2.55-1.73,5.53-.3,7.82s4.3,2.82,6.81,2.34,4.73-1.84,7.05-2.9a32.09,32.09,0,0,1,14.42-2.89c-1.9,3.5-.86,9.13,1.69,12.2a13.18,13.18,0,0,0,10.65,4.45,18.5,18.5,0,0,0,10.86-4.47c-1.35,3.78,2.54,8,6.25,9.5s7.88,1.35,11.83,2.06,8.16,2.79,9.27,6.65c.68,2.35.06,4.84-.19,7.27s.06,5.23,2,6.72,5,1,7-.65,3-4,3.81-6.42a26.29,26.29,0,0,1,3-6.89c3.23-4.44,9.28-5.76,14.77-5.8s11.1.85,16.41-.57c3.55-1,6.74-2.87,10.14-4.25s7.31-2.18,10.71-.81a8.27,8.27,0,0,0,3.34,8.44,8.89,8.89,0,0,0,9.43.32c4.43-2.66,6.5-9.18,11.64-9.74,2.91-.31,5.54,1.54,8.14,2.89s6.13,2.11,8.2.05c3-2.93.23-8.62,2.88-11.82,2.9-3.49,9.19-.82,12.77-3.61,2.13-1.66,2.56-4.71,2.37-7.4s-.83-5.43-.19-8.05a8.46,8.46,0,0,1,14.47-3.66c1.75,1.93,2.51,4.53,3.85,6.76s3.79,4.24,6.32,3.63c3.06-.74,4.05-4.62,3.91-7.76s-.75-6.63,1.13-9.16c3.16-4.26,10.09-2.08,14.89-4.35,4.36-2.08,6.07-7.42,6.41-12.24s-.19-9.85,1.62-14.33c1.33-3.28,3.78-5.42,7.11-5.49s6.5-1.14,8.19-4.31c2.8-5.26-.52-12.33,2.51-17.46,1.31-2.24,3.62-3.68,5.89-4.94s4.65-2.48,6.32-4.46,2.44-5,1.06-7.2c-1.26-2-3.83-2.72-6.19-2.93s-4.82-.1-7-1.11A6,6,0,0,1,483,376C480.37,370.89,480.69,379.07,480.26,380.47Z"
	/>
	<path
		class="tree-cls-19"
		d="M632.76,556.33a14.84,14.84,0,0,0-6.15-.81,26.23,26.23,0,0,0,2-3c.47-.85,1-1.69,1.39-2.57h0a6.25,6.25,0,0,1,2.9,1.61C634.19,552.92,634.3,555.41,632.76,556.33Z"
	/>
	<path
		class="tree-cls-10"
		d="M367.84,521.2a52.21,52.21,0,0,1,47.72,17.4,54.11,54.11,0,0,1,11.16,22.28c2.45,10.25,2,21,4.34,31.3-5.92-3.23-9.1-9.56-11.46-15.88s-3.39-13-5.05-19.56-4.06-13.1-8.64-18a62.67,62.67,0,0,0-9.4,3.19c-2.32,1-4.2,2.62-6.49,3.75a25.51,25.51,0,0,1-8.27,2.43,25.13,25.13,0,0,1-4.16.14c-1-.05-2.88-.74-3.77-.5a38.71,38.71,0,0,0,12.87-6.31c2.71-2,8.41-5.79,5.59-9.77a6.94,6.94,0,0,0-3.32-2.11Z"
	/>
</svg>