<svg id="Layer_1" data-name="Layer 1" xmlns="http://www.w3.org/2000/svg" viewBox="0 0 1000 1000"><defs><style>.cls-1{fill:#ff8f06;}.cls-2{fill:#d14f1b;}.cls-3{fill:#fffffd;}.cls-3,.cls-6{opacity:0.3;}.cls-4,.cls-5{fill:#470000;}.cls-5{opacity:0.4;}.cls-6,.cls-9{fill:#fff;}.cls-7{fill:#e21d26;}.cls-8{fill:#1381d8;}</style></defs><path class="cls-1" d="M399.26,626.2c3.77,4.32,8.66,8.71,14.48,10.47,2.51.75,5.48,1.27,7.79,0,2.59-1.41,5-4.12,7-6.13a74.48,74.48,0,0,0,19-31.17c2.87-9.48,3.71-19.37,4.53-29.19l4.55-54.58c-8.83-4.44-17.69-10-26.95-13.56-2.76-1.07-2.86,0-4.61,2.21-1.46,1.86-2.91,3.74-4.32,5.63q-4,5.34-7.75,10.86c-13.51,20-25.14,43-26,67C386.51,601.3,389.89,615.48,399.26,626.2Z"/><path class="cls-2" d="M389.07,577.84c1,3.84,4.95,9.42,7.58,12.56s7.33,5.25,11.48,4a18,18,0,0,0,4.61-2.58,12.64,12.64,0,0,1,4.78-2.27c1.78-.31,3.87.19,4.79,1.59-3,15-2.09,30.69,3.82,44.92-1-.36-1.75,1.33-.76,1.69-13.66-3.54-25.38-12-31.86-23.31S384.3,589.88,389.07,577.84Z"/><path class="cls-3" d="M398.68,617.45c.82-39.55,9.37-79.85,32.22-112.15-11.58,4.82-18.11,13.3-25.21,23.62s-11.8,22.15-15.17,34.23a179.88,179.88,0,0,0-4.26,19.18,130.36,130.36,0,0,0,2.27,31.54c.5,2.53,1.35,5.42,3.73,6.43S398.63,620.13,398.68,617.45Z"/><path class="cls-4" d="M418.62,640c-7,0-17.35-5.58-24.79-16.44-9.55-13.93-25.5-54,32.58-125.22a2.67,2.67,0,0,1,4.14,3.38c-55.8,68.39-41.18,105.88-32.31,118.82,7.85,11.47,18.31,15.11,21.94,13.91a2.67,2.67,0,0,1,1.65,5.08A10.45,10.45,0,0,1,418.62,640Z"/><path class="cls-5" d="M390.54,611.44c6.17,2.38,13.47,0,18.39-4.14,8.95-7.56,7.87-39.7,22-49.92-1.52,26.74-4.54,54.48-6.06,81.23-5.44,1.75-10.6-1.1-15-4.46C401.11,627.6,396.24,620.33,390.54,611.44Z"/><path class="cls-1" d="M588.62,600.62c-.69-7.63-1.68-15.25-3.1-22.81-1.37-7.38-.59-11.7.48-19.16a71.33,71.33,0,0,0-6.53-41.5c-1.76-3.58-4-7.23-7.64-9.24-3.38-1.86-7.48-2.08-11.41-2.25-8-.36-17.38.45-25.11-1.73-6.31-1.78-10.83-4.37-17.71-4.89-13.9-1.1-27.64-.39-41.52.18-10.39.44-20.79-8.35-30.72-2.16-5.17,3.24-7.1,9.34-8.66,14.95-6.06,21.75-4.84,23.65-8,45.93-2.21,15.57-10.25,51.31-8.58,67,.74,7,2.54,13.58,4.17,20.34,1.7,7,1.58,14.74,2.2,21.9,1,12.09,2.12,24.35,5.37,36,.1.35.19.71.3,1.05a83.13,83.13,0,0,0,4.44,11.92c3.6,7.71,8.3,14.76,15.92,19.34.76.47,1.56.92,2.35,1.36,7.42,4.06,16,6.87,24.65,5.67,5.39-.75,11.76-3.13,15.11-7.34,2.33-2.91,1.91-6.07,1.79-9.5-.21-5.89.22-11.68.54-17.46.67-11.82-.38-23.14-1.78-34.84l14.89-.39a8.75,8.75,0,0,0-3.51,4.47,20.49,20.49,0,0,0-1.28,5.54,75.82,75.82,0,0,0-.17,17.94l5.22.52c.89,10.3,1.73,20.65,2.54,31,.2,2.61.56,5.38,2.4,7.34,5.31,5.66,16.74,1.76,23.39,1.37,11.33-.67,20.4-7,26.91-15.59,5.82-7.71,9.28-16.73,12.16-25.75,1.06-3.34,2-6.67,3-10A252.44,252.44,0,0,0,588.62,600.62Z"/><path class="cls-2" d="M496.4,725.68c.12,3.43.54,6.59-1.79,9.5-3.35,4.21-9.72,6.59-15.11,7.34-8.68,1.2-17.23-1.61-24.65-5.67a46.44,46.44,0,0,1-12-13.74c-3.31-5.87-7-13-10.68-18.88-.3-.45-.59-.91-.87-1.34l.57.29a80.72,80.72,0,0,0,64.88,3.6c.08.47.16,1,.22,1.44C496.62,714,496.19,719.79,496.4,725.68Z"/><path class="cls-6" d="M433.84,697.07c13.3,19.18,26.6,35.78,39.9,46-10.61-2.17-21.05-7.94-27.88-16.34S433.79,707.91,433.84,697.07Z"/><path class="cls-2" d="M511.07,725.68c-.12,3.43-.54,6.59,1.8,9.5,3.35,4.21,9.72,6.59,15.11,7.34,8.67,1.2,17.23-1.61,24.64-5.67a46.29,46.29,0,0,0,12-13.74c3.32-5.87,7-13,10.68-18.88l.88-1.34-.58.29a80.71,80.71,0,0,1-64.88,3.6c-.08.47-.16,1-.22,1.44C510.86,714,511.28,719.79,511.07,725.68Z"/><path class="cls-1" d="M589,641.54l-.19-1.66-7.65-70.28-2.73-25.17-3.5-32.14-.64-5.87C649.77,582.07,603.94,645.31,589,641.54Z"/><path class="cls-2" d="M614.09,582.91c-.59,3.85-1.21,7.83-3.28,11.1s-6,5.66-9.67,4.63a15,15,0,0,1-4.16-2.25,10.31,10.31,0,0,0-4.3-1.93,3.93,3.93,0,0,0-4,1.87c-.58,14.06-.09,29.66-.29,44.59.83-.41,1.6,1.21.78,1.62a45.73,45.73,0,0,0,26-25C620,605.88,619,594.49,614.09,582.91Z"/><path class="cls-4" d="M428.92,556.87c-2.35,24.13-5.11,48-4.26,72.19,2.26,40.57,8.62,123.43,66.62,109.62,3.17-6.86,2.54-15.77,2.83-23.66,0-12-.74-24.07-1.61-36.11a2.67,2.67,0,0,1,5.32-.47c1.22,12.12,2.11,24.28,2.29,36.54-.36,7.16,1.48,27.88-7.54,29.85-49.15,12.57-66.49-40.61-70.67-79.07-4.27-36.28-4.87-73.94,7-108.89Z"/><path class="cls-4" d="M580.05,556.87c11.89,35,11.28,72.71,7,109-3.74,34.37-18.83,85.8-62.72,80.38A51.35,51.35,0,0,1,515,744.4c-2.64-1.31-3.63-3.86-4.34-6.23-3.87-19.9-1-40.21.48-60.13a2.67,2.67,0,0,1,5.32.47c-.87,12-1.58,24.15-1.61,36.16.16,7.75-.1,17.61,2.76,24-.06,0-.28-.08,0,0l1.06.24C576,751.65,582,668.63,584.3,629.15c.86-24.21-1.91-48.12-4.25-72.28Z"/><path class="cls-4" d="M590.3,644.37a8,8,0,0,1-2-.24,2.67,2.67,0,1,1,1.31-5.18c2.81.73,9.82-3.24,15.92-14,14.61-25.7,13.56-69.84-33.17-116.67a2.67,2.67,0,1,1,3.79-3.77c48.84,49,49.6,95.67,34,123.08C604.39,637.84,596.51,644.37,590.3,644.37Z"/><path class="cls-5" d="M579.64,691.3c-.4,1.49-.83,3-1.28,4.44-3.62,12-8.79,23.77-17.56,33.15s-21.58,16.08-35,15.71a18.2,18.2,0,0,1-8.09-1.78c-2.43-1.29-4.36-3.61-4.47-6.2-.13-3,60.82,5.73,69.55-148.5.17-3,2-6.15,3.74-2.37,3.55,7.89,1.89,20.2.22,28.31a37.1,37.1,0,0,0-1.21,8.21c.18,6.88,8.81,12.83,11.48,4.16a81.72,81.72,0,0,0,4-25.35c-.18-12.44-3-26-9.7-37-.56-.92-1.15-1.83-1.76-2.72a66.25,66.25,0,0,0-9.31-10.91,69.13,69.13,0,0,0-29.79-16.64c-15.29-4-31.16-2.55-46.82-3-15.32-.41-31.39-2.16-46.08-6.35s-28.9-11.83-37.71-23.61l27.7,1.16c8.06.33,15.78-.25,23.7-.2,18.41.09,36.82.27,55.22.41l11.7.09c5.91,0,11.87.09,17.64,1.33,8,1.72,9.38-7.74,14.77-1.71l5.54,7.19c11.54,12.57,21.77,26.45,29.35,41.7,7.41,14.91,12.24,31.2,12.79,47.84a32,32,0,0,1-1.92,12.48,65.09,65.09,0,0,1-6.52,13.3,72.29,72.29,0,0,1-7.29,9.42c-1.93,2.15-3.5,5.63-6.57,6.4-2.19.54-4.6.39-6.58,1.39-3.7,1.87-4.1,6.55-4.17,10.46A160.2,160.2,0,0,1,579.64,691.3Z"/><path class="cls-7" d="M617.63,564.19a4.13,4.13,0,0,1-.72.73,14.57,14.57,0,0,1-4.44,2c-1.1.38-2.18.72-3.05,1.13-2.94,1.38-5.82,2.85-8.75,4.26l-.41.19c-3.39,1.64-8.43,5.31-12.17,5.65a22.36,22.36,0,0,1-5.44-.44,11,11,0,0,0-6.19.51c-3.21,1.32-5.75,3.66-8.19,6.17-1.75,1.8-3.45,3.68-5.3,5.32-10.72,9.51-26.61,10.88-40.66,8s-27-9.27-40.64-13.81a155.28,155.28,0,0,0-40-7.72c-5.25-.3-10.84-.44-15.22-3.37a13.26,13.26,0,0,1-2.17-1.85,57.63,57.63,0,0,0-.57,7.14c-.53-.23-1.06-.48-1.59-.72-12.69-5.74-28.78-14.42-41.45-20.08A177.31,177.31,0,0,1,399.9,519.5c3.55-5.4,12.3-14.05,17.41-18a46.72,46.72,0,0,1,8.85-5.39,59.6,59.6,0,0,1,10.28-3.74c9-2.41,18.3-3,27.58-3.33a445.11,445.11,0,0,1,60.1,2c12,0,24.35,3.71,36,6.29,4.33,1,7.49,1,11.29,3.59l.68.46c5,3.41,9.89,7,14.82,10.52l1.48,1.05c1.74,1.24,3.48,2.5,5.18,3.81a55.55,55.55,0,0,1,10.6,10.17c4.7,6.13,7.4,13.51,9.86,20.86.25.74.5,1.48.74,2.23.49,1.49,1.46,3.43,2.29,5.45C618.34,558.64,619.3,562,617.63,564.19Z"/><path class="cls-3" d="M427.93,496.9a128.84,128.84,0,0,0-37.7,67.26c-3.31-1.6-6.54-3.11-9.6-4.48a203.16,203.16,0,0,1,20.52-40.58c3.55-5.4,10.46-11.78,15.56-15.75a47.36,47.36,0,0,1,8.85-5.39C426.34,497.59,427.13,497.23,427.93,496.9Z"/><path class="cls-4" d="M430.92,499.35c-28,11.69-38.31,33.67-47.8,61l-1.41-3.39c13.49,6,26.43,12.89,39.69,18.81l-3.76,2.39c1-13.07,6.59-25.23,14.24-35.54.12-.17.41,0,.3.19-23.86,43.83,14.83,49.35-52.64,19a2.67,2.67,0,0,1-1.41-3.39c7-19.51,15.06-40.36,32.36-53.24a86.06,86.06,0,0,1,18.29-10.73,2.67,2.67,0,1,1,2.14,4.9Z"/><path class="cls-4" d="M566.19,497.82c30,2.76,45.85,38.57,55.65,63a2.67,2.67,0,0,1-1.41,3.39c-11.54,5.1-22.78,11.16-34.55,16.37a2.69,2.69,0,0,1-3.76-2.4c.12-12.52-4.4-23.92-9-35.54,9,9.39,14,22.46,14.39,35.45l-3.76-2.39c11.55-5.1,22.78-11.16,34.56-16.37l-1.41,3.39c-5-13.14-11-26-19-37.39-7.64-10.76-18.33-21.39-32-22.22-3.48-.22-3.22-5.48.31-5.33Z"/><path class="cls-8" d="M583.44,677.91c-4.44,1.3-9,2.62-13.72,3.92-21.14,5.81-44.37,11-65.19,11.46.78-2.69,2.64-7.47,4.21-11.72.94-2.51,1.77-4.84,2.23-6.42-7-1-13.93-.74-21-1.75,0,1.9,1,5,2,8.13,1.3,4,2.77,8.12,2.83,10.5-23.53-2.52-53.61-9.11-77.6-11.92l-2.62-.3q-1.69-9.19-2.48-18.51c-2.36-28.15,1.45-56.77,9.89-83.84.81-2.62,1.68-5.24,2.59-7.83,7,3.91,17,7.32,24,1.33.77-19-.4-42.86.38-61.84,1.51.34,3.39.62,5.43.87,5,.65,11,1.15,14.7,2,1.53,18.65,4.41,37.63,5.93,56.27,13.86,14.41,25.78,15.91,41.3,1.47a316.43,316.43,0,0,1,6.5-67.31c7.35,1.15,13.79,3.58,21.14,4.74a167.85,167.85,0,0,0,1.69,63.68c6.09,7.86,31.44,8.24,36.84.7,0,2.07,0,4.15,0,6.23.18,28.45.5,57.38.7,85.92C583.38,668.42,583.42,673.17,583.44,677.91Z"/><path class="cls-6" d="M457.81,565.9a23.66,23.66,0,0,1-.53,4.83,11.67,11.67,0,0,1-5,7.55c-3.7,2.19-8.32,1.36-12.61,1.31-2.92,0-7,.59-9,3s-1.54,7.34-2,10.43q-.94,5.79-1.85,11.58c-1.32,8.49-2.56,17-3.62,25.51-.95,7.56-1.82,15.15-2.16,22.76-.17,3.81-1,9.39.94,12.92l-.27.2c-3.68,2.8-2.13,8.16-3.85,12.61a14.11,14.11,0,0,0-.5,1.47,8.91,8.91,0,0,0,.4,7,19.52,19.52,0,0,1-4.45-.41c-1.29-.66-2.59-1.33-3.87-2-.85-3.81.22-20.44,1.54-24,.42.23.85.47,1.28.69-1.47-.77-.68-13.92-.69-15.84q0-7.94.55-15.86a225.18,225.18,0,0,1,4.72-32.17c1.2-5.43,2.76-10.75,4.15-16.14.67-2.63.25-7,1.73-9.32,4.65-7.12,16.66,4.63,23.15.67a8.69,8.69,0,0,0,3.69-6.6,29.24,29.24,0,0,0-.63-7.79,139.64,139.64,0,0,1,0-44.51c.59-3.7,2-5.91,6.21-3.52,2.28,1.33,1.37,1.27,1.27,3.27-.25,5-.22,10.06,0,15.19l1.41,32.76C457.78,562.92,457.84,564.42,457.81,565.9Z"/><path class="cls-4" d="M504.53,696a2.66,2.66,0,0,1-2.12-1,2.69,2.69,0,0,1-.45-2.37c.63-2.16,1.86-6.08,3.08-10,.75-2.37,1.49-4.74,2.09-6.71-2.17-.05-4.35.09-6.61.25a69.3,69.3,0,0,1-7.26.25c.45,1.69,1.11,3.68,1.73,5.52,1.29,3.89,2.51,7.56,2.57,10.1a2.67,2.67,0,0,1-3,2.72c-12.27-1.32-26.5-3.77-40.26-6.13s-27.84-4.79-40-6.09A2.69,2.69,0,0,1,412,680.3c-6.53-35.29-3-73.86,10.1-111.55A2.66,2.66,0,0,1,424,567a2.71,2.71,0,0,1,2.45.6c3.74,3.36,12.95,5.51,19.63,1.8.33-9.08.23-19.39.14-29.37-.1-10.57-.2-21.5.2-31.06a2.63,2.63,0,0,1,1-2,2.68,2.68,0,0,1,2.21-.5c2.46.56,6.18,1,9.78,1.38s7.6.86,10.35,1.47a2.67,2.67,0,0,1,2.08,2.39c.75,9.25,2.14,19.86,3.49,30.11,1.29,9.84,2.62,20,3.41,29,14.31,8.54,26,8.44,37.63-.32-.4-23.47-.37-48,3.91-68.74a2.66,2.66,0,0,1,3-2.1c3.8.6,7.37,1.53,10.83,2.42a104.58,104.58,0,0,0,10.32,2.32,2.68,2.68,0,0,1,2.22,3.08,165.13,165.13,0,0,0,1.42,61.57c11.79,7.21,23.71,7.32,32.84.26a2.67,2.67,0,0,1,4.31,2.1c.09,17.59.25,35.39.41,53.19s.31,35.61.41,53.2a2.65,2.65,0,0,1-1.92,2.58c-25.15,7.38-54.28,15-79.61,15.49Zm1.58-25.46a34.39,34.39,0,0,1,4.91.32,2.69,2.69,0,0,1,1.86,1.2,2.65,2.65,0,0,1,.32,2.19c-.62,2.15-1.84,6-3.06,9.94-.7,2.23-1.39,4.45-2,6.35,23.19-1.07,49.47-7.85,72.6-14.59-.1-16.93-.25-34.06-.4-51.18-.14-16.15-.29-32.31-.39-48.31-10.54,5.73-23.26,4.6-35.64-3.37a2.67,2.67,0,0,1-1.16-1.66A170.74,170.74,0,0,1,541,509.3c-2.83-.57-5.55-1.27-8.2-2s-5.17-1.34-7.78-1.86c-3.75,20.07-3.68,43.75-3.28,66.35a2.62,2.62,0,0,1-1,2.13c-18.54,14.81-35.1,7.55-45.95.8a2.68,2.68,0,0,1-1.25-2c-.75-9.26-2.15-19.88-3.5-30.15-1.25-9.59-2.55-19.48-3.34-28.35-2.29-.38-5.12-.7-7.88-1-2.47-.28-5-.56-7.21-.9-.25,8.67-.16,18.34-.08,27.72.1,10.57.2,21.49-.2,31.05a2.66,2.66,0,0,1-1.15,2.09c-7.25,5-17.51,4.32-24.16.67-11.67,35.06-14.81,70.74-9.11,103.55,11.82,1.36,25.28,3.67,38.31,5.91,12.36,2.13,25.1,4.32,36.37,5.68-.45-1.66-1.1-3.6-1.7-5.41-1.29-3.89-2.51-7.56-2.57-10.1a2.66,2.66,0,0,1,.9-2.06,2.63,2.63,0,0,1,2.15-.64,46,46,0,0,0,9.75,0C502.09,670.64,504.07,670.5,506.11,670.5ZM448.7,571h0Z"/><path class="cls-8" d="M497.48,700c-28.27,4.92-57.72.09-84.24-13.3-1.29-.66-2.59-1.33-3.87-2-.85-3.81.22-20.44,1.54-24,.42.23.85.47,1.28.69,3.05,1.66,6.21,3.23,9.45,4.73,22,10.2,47.7,16.71,70.42,15.5,1.34-.07,2.68-.16,4-.29C497.86,688.23,495.66,693,497.48,700Z"/><path class="cls-6" d="M422.23,667.75a31,31,0,0,0-5.7,20c-2.2-.56-4.84-1.09-6.16-2.93a8.81,8.81,0,0,1-1.24-4.93,43.11,43.11,0,0,1,3.39-18.11C415.12,664.74,418.52,666.46,422.23,667.75Z"/><path class="cls-4" d="M475.75,704.5A142.48,142.48,0,0,1,408.1,687a2.68,2.68,0,0,1-1.33-1.76c-1-4.26.14-21.45,1.63-25.55A2.71,2.71,0,0,1,410,658.1a2.68,2.68,0,0,1,2.23.17c24.5,13.51,55.54,20,83,17.37a2.67,2.67,0,0,1,2.84,2,47.68,47.68,0,0,1,1.08,11.47,43.14,43.14,0,0,0,.91,10.21,2.68,2.68,0,0,1-2.13,3.3A129.38,129.38,0,0,1,475.75,704.5Zm-63.93-21.56c25.93,13.75,55.05,19,82.49,14.84a62.62,62.62,0,0,1-.5-8.61,57.55,57.55,0,0,0-.46-8c-26.73,2.07-56.42-4-80.58-16.53A110.87,110.87,0,0,0,411.82,682.94Z"/><path class="cls-8" d="M590.68,684.65a145.32,145.32,0,0,1-20.44,9.15A133.1,133.1,0,0,1,502.58,700c1.81-7-.39-11.75,1.42-18.74,1.56.15,3.14.25,4.74.33,18.66.86,39.3-3.44,58.19-10.68,5.67-2.17,11.18-4.6,16.42-7.23,2-1,3.9-2,5.8-3C590.46,664.21,591.54,680.84,590.68,684.65Z"/><path class="cls-4" d="M524.31,704.5a129.41,129.41,0,0,1-22.19-1.89,2.68,2.68,0,0,1-2.12-3.3,43.67,43.67,0,0,0,.91-10.21A47.67,47.67,0,0,1,502,677.63a2.66,2.66,0,0,1,2.84-2c27.5,2.63,58.53-3.86,83-17.37a2.66,2.66,0,0,1,3.8,1.42c1.5,4.1,2.6,21.29,1.64,25.55A2.66,2.66,0,0,1,592,687,142.41,142.41,0,0,1,524.31,704.5Zm-18.57-6.72c27.44,4.14,56.57-1.09,82.49-14.84a109.79,109.79,0,0,0-1-18.31c-24.15,12.49-53.84,18.59-80.57,16.53a56.05,56.05,0,0,0-.46,8A62.64,62.64,0,0,1,505.74,697.78Z"/><path class="cls-5" d="M388.66,565.34a9.09,9.09,0,0,0,6.14,1.48C392.45,565.77,390.17,565,388.66,565.34Z"/><path class="cls-5" d="M431.45,543a2.48,2.48,0,0,1,.51-.74,27.35,27.35,0,0,0-.62-7.7c-.23-.81-.48-1.62-.75-2.42a32.17,32.17,0,0,0-16.93,18.18c-1.74,4.89-2.34,10.42-5.91,14.29a15.86,15.86,0,0,1-9.09,4.14c2.41,1,4.9,2.41,6.45,3l12.36,4.93c.55.22,1.12.44,1.69.64a55.84,55.84,0,0,1,5.57-18.37C426.06,553.29,429.14,548.27,431.45,543Z"/><path class="cls-5" d="M617.05,555.48a31.75,31.75,0,0,0-1.16-3.27Q615,550,614,547.8a111.69,111.69,0,0,0-13.94-23.07c-2-2.49-4.14-5.26-6.52-8-1.17-1.35-2.4-2.69-3.67-4a41.74,41.74,0,0,0-11.09-8.46c-2.2-1.07-4.45-2-6.72-2.95l-.11-.06c-4.07-3-7.32-3-11.86-4-11.64-2.58-24-6.29-36-6.29a445.11,445.11,0,0,0-60.1-2c-9.28.31-18.62.92-27.58,3.33-4.38,1.17-13.15,2.62-11,8.78,1.8,5.09,6.51,9.32,11.1,11.83a107.31,107.31,0,0,0,20.9,8.29c5.63,1.68,11.1,1.28,12.33,7.61,3,15.13,5.8,30.31,8.27,45.53,3.77.09,7.39,2.82,11.17,2.92-1.31-8.84-2.55-17.69-3.79-26.54q-.94-6.81-1.9-13.61c-.33-2.36-2.61-9.62-1-11.41s46.83-1.57,56.28.21c.53.09,2.13,9.6,2.24,10.6.41,3.56.08,7.26.35,10.85a99.82,99.82,0,0,0,4.68,23.83c4.28.63,8.74,1.57,13,2.2-2.41-10.9-3.56-39.22-2.72-41.32.91-2.29,2.54-2.74,5.08-3.5a25.36,25.36,0,0,1,29.89,12.47c2.66,5.07,5.14,13.81,4.16,19.6-.54,3.2-5,10.52-7.76,12.75-2,1.64-2,1.59-3.33-.62-.8-1.33-4.26-13-3.86-13.39l-7.49-16.75c.87,3.64-6.28,10.79-4.8,41.74.63,13.29,3.25,27.16,4.23,39.86,1.21,15.73,0,31.88-5.57,46.61-.25.66-.51,1.33-.78,2,1.91,1.76,2.56,4,3.11,6.53.17.8.32,1.61.46,2.42a50.48,50.48,0,0,1,.52,12,145.32,145.32,0,0,0,20.44-9.15c.86-3.81-.22-20.44-1.53-24-1.9,1-3.82,2-5.8,3-.2-28.54-.52-57.47-.7-85.92a22.36,22.36,0,0,0,5.44.44c3.74-.34,8.78-4,12.17-5.65l.41-.19c3.09-1.42,8-3,11.8-5.39a12.88,12.88,0,0,0,4-3.6,6.5,6.5,0,0,0,1.12-2.9A12.72,12.72,0,0,0,617.05,555.48Z"/><path class="cls-1" d="M636.37,446.1c-5.36,31-34.18,58.87-111,68.12-3.5.44-7.12.81-10.82,1.15s-7.25.55-11,.66c-2.36.06-4.78.09-7.21.06-25.14-.25-53.23-5.37-76.49-16C399,490.62,381.94,476.71,374.44,458A58,58,0,0,1,370.69,443c-2-17.46,3.47-38.29,19.52-62.7-2.2-2.27-44.29-46.95-20.53-108.67l.31.14,8,3.79,81.93,38.69S491.7,295.46,535,313l88.89-57,.31.54c.25.46.61,1.16,1.07,2.11,5.38,11.15,23,56.14-11.1,110.63l-.32,0q1.41,2.1,2.79,4.27C629.89,394.43,640.65,421.27,636.37,446.1Z"/><path class="cls-2" d="M630.67,315.69c-2.45,2.57-6.81,2.41-9.84.56s-5-5-6.76-8.09-3.45-6.32-6.16-8.61c-4.3-3.63-10.28-4.24-15.7-5.75s-11.23-5-11.83-10.59A78.28,78.28,0,0,0,619.52,256C634.07,271.67,634.32,294.6,630.67,315.69Z"/><path class="cls-5" d="M627.21,387.58a98.46,98.46,0,0,0-12.94-18.88C650.8,309.81,627,262.13,624,256.52c-7.9,15.8-47.56,57.18-60.66,71a5,5,0,0,0,.82,7.55c1.77,1.21,3.51,2.48,5.21,3.79a105.22,105.22,0,0,1,36.32,52.89A107.15,107.15,0,0,1,609,408.93l0-1a93.74,93.74,0,0,1,.31,19c-1.93,22.6-17,42.87-35.67,54.9-17.76,11.47-38.83,16.79-59.8,19.44a266.93,266.93,0,0,1-102.44-7.07c1.67.45,4.1,3.44,5.56,4.52a77,77,0,0,0,7.06,4.68,81.42,81.42,0,0,0,14.77,6.84,117,117,0,0,0,30.82,5.69,377.26,377.26,0,0,0,76.66-3l4.56-.7c13.42-2.15,26.88-5.06,39.08-11a83.5,83.5,0,0,0,37.31-113.53Z"/><path class="cls-2" d="M367.89,329.84c2.78,2.22,7.07,1.47,9.82-.78s4.29-5.62,5.61-8.92,2.57-6.73,4.95-9.37c3.77-4.17,9.61-5.59,14.77-7.82s10.45-6.46,10.29-12.08a78.36,78.36,0,0,1-42.45-21.71C358.57,286.68,361.42,309.43,367.89,329.84Z"/><path class="cls-3" d="M624.19,256.52l-.3-.56L535,313c-43.28-17.49-75.06,1.31-75.06,1.31L370,271.78h0l-.3-.14C345.92,333.36,388,378,390.21,380.31c-16,24.41-21.5,45.24-19.52,62.7A58,58,0,0,0,374.44,458c7.5,18.76,24.52,32.67,45.44,42.19-50.69-41.24-29.41-85.6-16.15-104.66a16.89,16.89,0,0,0-.16-19.55c-27.61-38.18-28-70-26.18-86l63.43,30.46a27.23,27.23,0,0,0,23.72,2.93c13.84-4.75,38.28-10.2,64.46-2.31a27.46,27.46,0,0,0,25.28-4.84l71-57.54C624.81,257.67,624.43,257,624.19,256.52Z"/><path class="cls-4" d="M498.53,518.76c-47.14,0-109.4-16.89-126.57-59.83-9.19-23-3.8-49.92,16-80.09a2.67,2.67,0,0,1,4.46,2.93c-18.79,28.63-24,53.92-15.51,75.18,18,45.07,92.68,59.93,137.44,55.77,3.68-.34,7.27-.73,10.75-1.14,56.53-6.82,91.57-24.11,104.13-51.39,14.69-31.93-5-69.56-18.08-89.14a2.67,2.67,0,1,1,4.44-3c13.68,20.52,34.27,60.06,18.49,94.34-13.39,29.08-49.84,47.4-108.34,54.46q-5.31.63-10.9,1.16C509.71,518.51,504.23,518.76,498.53,518.76Z"/><path class="cls-4" d="M393.8,383.6a2.72,2.72,0,0,1-1.84-.73c-.5-.48-49.51-47.89-24.77-112.2a2.7,2.7,0,0,1,1.5-1.52,2.66,2.66,0,0,1,2.14.07l89,42c6.43-3.35,35.83-16.54,74.87-1.31l87.73-56.25a2.69,2.69,0,0,1,3.86,1.11c.26.57,26.33,57.41-13.42,120.9a2.67,2.67,0,0,1-4.53-2.83c33.18-53,18.75-101,14.27-112.95L536.44,315.2a2.72,2.72,0,0,1-2.45.23c-41.46-16.76-72.39.95-72.7,1.13a2.7,2.7,0,0,1-2.5.12l-87.61-41.39c-21.08,59.54,24,103.26,24.46,103.7a2.67,2.67,0,0,1-1.84,4.61Z"/><path class="cls-4" d="M455.36,659.92a92.83,92.83,0,0,0,50.32,9.79c12.88-.82,25.69-3.68,37.22-9.47a78.13,78.13,0,0,0,11.23-6.63c-1.6,4.4-5,8-8.81,10.69-20.88,14.57-73.53,17.87-90-4.38Z"/><path class="cls-5" d="M462.46,665c3.25,6.75,9.18,14.15,13.31,20.48a53.6,53.6,0,0,1,.67,56.89c5.59-.81,12.8-1.69,18.39-2.5,6.23-19.94,6.38-41.15,1.83-61.48-7.05-3.68-14.46-5.65-22.23-7.76A33.56,33.56,0,0,1,462.46,665Z"/><path class="cls-1" d="M379.79,593.18c.89,1.53,1.76,3.07,2.64,4.62,11.55,20.27,23,41.3,40.23,55.5.77.64,1.56,1.27,2.36,1.88,13.39,10.24,30.52,16.24,47.24,14.84,8.11-.68,20.08-5.69,27.55-10.22,6.61-7.9,6.83-18.81,1-32.56-.4-19.5-23.4-48.91-42.26-50.75-8.06-.79-15.94-3-24.2-2.18a92.08,92.08,0,0,0-15.74,3C405.31,581,392.51,587.08,379.79,593.18Z"/><path class="cls-3" d="M384.59,596.54c18.3-11.65,41.91-13.14,62.72-7s37.66,19,52.88,34.42c-2.28-20-16.49-36.63-34.95-44.53s-40-6.93-58.77.26C397.06,583.27,389.25,587.6,384.59,596.54Z"/><path class="cls-9" d="M379.79,593.18c.89,1.53,1.76,3.07,2.64,4.62,11.55,20.27,23,41.3,40.23,55.5a7.48,7.48,0,0,0,.48-.76c2.21-4,1.17-8.94-.85-12.65s-4.9-6.78-6.57-10.73-1.73-9.36,1.38-12.54c3.84-3.93,10.84-2.91,13.48-7.86,1.53-2.87.66-6.4-.85-9s-3.59-4.83-4.67-7.71c-1.54-4.13-.34-9.28,2.37-12.9,1.45-1.93,5.13-3,6.92-4.82a92.08,92.08,0,0,0-15.74,3C405.31,581,392.51,587.08,379.79,593.18Z"/><path class="cls-4" d="M500.81,627.24c-4.65-11.7-8.83-23.29-17.63-32.36-17.63-19.13-43.71-21.89-67.51-13.71-11.85,3.67-23.22,9.11-34.72,14.42l1.15-3.74c23.16,40.35,44.66,82.63,99.18,73.26,6.31-1.21,11.83-4,18.53-5.31a25.57,25.57,0,0,1-3.75,3.46c-21.77,12.32-51.56,8.81-71.81-5.41-21.64-16.07-33.88-40.63-46.77-63.34a2.68,2.68,0,0,1,1.17-3.75c11.35-5.63,22.91-11.24,35.3-15.13,18.33-5.94,40.28-7,57.32,3.74,16.59,9.82,30.15,28,29.54,47.87Z"/><path class="cls-5" d="M382,598.15c1.13,2.85,3,5.4,4.46,8.27A177.76,177.76,0,0,0,397.25,625c7.7,11.28,16.87,21.91,27.77,30.22A71,71,0,0,0,445.1,665.8c6.7,2.31,12.55,2.21,19.35,4,4,1,9.8-.44,13.58-1.88,3-1.15,4.15-1.81,8,.28,2.64,1.45,4.72,3.92,7.59,4.81,4.68,1.43,9.47-1.8,12.87-5.31,6.3-6.49,12-16.41,9.35-25.77-1.22-4.3-16-28.95-17.78-30.95s-3.1-1.13-4.81.93a7,7,0,0,0-1.13,4.15c-.28,4.9-.56,9.86-2,14.57s-4.09,9.2-8.22,11.86c-5.28,3.4-12.06,3.32-18.29,2.48-25.24-3.4-45.09-17.88-63.7-34.29q-5-4.42-9.87-9c-1.4-1.32-9.08-7-9-8.7A13.5,13.5,0,0,0,382,598.15Z"/></svg>