<svg id="Layer_1" data-name="Layer 1" xmlns="http://www.w3.org/2000/svg" viewBox="0 0 1000 1000"><defs><style>.cls-1{fill:#ff8f06;}.cls-2{fill:#d14f1b;}.cls-3{fill:#f59b95;}.cls-4,.cls-6{fill:#470000;}.cls-5{fill:#fffffd;}.cls-11,.cls-5{opacity:0.3;}.cls-12,.cls-6{opacity:0.4;}.cls-11,.cls-12,.cls-7{fill:#fff;}.cls-8{fill:#e21d26;}.cls-9{fill:#1381d8;}.cls-10{fill:#004063;}</style></defs><path class="cls-1" d="M561.79,254.4c-5.86,2.2-7.36,9.47-10.4,14-4,6.09-2.69,13.21-3.57,20.34-1.17,9.41-3.73,18.44-2.55,27.82-6.49,2.4-11.62,7.69-14.7,13.6-3,5.63-1.56,12.05-5.51,17.63s-9.64,9.93-15.2,14.14a21.92,21.92,0,0,1-6.53,3.86c-2.44.77-5.35.59-7.18-1.09-2.55-2.32-2.06-6.31-1.29-9.64a216,216,0,0,1,21.78-56.67c8.65-15.57,20.25-38.62,39.45-43.63A26.51,26.51,0,0,1,561.79,254.4Z"/><path class="cls-2" d="M551.68,277.49c-1.1,4-2.6,8.55-6.4,10.29-3,1.4-6.61.53-9.84-.37-2.9-.81-6.24-2-7.06-4.93-.6-2.13.45-4.35,1.61-6.23a43.9,43.9,0,0,1,22.53-18.14,4.94,4.94,0,0,1,3.76-.21c2.56,1.3-.7,5.36-1.18,7.09C554,269.15,552.82,273.32,551.68,277.49Z"/><path class="cls-3" d="M543.5,337.8s1.76-77.68,18.44-83.43l6.21,78.49S562.1,320.88,543.5,337.8Z"/><path class="cls-4" d="M542,341.92a2.72,2.72,0,0,1-1.27-.32,2.65,2.65,0,0,1-1.4-2.46c.55-13.52,4.22-81.26,21.74-87.29a2.67,2.67,0,0,1,3.52,2.27l7.16,76.39a12.3,12.3,0,0,1,.49,6.31A2.6,2.6,0,0,1,569.5,339a2.67,2.67,0,0,1-2.53-2.42l-.44-4.68a1.79,1.79,0,0,0-.56-.57c-.76-.48-5.43-2.25-22.39,10.09A2.67,2.67,0,0,1,542,341.92Zm17.71-82.64c-8.36,10.15-13.27,47.79-14.78,74.65,9.46-6.35,16.3-9,21-8.21Z"/><path class="cls-5" d="M554,258c-13,14.62-21.18,34.29-23.9,53.66-6.84-.87-14-1.19-20.87-2.06A116.58,116.58,0,0,1,554,258Z"/><path class="cls-4" d="M491.88,361.37a2.74,2.74,0,0,1-.84-.14,2.67,2.67,0,0,1-1.69-3.38c36.29-108.21,71.37-106.28,72.84-106.14a2.67,2.67,0,0,1-.45,5.33c-.56.1-32.86-.26-67.32,102.51A2.69,2.69,0,0,1,491.88,361.37Z"/><path class="cls-6" d="M558.17,319.12c3,1.62,6.27,2.85,9.24,4.46l-5.47-69.21c-10.34,3.57-15,34.82-17,58C549.68,313.66,553.66,316.69,558.17,319.12Z"/><path class="cls-1" d="M491.62,618.45c.29,2.82.62,5.72,1,8.68,1.37,11.38,3.24,23.58,5.62,35.56,1.11,5.56,2.33,11.1,3.66,16.47,6.11,24.64,14.68,46.3,26.07,55.43a19.77,19.77,0,0,0,9.81,4.47c5.74.75,10.94-4.42,15.54-12.94,9.19-17,16.07-47.42,20.3-70.23,2.56-13.76,4.16-24.78,4.74-28.44Z"/><path class="cls-2" d="M566,694.09c-13.34,11.31-36.22,9.34-52.54,4.85,1.29,11.52,4.37,22.23,10.46,31.7,3.3,5.12,7.74,10.06,13.41,10.72s11.35-3.53,14.52-8.92,4.44-11.86,5.64-18.15C559.28,705.13,564.27,703.25,566,694.09Z"/><path class="cls-4" d="M578.33,627.44c-.1,21.77-4.75,42.95-9.74,64-4.3,15.08-14.32,60.52-37.46,48.83-29-15-40-91.39-39.51-121.84,7.57,29.91,15.09,100.36,42.2,116.16,24.17,13.44,37.95-91.14,44.51-107.18Z"/><path class="cls-6" d="M542.45,700.33a33.6,33.6,0,0,1,3.07-8.6,49.54,49.54,0,0,1,6.93-9.66c4.4-4.76,8.73-5.67,14.87-7-.11,13.7-4.42,26.92-9.78,39.39-2.56,6-5.42,11.77-8.15,17.64-2.23,4.79-6.39,10.12-12.41,9.32a19,19,0,0,1-9.51-4.4c3.55-8.85,7.65-17.57,11.78-26.17C540.89,707.39,541.58,703.85,542.45,700.33Z"/><path class="cls-1" d="M473.1,653.72a71.11,71.11,0,0,1-88.18-.05c-.76-.61-1.49-1.21-2.2-1.84-15.34-13.23-24.19-32.2-32.93-50.8l-1.21-2.58c-.39-.83-.78-1.66-1.17-2.47l-.93-2,.66-.26,4.93-1.85c12.46-4.65,25-9.12,37.67-11.82a116.66,116.66,0,0,1,17-2.37,69,69,0,0,1,25.18,2.72,54.55,54.55,0,0,1,18.18,10.29l.59.51a2.37,2.37,0,0,1,.29.25c7.12,6,15.8,8.85,22,15.13.19.21-1.69,3.86-2,4.84,0,.14,0,.22,0,.24,3.89,3.9,7.83,7.84,10.48,12.46s3.95,10,2.39,15.41a21.55,21.55,0,0,1-2.83,5.87A37.4,37.4,0,0,1,473.1,653.72Z"/><path class="cls-5" d="M469.24,614c.5-.78-38.94-42.55-104.24-17.24-3.48,1.35-10.32,4.14-14,4.5a2.5,2.5,0,0,1-1.21-.2,7.65,7.65,0,0,1-3.21-3.41c-.11-.28.16-.79.83-1.64l.74-.89a18.55,18.55,0,0,1,3.92-3.18c12.46-4.65,25-9.12,37.67-11.82a116.66,116.66,0,0,1,17-2.37,69,69,0,0,1,25.18,2.72,54.55,54.55,0,0,1,18.18,10.29l.59.51a2.37,2.37,0,0,1,.29.25c7.12,6,15.8,8.85,22,15.13.19.21-1.69,3.86-2,4.84A30.48,30.48,0,0,0,469.24,614Z"/><path class="cls-7" d="M346.48,594q1,2.21,2.09,4.43c9.16,19.41,18.1,39.54,34.14,53.38a8.17,8.17,0,0,0,.62-.7c2.92-3.67,2.56-8.39,1-11.94s-4.16-6.53-5.33-10.28-.43-8.87,3.32-11.79c4.63-3.59,11.85-2.44,15.36-7,2-2.67,1.65-6,.45-8.53s-3.07-4.64-3.77-7.39c-1-3.93,1-8.76,4.41-12.09,1.82-1.78,5.85-2.69,8-4.35a114.12,114.12,0,0,0-17,2.37C375.18,583.19,360.78,588.62,346.48,594Z"/><path class="cls-4" d="M431.51,669.24c-19.71,0-38.9-6-48.26-13.49h0c-17.07-13.57-26.53-33.7-35.68-53.16q-1.74-3.72-3.5-7.41a2.67,2.67,0,0,1,1.46-3.65c14.18-5.36,28.85-10.9,43.66-14,16.9-3.6,31.56-3.46,43.58.4,11.73,3.77,43.35,21.57,52,43.22,3.21,8.1,2.84,15.83-1.11,23-6.69,12.13-18.87,20.27-35.24,23.54A86.47,86.47,0,0,1,431.51,669.24ZM350.14,595.5l2.27,4.82c8.89,18.91,18.08,38.46,34.17,51.25h0c11.15,8.87,38.22,15.34,60.75,10.83,10.3-2.06,24.14-7.35,31.6-20.88,3.18-5.77,3.45-11.81.82-18.44-7.71-19.43-38.3-36.78-48.62-40.1-11.11-3.58-24.85-3.67-40.83-.27C376.82,585.58,363.28,590.54,350.14,595.5Z"/><path class="cls-6" d="M369.93,637.23c2,1.35,3.68,5.27,5.31,7.16a64.39,64.39,0,0,0,22.83,16.92c11.22,4.94,21.92,8.23,34.42,7.62a71.91,71.91,0,0,0,40.62-15.21,38,38,0,0,0,7.94-8.28c.63-.94-5.06-7-5.85-7.79a19.48,19.48,0,0,0-8.61-4.67c-5.62-1.54-8.17-.35-13.33,2.27-12.08,6.14-24.77,11.74-38.38,13.23A67.44,67.44,0,0,1,369.93,637.23Z"/><path class="cls-1" d="M573,669.81l-.52.4a56.34,56.34,0,0,1-35,11c-14-.34-26.12-2-36.56-4.93-1.9-.53-3.75-1.09-5.55-1.72A79.55,79.55,0,0,1,479,666.93c-.47-.29-.93-.58-1.39-.91-42.09-27.36-36.53-89.59-8.69-168.8v0q2.19-6.19,4.55-12.53l1.29-3.45c.06-.18.14-.37.2-.53a39.68,39.68,0,0,1,5.56-10.21,31,31,0,0,1,15.62-10.85c10-3.12,20.31-1.45,25.46-.21.34.07.68.17,1,.24a97,97,0,0,1,43,23.75,105.61,105.61,0,0,1,11.47,12.83l.54.73c.6.8,1.18,1.61,1.75,2.44q1.59,2.25,3.11,4.64a2.9,2.9,0,0,1,.2.33h0c11,17.32,18.84,39.66,22.05,67.55.45,3.83.82,7.75,1.08,11.8C608.15,619.58,595.52,653,573,669.81Z"/><path class="cls-5" d="M473.28,660.61c1.86,2.2,3.27,4,4.28,5.41-42.09-27.36-36.53-89.59-8.69-168.8a25.05,25.05,0,0,1,9.06,3.06S433.87,614.23,473.28,660.61Z"/><path class="cls-7" d="M600.56,599.44c-4.52,5.24-10.23,1.32-14.88-3.92a80.2,80.2,0,0,1-7.29-10c-6.64-10.39-10.71-22.16-14.73-33.8-.69-2-1.36-4-2-5.93q-2.83-8.22-5.66-16.42c-1.64-4.76-3.64-18.14-8.84-19.4l.48-.09.26,0c12-2.26,22.65-3.59,34.6-5.8l1.67-.3c0,.06.08.1.11.17,12.76,18.83,19.21,41.42,20.25,64,.07,1.21.14,2.56.23,4C605.24,580.83,605.85,593.33,600.56,599.44Z"/><path class="cls-4" d="M538.89,684.55c-.5,0-1,0-1.52,0h0c-38.52-.93-65.37-12.28-79.82-33.73-21.65-32.14-16.93-86.3,14.86-170.42,11.24-29.75,40.94-25.06,49.78-22.91,50.34,12.25,81.79,58.44,86.28,126.73,2.09,31.89-7.44,62.16-25.5,81C570.79,677.88,555.58,684.55,538.89,684.55Zm-1.39-5.36c15.71.46,30.14-5.74,41.61-17.7,17-17.76,26-46.52,24-76.94-4.32-65.8-34.28-110.23-82.21-121.89-9.94-2.42-34.09-5.35-43.52,19.61-31.12,82.36-36,135-15.42,165.55C475.59,668,500.3,678.3,537.5,679.19Z"/><path class="cls-1" d="M477.93,621.84c.32,8.9.89,18.52,1.8,28.32,4,43.56,14.35,90.68,36.06,95,5.82,1.15,11.48-4,16.75-12.57,4.38-7.11,8.49-16.59,12.22-26.86,4.93-13.62,9.17-28.64,12.42-41.31,3.48-13.57,5.82-24.44,6.65-28.06l-66.64-11.23-11.42-1.93Z"/><path class="cls-2" d="M544.36,698.72c-13.34,11.3-36.21,9.33-52.54,4.84,1.29,11.52,4.38,22.23,10.47,31.7,3.29,5.12,7.74,10.06,13.4,10.72s11.36-3.52,14.53-8.92,8.33-12.41,9.54-18.7C541.51,709.2,542.61,707.87,544.36,698.72Z"/><path class="cls-5" d="M478.53,627c7.12,24.74,12.42,47.61,19.54,72.34,2.48,8.65,5,17.37,9.28,25.27s10.54,15,18.73,18.76c-8.85,3.62-19.76-.09-26.22-7.14s-9.33-16.72-10.44-26.21-5.6-20.49-6.41-30c-1.19-13.95-.15-26.14-4-39.6C477.48,635.15,480.05,632.28,478.53,627Z"/><path class="cls-4" d="M563.83,636.31c-1.57,21.71-7.63,42.54-14,63.23-5.31,14.76-18.27,59.32-40.56,46.47-28.05-16.7-33.85-93.83-31.32-124.18,5.55,30.34,8.22,101.2,34.34,118.66,23.21,14.54,43.9-88.5,51.57-104.18Z"/><path class="cls-8" d="M585.88,504.92c11.88,15.77,17.48,35.61,21.22,54.93-21.77,11.74-44.6,16.71-69.38,17.7-12,.48-23.91-.35-35.84-1.18-19.34-1.34-38.73-2.7-57.72-6.55,2.51-8.25,20.82-58.59,25.94-75.43C508.4,502,546.91,507.47,585.88,504.92Z"/><path class="cls-4" d="M530.43,580.36c-9.66,0-19.33-.67-28.74-1.33-14.16-1-28.8-2-43.16-4a15.91,15.91,0,0,1-13.18-19.72l.33-1.37c8-33.27,17.56-52,24.2-61.9a2.7,2.7,0,0,1,2.74-1.13c39.1,7.72,74.6,13.91,113.08,11.39a2.67,2.67,0,0,1,2.53,1.4c11.67,21.84,16,36.57,19.48,54.62a2.67,2.67,0,0,1-1.36,2.86c-22.63,12.2-43.77,18.08-68.52,19.08C535.37,580.32,532.9,580.36,530.43,580.36Zm-57.09-83.9c-6.34,9.86-15.07,27.79-22.46,58.68-.16.67-.28,1.17-.36,1.46a10.44,10.44,0,0,0,1.43,8.49,10.66,10.66,0,0,0,7.34,4.61c14.16,2,28.71,3,42.77,4,11.67.82,23.73,1.65,35.56,1.18,23.26-.93,43.23-6.35,64.46-17.51-3.26-16.28-7.42-30-17.76-49.68C546.45,509.94,511.55,504,473.34,496.46Z"/><path class="cls-9" d="M547,705.53h18.31c.79-2.79,1.32-5.88,2-8.11l7.93-25.17-2.48-1-14.15,7.87a40.58,40.58,0,0,0-4.79,3A20.49,20.49,0,0,0,546,701.25,26.18,26.18,0,0,0,547,705.53Z"/><path class="cls-4" d="M565.15,707.14a2.82,2.82,0,0,1-.8-.12,2.66,2.66,0,0,1-1.74-3.35l10.14-32.22a2.67,2.67,0,0,1,5.09,1.61L567.7,705.28A2.66,2.66,0,0,1,565.15,707.14Z"/><path class="cls-9" d="M489.85,707.3c24.32,9.14,51.36,9.36,77.22,1.1,1.26-.4,2.53-.82,3.78-1.27,1.41-3.43,3.26-19.14,2.69-22.72-.42.15-.84.31-1.26.45-3,1-6.07,2-9.2,2.9-21.29,6-45.29,8-65.3,3.17-1.19-.28-2.36-.58-3.51-.91C491.48,696.26,492.64,701.06,489.85,707.3Z"/><path class="cls-6" d="M562.26,689.27a30.49,30.49,0,0,1,1.7,19.62c2-.16,4.49-.24,6-1.75a8.64,8.64,0,0,0,1.93-4.4,42.84,42.84,0,0,0,0-17.47A19.9,19.9,0,0,1,562.26,689.27Z"/><path class="cls-4" d="M529.38,717a115,115,0,0,1-40.47-7.22,2.66,2.66,0,0,1-1.5-3.59,43,43,0,0,0,2.53-9.38,47.14,47.14,0,0,1,2.89-10.55A2.67,2.67,0,0,1,496,684.8c24,6.85,52.61,5.77,76.63-2.9a2.67,2.67,0,0,1,2.27.21,2.72,2.72,0,0,1,1.28,1.89c.64,4.07-1.28,20.32-2.86,24.15a2.66,2.66,0,0,1-1.58,1.5A127.44,127.44,0,0,1,529.38,717Zm-36.07-11.31c23.57,8.17,50.19,7.95,75.41-.66a110.32,110.32,0,0,0,2.22-16.92c-23.49,7.66-50.71,8.57-74.05,2.45a58.48,58.48,0,0,0-1.71,7.26A61.53,61.53,0,0,1,493.31,705.71Z"/><path class="cls-9" d="M603.34,557.55c-2.85.2.74,2-2.12,2.23a156.66,156.66,0,0,0-26.72-53.67,5.6,5.6,0,0,0-5.25-2.09,31.2,31.2,0,0,0-4,.86,38.62,38.62,0,0,0-4.18,1.39,5.53,5.53,0,0,0-2.29,8.52,139.27,139.27,0,0,1,18.66,32.33,5.61,5.61,0,0,1-2,6.64A92.52,92.52,0,0,1,545.23,568c-20.67,5.43-43.93,10.4-63.82,2.56-4.38-1.74-10.43-5.23-10.25-9.95A124.12,124.12,0,0,1,487.09,505a5.54,5.54,0,0,0-2-7.45l-.35-.18-.34-.17a5.57,5.57,0,0,0-7.47,2.5,266.06,266.06,0,0,0-20.25,54.89,5.54,5.54,0,0,1-5.25,4.23h-.09a5.53,5.53,0,0,0-5.26,4.22c-9.2,38.2,2.33,81.25,29.14,110a5.6,5.6,0,0,1,1.48,3.18c.67,5.7,2.91,15.21,5,23.62.8,3.25,1.57,6.33,2.21,9h65c3.57-7.65,6.13-15.92,8.8-23.92a5.5,5.5,0,0,1,2.73-3.16,62,62,0,0,0,6.61-3.83c16.66-11,26.22-28.64,34.27-48.06C610.64,607.32,611.79,580.45,603.34,557.55Z"/><path class="cls-5" d="M490,703.33a46.56,46.56,0,0,0-8.4-3.46c-2.05-8.41-4.29-17.92-5-23.62a5.6,5.6,0,0,0-1.48-3.18c-26.81-28.75-38.34-71.8-29.14-110a5.53,5.53,0,0,1,5.26-4.22h.09a5.54,5.54,0,0,0,5.25-4.23,266.06,266.06,0,0,1,20.25-54.89,5.57,5.57,0,0,1,7.47-2.5l.34.17.35.18a2.22,2.22,0,0,1-.28,1C472,519.74,465,542.81,465.19,565.68a5.43,5.43,0,0,1-5.22,5.18h-.1a5.65,5.65,0,0,0-5.23,5c-3.34,34,2.08,75.55,32.76,95.59C488.09,681.88,489.36,693,490,703.33Z"/><path class="cls-10" d="M609,594.11a50.46,50.46,0,0,1-22.62,6.42c4.38,4,6.11,13.07,3.56,18.45-1.27,2.66-3.42,5.15-3.24,8.09.2,3.21,3.3,5.62,6.47,6.16s6.38-.36,9.47-1.25"/><path class="cls-4" d="M548.9,711.51h-65a2.68,2.68,0,0,1-2.6-2l-1.17-4.8c-2.48-10-5.53-22.4-6.15-29.06-28.91-30.46-40.69-77.55-29.34-117.52a2.67,2.67,0,0,1,2.74-1.93c1.31.08,2.63.05,4,0,.72,0,1.45,0,2.19,0a268.84,268.84,0,0,1,23.58-62.74,2.65,2.65,0,0,1,1.65-1.35,2.71,2.71,0,0,1,2.1.29c1.46.89,3.28,1.8,5,2.67s3.77,1.89,5.42,2.89a2.67,2.67,0,0,1,.89,3.68,121.13,121.13,0,0,0-18.4,59.12c-.11,2.89,4.55,5.77,8.57,7.36,19.21,7.58,42.16,2.6,62.15-2.66a89.6,89.6,0,0,0,31.26-15.2,135.05,135.05,0,0,0-23.27-38.89,2.66,2.66,0,0,1,.57-4c5.55-3.66,13.56-6.24,19.48-6.29a2.56,2.56,0,0,1,2.09,1A157.54,157.54,0,0,1,603,556.41a8.62,8.62,0,0,1,1.87-.28,2.74,2.74,0,0,1,2.69,1.74c8.45,22.94,7.67,50.7-2.09,74.26-9.14,22-20.33,37-35.23,47a36.72,36.72,0,0,0-14,18.36,132.39,132.39,0,0,1-5,12.47A2.67,2.67,0,0,1,548.9,711.51Zm-63-5.35h61.24c1.33-3,2.64-6.36,4.07-10.44a42.21,42.21,0,0,1,16-21c14-9.39,24.56-23.57,33.28-44.61,8.92-21.53,9.95-46.73,2.85-68a8.74,8.74,0,0,1-2,.33,2.7,2.7,0,0,1-2.76-2,152.77,152.77,0,0,0-27.27-54,35.69,35.69,0,0,0-12.73,3.83,140.3,140.3,0,0,1,22.86,39.88,2.66,2.66,0,0,1-.83,3,94.76,94.76,0,0,1-34.77,17.37c-20.81,5.48-44.76,10.63-65.47,2.47-3.68-1.45-12.2-5.58-11.95-12.53a126.28,126.28,0,0,1,17.75-59.34c-.88-.46-1.8-.92-2.7-1.37s-2-1-2.92-1.48a260.86,260.86,0,0,0-22.33,61.14,2.7,2.7,0,0,1-2.77,2.08c-1.32-.08-2.64,0-4,0a19.81,19.81,0,0,0-2.29,0c-10,38.06,1.62,82.43,29.24,111.05a2.61,2.61,0,0,1,.75,1.69c.36,5.87,3.67,19.3,6.08,29.11Z"/><path class="cls-9" d="M557.74,689.27l-1.28.41c-3,1-6.16,1.83-9.34,2.61-21.58,5.35-45.76,6.56-65.73,1.16-1.18-.31-2.35-.65-3.5-1a24.51,24.51,0,0,0-1.08,2.64c.1,1.59.31,3.17.43,4.75.21.76.44,1.47.65,2.09a23.26,23.26,0,0,1,1.31,4.89c.22,1.84-.08,3.69.78,5.38,22.32,7.4,46.79,7.61,70.51.87,1.28-.37,2.57-.75,3.85-1.16C555.86,708.51,558.2,692.86,557.74,689.27Z"/><path class="cls-11" d="M486.61,692.81a21,21,0,0,1-8.76-3.64,2.32,2.32,0,0,1-.43,1.22,6.09,6.09,0,0,0-1,3,2.43,2.43,0,0,1,.37,1.2c.07,1.76.33,3.5.46,5.24.21.76.44,1.47.65,2.09a23.26,23.26,0,0,1,1.31,4.89c.19,1.56,0,3.13.46,4.59a14,14,0,0,0,4.63,1A30.49,30.49,0,0,1,486.61,692.81Z"/><path class="cls-4" d="M517.25,721.15c-12.61,0-24.54-2.64-37.5-7.94a2.6,2.6,0,0,1-1.27-1.09c-4.43-7.28-5.19-16.72-1.9-23.48a2.66,2.66,0,0,1,3.21-1.37c23.87,7.59,52.71,7.39,77.12-.54a2.67,2.67,0,0,1,3.48,2.2c.52,4.09-1.92,20.28-3.62,24.06a2.64,2.64,0,0,1-1.63,1.45C541.06,718.9,528.87,721.15,517.25,721.15Zm-34.64-12.54c22.91,9.18,42.63,9.51,69.66,1.14A109.5,109.5,0,0,0,555,692.9c-23.84,6.93-51.21,7-74.46.19A20.76,20.76,0,0,0,482.61,708.61Z"/><ellipse class="cls-10" cx="593.38" cy="572.47" rx="6.24" ry="9.78" transform="translate(-134.15 184.5) rotate(-15.9)"/><path class="cls-4" d="M594.51,585.06a8.43,8.43,0,0,1-6.07-2.91,16.65,16.65,0,0,1-3.08-16.42,7.46,7.46,0,0,1,13.09-2.46,16.67,16.67,0,0,1,3.09,16.42,8.08,8.08,0,0,1-5.8,5.26A7.12,7.12,0,0,1,594.51,585.06Zm-2.12-19.36-.25,0c-.7.13-1.37.86-1.83,2a10.52,10.52,0,0,0-.37,5.65,10.41,10.41,0,0,0,2.4,5.12,3,3,0,0,0,2.42,1.21c.7-.14,1.36-.86,1.82-2a11.41,11.41,0,0,0-2-10.78A3.27,3.27,0,0,0,592.39,565.7Z"/><path class="cls-4" d="M595.18,636.06a14.2,14.2,0,0,1-2.42-.2c-4.09-.69-8.39-3.87-8.68-8.62-.19-2.93,1.19-5.32,2.4-7.42.38-.66.77-1.31,1.09-2,2.06-4.35.57-12.1-3-15.35a2.67,2.67,0,0,1,1.71-4.63,47.69,47.69,0,0,0,21.41-6.08,2.67,2.67,0,1,1,2.62,4.66,53.12,53.12,0,0,1-19,6.34c2.75,5.25,3.35,12.42,1,17.34-.38.81-.83,1.59-1.28,2.38-1,1.65-1.79,3.08-1.7,4.41.11,1.85,2.29,3.36,4.24,3.69,2.64.45,5.64-.42,8.29-1.19a2.67,2.67,0,0,1,1.48,5.14A30,30,0,0,1,595.18,636.06Z"/><path class="cls-1" d="M536.94,516.35a138.59,138.59,0,0,0,14.38,86.86c4.41,8.28,9.74,16.33,11.44,25.52s-1.41,20.1-10,24.12c-9.52,4.45-20.69-1.3-28.75-8a111.54,111.54,0,0,1-37.18-59.56,110,110,0,0,1,6.42-69.6"/><path class="cls-2" d="M550.6,607.76c1,11.39-24.5,31.3-35.06,27.48,5.77,7.91,12.11,15.77,21.6,18.17s20.86-.95,25.6-9.52c3.45-6.26,2.89-14.11.21-20.74S555.09,613.32,550.6,607.76Z"/><path class="cls-5" d="M492.63,517.16c.43,24.44.87,49.11,7.38,72.67s18.79,46.17,38,61.22C526.11,645.29,515.22,635,507.79,624s-12.86-23.17-18.25-35.28c-3.74-8.39-7.55-17.08-7.68-26.26-.09-6.23,1.52-12.34,3.12-18.36C487.29,535.42,490.33,525.83,492.63,517.16Z"/><path class="cls-4" d="M537,516.36c-1.88,33.49,3.56,66,21.58,94.64,21,34.15-6.88,63.58-38.59,34.39-36-30.64-51.35-87.69-26.74-129.68-14.42,45.44-6.06,93.1,30.7,125.13,6.88,6,15.17,11.61,24.3,10.34,9-1.57,12.92-11.38,12.06-20-1.3-12.21-10.39-23.07-15.47-35.67-10.39-24.5-15.54-53.6-7.84-79.15Z"/><path class="cls-6" d="M559.31,658.78a1.09,1.09,0,0,0-2.06-.69c-3.65,8.07-8.16,17.62-10.53,23.49-4.47,11-9,22.29-16.59,31.51s-18.66,16.3-30.58,16c1.61,3.78,5.46,8.52,8.14,11.65s6.6,5.46,10.71,5.22c3.75-.22,7.12-2.54,9.46-5.48,2.92-3.67,4.12-8.33,6.54-12.29,2.74-4.46,6.52-8.57,9.67-12.8a8.44,8.44,0,0,1,2-2.14c1.61-1,3.71-.87,5.49-1.58a7.84,7.84,0,0,0,4.28-5.22,23.39,23.39,0,0,0,.58-6.94c-.05-2.36-.13-4.86-1.44-6.82-1.49-2.23-3.81-3.18-3-6.06,1.21-4.38,2.43-8.75,3.6-13.13C556.91,668.65,558.2,663.74,559.31,658.78Z"/><path class="cls-8" d="M547.1,584.43a272.33,272.33,0,0,1-46.62,14.21q-8.55,1.74-17.26,2.81c-10.18-32.72-8.46-68.85,6.47-99.69l5.42.66,40.6,4.93A125,125,0,0,0,547.1,584.43Z"/><path class="cls-5" d="M500.48,598.64q-8.55,1.74-17.26,2.81c-10.18-32.72-8.46-68.85,6.47-99.69l5.42.66C485.1,533.37,487,567.23,500.48,598.64Z"/><path class="cls-4" d="M483.22,604.13a2.68,2.68,0,0,1-2.55-1.88c-10.59-34-8.18-71.09,6.63-101.65a2.67,2.67,0,1,1,4.8,2.33c-13.91,28.71-16.42,63.42-7,95.59C503.87,596,523,591,543.43,583a127.65,127.65,0,0,1-10.36-76.12,2.67,2.67,0,0,1,5.27.92,122.13,122.13,0,0,0,11.14,75.43,2.66,2.66,0,0,1,.12,2.14,2.72,2.72,0,0,1-1.51,1.54c-22.69,9-43.81,14.67-64.55,17.19Z"/><path class="cls-1" d="M647.6,436.45a85.38,85.38,0,0,1-37.78,56c-2.07,1.33-4.22,2.57-6.42,3.74s-4.69,2.34-7.1,3.38c-.6.26-1.19.51-1.81.75-.4.17-.81.34-1.21.49-.56.23-1.12.45-1.67.65s-1,.4-1.56.58q-2.88,1-5.82,1.92l-1.54.46h0c-.42.13-.84.24-1.26.35q-4.8,1.33-9.7,2.3l-2.11.4-2.22.38c-.5.09-1,.17-1.46.24-4.7.74-9.46,1.26-14.21,1.6h-.15l-2.44.16h-.27c-.41,0-.83.05-1.24.06-1.44.08-2.87.14-4.31.19-2.71.06-5.55.18-8.4.23-3,0-6.25.59-9.22.2-4.26-.56-8.52-1.57-12.73-2.35L488,503.56c-6.23-1.15-12.59-2.34-18.06-5.56-4.49-2.63-8.14-6.5-11.57-10.42a234.42,234.42,0,0,1-15.8-20,237.73,237.73,0,0,1-13.13-20.71,26.64,26.64,0,0,1-3.25-8.46c-.72-3.57-2.44-6.87-3.62-10.3a78.3,78.3,0,0,1-2.76-41.65c4.85-22.8,19.37-41.79,36.17-57.29.6-.56,1.19-1.08,1.79-1.61a152.93,152.93,0,0,1,15.08-11.63c1.3-.85,2-1.29,2-1.29l-.26,1.5a73.93,73.93,0,0,1,16.83-7.77c2.17-.67,4.41-1.36,6.68-2,1.53-.45,3.08-.86,4.64-1.24a60,60,0,0,1,18.4-2.12c2.76.19,5.54.45,8.28.82,3,.38,5.94.87,8.89,1.47a128.27,128.27,0,0,1,17.47,4.81c40.37,14.23,63.88,48.65,70.42,88.35a12.78,12.78,0,0,0,5,8.22,11.75,11.75,0,0,0,1.48,1,15.22,15.22,0,0,0,7.81,2.07,14.2,14.2,0,0,1,3.37.4,7.65,7.65,0,0,1,2.48,1.16,6.1,6.1,0,0,1,2.27,3.67c.12.53.23,1.07.31,1.61C650,423,648.78,430.24,647.6,436.45Z"/><ellipse class="cls-7" cx="579.05" cy="359.51" rx="13.27" ry="6.63" transform="translate(-87.46 216.98) rotate(-19.76)"/><ellipse class="cls-4" cx="595.18" cy="404.41" rx="15.88" ry="20.33" transform="translate(-82.99 163.84) rotate(-14.66)"/><ellipse class="cls-7" cx="598.51" cy="395.4" rx="5.58" ry="7.99" transform="translate(-109.66 509.62) rotate(-42.61)"/><ellipse class="cls-12" cx="590.74" cy="416.27" rx="2.9" ry="3.77" transform="translate(-116.32 565.66) rotate(-47.1)"/><path class="cls-7" d="M463.86,467.33a24.68,24.68,0,0,0-3.21,5.8,22.37,22.37,0,0,0,3.23,20.79c3.76,4.76,11.84,6.58,17.38,8.36,12.68,4.07,27.36,8.38,40.83,7.74,5.2-.25,24.56.61,29.6,0,6-.75,11.94-1.14,17.88-2.22a117.63,117.63,0,0,0,33.81-11.28,85.38,85.38,0,0,0,44.21-59.7c1.3-6.72,2.64-14.72,1.07-21.55a6.19,6.19,0,0,0-2.27-3.67c-3-1.2-5-3.8-8.18-4.52a14.32,14.32,0,0,0-10.42,1.61,23.84,23.84,0,0,0-9.42,9.75q-.35.68-.63,1.38c-12.75,31.33-48.49,30.49-77.18,28.85-22.27-1.26-46.06-2.43-65.31,8.85A38,38,0,0,0,463.86,467.33Z"/><path class="cls-4" d="M632.31,411.78c-5.39,4,2.75,22.07,13.19,20.35,8.88-1.46,13.82-13.42,8.47-18.58C650.15,409.86,636.54,408.65,632.31,411.78Z"/><path class="cls-4" d="M630.39,462.08a17.71,17.71,0,0,1-7.86-1.87,15.82,15.82,0,0,1-8.77-13.58,2.67,2.67,0,0,1,5.34-.08,10.56,10.56,0,0,0,5.85,8.9c3.34,1.7,8.33,1.89,10.44-.55a44.2,44.2,0,0,0,10.86-28.07,2.67,2.67,0,1,1,5.34.09,49.56,49.56,0,0,1-12.16,31.48A11.68,11.68,0,0,1,630.39,462.08Z"/><path class="cls-4" d="M509.75,300.07c60.7-.85,108,33.49,118.53,94.4l.58,3c.67,4,4.23,6.55,8.22,8.33,3.68,1.86,7.62,1,11.53,2.28,10.43,3.09,7.43,16.31,6.31,24.43-7.5,43.19-43.37,70.84-85.33,77a153.55,153.55,0,0,1-48.27.13c16.08-.41,32-1.25,47.58-4.08,30.73-4.88,61-22.44,73.92-51.7a87.22,87.22,0,0,0,6.93-22.23c.66-5.23,1.85-11,.29-16-1.72-2.82-5.38-2.7-8.57-2.93-7.7-1.15-16.5-5.62-18.11-14.26-9.52-59.39-54-93.27-113.27-93-3.47.28-4-5.1-.34-5.33Z"/><path class="cls-1" d="M542.19,312.45c-1.21,1.27-2.46,2.73-3.78,4.23-6.82,7.86-15,16.91-25.7,7.74-4.3-3.7-6.57-9.06-8.37-14.32-.56-1.67-1.1-3.34-1.59-5a132.88,132.88,0,0,1-5.41-44.67.34.34,0,0,1,0-.14c0-.38,0-.76,0-1.15,11.2,4.61,18.94,15.07,26,24.58,5.39,7.28,10.51,14,14.91,21.55C539.68,307.56,541,310,542.19,312.45Z"/><path class="cls-5" d="M474.09,315.9c-8.86,19.53-18.22,38-24.71,58.48-1.69,5.28-1.65,12.1-3.17,17.41a117.14,117.14,0,0,0,.72-34.52C425.49,383.2,423.09,424,437.49,461c-5.24-6.87-10.49-12-13.7-18.51-.07-.14.47-3.35.41-3.49-24.5-50.21,10.74-89.77,33-109.85.59-.56,1.19-1.08,1.79-1.61A152.93,152.93,0,0,1,474.09,315.9Z"/><path class="cls-4" d="M476,316.35c-31.15,23.71-58.41,60.71-54,101.56,4,31.78,24.56,57.52,46.08,80.32-14.7-10.9-27.83-24.32-37.53-40.26-27.62-44.52-14-92.29,21.73-127.33a147.59,147.59,0,0,1,21.4-17.77,2.1,2.1,0,0,1,2.34,3.48Z"/><path class="cls-1" d="M499.41,291.26a94.49,94.49,0,0,0,1.2,37.23c1.28,5.41,3.06,11,1.67,16.4-2.53,9.79-14,10.63-21.78,14.34-10.56,5.06-19.78,12.32-30.74,16.69-.69.26-1.39.53-2.1.78,1-16.06,5.35-33.05,10.1-49.17,1.49-5,3-10,4.48-14.84,3.69-12.18,7.95-24.36,14-35.69,3.1-5.82,10.27-19.3,18.3-17.88a7.83,7.83,0,0,1,2.62,1l.23.14a12.14,12.14,0,0,1,2.25,1.89,8.14,8.14,0,0,1,.77.9,12.09,12.09,0,0,1,1.82,3.51,17.49,17.49,0,0,1,.86,6.63c-.2,4-1.4,7.8-2.33,11.67C500.21,287,499.78,289.11,499.41,291.26Z"/><path class="cls-2" d="M504.25,278.2a5,5,0,0,0-4.31,2.68c-1.38,2.34-.38,4.35-1.07,6.55-.83,2.62-4,3.79-6.47,4.35a35,35,0,0,1-8.71.86,9.51,9.51,0,0,1-5.45-1.43c-2.29-1.69-2.91-5-2.24-7.73,1.55-6.36,5.53-13.17,9.79-18.06a22.08,22.08,0,0,1,8.2-6.21c3.21-1.29,6.61-.06,9.58,1.71a46.33,46.33,0,0,1,18.8,21.35c-1.33-.27-2.53.85-3.25,2s-1.32,2.48-2.51,3.12c-1.64.89-3.75,0-5-1.33s-2-3.15-3-4.72S506.11,278.29,504.25,278.2Z"/><path class="cls-5" d="M500.38,263.06C485.77,265,465.05,354,447.66,386.81c-.69.26.71-10.36,0-10.11,1-16.06,5.35-33.05,10.1-49.17,1.49-5,3-10,4.48-14.84,3.69-12.18,7.95-24.36,14-35.69,3.1-5.82,10.27-19.3,18.3-17.88a9.39,9.39,0,0,1,5.1,3A8.14,8.14,0,0,1,500.38,263.06Z"/><path class="cls-3" d="M499.47,350.89s-12.24-65.74-.85-74.4l32,54.32S516.71,325.63,499.47,350.89Z"/><path class="cls-6" d="M499.47,350.89s-12.24-65.74-.85-74.4l32,54.32S516.71,325.63,499.47,350.89Z"/><path class="cls-4" d="M500.28,353.65a2.48,2.48,0,0,1-.54-.06,2.66,2.66,0,0,1-2.1-2.19c-1.92-11.94-10.88-72,.87-81.83a2.67,2.67,0,0,1,4.07.8L533.19,328a2.68,2.68,0,0,1-3.35,3.74c-.06,0-11.9-3.84-27.3,20.68A2.68,2.68,0,0,1,500.28,353.65Zm-.3-76.8c-4.07,11.06-1.45,43.41,1.92,67,10.05-13.7,18.89-17.08,24.31-17.6Z"/><path class="cls-4" d="M551.85,322.94c-14.4-16.62-26.7-34.94-41.64-51.07-4.41-4.37-9.13-10.58-15-12.61L496,259c-4.68,3.25-8.44,8.48-11.57,13.29-11.55,18.52-18.32,39.91-24,60.95-4.13,15.12-7.57,30.81-11,46.13-1.35,6.19-2.65,12.41-4.19,18.6a364.33,364.33,0,0,1,12.44-75.34c5.45-18.41,11.68-37,22.4-53.19,3.75-5.57,7.95-11.15,13.83-14.68,1.7-.68,3.7.21,4.7.71,11.8,7.82,19.73,20.11,28.51,30.91,8.83,11.78,17.69,23.55,24.74,36.52Z"/><path class="cls-6" d="M637.78,418.4c-10.82-.17-19.24-9.9-23.09-20s-4.66-21.2-8.63-31.28c-4.35-11-12.29-20.3-21.4-27.87s-19.4-13.55-29.66-19.48c1.64,7.71-1.83,20-1.83,20-1.67-3.52-7.41-12.35-14.76-23.07-2.81-4.09-5.84-8.46-9-12.9-9.39-13.34-19.68-27.43-27.23-37.21-1.78-2.33-3.42-4.4-4.86-6.16a2.92,2.92,0,0,0-.21-.28l.23.14c0-.38,0-.76,0-1.15,11.2,4.61,18.94,15.07,26,24.58,5.39,7.28,10.51,14,14.91,21.55a128.27,128.27,0,0,1,17.47,4.81c40.37,14.23,63.88,48.65,70.42,88.35a12.78,12.78,0,0,0,5,8.22,11.75,11.75,0,0,0,1.48,1A90.17,90.17,0,0,0,637.78,418.4Z"/><path class="cls-6" d="M649,416.5a40.26,40.26,0,0,0-7.71-2.55c-23.22,107.65-176.89,79.33-175,82.64,5.15,9.07,29.6,13.58,55.28,23.84-6.88,22.22,5.47,47.06,13.54,67.41,3.3,8.31,6.62,16.71,7.78,25.57s-.07,18.35-5.21,25.65c-1.84,2.6-4.23,5.13-4.41,8.31-.24,4.2,3.77,7.67,7.91,8.38s8.08-.85,12.13-1a21.2,21.2,0,0,0,11.92-3.81,25.89,25.89,0,0,0,10.55-26.62c-2.06-9-6.49-17.38-11.24-25.23-5.45-9-12-17-15.59-26.9a99.58,99.58,0,0,1-5.84-33.71c0-10.42,10.83-.93,14.46,2a87.53,87.53,0,0,1,12.18,11.86,78.13,78.13,0,0,1,16.14,32.74c6.9,30-1.49,61.93-12.2,89.95,22.51-16.82,39.2-55.21,36.84-91-.26-4-1.43-9.16-1.87-13-.09-1.44-1.36-4.49-1.42-5.7-1-22.6-10.2-42.54-23-61.37q2.94-.89,5.82-1.92c.52-.18,1-.38,1.56-.58s1.11-.42,1.67-.65c.4-.15.81-.32,1.21-.49.62-.24,1.21-.49,1.81-.75,2.41-1,4.78-2.16,7.1-3.38s4.35-2.41,6.42-3.74a84.16,84.16,0,0,0,15-12.23,85.6,85.6,0,0,0,22.78-43.73C648.78,430.24,650,423,649,416.5Z"/></svg>