<svg id="Layer_1" data-name="Layer 1" xmlns="http://www.w3.org/2000/svg" xmlns:xlink="http://www.w3.org/1999/xlink" viewBox="0 0 1000 1000"><defs><style>.cls-1{fill:#ff8f06;}.cls-2{fill:#d14f1b;}.cls-10,.cls-15,.cls-3{fill:#fff;}.cls-4,.cls-8{fill:#470000;}.cls-5{fill:#fffffd;}.cls-10,.cls-5{opacity:0.3;}.cls-6{fill:#e21d26;}.cls-7{fill:#1381d8;}.cls-15,.cls-8{opacity:0.4;}.cls-9{fill:#004063;}.cls-11{fill:#72cff9;}.cls-12{fill:#3e3eaf;}.cls-13{fill:url(#Безымянный_градиент_5);}.cls-14{fill:#fef6f4;}.cls-16{fill:#f59b95;}</style><linearGradient id="Безымянный_градиент_5" x1="-2681.85" y1="3956.14" x2="-2722.33" y2="4021.58" gradientTransform="matrix(0.5, -0.87, 0.87, 0.5, -1647.57, -3663.37)" gradientUnits="userSpaceOnUse"><stop offset="0" stop-color="#fff"/><stop offset="1" stop-color="#fff" stop-opacity="0"/></linearGradient></defs><path class="cls-1" d="M479.71,552.05c-1.92,9.29,2.14,19.06.12,28.32a22.59,22.59,0,0,1-8.53,13,15.56,15.56,0,0,1-8,3.34.5.5,0,0,0,0,.16v-.16c-1.87.18-3.09,4.6-5.31,4.12-10.56-2.28-23.8,5.38-29.37-4,0-1,0-1.94,0-2.92.77-33.33,14.34-70,29.94-92.38,1.68-2.4,3.38-4.64,5.09-6.69l0-9.92c2,.87,4.08,1.79,6.07,2.8a0,0,0,0,0,0,0v0a53,53,0,0,1,15.68,11.37c5.85,6.48,9.44,15.49,7.74,24.06C491.17,533.69,481.86,541.59,479.71,552.05Z"/><path class="cls-1" d="M616.56,605.55a18.43,18.43,0,0,0,0,4.86c.09,1,.22,1.92.37,2.89.3,2.17.68,4.32.78,6.22.19,3.55.31,7.09.37,10.65A226.54,226.54,0,0,1,612,688.49a153.75,153.75,0,0,1-7,21.8,98.45,98.45,0,0,1-7.22,14.41,69.79,69.79,0,0,1-11.24,14.15c-4.76,4.55-10.47,8.37-16.95,9.91-.45.1-1.29.24-2.39.36a48.87,48.87,0,0,1-10.28.22l-.56-.07c-2.23-.32-3.93-1-4.26-2.13q-.86-3-1.57-6.42c-2.25-10.44-3.49-23-4.38-35.14v-.09c-.8-10.49-1.34-20.72-2-29.13-9.51-2-17.06-2.32-23.79-3,.79,14.9-.34,36.7-1.49,52.84q-.42,5.9-.91,11.78c-.27,3.28-.77,6.06-4.07,7.71-4.05,2-9.24-.33-13.17-1.72A65.79,65.79,0,0,1,488.25,738c-12.1-7.42-21.44-18.63-27.51-32.47-1.07-2.42-2-4.92-2.89-7.49-10.94-32.65-8.23-69.53-2.47-102.91a332.53,332.53,0,0,1,10.32-43.25c1.86-5.88,5.22-12.12,5-18.27-.09-2.09.41-16,1.54-28.15.24-2.67.5-5.24.8-7.6.87-6.74,2-11.61,3.33-11.3,6.31,1.51,12.65,3,19,4.4,16.41,3.62,33,6.48,49.73,6.66,19.5.21,38.95-3.24,58.43-2.68.72,0,1.43,0,2.15.07,2.13.11,6.2,16.49,6.73,18.63a32,32,0,0,1,.81,5.28,47.57,47.57,0,0,0,1.06,8.35c3.48,12.88,10.49,23.86,12.2,37.48,1.24,9.81.25,20.2-3.89,29.26C620.84,597.89,617.17,601.37,616.56,605.55Z"/><path class="cls-2" d="M605,710.29C600.64,721,594.73,731,586.53,738.85c-4.76,4.55-10.47,8.37-16.95,9.91-.45.1-1.29.24-2.36.36h0c-6.65-.56-12.1,1.57-16.09-2.8-2.25-10.44-4.07-28.56-5-40.74C563.83,711.52,586.79,711.91,605,710.29Z"/><path class="cls-2" d="M466.25,709.09a114,114,0,0,0,4.56,10.67c1.59,3.25,3.3,7.29,5.76,10a53.29,53.29,0,0,0,17.23,12.42c3,1.34,6.05,2.22,9.13,3.26a11.89,11.89,0,0,0,8.74.08,11.26,11.26,0,0,0,6-6.08,20.35,20.35,0,0,0,1-8,27.32,27.32,0,0,1,.53-3.56c.17-1.4.27-2.8.42-4.21.36-3.25.66-6.51.93-9.78.08-.9.3-9.52.72-9.63C504.72,710.35,483.27,710.76,466.25,709.09Z"/><path class="cls-3" d="M586.7,537.13c0,35.9-43.36,87.68-76.4,87.68S467.05,573,467.05,537.13s26.78-42.57,59.82-42.57S586.7,501.23,586.7,537.13Z"/><path class="cls-4" d="M489.2,654.8c16.92,19.35,33.05,14.34,55.44,18.94a2.65,2.65,0,0,1,2.12,2.39c1,11.93,1.52,23.79,2.54,35.58s2.31,23.56,5.35,34.7l-1.5-1.72c20.8,9,38.24-11.08,46.06-28.61,17.49-38.86,16.53-83.91,10.32-125.47-2.92-21.41-10-41.6-13.93-62.88,10,19.37,13.86,41,18.12,62.17,7.14,42.58,8.51,88.19-9.42,128.58-8.68,19.9-29.66,41.93-53.28,31.11a2.54,2.54,0,0,1-1.51-1.72A141.31,141.31,0,0,1,546,730c-2.51-17.72-3.08-35.75-4.51-53.46l2.12,2.39c-15.19-3.58-32.34-.93-46-10a68.17,68.17,0,0,1-12.27-10.49,2.67,2.67,0,1,1,3.9-3.65Z"/><path class="cls-4" d="M467.41,527.73c-18.73,58.45-39.74,195.14,39.67,215.45a6.74,6.74,0,0,0,8.24-6.41l.21-2.54c.53-6.76,1-13.52,1.39-20.28.74-13.51,1.33-27.1.73-40.46a2.67,2.67,0,1,1,5.33-.29c.62,13.81,0,27.43-.73,41-.39,6.81-.87,13.61-1.4,20.41l-.21,2.54c-.16,6.61-6.53,12.27-13.17,11.46-61.7-13.76-66.86-90.42-61.29-142.13,3.43-26.77,7.05-55.33,21.23-78.8Z"/><path class="cls-5" d="M473.53,505.1A169.09,169.09,0,0,0,433,599.58c-1.53-1.8-3-3.65-4.3-5.6.77-33.33,15.62-72.27,31.22-94.64C464.72,501.16,468.55,504.6,473.53,505.1Z"/><path class="cls-4" d="M471.84,489.52c-25.06,28.44-40.15,70.07-41.58,104,6.82,11.3,22.88,9.72,33.05,3.56-7.45,12-30.73,10.18-36.53-2.55-.27-29.69,9-58.95,23.82-84.45A162.71,162.71,0,0,1,467.83,486a2.67,2.67,0,1,1,4,3.53Z"/><path class="cls-6" d="M623.94,506.19c-.55-1.38-1.16-2.75-1.84-4.09-2.67-5.29-6.37-10.1-11.67-12.53a20.44,20.44,0,0,0-6.37-1.69,28.44,28.44,0,0,0-6.65.11,65.17,65.17,0,0,0-9.95,2.37c-2.82.83-5.16.1-8.09-.1a175.3,175.3,0,0,0-20.63.21l-53.22,2.63-14.24.71c-3.71.18-8.06,0-12.5-.06-6.6-.11-13.4.07-18.58,2.07-5.93,2.3-9.95,10.94-13.09,16A121.05,121.05,0,0,0,435,538.26c-.71,2.21-6.5,27.57-5.39,27.61,8.52.35,17.69.88,26.2,1.23a60,60,0,0,1,.58-10.46l2,.85c5.66,3.65,12.2,5.64,18.64,7.59,20.74,6.29,41.59,12.59,63,15.58l1.22.17c21.88,2.93,44.64,2.2,65.36-5.41,4.32-1.58,7.58-3.49,10.26-7.24a14.65,14.65,0,0,1,1.1-1.37c2.09-2.38,4.67-4.23,6.35-7.1a1.76,1.76,0,0,0,.14-.23,28,28,0,0,0,2.22-5.19,50.29,50.29,0,0,0,1.37-5.57c.14-.72.27-1.45.38-2.18A76.17,76.17,0,0,0,623.94,506.19ZM458.19,548.08A66.18,66.18,0,0,1,465.25,532Z"/><path class="cls-5" d="M464,494.56a123.61,123.61,0,0,0-24,70.06c-3.41-1-6.72-1.82-9.85-2.58a194.68,194.68,0,0,1,12.39-41.89c2.42-5.71,7.84-12.93,12-17.56A45.82,45.82,0,0,1,461.9,496C462.57,495.48,463.26,495,464,494.56Z"/><path class="cls-4" d="M458.92,500a117.58,117.58,0,0,0-26.68,66.1l-2.56-2.87,26.19,1.23c.06,0-2.77,2.77-2.76,2.77a56.86,56.86,0,0,1,6.48-27.63c1.45-2.77,2.82-5.67,5.66-7.55-.35,3.36-1.82,5.93-2.8,8.79a70.33,70.33,0,0,0-4,26.19,2.66,2.66,0,0,1-2.56,2.77h-.23l-26.19-1.23a2.67,2.67,0,0,1-2.56-2.79,122.74,122.74,0,0,1,27.91-69.19c2.23-2.65,6.33.7,4.1,3.41Z"/><path class="cls-7" d="M624.22,608.16c-.5-8.3-1.37-16.54-2.61-24.67-.77-5.11-1.71-10.17-2.78-15.16-15.42,4.35-35.67-1.94-48.55-8-.21-.61-.4-1.22-.58-1.83-3.91-13.07-2.36-25.67,0-38.12,1.53-8.12,3.4-16.15,4.33-24.22.17-1.53.31-3,.41-4.57-8.08,1.64-16.85,3.82-24.92,5.47l-.14.53A207.17,207.17,0,0,0,544,523.31c-1.62,12.13-1.62,25,2.39,37.06-16.61-.82-34.82-2.51-51.43-3.33a138.91,138.91,0,0,1,4.93-39.38,157.13,157.13,0,0,1,5.89-17.59c-4.5,1.85-13.68,1.52-18.15-.37a60,60,0,0,0-5.67,10.43c-6,13.89-9.06,31.67-9.85,45.22-4.1,1.52-9.47-5-13.56-3.43-9,36.21-14,73.46-12.66,110.74.57,16.33,3,32.92,9.53,47.74h69.25c.75-10.42,1.91-20.77,2.57-31.2,5.72-.24,10.94.13,16.66-.12-.34,10.88.41,21.63.07,32.5.89-.1,1.78-.18,2.67-.26a222,222,0,0,1,23.68-1c4.74.07,9.48.3,14.19.73.32,0,.63.06.95.09a162.06,162.06,0,0,1,18,2.69q2.65.54,5.27,1.19l1.44.36c.15-.44.3-.88.44-1.33A284.11,284.11,0,0,0,624.22,608.16Z"/><path class="cls-4" d="M610.16,718.11a2.63,2.63,0,0,1-.67-.09c-19.35-5-41.32-6.26-65.3-3.79a2.7,2.7,0,0,1-2.09-.7,2.64,2.64,0,0,1-.85-2c.17-5.37.06-10.83,0-16.11-.08-4.43-.17-9-.09-13.55-1.93,0-3.8,0-5.63,0s-3.83,0-5.8,0c-.35,5-.8,10-1.23,14.81-.42,4.65-.84,9.31-1.17,14a2.68,2.68,0,0,1-2.67,2.48H455.38a2.68,2.68,0,0,1-2.45-1.59c-5.88-13.29-9.08-29.23-9.76-48.73-1.22-35,3.07-72.47,12.73-111.47a2.7,2.7,0,0,1,1.66-1.86c3.17-1.17,6.24.43,8.95,1.85a23.56,23.56,0,0,0,3.05,1.41c1.33-17.65,6.1-40.5,15.83-54.5a2.65,2.65,0,0,1,3.23-.93c4,1.68,12.41,1.87,16.09.35a2.7,2.7,0,0,1,2.9.58,2.67,2.67,0,0,1,.59,2.89,143.09,143.09,0,0,0-10.65,53.43c7.59.41,15.55,1,23.27,1.54,7.25.52,14.72,1.06,21.88,1.46-6-22.6.6-47.43,4.22-61.09a2.69,2.69,0,0,1,2.05-1.93c4-.82,8.24-1.78,12.45-2.73s8.43-1.91,12.47-2.74a2.65,2.65,0,0,1,2.29.61,2.63,2.63,0,0,1,.91,2.18,171.88,171.88,0,0,1-3.49,22.58c-3,15-5.83,29.1-1.15,44,7.68,3.47,29.1,12,45.65,7.33a2.67,2.67,0,0,1,3.34,2c10.3,47.82,7.11,102-8.75,148.53A2.68,2.68,0,0,1,610.16,718.11Zm-42.92-10.44a176.81,176.81,0,0,1,41.17,4.58C623,668,626,617,616.78,571.57c-18.66,3.77-41-5.67-47.64-8.79a2.69,2.69,0,0,1-1.4-1.56c-5.63-16.71-2.45-32.56.62-47.89,1.27-6.3,2.47-12.31,3.1-18.35-2.91.63-5.88,1.3-8.86,2-3.68.83-7.37,1.67-10.94,2.42-3.75,14.19-9.84,38.93-2.79,60.14a2.68,2.68,0,0,1-.41,2.46,2.58,2.58,0,0,1-2.26,1c-8.33-.41-17.2-1-25.77-1.66s-17.37-1.26-25.64-1.66a2.67,2.67,0,0,1-2.54-2.6,145.92,145.92,0,0,1,9.2-53.34,36.12,36.12,0,0,1-12.78-.87c-8.81,14-13,36.82-13.95,52.6a2.67,2.67,0,0,1-1.73,2.35c-3.17,1.17-6.24-.43-8.95-1.85a19.33,19.33,0,0,0-3.42-1.53c-9.22,37.83-13.29,74.19-12.11,108.1.63,18,3.45,32.81,8.62,45.16h65q.47-5.81,1-11.6c.5-5.6,1-11.39,1.38-17.1a2.68,2.68,0,0,1,2.55-2.5c2.94-.12,5.76-.09,8.48-.06s5.39.07,8.18-.05a2.58,2.58,0,0,1,2,.77,2.67,2.67,0,0,1,.79,2c-.17,5.37-.07,10.83,0,16.11.09,4.36.17,8.85.11,13.35Q557.21,707.67,567.24,707.67Z"/><path class="cls-8" d="M489.27,596.53l26.13.5,24,.46c4.8.09,11.18.91,15.56-1.54s9.78-3.88,14.83-2.61A16,16,0,0,1,579.88,602a25.31,25.31,0,0,1,2,13.41,68.7,68.7,0,0,1-2.8,12.16c-.93,3.26-4,3.24-7.07,3.72-8.38,1.33-17,1.37-25.41,1.28a319.14,319.14,0,0,1-33.56-2c-7.42-.85-15.87-1.37-22.8-4.76C477.3,619.43,492.92,610.52,489.27,596.53Z"/><path class="cls-9" d="M491.88,594.86h80c-3.49,11.88,8.53,21.79-2.76,26.89s-64.62,3.38-75.85-1.85S495.24,606.78,491.88,594.86Z"/><path class="cls-10" d="M507.58,621.35l-.95,0a11.84,11.84,0,0,1-.93-15.53c2.22-2.69,5.53-4.21,8.79-5.46a94.13,94.13,0,0,1,23.74-5.7c-14.84-.07-29.47,0-44.31,0-1.5,3.15-3.09,6.24-4.59,9.4-1.18,2.48-2.38,5.08-2.28,7.83.17,4.43,3.81,8.12,7.94,9.72S503.15,621.43,507.58,621.35Z"/><path class="cls-4" d="M539.5,627.51c-19.13,0-40.67-2-47.4-5.19-8.59-4-6.16-10.36-4.39-15,1.39-3.63,2.82-7.39,1.6-11.73a2.67,2.67,0,0,1,2.57-3.4h80a2.67,2.67,0,0,1,2.56,3.43c-1.26,4.28-.13,8.36,1,12.31,1.53,5.51,3.43,12.37-5.18,16.26C565,626.51,552.85,627.51,539.5,627.51Zm-44.44-30c.37,4.56-1.12,8.45-2.36,11.69-2,5.25-2.29,6.43,1.65,8.26,11.08,5.16,63.37,6.47,73.63,1.84,4.23-1.92,3.9-3.92,2.23-10-.94-3.38-2.05-7.41-1.61-11.83Z"/><path class="cls-7" d="M619.94,713.86a139.93,139.93,0,0,1-20.71,5.77,127.68,127.68,0,0,1-65.15-3.77c2.72-6.38,1.3-11.21,4-17.6,1.46.37,2.95.7,4.45,1,17.6,3.48,37.82,2.34,56.8-1.85,5.69-1.25,11.26-2.77,16.62-4.52,2-.67,4-1.35,5.94-2.08C622.64,694.41,621.3,710.36,619.94,713.86Z"/><path class="cls-4" d="M573.46,724.8a127.48,127.48,0,0,1-40.22-6.4,2.69,2.69,0,0,1-1.59-1.44,2.62,2.62,0,0,1,0-2.14,41.24,41.24,0,0,0,2.3-9.54,46.51,46.51,0,0,1,2.67-10.77,2.67,2.67,0,0,1,3.1-1.55c25.72,6.42,56.1,4.67,81.28-4.66a2.65,2.65,0,0,1,2.23.17,2.68,2.68,0,0,1,1.32,1.8c.83,4.11-.58,20.64-2.1,24.56a2.64,2.64,0,0,1-1.58,1.54A139.11,139.11,0,0,1,573.46,724.8Zm-35.93-10.64c25.41,7.8,53.73,7,80.24-2.36a110.61,110.61,0,0,0,1.68-17.29c-24.68,8.37-53.65,9.92-78.7,4.2a56,56,0,0,0-1.54,7.43A60.24,60.24,0,0,1,537.53,714.16Z"/><path class="cls-7" d="M446.51,710.83a139.64,139.64,0,0,0,20.71,5.78,127.86,127.86,0,0,0,65.14-3.77c-2.71-6.39-1.29-11.22-4-17.6-1.46.37-3,.69-4.45,1-17.6,3.47-37.82,2.33-56.8-1.85-5.69-1.26-11.27-2.78-16.62-4.53-2-.66-4-1.35-5.94-2.07C443.8,691.39,445.14,707.33,446.51,710.83Z"/><path class="cls-4" d="M493,721.77a139.1,139.1,0,0,1-47.39-8.42A2.69,2.69,0,0,1,444,711.8c-1.53-3.92-2.93-20.45-2.1-24.56a2.67,2.67,0,0,1,3.55-2c25.18,9.34,55.56,11.09,81.27,4.67a2.68,2.68,0,0,1,3.11,1.55,45.9,45.9,0,0,1,2.66,10.76,41.51,41.51,0,0,0,2.31,9.54,2.67,2.67,0,0,1-1.61,3.58A127.48,127.48,0,0,1,493,721.77Zm-44.31-13c26.51,9.33,54.83,10.15,80.24,2.36a60.72,60.72,0,0,1-1.68-8,56,56,0,0,0-1.54-7.43c-25.06,5.73-54,4.17-78.7-4.2A110.87,110.87,0,0,0,448.68,708.78Z"/><path class="cls-8" d="M561.2,653.84a46.55,46.55,0,0,0,4.25-5.62c7.94-12.72,5.88-30.81-4.73-41.42-1.75-1.75-4.35-3.41-6.57-2.27a4.53,4.53,0,0,0-2.16,3.88,17.23,17.23,0,0,0,.67,4.6,39.58,39.58,0,0,1-4.1,27.5c-3.85-8.27-8.07-16.29-13.5-23.44a97,97,0,0,0-22.63-21.58c-4-2.72-4.85-4.13-3.16-9.06a25,25,0,0,1,30.19-16.19c-2.78-8.6-12.16-14-21.18-13.71s-17.37,5.66-22.94,12.77a59.21,59.21,0,0,0-7.75,13.51,53.07,53.07,0,0,0-3.77,13.54c-.58,4.83.93,9.68,3,14.08s4.72,8.54,6.63,13c5.7,13.36,4.33,29-1.44,42.37s-15.49,24.61-26.3,34.32a29.38,29.38,0,0,0-5,5.43,8,8,0,0,0-1.4,6.63c.62,2.19,2.34,3.85,4,5.4,5.85,5.53,11,11.32,17.66,15.89a92.76,92.76,0,0,0,21.26,10.87c3.52,1.26,7.55,2.28,10.9.61,3.52-1.75,5.1-5.87,5.93-9.71a52.26,52.26,0,0,0,1.17-11.08c0-3.45-.21-5.46,3.16-7.32,5.43-3,7.79-5.17,6.23-11.89-1.3-5.62-1.5-11.28-2.66-16.86-.67-3.22-4.16-8.55-3.36-11.83,1.19-4.93,16.92-.65,20.49.09.51,6,.93,13,1.42,20.38h8.35a49.41,49.41,0,0,0,5.48-8.73c2.49-5.25,6-12.14,3.24-17.28-1.36-2.54-6.12-9.08-5.71-11.93C557.09,657.25,560.17,655,561.2,653.84Z"/><path class="cls-1" d="M643.8,585.77c-.42,4-1.15,8-3.35,11.35a22,22,0,0,1-7.69,6.77,24,24,0,0,1-2.15,1.08c-2.19.95-4.24,2.18-6.39,3.19a22.42,22.42,0,0,1-3.37,1.31,32,32,0,0,1-4.26.94c-6.24,1-12.81.36-19-.75-1.1-.21-13.07-3.23-13.07-3.61a27.17,27.17,0,0,1-15.29,14.75,19.4,19.4,0,0,1-8.2,1.22,24.48,24.48,0,0,1-11.55-4.16,28.06,28.06,0,0,1-10.52-13c-4.59-11.78-.63-25.7,7.86-34.39,6.14-6.29,14.24-10.11,22.83-11.94a60.45,60.45,0,0,1,10-1.24,85.39,85.39,0,0,1,14.65.73c4.22.55,8.06,1.76,12.35,1.57,8-.37,16.45-.85,24.25,1.47a29.69,29.69,0,0,1,3.39,1.2,17.29,17.29,0,0,1,9,8.11C645.48,574.74,644.29,581.08,643.8,585.77Z"/><path class="cls-11" d="M478.41,600.88l48,52.86c17.76-1.56,27.37-9.63,32-20.17,9.34-21.27-1.61-52.65-6.83-61.25-7.8-12.86-24.6-21.93-41-18.62-10.92,2.18-20.16,9.5-25.51,18.31-.17.28-.33.57-.49.85C479.71,581.47,478.07,591.33,478.41,600.88Zm12.48,2.76c-.32-7.5.85-15.24,4.59-21.9s10.28-12.18,18-13.77c11.64-2.39,23.67,4.63,29.3,14.47s20.79,58.54-17.34,61.75Z"/><path class="cls-4" d="M525.33,646.89a2.67,2.67,0,0,1-.23-5.33c9.36-.8,15.89-4.61,19.41-11.34,7.54-14.38.08-39-4.16-46.43-4.74-8.27-15.36-15.47-26.44-13.18-6.55,1.35-12.62,6-16.23,12.45-3.17,5.64-4.6,12.53-4.26,20.48a2.67,2.67,0,1,1-5.33.23c-.39-9,1.27-16.81,4.93-23.32,4.36-7.79,11.77-13.42,19.82-15.07,12-2.46,25.5,4.16,32.15,15.75,4.81,8.39,12.87,35.15,4.25,51.58-4.43,8.44-12.4,13.21-23.69,14.17Z"/><path class="cls-4" d="M526.31,656.43a2.67,2.67,0,0,1-.23-5.33c14.2-1.26,24-7,29-17,9.82-19.39-.25-51.06-5.91-60.4-6.73-11.1-22-20.66-38.16-17.39a37,37,0,0,0-23.75,17.09c-4.59,7.59-6.73,16.8-6.35,27.38a2.68,2.68,0,0,1-2.58,2.77,2.58,2.58,0,0,1-2.76-2.57c-.42-11.65,2-21.86,7.13-30.35A42.44,42.44,0,0,1,510,551.09c16.38-3.3,34.8,5.06,43.78,19.87,6.31,10.39,17,44,6.11,65.57-6,11.77-17.18,18.46-33.34,19.89Z"/><path class="cls-8" d="M478.41,600.88l48,52.86c17.76-1.56,29-14.68,33.68-25.22-1.18-7.51-4-10-5.19-17.51s-2.34-15.07-4.83-22.24-6.34-14-12.11-19a32.62,32.62,0,0,0-26.16-7.22c-9.2,1.56-18,6.86-22.76,14.92a3.67,3.67,0,0,1-4-2.37,6,6,0,0,1-.4-2.26C479.71,581.47,478.07,591.33,478.41,600.88Zm12.48,2.76c-.32-7.5.85-15.24,4.59-21.9s10.28-12.18,18-13.77c11.64-2.39,23.67,4.63,29.3,14.47s20.79,58.54-17.34,61.75Z"/><path class="cls-11" d="M421.68,666.93l32.5,59.44s47.7-4.11,87.06-51.87c.66-.8,1.31-1.61,2-2.42l-35.52-55.91a50,50,0,0,0-32.31-22.23A48.81,48.81,0,0,0,440,600.07l-1,.61A49.82,49.82,0,0,0,421.68,666.93Z"/><path class="cls-8" d="M506.12,614.6a49.29,49.29,0,0,0-31.58-20.17c2,22.74-26.5,38.21-51.88,38.85,7.5,6.59,19,8.22,29,5.82,11.62-2.82,21.57-10,31.2-17.08,10.92,8.35,16.07,24.34,15.11,38S490.87,686.6,483.17,698a140.1,140.1,0,0,1-22.43,25.7c59.45-14,83.86-54.36,83.86-54.36Z"/><path class="cls-4" d="M454.18,729a2.66,2.66,0,0,1-2.34-1.39l-32.5-59.42a52.47,52.47,0,0,1,18.28-69.81l1-.63c24.05-14.66,56-7,71.28,17l35.53,55.92a2.66,2.66,0,0,1-.17,3.09c-40,50.37-88.81,55.11-90.87,55.28Zm11.18-133.38a45.89,45.89,0,0,0-23.94,6.69l-1,.61A47.13,47.13,0,0,0,424,665.66l31.62,57.82c8.81-1.31,50.1-9.54,84.26-51.58l-34.5-54.3A47.49,47.49,0,0,0,465.36,595.65Z"/><ellipse class="cls-12" cx="444.75" cy="609.34" rx="21.86" ry="9.32" transform="translate(-251.42 318.75) rotate(-31.22)"/><path class="cls-4" d="M432.24,625.86c-4,0-7-1.31-8.48-3.81-4-6.66,4.6-16.81,14.77-23a43.23,43.23,0,0,1,15.64-6c5.57-.79,9.68.48,11.56,3.58,4,6.66-4.6,16.81-14.76,23a43.49,43.49,0,0,1-15.65,6A21,21,0,0,1,432.24,625.86Zm25-27.71a16.48,16.48,0,0,0-2.33.18,37.73,37.73,0,0,0-13.63,5.32c-9.87,6-14.34,13.37-13,15.63.66,1.1,3.1,1.51,6.24,1.07A38.24,38.24,0,0,0,448.2,615c9.86-6,14.33-13.38,13-15.64C460.68,598.59,459.23,598.15,457.26,598.15Z"/><path class="cls-13" d="M424,646.08a45.89,45.89,0,0,0,25.64-.21s3.32,48.19,14,71.16C435.13,677.75,423.58,655.94,424,646.08Z"/><path class="cls-11" d="M366.86,669.6,443.77,706l8.62,4.09s11.5-16.38-11.31-33.45l-68.55-20-1.08-.32a41.89,41.89,0,0,1-1.34,6c-.13.4-.25.82-.4,1.24A25.54,25.54,0,0,1,366.86,669.6Z"/><path class="cls-4" d="M452.39,712.79a2.6,2.6,0,0,1-1.14-.26L365.72,672a2.66,2.66,0,0,1-1.07-3.91c3.18-4.7,4.15-12,4.15-12.07a2.69,2.69,0,0,1,1.19-1.89,2.65,2.65,0,0,1,2.21-.33l69.62,20.29a2.78,2.78,0,0,1,.86.43c24.6,18.41,12,36.94,11.9,37.12A2.66,2.66,0,0,1,452.39,712.79Zm-81.78-44.37,80.63,38.2c1.89-4.42,4.33-15.57-11.38-27.53l-66.32-19.33A38.92,38.92,0,0,1,370.61,668.42Z"/><path class="cls-11" d="M343.44,678.46s16.39,2.07,26.27-14.86c.23-.4.45-.8.65-1.2a24.43,24.43,0,0,0,2.17-5.7c3.33-13.62-7.25-23.83-7.25-23.83l-16.5,34.46Z"/><path class="cls-4" d="M347.87,681.55a23.62,23.62,0,0,1-5.1-.51,2.67,2.67,0,0,1,1.34-5.17c.67.17,15.57,3.67,23.16-13.35a25.65,25.65,0,0,0-3.92-27.81,2.67,2.67,0,0,1,3.85-3.7,30.92,30.92,0,0,1,4.95,33.68C365.67,679.22,354.4,681.55,347.87,681.55Z"/><path class="cls-8" d="M369.71,663.6a25.54,25.54,0,0,1-2.85,6l87.23,40.52c.08-8.22,3.46-12.13-.61-18.93-21.82-3.46-64.13-17.45-83.12-28.79l-.15-.08-.1,0a54.28,54.28,0,0,1-21.33,5l-5.34,11.13S359.83,680.53,369.71,663.6Z"/><path class="cls-14" d="M340.93,677.69c3.44,1.52,8-.46,12.35-4.79a46.81,46.81,0,0,0,9.29-14.07c5.81-13.13,5.55-26-.57-28.7-3-1.34-6.92,0-10.78,3.35s-7.91,8.86-10.86,15.52C334.53,662.12,334.8,675,340.93,677.69Z"/><path class="cls-4" d="M343.42,680.88a8.69,8.69,0,0,1-3.57-.75c-4-1.75-6.23-6.31-6.36-12.83-.11-5.8,1.46-12.69,4.42-19.39,6.62-14.95,17.44-23.64,25.16-20.22,4,1.75,6.23,6.31,6.36,12.83.12,5.8-1.45,12.69-4.42,19.39s-7,12.49-11.38,16.31C350.1,679.29,346.59,680.88,343.42,680.88Zm16.08-48.59c-4.44,0-11.86,6.84-16.7,17.78h0c-2.66,6-4.07,12.08-4,17.12.09,4.2,1.28,7.21,3.18,8s4.94-.3,8.11-3.06c3.79-3.31,7.35-8.44,10-14.44s4.06-12.09,4-17.12c-.08-4.2-1.27-7.22-3.18-8.06A3.41,3.41,0,0,0,359.5,632.29ZM340.36,649h0Z"/><ellipse class="cls-4" cx="360.09" cy="645.87" rx="2.23" ry="0.99" transform="matrix(0.4, -0.91, 0.91, 0.4, -376.26, 713.66)"/><ellipse class="cls-4" cx="354.99" cy="650.27" rx="2.23" ry="0.99" transform="translate(-383.33 711.62) rotate(-66.12)"/><ellipse class="cls-4" cx="357.79" cy="653.5" rx="2.23" ry="0.99" transform="translate(-384.61 716.11) rotate(-66.12)"/><ellipse class="cls-4" cx="352.69" cy="657.91" rx="2.23" ry="0.99" transform="translate(-391.68 714.06) rotate(-66.12)"/><ellipse class="cls-4" cx="349.31" cy="653.98" rx="2.23" ry="0.99" transform="translate(-390.1 708.63) rotate(-66.12)"/><ellipse class="cls-4" cx="344.2" cy="658.39" rx="2.23" ry="0.99" transform="translate(-397.17 706.58) rotate(-66.12)"/><ellipse class="cls-4" cx="347.01" cy="661.61" rx="2.23" ry="0.99" transform="matrix(0.4, -0.91, 0.91, 0.4, -398.45, 711.07)"/><ellipse class="cls-4" cx="341.9" cy="666.02" rx="2.23" ry="0.99" transform="translate(-405.52 709.02) rotate(-66.12)"/><ellipse class="cls-4" cx="344.5" cy="669.61" rx="2.23" ry="0.99" transform="translate(-407.25 713.54) rotate(-66.12)"/><ellipse class="cls-4" cx="355.16" cy="661.8" rx="2.23" ry="0.99" transform="translate(-393.76 718.63) rotate(-66.12)"/><ellipse class="cls-4" cx="350.05" cy="666.21" rx="2.23" ry="0.99" transform="translate(-400.83 716.59) rotate(-66.12)"/><ellipse class="cls-4" cx="354.91" cy="637.71" rx="2.23" ry="0.99" transform="translate(-371.89 704.08) rotate(-66.12)"/><ellipse class="cls-4" cx="349.81" cy="642.12" rx="2.23" ry="0.99" transform="translate(-378.96 702.03) rotate(-66.12)"/><ellipse class="cls-4" cx="352.61" cy="645.35" rx="2.23" ry="0.99" transform="translate(-380.24 706.52) rotate(-66.12)"/><ellipse class="cls-4" cx="347.51" cy="649.76" rx="2.23" ry="0.99" transform="translate(-387.31 704.47) rotate(-66.12)"/><ellipse class="cls-4" cx="357.71" cy="640.76" rx="2.23" ry="0.99" transform="translate(-373 708.45) rotate(-66.12)"/><path class="cls-8" d="M340.93,677.69c3.44,1.52,8-.46,12.35-4.79a60.13,60.13,0,0,0,2.33-5.74,6,6,0,0,1-5,.21c-2.43-1.1-3.55-4.07-3.3-6.72a18.91,18.91,0,0,1,2.42-7.5,38.32,38.32,0,0,0-4.43,7.38,1.36,1.36,0,0,1-2.6-.61A39.62,39.62,0,0,1,354.79,633c-1.25.21-2.47.17-3.57.46-4,3.4-7.91,8.86-10.86,15.52C334.53,662.12,334.8,675,340.93,677.69Z"/><path class="cls-2" d="M466.93,555a16.9,16.9,0,0,1,20.8,8.66,33.39,33.39,0,0,1,3.18,18.23c-1.3,11-9,21.15-19.51,24.6s-23.21-.53-29.22-9.81C439.14,575.14,450.19,561,466.93,555Z"/><path class="cls-15" d="M454.33,603.32c-3.17-3.23-3.76-8.19-3.46-12.7a44.36,44.36,0,0,1,26-37c-10.35,2.27-19.72,6.75-26.74,14.69s-10.64,19.2-8.06,29.48C445.51,601.18,449.69,602.19,454.33,603.32Z"/><path class="cls-4" d="M463.57,610.42c-9.37,0-18.63-4.55-23.63-12.25a2.79,2.79,0,0,1-.41-1.15c-2.21-19.27,7.29-35.48,25.39-43.37h0a19.61,19.61,0,0,1,25.81,10.19,35.91,35.91,0,0,1,2.83,18.39c-1.46,12.34-10,23.12-21.33,26.83A27.84,27.84,0,0,1,463.57,610.42Zm-18.8-14.65c5.4,7.78,16.37,11.32,25.8,8.21,9.21-3,16.48-12.23,17.69-22.38A30.5,30.5,0,0,0,485.83,566a14.25,14.25,0,0,0-18.77-7.41h0C451.18,565.46,443.09,579,444.77,595.77Z"/><path class="cls-4" d="M485.8,587.2a19.82,19.82,0,0,0-9.54-11.56c-1.59-.9-3.25-1.2-5.05-2.7,3.92-2,8.5.51,11.9,2.5,2.86,1.65,11.6,11.12,6.05,13.54a2.66,2.66,0,0,1-3.36-1.78Z"/><path class="cls-4" d="M473.42,604.45a19.74,19.74,0,0,0-9.53-11.56c-1.6-.9-3.26-1.2-5.05-2.7,3.92-2,8.5.51,11.9,2.5,2.86,1.65,11.59,11.12,6.05,13.54a2.68,2.68,0,0,1-3.37-1.78Z"/><path class="cls-2" d="M582.91,610.16c-3.28,4.11-8.83,9.69-14.22,11-5.84,1.39-16.3-1.21-21-4.06-3.91-2.36-4.36-7.46-6.31-11.59-2.5-5.27-3.86-12.16-2.7-17.88,1.06-5.3,4.63-10,7.22-14.74,1.83-3.34,6.5-9.81,11.06-8.42,3.93,1.2,7.93,8.39,10.14,11.47a99.94,99.94,0,0,1,9.55,16.37C577.71,594.57,584.53,608.13,582.91,610.16Z"/><path class="cls-15" d="M602,555.57H576.23c-9.48,1.67-17.54,7-25.49,12.81-5.88,4.28-14,18.26-14.45,24.55-.24,3.15,6.23,1.5,6.23,1.5,8-18,24.1-39,69-26.93C613,564.89,606.41,558.72,602,555.57Z"/><path class="cls-4" d="M598.68,478.69c27.52,17.63,42.6,51.65,48.62,82.82,1.41,8.31,2.37,16.4,1.58,25-.36,4.46-3.26,8.84-6,12.31-14.24,17.49-39.91,17.64-59.15,9.66L587,607a29.32,29.32,0,0,1-17.24,16.52c-12.1,4.46-25.6-3.14-31.51-13.86-10.32-18.36,1-42.41,19.72-49.8,14.24-6.44,30.13-5.24,45.16-3.43,7.45,1,15.23,2.54,21.36,7.22-14.71-2.16-29-4.87-43.79-4.16-21.25.22-42.93,14.9-40.63,37.93,1,12.89,15,25.33,27.9,20.92a24.8,24.8,0,0,0,14.29-13.22,2.56,2.56,0,0,1,3.24-1.46C603,610,625.35,610.15,638,594.8c2-2.81,4.21-5.45,4.57-9,.67-7.51-.31-15.61-1.51-23.16A153.71,153.71,0,0,0,626,517.84c-7.48-14.19-17.37-26.41-27.54-38.89-.12-.14.07-.36.22-.26Z"/><path class="cls-4" d="M536.27,601.31A18.78,18.78,0,0,1,548,588.14c1.82-.64,3.79-1.37,5.83-.27-1.54,1.63-3,2-4.46,3a18.58,18.58,0,0,0-7.84,11.54,2.67,2.67,0,0,1-5.22-1.12Z"/><path class="cls-4" d="M546.51,615a18.8,18.8,0,0,1,11.69-13.17c1.82-.64,3.79-1.37,5.83-.28-1.54,1.64-3,2-4.46,3a18.63,18.63,0,0,0-7.84,11.55,2.67,2.67,0,0,1-5.22-1.12Z"/><path class="cls-8" d="M475,555.15a34.91,34.91,0,0,1,6.86,18.43c-5.47-4.59-11.35-4.28-17-1.37,4,2,15.94,10.58,8.68,19.28-5.91-5.76-14.23-4.66-18.41-3.14a8.81,8.81,0,0,1-2.27,16.16c9.55,5.56,23.32,3.36,30.92-4.67a28.8,28.8,0,0,0,7.38-17.1C492.24,571,484.52,562,475,555.15Z"/><path class="cls-6" d="M647.68,584.12a13,13,0,0,1-1.3,2.29l-24.93-15.86c-3.79-2.41-7.55-5.27-11.59-7.2a128.43,128.43,0,0,0-13.32-5h0c-1.37-.47-2.75-.93-4.13-1.38,4.65-4.7,4.28-12.29,3.14-18.8a140.43,140.43,0,0,0-3.19-13.86q-1-3.54-2.21-7a12.66,12.66,0,0,0-.56-1.34c-.6-1.32-1.33-2.89-1.1-4,.62-3,7.1-6,9.6-7.26a47.3,47.3,0,0,1,12.78-4.49c4.75-.93,8.28-.24,11.25,1.87a21,21,0,0,1,5.19,5.69c13.21,19.82,23.36,42.41,22.25,66.7A26.53,26.53,0,0,1,647.68,584.12Z"/><path class="cls-15" d="M591.92,531.4a47.47,47.47,0,0,1,4,27.29,27.4,27.4,0,0,0-8.42-4.3C591.82,547.44,593,539.52,591.92,531.4Z"/><path class="cls-4" d="M591.53,530.12c2.77,8.77,3.47,19.14-2.93,26.91l-1.08-4.42c23,7.41,43.64,20.31,63.47,33.66l-4.16,2.09c1.59-26.65-5.16-53.59-21.41-75a244.21,244.21,0,0,0-17.13-20.68,2.67,2.67,0,1,1,4-3.58,249.91,249.91,0,0,1,17.5,21.13c16.91,22.27,24.1,50.68,22.42,78.39a2.68,2.68,0,0,1-4.16,2.09c-9.85-6.61-19.76-13.07-30-18.77a180.37,180.37,0,0,0-32.38-14.34,2.51,2.51,0,0,1-.78-4.32c6.57-5.23,7.62-15,6.73-23.16Z"/><path class="cls-8" d="M651.09,574a120.57,120.57,0,0,0-7.56-34.4A68.6,68.6,0,0,0,636,524.75L630.85,517c-1-1.53-4.84-5.57-4.84-7.33l-8.62-13a18.66,18.66,0,0,0-3.92-4.72c-3.29-2.54-6.78-.88-10.39-.18-4.17.8-8.09,2.62-12.35,2.95-5.55.45-11.13,1.07-16.71,1.52-8.21.65-16.43,1.32-24.65,1.43-1.42,0-2.85,0-4.27,0a217.16,217.16,0,0,1-39.58-4.55c-3.39-.65-6.77-1.37-10.15-2.11a65.77,65.77,0,0,0-9.92.75,23.19,23.19,0,0,0-6.67,2,21.06,21.06,0,0,0-5.74,4.13c-1.7,1.65-4.16,1.24-6,3.52,5,2,10,5.66,14.86,8.73a48.24,48.24,0,0,0,6.62,3.57,93.92,93.92,0,0,0,9.41,3.39,218.45,218.45,0,0,0-4.57,40.14c2.36,0,5.24.14,7.59.18,4.83.07,1.94-2.21,6.52-3.75.29-11.38.83-22.73,4.2-33.2q2.69.52,5.36,1A144.4,144.4,0,0,0,544,523.31a142.6,142.6,0,0,0,25.74-2.89h.07a235.24,235.24,0,0,0-3.86,38c2.45,0,5.45.15,7.9.19,5,.08,2-2.34,6.8-4,.33-13.13,1-26.21,5.37-38.1,1.2-.23,2.4-.43,3.6-.57a32.67,32.67,0,0,1,4.07-.23c11.33.07,21.86,7.09,28.18,16.5a55.89,55.89,0,0,1,6.6,14.31A55.14,55.14,0,0,1,631,561.07a33.83,33.83,0,0,1-1.36,11.3,20.31,20.31,0,0,1-8,11.12,20.75,20.75,0,0,1-3.64,2c-4.88,2.09-10.38,1.87-15.68,1.61-10.45-.5-26.81-4.59-36.59.27-5.7,2.84-9.78,8.6-12.37,14.26a37,37,0,0,0-2.78,9.19c-.44,2.65-2.35,4.63-1,7.05a5.84,5.84,0,0,0,.82,1.11,10.26,10.26,0,0,0,5.12,2.62,28.56,28.56,0,0,0,11.64.5c1.24-.21,2.47-.87,3.73-.74a33.85,33.85,0,0,1,5.43,1.55q5.75,1.64,11.59,2.93c1,.23,11.14,1.73,11.21,2.16a137.77,137.77,0,0,1-3,55.79,135.19,135.19,0,0,1-10.59,27.33.19.19,0,0,1,0,.08A137.58,137.58,0,0,1,556.61,749l-.26.23-.88.81,1.45-.74a2.32,2.32,0,0,1,.82-.21,11.85,11.85,0,0,1,2.06,0,29.32,29.32,0,0,0,3.16.18c.83-.07,1.66-.17,2.47-.28a37,37,0,0,0,4.31-.89,38.93,38.93,0,0,0,12.83-6.28,55.43,55.43,0,0,0,11.36-11.53c2.17-2.9,4.1-7.72,6.78-10.81,4-4.64,11.39-4.51,17-5.57l5.36-15.17c.56-1.58,1.13-3.3.65-4.92a4.22,4.22,0,0,0-6.22-2.09c.08-6.49,2.32-13.12,3.39-19.58q1.71-10.44,2.66-21a287.62,287.62,0,0,0,.64-43c2.15-1,4.2-2.24,6.39-3.19a24,24,0,0,0,2.15-1.08,20.79,20.79,0,0,1,2.55-2.59c1.81-1.54,4.46-2.68,6-4.49,1.86-2.19,2.27-6.12,3.07-8.81,1.28,1.63,4.09,1.1,5.38-.52s1.47-3.85,1.5-5.93C651.3,579.05,651.25,576.54,651.09,574Z"/><path class="cls-1" d="M585.72,325.79c-7.81-6.49-7.43-3.87-17.07-7.65l72.55-65.79,1.34,1.87c21.81,45.62.69,93.39-10,109.44C614.47,353.75,601.23,338.67,585.72,325.79Z"/><path class="cls-1" d="M486.22,325.54c-9.06,5-9,2.37-15.93,9.82-13.71,14.78-24.87,31.45-41.47,43.63-9.83-11.24-32.35-39.93-32.05-72.4.09-9.47.34-27.9,3.89-38.77l.31.12,35.86,23.95Z"/><path class="cls-2" d="M439.94,292.37c-.57,1.57-4.25,7.22-5.19,8.6-1.68,2.46-3.95,5.22-6.91,5-2.4-.17-4-1.39-6,.43-1.69,1.49-2,3.25-4.51,3.72-1.78.35-3.61-.09-5.4.16s-2.67,1.13-4.17,1.9a9.54,9.54,0,0,1-9.8-1.16c-1.25-.95-.79-8.93-.85-10.57-.13-3.7-.08-7.41.14-11.11.12-2,2.45-25,3.3-24.74Z"/><path class="cls-2" d="M613.18,278.23a20.8,20.8,0,0,0,2.5,4.39c1.68,2.46,4,5.22,6.92,5,2.39-.17,4-1.39,6,.43,1.69,1.49,2,3.25,4.51,3.72,1.93.37,3.92-.15,5.89.24a25,25,0,0,1,4.72,1.67c.86.36,6.65,1.74,7.43,1.94.53-9.46-3.22-30.32-6-41.39l-4-2.31Z"/><polygon class="cls-5" points="473.45 331.73 399.17 269.37 400.38 264.96 482.37 325.51 473.45 331.73"/><path class="cls-16" d="M417.18,304.62s2.68,43.09,22,60.13l10.53-2.16c3.5-6,11.6-14.24,16.14-20.74Z"/><path class="cls-4" d="M440.62,367.32a2.67,2.67,0,0,1-1.81-.71c-27.57-25.41-24.44-60.76-24.29-62.25a2.67,2.67,0,0,1,4.28-1.86l48.63,37.23a2.67,2.67,0,1,1-3.24,4.24l-44.45-34c.22,10.38,3,34.62,22.69,52.74a2.68,2.68,0,0,1,.15,3.78A2.65,2.65,0,0,1,440.62,367.32Z"/><path class="cls-4" d="M432.14,380.67a2.65,2.65,0,0,1-1.9-.79c-.52-.53-51.8-53.41-32.14-116.49a2.69,2.69,0,0,1,1.7-1.73,2.66,2.66,0,0,1,2.41.36l86,61.69a2.67,2.67,0,1,1-3.11,4.34l-82.94-59.49C386.45,327,433.55,375.63,434,376.13a2.67,2.67,0,0,1,0,3.77A2.63,2.63,0,0,1,432.14,380.67Z"/><path class="cls-16" d="M631.53,286.48s2.94,43.07-14,62.47l-10.72-.77c-4.25-5.48-13.35-12.62-18.7-18.46Z"/><polygon class="cls-5" points="584.34 319.43 646.38 255.06 641.62 251 572.52 314.24 584.34 319.43"/><path class="cls-4" d="M616.09,351.71a2.67,2.67,0,0,1-2.05-4.38c17.14-20.53,16.77-44.92,15.64-55.25L590,331.61a2.67,2.67,0,0,1-3.78-3.78l43.38-43.24a2.65,2.65,0,0,1,2.62-.68,2.69,2.69,0,0,1,1.87,2c.34,1.46,8,36.1-16,64.88A2.62,2.62,0,0,1,616.09,351.71Z"/><path class="cls-4" d="M629.48,365.4a2.67,2.67,0,0,1-2.13-4.28c.39-.51,37.5-50.71,14.17-106.4l-71.06,65.39a2.67,2.67,0,1,1-3.62-3.93l73.81-67.92a2.67,2.67,0,0,1,4.23.85c27.7,60-12.86,114.69-13.27,115.23A2.67,2.67,0,0,1,629.48,365.4Z"/><path class="cls-1" d="M662.49,432.18c-3.2,30-29.07,58.55-102.07,72.23-3.33.63-6.77,1.21-10.31,1.78-3.38.54-6.91,1-10.51,1.32-2.26.21-4.58.39-6.9.5-31.13,1.73-67.46-4-93.09-19.5-12.07-7.29-21.75-16.75-27.41-28.58a55.4,55.4,0,0,1-4.53-14.08c-3-16.61.93-36.91,14.78-61.31l-.45-.42c13.75-10.94,21.1-26.92,31.9-40.46a117.7,117.7,0,0,1,14.44-15.45,76.46,76.46,0,0,1,7.82-6,13.15,13.15,0,0,1,1.23-.76c8.94-5.51,19.22-6.89,29.34-9.29a3.65,3.65,0,0,0,2.9-4.54,91.17,91.17,0,0,1,43.63,2.17c1.24.36,2.48.75,3.74,1.15l.94-.7,1-.72c5.71.09,9.3,2.59,14.46,4.21a68.66,68.66,0,0,1,10.87,4c4,2,9.45,3.17,13.16,5.85,15.23,10.92,28.23,26.33,40.41,39.19a4.57,4.57,0,0,0,.93.77c.09.12.18.24.27.34C653,383.06,665,408.1,662.49,432.18Z"/><path class="cls-5" d="M598,324.9c-17-2.47-34.13-4.93-51.33-5s-34.65,2.35-50.41,9.29c-27.29,12-47.21,36.58-61.29,62.87-8.29,15.47-15,32.32-15.2,49.87s7.3,35.93,22.2,45.19a25.06,25.06,0,0,1-2.32,1.4c-12.07-7.29-21.75-16.75-27.41-28.58a55.4,55.4,0,0,1-4.53-14.08c-3-16.61.93-36.91,14.78-61.31l-.45-.42c13.75-10.94,21.1-26.92,31.9-40.46a117.7,117.7,0,0,1,14.44-15.45,76.46,76.46,0,0,1,7.82-6,13.15,13.15,0,0,1,1.23-.76c8.94-5.51,19.22-6.89,29.34-9.29a3.65,3.65,0,0,0,2.9-4.54,91.17,91.17,0,0,1,43.63,2.17c1.24.36,2.48.75,3.74,1.15l.94-.7,1-.72c5.71.09,9.67,2.3,14.83,3.91a62.6,62.6,0,0,1,10.14,4.36c4,2,9.81,3.12,13.52,5.8Z"/><path class="cls-3" d="M664.45,437.65c-4.41,24.76-25.16,48-76.12,62.28-14.2,2-29.91,4.08-46.81,7.24q-5,.94-10.31,1.78c-1.62.25-3.26.5-4.93.71-44,.39-95-13.78-111.53-48.37a55.65,55.65,0,0,1-4.53-14.08,59,59,0,0,1-.88-8c10.63-2.47,24.76-3.13,43.51-.24a34,34,0,0,0,30.72-11.57,31.12,31.12,0,0,1,3.42-3.35c5.37-5,13.45-9.08,25.52-9.51,12-1.14,20.56,1.84,26.55,6.11a32,32,0,0,1,3.82,2.87,35.4,35.4,0,0,0,32,8C617.18,421,652.72,429.85,664.45,437.65Z"/><path class="cls-8" d="M647.69,377.2c-3.92-6.47-8.19-15.73-13.25-20.9,31.32-58.72,14-93.64,10.74-98.83,8.31,30.47-34.09,90.45-56.57,64.95-2-2.21-5.94-3.54-3.39-2,1.78,1.05,36,36,44.64,61.63a113.48,113.48,0,0,1,4.32,16.25l-.11-1a90,90,0,0,1,1.49,18.16c-.43,21.78-13.64,42.15-30.75,54.85-16.3,12.09-36.16,18.52-56.09,22.36a256.12,256.12,0,0,1-98.63-.36c1.63.33,4.15,3.05,5.61,4A78.14,78.14,0,0,0,477.35,506a112.19,112.19,0,0,0,29.9,3.53,362.3,362.3,0,0,0,73.27-7.72l4.33-.95c12.72-2.9,25.44-6.54,36.76-13,18.49-10.61,35.24-26.55,40.56-47.19S658.74,395.42,647.69,377.2Z"/><path class="cls-4" d="M522,511c-43.19,0-94.79-13.51-112.17-49.89-13.85-29-2.89-66,32.55-110,.48-.71,60.73-86.35,162.89-23.87,14.26,7.58,67.86,60.45,60.61,108.64C660.55,471,625.25,495,560.92,507q-5,.94-10.37,1.79A184.3,184.3,0,0,1,522,511Zm10.48-201.47a100,100,0,0,0-44.84,10.68,117.31,117.31,0,0,0-41,34.07c-34.17,42.45-44.9,77.56-32,104.53,20.06,42,92.49,51.56,135.1,44.79q5.25-.84,10.23-1.77c61.85-11.59,95.7-34.05,100.62-66.75,6.76-45-44.9-96.34-57.89-103.17l-.15-.09C578.25,316.93,554.81,309.49,532.44,309.49Z"/><path class="cls-4" d="M526.25,436c.43,5.19-7.57,16-18.5,17s-20.64-8.45-21.08-13.64,8.07-10.14,19-11.05S525.81,430.84,526.25,436Z"/><path class="cls-4" d="M508.61,466.06a2.67,2.67,0,0,1-2.66-2.49l-1.14-17.43a2.68,2.68,0,0,1,2.5-2.84,2.72,2.72,0,0,1,2.83,2.49l1.14,17.43a2.67,2.67,0,0,1-2.49,2.84Z"/><path class="cls-4" d="M508.87,468.83A29.26,29.26,0,0,1,494,464.29a2.67,2.67,0,1,1,2.77-4.56c4.87,2.95,10,4.24,14.43,3.6,4.89-.68,9.12-4,10.31-8a2.67,2.67,0,1,1,5.12,1.5c-1.78,6.08-7.68,10.83-14.69,11.82A21.55,21.55,0,0,1,508.87,468.83Z"/><ellipse class="cls-3" cx="462.39" cy="378.86" rx="12.96" ry="6.47" transform="translate(-23.71 30.94) rotate(-3.74)"/><ellipse class="cls-3" cx="558.13" cy="372.6" rx="12.96" ry="6.47" transform="translate(-23.1 37.17) rotate(-3.74)"/><ellipse class="cls-4" cx="465.17" cy="421.47" rx="20.57" ry="18.63" transform="translate(-49.07 781.44) rotate(-77.17)"/><ellipse class="cls-3" cx="469.84" cy="428.15" rx="8.28" ry="6.39" transform="translate(-112.75 682.41) rotate(-65.92)"/><ellipse class="cls-15" cx="459.65" cy="411.75" rx="3.26" ry="3.98" transform="translate(-146.97 524.98) rotate(-52.43)"/><ellipse class="cls-4" cx="558.63" cy="415.37" rx="18.63" ry="20.57" transform="translate(-109.42 219.65) rotate(-20.3)"/><ellipse class="cls-3" cx="555.96" cy="422.65" rx="6.39" ry="8.28" transform="translate(-125.47 269.75) rotate(-24.6)"/><ellipse class="cls-15" cx="565.61" cy="405.26" rx="3.98" ry="3.26" transform="translate(-120.8 519.21) rotate(-45.05)"/><path class="cls-8" d="M423.5,315.21A70,70,0,0,0,444.4,349a25.43,25.43,0,0,0,15.68-13c-7.29-6-14.87-12.57-22.15-18.59-4.5-3.72-10.16-6.5-14.66-10.22C421.45,310.21,422.59,311.85,423.5,315.21Z"/><path class="cls-8" d="M505,441.05c3.17,9.32,4.55,17.29,3,27,4.93-2.41,9.58-2,13.81-5.49s7.69-8.1,8.63-13.41-1.06-11.28-5.69-14.21c-4.31-2.73-9.84-2.43-15-2-1.78.14-3.67.32-5.06,1.41S503.63,440,505,441.05Z"/><path class="cls-8" d="M443.6,566c5.95-13.94,7.5-25.94,21.65-34-7.18,11.41-9.65,20.76-10.3,34.23C451.21,565,447.55,565.83,443.6,566Z"/></svg>