<svg id="Layer_1" data-name="Layer 1" xmlns="http://www.w3.org/2000/svg" viewBox="0 0 1000 1000"><defs><style>.cls-1{fill:#ff8f06;}.cls-2{fill:#d14f1b;}.cls-12,.cls-3,.cls-7{fill:#fff;}.cls-3,.cls-6{opacity:0.3;}.cls-4,.cls-5{fill:#470000;}.cls-12,.cls-5{opacity:0.4;}.cls-6{fill:#fffffd;}.cls-8{fill:#e21d26;}.cls-9{fill:#1381d8;}.cls-10{fill:#004063;}.cls-11{fill:#f59b95;}</style></defs><path class="cls-1" d="M508.79,617c-.29,2.82-.62,5.72-1,8.67-1.37,11.39-3.24,23.59-5.62,35.57-1.11,5.56-2.33,11.09-3.65,16.47-6.12,24.64-14.68,46.3-26.08,55.43a19.7,19.7,0,0,1-9.81,4.47c-5.74.75-10.94-4.43-15.54-13-9.19-17-16.07-47.41-20.3-70.22-2.56-13.76-4.16-24.78-4.74-28.44Z"/><path class="cls-2" d="M434.39,692.66c13.33,11.31,36.21,9.34,52.54,4.85-1.29,11.52-4.38,22.23-10.47,31.7-3.29,5.12-7.74,10.06-13.4,10.72S451.7,736.4,448.53,731s-4.44-11.86-5.64-18.15C441.14,703.7,436.14,701.82,434.39,692.66Z"/><path class="cls-3" d="M450.56,711.13a43.36,43.36,0,0,0,11.92,26.58,49,49,0,0,1-20.22-30.22C445.84,708.18,447.9,708.64,450.56,711.13Z"/><path class="cls-4" d="M422.08,626c6.5,15.77,20.34,120.65,44.51,107.18,27.12-15.83,34.6-86.12,42.2-116.16.5,30.27-10.54,106.9-39.51,121.84-23.14,11.68-33.15-33.72-37.45-48.83-5-21.08-9.65-42.26-9.75-64Z"/><path class="cls-5" d="M456.23,699.32c.7,9.76-2.41,19.72-7.86,27.93v0c4.46,8.34,9.5,13.41,15.06,12.68a19,19,0,0,0,9.5-4.38s0,0,0,0c-1.48-3.71-10-22.54-11.84-26.3Z"/><path class="cls-1" d="M653.11,593.34c-.71,1.47-1.43,2.93-2.14,4.41-9.37,19.3-18.54,39.33-34.76,53-.72.62-1.45,1.22-2.21,1.81a71.15,71.15,0,0,1-88.19-1,37.68,37.68,0,0,1-7.84-8.38,21.31,21.31,0,0,1-2.77-5.89c-1.5-5.42-.13-10.81,2.56-15.38s6.69-8.48,10.63-12.34c.23-.22-2.08-4-1.85-4.23,6.26-6.22,14.9-9.8,22.09-15.76a1.86,1.86,0,0,1,.3-.24l.59-.51a54.5,54.5,0,0,1,18.3-10.07,69,69,0,0,1,25.2-2.43,115.27,115.27,0,0,1,17,2.56c14.31,3.22,28.42,8.7,42.44,14.16Z"/><path class="cls-6" d="M563.3,580a230.6,230.6,0,0,0,63.56,6.56C608.21,577.4,583.54,575.28,563.3,580Z"/><path class="cls-7" d="M653.12,593.35q-1.08,2.19-2.15,4.4c-9.37,19.3-18.54,39.33-34.75,53a6.91,6.91,0,0,1-.61-.71c-2.88-3.71-2.46-8.42-.85-11.95s4.24-6.48,5.45-10.22S620.74,619,617,616c-4.59-3.64-11.83-2.57-15.29-7.21-2-2.68-1.58-6-.35-8.53s3.12-4.6,3.86-7.35c1-3.91-.91-8.76-4.27-12.13-1.8-1.8-5.83-2.77-8-4.45a115.5,115.5,0,0,1,17,2.57C624.54,582.19,638.88,587.78,653.12,593.35Z"/><path class="cls-4" d="M568.34,667.6a86.52,86.52,0,0,1-18-1.81c-16.32-3.46-28.41-11.74-35-23.94-3.86-7.2-4.15-14.94-.84-23,8.84-21.55,40.66-39,52.44-42.62,12.05-3.73,26.72-3.69,43.58.09,14.78,3.32,29.38,9,43.49,14.55a2.67,2.67,0,0,1,1.43,3.66c-1.21,2.45-2.4,4.91-3.6,7.38-9.37,19.35-19.06,39.37-36.28,52.74C606.37,661.85,587.66,667.6,568.34,667.6Zm18.48-88.8a61.54,61.54,0,0,0-18.22,2.53c-10.36,3.2-41.15,20.21-49.08,39.54-2.71,6.61-2.51,12.64.61,18.46,7.3,13.61,21.09,19.06,31.36,21.24,22.47,4.76,49.62-1.39,60.87-10.13h0c16.24-12.61,25.65-32.06,34.76-50.86.77-1.6,1.55-3.2,2.32-4.79-13.08-5.11-26.56-10.24-40-13.26A104,104,0,0,0,586.82,578.8Z"/><path class="cls-5" d="M653.11,593.34c-.71,1.47-1.43,2.93-2.14,4.41-9.37,19.3-18.54,39.33-34.76,53-.72.62-1.45,1.22-2.21,1.81a71.15,71.15,0,0,1-88.19-1,37.68,37.68,0,0,1-7.84-8.38c1.82-3.05,4.43-5.58,6.46-8.51a28.84,28.84,0,0,0,5.08-15.39c.12-3.41-2.73-11.54-2.83-15,6.27-6.21,14.76-8.75,22-14.71a44.11,44.11,0,0,1-.72,36.47,7.74,7.74,0,0,0,6.24,10.9,110.85,110.85,0,0,0,53.59-8.21,108.13,108.13,0,0,0,44.72-35.69Z"/><path class="cls-1" d="M521.46,665.49a78.79,78.79,0,0,1-16.38,7.63q-2.7.95-5.55,1.72c-10.44,2.92-22.58,4.6-36.56,4.94a56.29,56.29,0,0,1-35-11c-22.83-16.7-35.68-50.35-33.31-86.48,2.38-36.36,12.17-64.13,26.45-84.32.57-.82,1.15-1.64,1.75-2.43l.54-.74C438.43,475,458,463.06,478.86,458c8.06-2,28.76-4.94,41.08,11.07a39.26,39.26,0,0,1,5.57,10.19c.06.18.13.36.19.53C558.77,567.45,567.94,636.82,521.46,665.49Z"/><path class="cls-7" d="M453.3,508.56c-5.2,1.26-7.2,14.63-8.85,19.4l-7.7,22.33c-4,11.65-8.09,23.43-14.72,33.81-3.71,5.8-14.62,22.67-22.18,13.91-6.15-7.11-4.33-22.83-3.93-31.5,1.05-22.67,7.54-45.33,20.38-64.2C429.19,504.75,440.41,506.12,453.3,508.56Z"/><path class="cls-4" d="M461.52,683.12c-16.69,0-31.9-6.67-44.08-19.36-18.06-18.82-27.59-49.1-25.49-81,4.48-68.29,35.93-114.48,86.28-126.73,8.83-2.15,38.53-6.84,49.78,22.91,31.78,84.12,36.5,138.28,14.85,170.42-14.45,21.45-41.3,32.8-79.82,33.73h0Zm1.46-2.69h0Zm29-220.75a53.86,53.86,0,0,0-12.5,1.55c-47.93,11.66-77.89,56.08-82.21,121.88-2,30.43,7,59.19,24,76.95,11.48,12,25.84,18.12,41.61,17.7h0c37.21-.89,61.91-11.16,75.52-31.37C559,615.8,554.13,563.2,523,480.84,516.51,463.63,503,459.68,492,459.68Z"/><path class="cls-1" d="M522.48,620.41c-.31,8.9-.88,18.52-1.8,28.32-4,43.56-14.35,90.68-36.06,95-5.82,1.14-11.47-4-16.75-12.57-4.38-7.11-8.49-16.6-12.22-26.86-4.93-13.62-9.16-28.64-12.42-41.31-3.48-13.57-5.81-24.45-6.65-28.06l66.64-11.23,11.42-1.93Z"/><path class="cls-2" d="M456.05,697.29c13.34,11.3,36.22,9.33,52.54,4.84-1.29,11.52-4.38,22.23-10.47,31.7-3.29,5.12-7.74,10.06-13.4,10.72s-11.35-3.52-14.53-8.92-8.33-12.41-9.53-18.7C458.9,707.77,457.8,706.44,456.05,697.29Z"/><path class="cls-3" d="M470,714.75a47.37,47.37,0,0,0,15.22,27.53A36.37,36.37,0,0,1,461.31,713,15.59,15.59,0,0,0,470,714.75Z"/><path class="cls-4" d="M436.58,634.88c7.59,15.41,28.36,118.76,51.57,104.18,26.08-17.37,28.8-88.28,34.34-118.66,2.54,30.17-3.26,107.51-31.32,124.18-22.29,12.85-35.24-31.68-40.56-46.47-6.39-20.69-12.46-41.52-14-63.23Z"/><path class="cls-8" d="M414.65,503.49c-11.88,15.77-17.48,35.61-21.22,54.93,21.77,11.74,44.6,16.7,69.38,17.7,11.95.48,23.91-.35,35.84-1.18,19.33-1.34,38.73-2.7,57.72-6.55-2.51-8.25-4.31-16.68-6.81-24.93L534.21,493C495.92,500.52,453.62,506,414.65,503.49Z"/><path class="cls-4" d="M470.1,578.93q-3.71,0-7.4-.14c-24.75-1-45.89-6.88-68.52-19.08a2.67,2.67,0,0,1-1.36-2.86c3.5-18.05,7.81-32.78,19.48-54.62a2.72,2.72,0,0,1,2.53-1.41c33.22,2.19,72.11-1.24,118.87-10.48a2.67,2.67,0,0,1,3.07,1.85l15.34,50.49c1.14,3.75,2.14,7.56,3.07,11.16A15.91,15.91,0,0,1,542,573.56c-14.36,2-29,3.06-43.16,4C489.43,578.26,479.76,578.93,470.1,578.93Zm-71.65-23c21.23,11.16,41.2,16.58,64.46,17.51,11.83.47,23.89-.36,35.56-1.18,14.06-1,28.6-2,42.77-4a10.66,10.66,0,0,0,7.34-4.61,10.44,10.44,0,0,0,1.43-8.49c-.92-3.53-1.9-7.29-3-10.93l-14.64-48.19C487,504.86,449,508.22,416.21,506.26,405.87,525.91,401.71,539.66,398.45,555.94Z"/><path class="cls-9" d="M425.23,670.66l7.93,21.2c1.16,3.1,1.84,8.18,4,10.83,1.47,1.76,6.52,2.23,9.3,1.88,5.39-.68,7.27-5.5,8-9.49,1.09-6.13-2-12.45-7.84-16.19a43.36,43.36,0,0,0-4.79-2.49l-14.15-6.63"/><path class="cls-4" d="M449,708.27A64.6,64.6,0,0,1,437,706.72l-1.15-.22a2.66,2.66,0,0,1-2-1.77L422.7,671.68a2.67,2.67,0,1,1,5.06-1.71l10.66,31.58c4,.78,8.47,1.62,12.17,1.32a2.67,2.67,0,0,1,.42,5.32C450.34,708.24,449.66,708.27,449,708.27Z"/><path class="cls-9" d="M510.69,702.69c-24.33,9.14-51.37,9.36-77.23,1.1-1.26-.41-2.53-.83-3.78-1.27-1.41-3.43-3.25-19.14-2.69-22.72l1.26.45c3,1,6.07,2,9.21,2.9,21.28,6,45.28,8,65.29,3.17,1.19-.28,2.36-.58,3.51-.91C509.05,691.65,507.89,696.45,510.69,702.69Z"/><path class="cls-3" d="M438.27,684.66a30.56,30.56,0,0,0-1.7,19.62c-2.05-.16-4.49-.24-6-1.75a8.57,8.57,0,0,1-1.94-4.4,42.84,42.84,0,0,1,0-17.47A19.9,19.9,0,0,0,438.27,684.66Z"/><path class="cls-4" d="M471.15,712.41A127.44,127.44,0,0,1,428.79,705a2.66,2.66,0,0,1-1.58-1.5c-1.58-3.83-3.5-20.08-2.86-24.15a2.67,2.67,0,0,1,3.55-2.1c24,8.67,52.67,9.75,76.63,2.9a2.66,2.66,0,0,1,3.17,1.48,47,47,0,0,1,2.89,10.55,43.21,43.21,0,0,0,2.53,9.39,2.67,2.67,0,0,1,0,2.11,2.7,2.7,0,0,1-1.53,1.47A115,115,0,0,1,471.15,712.41Zm-39.34-12c25.22,8.6,51.83,8.83,75.41.66a61.93,61.93,0,0,1-1.87-7.87,58.48,58.48,0,0,0-1.71-7.26c-23.33,6.12-50.56,5.21-74.05-2.46A110.29,110.29,0,0,0,431.81,700.44Z"/><path class="cls-9" d="M442.84,683.49c2.81,8.42,5.5,17.15,9.37,25.12h64.18c2.25-9.35,6.49-25.55,7.46-33.79a5.63,5.63,0,0,1,1.48-3.19c26.81-28.74,38.34-71.79,29.15-110a5.53,5.53,0,0,0-5.27-4.22h-.09a5.55,5.55,0,0,1-5.25-4.23,265.57,265.57,0,0,0-20.25-54.9,5.55,5.55,0,0,0-7.46-2.49l-.34.17a5.53,5.53,0,0,0-2.38,7.63,124,124,0,0,1,15.94,55.56c.17,4.72-5.87,8.22-10.26,10C499.24,577,476,572,455.3,566.55A92.07,92.07,0,0,1,425,552.32a5.56,5.56,0,0,1-1.95-6.63,138.82,138.82,0,0,1,18.65-32.33,5.52,5.52,0,0,0-2.29-8.52,40.82,40.82,0,0,0-4.17-1.4,35.7,35.7,0,0,0-4-.86,5.6,5.6,0,0,0-5.25,2.1,156.49,156.49,0,0,0-26.72,53.67c-2.85-.19.73-2-2.12-2.23-8.44,22.89-7.3,49.77,2,72.31,8.06,19.43,17.61,37,34.28,48.07a62.51,62.51,0,0,0,6.6,3.83A5.4,5.4,0,0,1,442.84,683.49Z"/><path class="cls-5" d="M425.34,618.32a11.77,11.77,0,0,1-1.44,9.24,16.91,16.91,0,0,1-7.18,6.21c-3.05,1.46-6.64,2.17-9.83,1s-5.68-4.51-5-7.82c4.1-.78,8.7-1.91,10.76-5.54,2.27-4-1.63-6.05-3.25-9.91-1-2.31-2.06-10.13.6-12.22,1.64-1.29,4.79-.36,6.37.55,3,1.75,2.29,3.68,2.88,6.64C420.09,611,424.09,614,425.34,618.32Z"/><path class="cls-10" d="M391.49,592.68a50.46,50.46,0,0,0,22.62,6.42c-4.38,4-6.11,13.07-3.56,18.45,1.27,2.66,3.42,5.15,3.24,8.09-.2,3.21-3.3,5.62-6.47,6.16s-6.38-.36-9.47-1.25"/><path class="cls-3" d="M400.86,567.8a96,96,0,0,0,3.8,57c3.72,9.38,8.89,18.1,14,26.77q7.4,12.48,14.81,24.93c-16.67-11-26.22-28.64-34.28-48.07-9.34-22.54-10.48-49.42-2-72.31,2.85.19-.73,2,2.12,2.23A156.49,156.49,0,0,1,426,504.68a5.6,5.6,0,0,1,5.25-2.1,35.7,35.7,0,0,1,4,.86,2.17,2.17,0,0,1,.72,1.4c.09,1.12-3,2.35-3.49,1.33A138.1,138.1,0,0,0,404.67,566C403.46,566.5,402.06,567.3,400.86,567.8Z"/><path class="cls-4" d="M516.39,711.28H452.2a2.66,2.66,0,0,1-2.4-1.51,128.18,128.18,0,0,1-5.56-13.71h0a36.72,36.72,0,0,0-14-18.36c-14.9-10-26.09-25-35.23-47-9.76-23.56-10.54-51.32-2.09-74.26a2.74,2.74,0,0,1,2.69-1.74,8.62,8.62,0,0,1,1.87.28,157.54,157.54,0,0,1,28.36-54.37,2.59,2.59,0,0,1,2.09-1c5.92.05,13.93,2.63,19.48,6.29a2.66,2.66,0,0,1,.57,4,135.05,135.05,0,0,0-23.27,38.89A89.6,89.6,0,0,0,456,564c20,5.25,42.93,10.23,62.15,2.66,4-1.59,8.68-4.47,8.57-7.36a121.13,121.13,0,0,0-18.4-59.12,2.7,2.7,0,0,1-.33-2,2.65,2.65,0,0,1,1.22-1.66c1.65-1,3.56-2,5.41-2.89s3.58-1.78,5-2.67a2.71,2.71,0,0,1,2.1-.29A2.65,2.65,0,0,1,523.4,492,269.29,269.29,0,0,1,547,554.71c.74,0,1.47,0,2.19,0,1.4,0,2.72.07,4,0a2.69,2.69,0,0,1,2.74,1.93c11.35,40-.43,87.06-29.34,117.52-.62,6.66-3.67,19-6.14,29-.54,2.19-1,4.23-1.47,6A2.67,2.67,0,0,1,516.39,711.28Zm-62.49-5.34h60.39l1-4c2.41-9.79,5.72-23.2,6.07-29.07a2.61,2.61,0,0,1,.75-1.69c27.62-28.62,39.23-73,29.24-111a19.3,19.3,0,0,1-2.29,0c-1.4,0-2.71-.06-4,0a2.69,2.69,0,0,1-2.77-2.08,261.15,261.15,0,0,0-22.33-61.14c-1,.5-1.95,1-2.92,1.48s-1.82.91-2.7,1.37a126.25,126.25,0,0,1,17.75,59.34c.25,6.95-8.27,11.08-11.95,12.53-20.71,8.16-44.66,3-65.47-2.47a94.92,94.92,0,0,1-34.77-17.37,2.67,2.67,0,0,1-.83-3,140.38,140.38,0,0,1,22.86-39.87A35.69,35.69,0,0,0,429.16,505a152.77,152.77,0,0,0-27.27,54,2.68,2.68,0,0,1-2.76,2,8.65,8.65,0,0,1-2-.33c-7.09,21.23-6.07,46.43,2.85,68,8.72,21,19.3,35.22,33.28,44.61a42.21,42.21,0,0,1,16,21h0C450.88,698.88,452.37,702.63,453.9,705.94Z"/><path class="cls-9" d="M523.29,707.83c1.07-3.29,1.14-6.75,1.54-10.16a26.2,26.2,0,0,0-1.87-6.49c-1.15.34-2.33.64-3.51.92-20,4.78-44,2.83-65.3-3.17-3.13-.88-6.21-1.85-9.21-2.91l-1.25-.44c-.57,3.58,1.28,19.29,2.68,22.72,1.26.44,2.52.86,3.79,1.27,24.11,7.7,49.25,8,72.26.62C522.73,709.42,523,708.63,523.29,707.83Z"/><path class="cls-3" d="M455,690.43a30.66,30.66,0,0,0-1.7,19.63c-2.05-.17-4.48-.24-6-1.75a8.73,8.73,0,0,1-1.94-4.4,42.84,42.84,0,0,1,0-17.47A19.75,19.75,0,0,0,455,690.43Z"/><path class="cls-4" d="M487.64,719c-13.07,0-26.73-2.71-42.16-8.15a2.67,2.67,0,0,1-1.58-1.51c-1.57-3.83-3.49-20.08-2.85-24.15a2.67,2.67,0,0,1,3.55-2.09c24,8.67,52.66,9.75,76.62,2.9a2.66,2.66,0,0,1,3.17,1.47c3.35,7.49,3.19,13.84-.58,23.45a2.64,2.64,0,0,1-1.54,1.53A96.89,96.89,0,0,1,487.64,719ZM448.5,706.22c27.31,9.43,48,9.91,70.77,1.61,2.73-7.4,2.64-11.76,1.1-16.09-23.34,6.13-50.58,5.22-74.09-2.45A110.46,110.46,0,0,0,448.5,706.22Z"/><path class="cls-5" d="M411,561.56a12.3,12.3,0,0,1,7.25,7.51,10.64,10.64,0,0,1-2,10.12,9.39,9.39,0,0,1-9.8,2.73c1.4-.6,2.18-2.27,2.67-3.72a16.46,16.46,0,0,0,.63-4.53C410,569.81,410.84,565.41,411,561.56Z"/><ellipse class="cls-10" cx="407.15" cy="571.04" rx="9.78" ry="6.24" transform="translate(-253.6 806.14) rotate(-74.1)"/><path class="cls-4" d="M406,583.63a6.26,6.26,0,0,1-1.23-.12,8.06,8.06,0,0,1-5.8-5.25,16.7,16.7,0,0,1,3.08-16.42,7.47,7.47,0,0,1,13.1,2.46,16.65,16.65,0,0,1-3.08,16.42A8.43,8.43,0,0,1,406,583.63Zm2.12-19.36a3.27,3.27,0,0,0-2.17,1.22,11.41,11.41,0,0,0-2,10.78c.46,1.14,1.12,1.86,1.82,2a2.89,2.89,0,0,0,2.42-1.2,11.37,11.37,0,0,0,2-10.77c-.46-1.14-1.13-1.87-1.82-2Z"/><path class="cls-4" d="M405.35,634.63a30.34,30.34,0,0,1-8.24-1.51,2.67,2.67,0,0,1,1.48-5.14c2.65.77,5.66,1.65,8.29,1.19,1.95-.33,4.13-1.84,4.24-3.69.09-1.33-.74-2.76-1.7-4.42-.45-.78-.9-1.56-1.28-2.37-2.34-4.92-1.74-12.08,1-17.34a53.12,53.12,0,0,1-19-6.34,2.67,2.67,0,1,1,2.62-4.66,47.65,47.65,0,0,0,21.41,6.08,2.67,2.67,0,0,1,1.71,4.63c-3.53,3.25-5,11-3,15.34.32.67.7,1.33,1.09,2,1.21,2.1,2.59,4.49,2.4,7.42-.29,4.75-4.59,7.93-8.68,8.62A14.2,14.2,0,0,1,405.35,634.63Z"/><path class="cls-1" d="M463.47,514.92a138.59,138.59,0,0,1-14.38,86.86c-4.41,8.28-9.74,16.33-11.44,25.52s1.41,20.1,10,24.12c9.52,4.45,20.69-1.3,28.75-8a111.62,111.62,0,0,0,37.19-59.56,110.12,110.12,0,0,0-6.43-69.6"/><path class="cls-2" d="M449.82,606.33c-1,11.39,24.49,31.3,35.06,27.48-5.78,7.91-12.12,15.77-21.61,18.17s-20.86-1-25.59-9.52c-3.46-6.26-2.9-14.11-.22-20.74S445.32,611.89,449.82,606.33Z"/><path class="cls-6" d="M464.07,516.57c5.54,16.38,10.82,33.81,7.48,50.77-9.47,48.14-34.35,61-22.36,83.24-6.28-5.26-9.53-13.49-9.4-21.67s2.94-16.11,6.48-23.49,7.83-14.39,11.2-21.86C466.8,562.88,470.22,538.4,464.07,516.57Z"/><path class="cls-4" d="M463.53,514.91c7.36,26.11,2.52,54.51-8,79.17-5.07,12.6-14.16,23.46-15.47,35.67-.86,8.62,3.07,18.44,12.06,20,9.13,1.27,17.42-4.37,24.3-10.34,36.76-32,45.12-79.71,30.7-125.13,21,35.7,12.84,83.41-12.55,114.89-9,10.57-18.58,21.07-32.27,25.66a20.46,20.46,0,0,1-26.89-14.7c-3.11-10.52,1.4-21.8,6.38-30.56,18.51-29.66,23.05-60.53,21.71-94.66Z"/><path class="cls-5" d="M470.5,730.56a2.32,2.32,0,0,1-1-1.2C468.2,726.35,468.76,727.65,470.5,730.56Z"/><path class="cls-8" d="M513.73,600a241.53,241.53,0,0,1-49-11.52q-7.47-2.55-14.84-5.5a125,125,0,0,0,11.39-77.08l.17,0,45.84-5.57C522.19,531.17,523.91,567.3,513.73,600Z"/><path class="cls-6" d="M463.79,588q-7.49-2.55-14.85-5.49a125.08,125.08,0,0,0,11.4-77.09l.17,0c2.63.92,5,3.69,6.05,6.67a101.33,101.33,0,0,1,5.5,26.33A104.4,104.4,0,0,1,463.79,588Z"/><path class="cls-4" d="M513.73,602.69h-.32c-20.75-2.53-41.86-8.15-64.55-17.19a2.68,2.68,0,0,1-1.4-3.68,122.2,122.2,0,0,0,11.15-75.43,2.67,2.67,0,0,1,5.27-.92,127.74,127.74,0,0,1-10.36,76.12c20.43,7.94,39.56,13,58.31,15.51,9.44-32.17,6.93-66.88-7-95.59a2.67,2.67,0,1,1,4.8-2.33c14.81,30.56,17.22,67.61,6.63,101.65A2.67,2.67,0,0,1,513.73,602.69Z"/><path class="cls-1" d="M386,269.07c6.25.33,9.87,6.82,14.15,10.27,5.68,4.59,6.27,10.29,9.26,16.82,3.94,8.63,9.36,18,11.06,27.26,6.92.34,13.39,3.84,18.11,8.55,4.51,4.48,5.11,11,10.56,15.16s12.18,6.57,18.75,8.91a22.11,22.11,0,0,0,7.39,1.71c2.56,0,5.28-1.05,6.52-3.19,1.73-3,.06-6.64-1.67-9.59a216.39,216.39,0,0,0-37.82-47.49c-12.93-12.25-30.94-30.74-50.75-29.74A26.8,26.8,0,0,0,386,269.07Z"/><path class="cls-2" d="M404.92,287.42c2.26,3.51,5.05,7.36,9.19,7.88,3.33.42,6.46-1.49,9.28-3.32,2.52-1.63,5.34-3.81,5.25-6.82-.07-2.21-4.79-2.38-6.47-3.82-7.44-6.42-14.06-11.83-23.89-12.15a4.92,4.92,0,0,0-3.65.93c-2.05,2,2.28,4.89,3.26,6.4Q401.42,282,404.92,287.42Z"/><path class="cls-11" d="M428.56,343.1s-25.06-73.55-42.7-74l17.71,76.72S405.73,332.56,428.56,343.1Z"/><path class="cls-4" d="M403.2,352.22a2.68,2.68,0,0,1-2.35-1.4,12.21,12.21,0,0,1-1.44-6.17l-16.16-75a2.66,2.66,0,0,1,.56-2.27,2.83,2.83,0,0,1,2.12-1c18.52.48,42.4,64,47,76.7a2.67,2.67,0,0,1-3.36,3.44c-19.92-6.67-23.82-3.57-24.4-2.87a1.78,1.78,0,0,0-.35.7l1,4.59a2.67,2.67,0,0,1-1.69,3.07A2.46,2.46,0,0,1,403.2,352.22ZM410.26,337c4.06,0,9.27.95,15.76,2.85-9.52-25.16-25.53-59.58-36.56-66.75l14.05,65.24A14.73,14.73,0,0,1,410.26,337Z"/><path class="cls-4" d="M484.07,350.17a2.65,2.65,0,0,1-2.16-1.1c-64-87.95-94.75-77.62-95.06-77.5a2.71,2.71,0,0,1-3.45-1.5,2.66,2.66,0,0,1,1.43-3.44c1.37-.58,34.23-13,101.4,79.3a2.67,2.67,0,0,1-2.16,4.24Z"/><path class="cls-1" d="M581.48,411.8a44.15,44.15,0,0,1-1.43,6.23c-1.68,5.63-4,11.18-4.76,16.78q-.13,1-.18,2.07c0,.27,0,.55-.06.82-.65,9-5.09,17.67-10.25,25-4.95,7-10.93,13.16-17,19.22l-2.24,2.23a53.4,53.4,0,0,1-7.89,6.4c-3.83,2.6-9.47,4-13.67,6.27a67.12,67.12,0,0,1-22,7.5c-11.92,2.06-23.24,4.37-35.34,4.39-5.05,0-8.74.88-13.57-.1-6-1.23-12.47-1-18.57-2-3.93-.62-7.84-1.38-11.69-2.33-1.06-.25-2.11-.53-3.17-.81a107.83,107.83,0,0,1-21.76-8.31c-.29-.13-.57-.28-.86-.44-.74-.39-1.47-.78-2.19-1.2s-1.42-.81-2.12-1.23l0,0c-.65-.38-1.28-.78-1.91-1.18l-.27-.17q-.76-.5-1.53-1c-.43-.28-.84-.55-1.25-.86s-.82-.56-1.21-.86c-.56-.4-1.12-.81-1.67-1.23-.28-.22-.56-.43-.83-.66s-.73-.57-1.09-.85l-.61-.51c-.32-.25-.63-.51-.94-.78l-1.08-.94-.32-.29-1.28-1.15a.52.52,0,0,1-.11-.1c-.95-.89-1.88-1.8-2.79-2.72l-.76-.78c-.34-.36-.68-.71-1-1.06l-.25-.27c-.38-.4-.74-.81-1.09-1.22-.22-.23-.43-.48-.65-.74s-.43-.49-.63-.74l-1-1.16c-1.31-1.6-2.54-3.24-3.71-4.93-.22-.3-.43-.61-.63-.91s-.38-.56-.57-.84-.53-.82-.79-1.23a3.73,3.73,0,0,1-.23-.37c-.3-.46-.59-.93-.87-1.4a3.79,3.79,0,0,1-.2-.34c-.29-.48-.57-1-.85-1.45-.65-1.15-1.28-2.3-1.87-3.48,0,0,0,0,0,0-.19-.37-.37-.74-.55-1.12s-.36-.72-.53-1.09-.25-.5-.36-.76c-.21-.46-.43-.93-.63-1.4l-.24-.55c-.2-.44-.39-.89-.57-1.33s-.25-.63-.38-.94c-.36-.91-.71-1.82-1-2.74l-.5-1.41,0-.07c-.23-.67-.45-1.34-.66-2l-.15-.48c-.2-.67-.4-1.35-.59-2s-.42-1.51-.6-2.27c0-.06,0-.12-.05-.17-.18-.73-.36-1.48-.52-2.22s-.26-1.2-.37-1.8c0-.19-.08-.36-.11-.55s-.1-.47-.15-.72-.09-.49-.14-.73c-.23-1.26-.46-2.56-.67-3.88l-.27-1.82-.12-1c-.11-.92-.21-1.85-.28-2.78v0a42.29,42.29,0,0,1-.15-4.63l0-.77a5.4,5.4,0,0,1,0-.56c0-.67.1-1.33.18-2,0-.19.05-.39.08-.59a.5.5,0,0,1,0-.12c0-.21.06-.42.1-.64s.06-.34.09-.51.11-.55.17-.82a8.63,8.63,0,0,1,.36-1.15,5.79,5.79,0,0,1,.81-1.43l.35-.4a6.06,6.06,0,0,1,.75-.68,7.23,7.23,0,0,1,2.52-1.18h0a9.87,9.87,0,0,1,1.78-.3,11.33,11.33,0,0,1,1.55-.08,15.4,15.4,0,0,0,9.28-3h0a12.82,12.82,0,0,0,5-8.2c5.36-32.55,22.11-61.52,50.21-78.76a105,105,0,0,1,20.2-9.61c3.77-1.32,7.62-2.49,11.51-3.45,2-.5,3.95-.95,6-1.35,1.72-.35,3.43-.66,5.15-.94q6-.94,12-1.36a60.09,60.09,0,0,1,18.42,2.12c1.57.4,3.11.81,4.64,1.28,2.27.63,4.49,1.32,6.66,2a73.51,73.51,0,0,1,16.83,7.75l-.24-1.48.07.05a135.46,135.46,0,0,1,17,12.87c.6.51,1.19,1,1.79,1.59q2.09,1.92,4.1,3.92C570,352.81,586,380.58,581.48,411.8Z"/><ellipse class="cls-7" cx="421.36" cy="358.08" rx="6.63" ry="13.27" transform="translate(-58.11 633.54) rotate(-70.24)"/><path class="cls-7" d="M537.68,490.53c-3.83,2.6-7.91,4.82-12.12,7.13-7.15,3.94-14.32,8-22.37,9.42-11.91,2.05-23.5,1.95-35.59,2-5.06,0-9.7.52-14.53-.46-6-1.23-12.47-1-18.57-2-3.93-.62-7.84-1.38-11.69-2.33-1.11-.42-2.22-.82-3.32-1.2-7.25-2.5-14.63-4.4-21.61-7.92l-.86-.44c-.74-.39-1.46-.79-2.19-1.2s-1.42-.81-2.17-1.27-1.28-.78-1.91-1.18l-.27-.17q-.76-.5-1.53-1c-.43-.28-.84-.55-1.25-.86s-.82-.56-1.21-.86c-.56-.4-1.12-.81-1.67-1.23-.28-.22-.56-.43-.83-.66s-.73-.57-1.09-.85l-.61-.51c-.32-.25-.63-.51-.94-.78l-1.08-.94-.32-.29-1.28-1.15a.52.52,0,0,1-.11-.1c-.95-.89-1.88-1.8-2.79-2.72l-.76-.78c-.34-.36-.68-.71-1-1.06l-.25-.27c-.38-.4-.74-.81-1.09-1.22-.22-.23-.43-.48-.65-.74s-.43-.49-.63-.74l-1-1.16c-1.31-1.6-2.54-3.24-3.71-4.93-.22-.3-.43-.61-.63-.91s-.38-.56-.57-.84-.53-.82-.79-1.23a3.73,3.73,0,0,1-.23-.37c-.3-.46-.59-.93-.87-1.4a3.79,3.79,0,0,1-.2-.34c-.29-.48-.57-1-.85-1.45-.65-1.14-1.28-2.3-1.9-3.52-.19-.37-.37-.74-.55-1.12s-.36-.72-.53-1.09-.25-.5-.36-.76c-.21-.46-.43-.93-.63-1.4l-.24-.55c-.2-.44-.39-.89-.57-1.33s-.25-.63-.38-.94c-.36-.91-.71-1.82-1-2.74l-.5-1.41,0-.07c-.23-.67-.45-1.34-.66-2l-.15-.48c-.2-.67-.4-1.35-.59-2s-.42-1.51-.6-2.27c0-.06,0-.12-.05-.17-.18-.73-.36-1.48-.52-2.22s-.26-1.2-.37-1.8c-.05-.19-.09-.37-.12-.55s-.09-.48-.14-.72-.09-.49-.14-.73c-.23-1.26-.46-2.56-.67-3.88l-.27-1.82-.12-1c-.11-.92-.21-1.85-.28-2.81-.12-1.55-.18-3.1-.15-4.63l0-.77a5.4,5.4,0,0,1,0-.56c0-.67.09-1.33.18-2,0-.19.05-.39.08-.59a.5.5,0,0,1,0-.12c0-.21.06-.42.1-.64s.06-.34.09-.51.11-.55.17-.82a8.63,8.63,0,0,1,.36-1.15,5.79,5.79,0,0,1,.81-1.43l.35-.4a6.06,6.06,0,0,1,.75-.68,36,36,0,0,1,4-1.77,35,35,0,0,0,4.92-2c2-.89,4-1.75,6.12-.82a31.11,31.11,0,0,1,5.29,2.8,23.48,23.48,0,0,1,7.71,8.67c.23.45.43.92.63,1.39,12.75,31.32,48.49,30.49,77.17,28.85,22.29-1.27,46.07-2.43,65.32,8.85a37.92,37.92,0,0,1,11.39,9.82c.07.1.13.18.19.28a23.86,23.86,0,0,1,3,5.52C542.38,478.17,541,484.74,537.68,490.53Z"/><ellipse class="cls-4" cx="405.23" cy="402.98" rx="20.33" ry="15.88" transform="translate(-87.21 693) rotate(-75.34)"/><ellipse class="cls-7" cx="401.91" cy="393.97" rx="7.99" ry="5.58" transform="translate(-160.14 423.01) rotate(-47.39)"/><ellipse class="cls-12" cx="409.68" cy="414.84" rx="3.77" ry="2.9" transform="translate(-172.82 389.81) rotate(-42.9)"/><path class="cls-6" d="M459.84,305.68c-34.39,10-61.74,40.91-67.44,76.25-1.5,9.33-1.9,19.58-8.11,26.71-6,6.86-16,9.05-22.22,15.66a22,22,0,0,0-3.57,24.41A17.12,17.12,0,0,0,356,447a84.71,84.71,0,0,1-3.2-12c-1.14-5.87-2.32-12.7-1.54-18.88.46-.33.92-.68,1.35-1.05a26.34,26.34,0,0,0,5.69-6.78,13.1,13.1,0,0,1,1.55-.07,15.47,15.47,0,0,0,9.3-3.05,12.82,12.82,0,0,0,5-8.2c5.36-32.55,22.11-61.52,50.21-78.76A124.55,124.55,0,0,1,459.84,305.68Z"/><path class="cls-4" d="M368.1,410.34c5.39,4-2.75,22.08-13.19,20.36-8.88-1.46-13.82-13.42-8.47-18.58C350.26,408.43,363.87,407.22,368.1,410.34Z"/><path class="cls-4" d="M370,460.65a11.7,11.7,0,0,1-9-3.68,49.56,49.56,0,0,1-12.16-31.48,2.67,2.67,0,1,1,5.34-.09A44.2,44.2,0,0,0,365,453.47c2.11,2.44,7.1,2.25,10.44.55a10.56,10.56,0,0,0,5.85-8.9,2.74,2.74,0,0,1,2.71-2.63,2.67,2.67,0,0,1,2.63,2.71,15.82,15.82,0,0,1-8.77,13.58A17.7,17.7,0,0,1,370,460.65Z"/><path class="cls-4" d="M490.32,304c-50.86-1.1-97.42,28-110,78.62l-1.51,5.7c-.58,2.93-1.45,7.57-2.13,10.47-2.76,7.69-10.42,11.31-17.69,12.47-3.2.23-6.87.11-8.57,2.93-1.57,5-.38,10.78.28,16a87.22,87.22,0,0,0,6.93,22.23c12.94,29.25,43.19,46.82,73.92,51.7,15.58,2.83,31.5,3.67,47.58,4.08a152.78,152.78,0,0,1-60.21-2.59c-27.8-6.78-53.67-24.51-65.81-51.06a92,92,0,0,1-7.58-23.46c-.81-6.35-2.5-13.39.15-19.6,2.64-4.69,8-5.65,12.64-5.73,4.73-.58,10.59-3.54,12.65-7.6a31.51,31.51,0,0,0,1.21-5.11l1.17-6c10.55-47.83,44.62-79,92.79-86.71a125.24,125.24,0,0,1,24.56-1.68,2.67,2.67,0,1,1-.34,5.33Z"/><path class="cls-1" d="M503.23,265.9a133.76,133.76,0,0,1-5.56,37.74c-.51,1.7-1,3.37-1.61,5-1.79,5.26-4.06,10.6-8.37,14.3-12.16,10.45-21-2.68-28.42-10.84-.35-.39-.69-.76-1-1.13,1.21-2.5,2.49-4.87,3.86-7.19,4.4-7.51,9.53-14.26,14.92-21.54,7.07-9.53,14.79-20,26-24.58,0,.38.05.77.05,1.15C503.19,261.19,503.25,263.55,503.23,265.9Z"/><path class="cls-4" d="M526.73,311.44c48.31,33.46,76.88,90.73,43.13,145.1-9.7,15.94-22.83,29.36-37.53,40.26,15.74-16.55,30-34.05,39.14-54.77,21.75-49.07-7.83-97.36-47.08-127.11a2.1,2.1,0,0,1,2.34-3.48Z"/><path class="cls-1" d="M552.74,375.28c-6.41-2.28-12.19-5.62-17.92-9.07-4.89-2.93-9.74-5.94-14.91-8.42-7.74-3.69-19.25-4.53-21.78-14.33-1.38-5.37.4-11,1.67-16.39a92.36,92.36,0,0,0,2.51-22.15A91.15,91.15,0,0,0,501,289.8c-.35-2.14-.78-4.26-1.31-6.37-.95-3.85-2.13-7.69-2.34-11.65a20.72,20.72,0,0,1,.08-3.15h0a13.31,13.31,0,0,1,3.37-7.91,12,12,0,0,1,2.24-1.87,7.85,7.85,0,0,1,2.85-1.15c4.08-.72,7.94,2.4,11.16,6.41a74.62,74.62,0,0,1,7.15,11.45c1.89,3.56,3.6,7.19,5.18,10.89q1.92,4.5,3.59,9.12c1.91,5.18,3.6,10.44,5.19,15.7.48,1.56,1,3.14,1.45,4.73,1,3.31,2,6.69,3,10.11C547.4,342.22,551.79,359.2,552.74,375.28Z"/><path class="cls-2" d="M498.47,276.13a5,5,0,0,1,4.31,2.68c1.38,2.35.38,4.36,1.07,6.55.83,2.62,4,3.8,6.47,4.35a34.5,34.5,0,0,0,8.71.87,9.51,9.51,0,0,0,5.45-1.44c2.29-1.68,2.91-5,2.24-7.72-1.55-6.37-5.53-13.18-9.79-18.06a22.08,22.08,0,0,0-8.2-6.21c-3.21-1.29-6.61-.06-9.58,1.7a46.41,46.41,0,0,0-18.8,21.36c1.33-.27,2.53.85,3.25,2s1.32,2.48,2.51,3.12c1.64.89,3.75,0,5-1.34s2-3.14,3-4.71S496.61,276.23,498.47,276.13Z"/><path class="cls-6" d="M509.84,257.16a3.73,3.73,0,0,0-4-1.16c-5.46,1.39-11.6,6.51-15.59,10.32-5,4.79-9.15,10.41-13.27,16-5.39,7.28-10.52,14-14.92,21.54l-1.63.35a4.5,4.5,0,0,1-3.22,5.17,2.36,2.36,0,0,1-.46.67c-2.79,2.83-4.56,6.48-6.77,9.76,3.88-4,14.83-14.09,17.23-16.9,9.56-11.09,18.76-24.49,30.67-33.6a58.76,58.76,0,0,1,7.39-4.85,13.39,13.39,0,0,0,4-2.76C510.32,260.42,510.78,258.49,509.84,257.16Z"/><path class="cls-11" d="M501,349.46s12.23-65.74.84-74.4l-32,54.32S483.7,324.2,501,349.46Z"/><path class="cls-4" d="M500.13,352.22a2.68,2.68,0,0,1-2.26-1.25c-15.42-24.55-27.18-20.74-27.3-20.68a2.68,2.68,0,0,1-3.34-3.74l30.6-57.62a2.66,2.66,0,0,1,1.85-1.36,2.63,2.63,0,0,1,2.22.57c11.75,9.83,2.79,69.89.87,81.83a2.65,2.65,0,0,1-2.1,2.19A2.48,2.48,0,0,1,500.13,352.22ZM474.21,324.8c5.41.52,14.25,3.9,24.31,17.6,3.36-23.57,6-55.92,1.91-67Z"/><path class="cls-4" d="M448.56,321.51c7.06-13,15.91-24.74,24.74-36.52,8.78-10.8,16.71-23.09,28.52-30.92,1-.51,3-1.38,4.69-.7,11.23,7.31,17.4,20.09,23.24,31.67,15.59,35.14,22.9,73.37,25.43,111.54-1.54-6.19-2.83-12.41-4.19-18.6-3.41-15.32-6.85-31-11-46.13-5.67-21-12.44-42.43-24-61-3.13-4.81-6.89-10-11.57-13.29l.72.22c-5.84,2-10.55,8.24-15,12.6-14.94,16.14-27.24,34.46-41.64,51.08Z"/><path class="cls-5" d="M509.58,262l-1.27-2.09s.14.21.32.51C509,260.93,509.27,261.46,509.58,262Z"/><path class="cls-5" d="M394.55,271.4a100.67,100.67,0,0,1,38.94,42.78c6.26-2.89,13-5.36,19.28-8.25C437.54,288.44,417,277.29,394.55,271.4Z"/><path class="cls-5" d="M364.78,468.22c.77,1.11,1.62,2.38,2.57,3.59a24.29,24.29,0,0,0,10.95-5.13c4.7-3.86,10.91-12.57,9.46-19.54l-1-2.67a9.93,9.93,0,0,0-.76-1.11,14.68,14.68,0,0,1-6.15,10.24c-3.83,2.6-7.93,3.09-12.13,2.93-3.13-.13-7.51-4.37-10.69-4.65C357.53,451.93,363.9,466.94,364.78,468.22Z"/><path class="cls-5" d="M580.05,418c-.14-4.51-.63-9.55-.53-12.37A80.42,80.42,0,0,0,574.09,374c-2.23-5.82-5-11.47-7.36-17.23-2.45-6-7.74-10.84-11.59-15.93-2.27-3-4.49-6.06-6.59-9.19A121.51,121.51,0,0,1,539.62,316a82.91,82.91,0,0,1-5.09-13.74c-.59-2.21-1.08-4.45-1.55-6.69q-1.66-4.62-3.59-9.12c-1.58-3.7-3.29-7.33-5.18-10.89a74.62,74.62,0,0,0-7.15-11.45c-.43.16-.76.63-.9,1.55-.58,3.72-6.09-8.48-4.79-5.15,1.5,3.84.47,5.13-3.06-.59,6.4,11.18,12.41,31.16,17.32,53.32,3.86,17.39,7,36.12,9.19,53,3.4,26.72,4.88,49.78,3.93,57.83,12.81-5.79,23.55-21.5,29.39-34.29-.7,1.53-.28,4.6-.43,6.31-.18,2-.41,4.06-.67,6.09-.52,3.88-1.19,7.74-2,11.56a105.64,105.64,0,0,1-28.27,52.11q-2.58,2.56-5.35,4.94c-16,13.72-35.94,22.25-56.44,26.73a177.64,177.64,0,0,1-31.58,3.91c-5.24.18-10.49.16-15.72-.08-1.55-.07-6.87-1.2-7.92.14a1.61,1.61,0,0,0-.23,1.62,1.73,1.73,0,0,0,.15.39c1.06.28,2.11.56,3.17.81,3.85,1,7.76,1.71,11.69,2.33.78.13,1.55.23,2.33.32h-.12l28,8.33a83.33,83.33,0,0,1,11.85,5.42l.78.45a38.1,38.1,0,0,1,18.4,38.47,156.32,156.32,0,0,1-18.27,53.65c-5.94,10.64-23,26.44-31.39,35.36-1.68,1.79,8.37,4.29,10.86,4.38,9.47.34,20.07-8.26,28.53-12.66,17.42-9.05,31.47-23.92,40.43-41.32,2-3.85,7,26.52,1.57,31-5.7,4.66-5.44-6.32-6.25.82C516.53,672,478.62,735,470.5,730.56c2.74,4.62,8.8,13.73,14.14,12.51,3.67-.84,6.81-3.19,9.63-5.68a79.19,79.19,0,0,0,6.86-6.72c1.92-2.17,2.54-5.56,3.29-8.26.89-3.18,2.08-6.52,4.75-8.46,3.21-2.33,7.79-2.07,10.94-4.48s4.34-9,4.14-13a19.24,19.24,0,0,0-1.58-6.79c-.71-1.62-1.66-3.23-1.67-5a9.75,9.75,0,0,1,.69-3.09c1.46-4.28,2.89-8.57,4.37-12.83,1.22-3.5,4.77-6.07,7.26-8.81l7.74-8.52c1.81-2,3.74-4.13,4.65-6.71.61-1.73.25-3.47.69-5.21.67-2.65,2.26-5.15,3.13-7.76s1.54-5.36,2.15-8.08c.71-3.17,2.43-5.6,3.39-8.68a99.52,99.52,0,0,0,2.9-12,105.58,105.58,0,0,0-2.53-48.06c-5.23-17.87-15.22-34.36-18-52.77-.55-3.61-2.3-6-.66-9.42,1.45-3,6.43-6.28,8.77-8.61l2.24-2.23c1.28-3,4.15-5.16,6.24-7.55,10-11.31,17.68-24.46,21.16-39.21,0-.11.06-.23.08-.33,1.12-4.35,3-4.91,4.28-9.36A27.66,27.66,0,0,0,580.05,418Z"/></svg>