<svg id="Layer_1" data-name="Layer 1" xmlns="http://www.w3.org/2000/svg" viewBox="0 0 1000 1000"><defs><style>.cls-1{fill:#ff8f06;}.cls-2{fill:#d14f1b;}.cls-3{fill:#fffffd;}.cls-10,.cls-3{opacity:0.3;}.cls-4{fill:#f59b95;}.cls-5,.cls-6{fill:#470000;}.cls-12,.cls-6{opacity:0.4;}.cls-10,.cls-12,.cls-7{fill:#fff;}.cls-8{fill:#e21d26;}.cls-9{fill:#1381d8;}.cls-11{fill:#004063;}</style></defs><path class="cls-1" d="M546.25,332.7c-7.81-7.13-7.54-4.39-17.38-8.8l79.67-62.71.32-.15c20.44,48.52-3.87,97.17-15.78,113.34C574.79,363.18,561.76,346.85,546.25,332.7Z"/><path class="cls-1" d="M442.43,325c-9.68,4.77-9.5,2-17.06,9.43-15,14.7-27.4,31.49-45.27,43.34-9.67-12.16-31.69-43.11-29.78-76.86.55-9.85,1.72-29,5.94-40.13l.32.14,36.12,26.66Z"/><path class="cls-2" d="M396.31,288.55c-.67,1.6-5.59,6.65-6.64,8-1.87,2.48-4.36,5.23-7.44,4.85-2.48-.3-4.05-1.64-6.28.15-1.82,1.46-2.26,3.28-4.87,3.65-1.87.27-3.75-.27-5.62-.1s-2.83,1-4.43,1.77a9.94,9.94,0,0,1-10.14-1.68c-1.26-1.06-.38-9.33-.36-11q.08-5.79.68-11.55c.23-2.11,3.42-24.87,4.29-24.56Z"/><path class="cls-2" d="M577.14,284.57a21.16,21.16,0,0,0,2.39,4.69c1.63,2.65,3.85,5.63,7,5.54,2.5-.07,4.18-1.26,6.23.73,1.68,1.63,1.94,3.48,4.51,4.1,2,.47,4.09,0,6.12.53a26.1,26.1,0,0,1,4.82,2c.88.42,6.83,2.14,7.63,2.38,1-9.81-1.86-31.69-4.26-43.34L609.6,258Z"/><polygon class="cls-3" points="428.41 330.47 354.21 261.98 355.08 259.31 437.99 324.44 428.41 330.47"/><path class="cls-4" d="M371.21,299.52s.68,45,19.9,63.61l11.06-1.72c3.93-6.05,12.76-14.25,17.8-20.78Z"/><path class="cls-5" d="M392.65,365.77a2.65,2.65,0,0,1-1.9-.79c-27.39-27.74-22.4-64.3-22.18-65.84a2.67,2.67,0,0,1,4.36-1.66l48.76,41.11a2.67,2.67,0,1,1-3.44,4.08L373.51,305c-.3,10.69,1.31,36.29,21,56.28a2.67,2.67,0,0,1-1.9,4.54Z"/><path class="cls-5" d="M383.18,379.25a2.67,2.67,0,0,1-2-.89c-.51-.57-51.21-58-27.69-122.61a2.67,2.67,0,0,1,4.16-1.18L444.09,323a2.67,2.67,0,1,1-3.31,4.19l-83.47-66c-19.39,60.15,27.37,113.15,27.85,113.69a2.67,2.67,0,0,1-2,4.46Z"/><path class="cls-4" d="M599.12,295.82s1,44.95-17.58,64.29l-11.11-1.32c-4.15-5.91-13.27-13.78-18.55-20.12Z"/><polygon class="cls-3" points="544.93 328.79 612.8 262.11 610.17 256.89 533.91 319.91 544.93 328.79"/><path class="cls-5" d="M580,362.81a2.64,2.64,0,0,1-1.81-.71,2.67,2.67,0,0,1-.16-3.77c19-20.74,19.7-46.35,19-57l-43.35,39.32a2.67,2.67,0,1,1-3.59-3.95l47.23-42.84a2.66,2.66,0,0,1,4.42,1.49c.28,1.53,6.59,37.88-19.77,66.6A2.66,2.66,0,0,1,580,362.81Z"/><path class="cls-5" d="M590,375.93a2.63,2.63,0,0,1-1.71-.62,2.68,2.68,0,0,1-.35-3.76c.43-.51,41.6-51,19.92-110.22L530.58,326a2.67,2.67,0,1,1-3.42-4.09l80.09-67a2.72,2.72,0,0,1,2.36-.54,2.68,2.68,0,0,1,1.83,1.59c25.84,63.67-19,118.53-19.43,119.08A2.65,2.65,0,0,1,590,375.93Z"/><path class="cls-6" d="M377.27,310.85a72.9,72.9,0,0,0,20.08,36.21,26.52,26.52,0,0,0,16.94-12.73c-7.28-6.63-14.84-13.8-22.13-20.43-4.49-4.09-11.71-8.22-16.21-12.31C373.92,304.58,376.49,307.31,377.27,310.85Z"/><path class="cls-1" d="M435.65,514.91q-2.28,27.29-4.55,54.58c-.83,9.81-1.65,19.71-4.54,29.19a74.72,74.72,0,0,1-19,31.17c-2,2-4.41,4.72-7,6.13-2.31,1.26-5.28.74-7.79,0-5.83-1.76-10.72-6.15-14.49-10.47a42.09,42.09,0,0,1-3.78-5c-6.5-9.91-8.88-21.89-8.48-33.41.86-24,12.5-47,26-67q3.74-5.52,7.74-10.86c1.42-1.9,2.87-3.77,4.33-5.63,1.75-2.22,1.86-3.28,4.62-2.21l.09,0C418,505,426.84,510.48,435.65,514.91Z"/><path class="cls-2" d="M369.2,577.26c1,3.94,2.1,8,4.87,11.23s7.74,5.38,12.12,4a19.62,19.62,0,0,0,4.89-2.66,13.47,13.47,0,0,1,5.06-2.34c1.89-.33,4.09.19,5.06,1.62-3.16,15.38-2.27,31.52,3.94,46.12-1-.37-6.19,2-5.15,2.34-14.43-3.6-22.47-12.83-29.29-24.47S364.13,589.63,369.2,577.26Z"/><path class="cls-3" d="M374,597.76c-.78,8.42-.87,17.19,2.41,25-.67-.74-1.31-1.5-1.91-2.28-6.5-9.91-8.88-21.89-8.48-33.41.86-24,12.5-47,26-67q3.74-5.52,7.74-10.86c1.42-1.9,2.87-3.77,4.33-5.63,1.75-2.22,1.86-3.28,4.62-2.21l.09,0c.95.81,1.88,1.61,2.74,2.39,0,.67-.26,3.63-.25,4.3A165.4,165.4,0,0,0,374,597.76Z"/><path class="cls-5" d="M397.63,639.28c-7,0-17.34-5.58-24.78-16.44-9.56-13.94-25.5-54,32.58-125.22a2.67,2.67,0,0,1,4.14,3.38c-55.8,68.38-41.19,105.87-32.32,118.82,7.86,11.46,18.31,15.11,21.94,13.91a2.67,2.67,0,1,1,1.66,5.08A10.47,10.47,0,0,1,397.63,639.28Z"/><path class="cls-6" d="M369.55,610.74c6.17,2.37,13.47,0,18.39-4.15,8.95-7.55,7.88-39.69,22-49.91-1.52,26.74-4.54,54.48-6.06,81.22-5.43,1.75-10.59-1.1-15-4.45C380.12,626.9,375.26,619.62,369.55,610.74Z"/><path class="cls-1" d="M650.75,588.47q-1.46,2.13-2.89,4.29c-12.63,18.77-25.26,38.29-42.26,50.85-.76.57-1.53,1.13-2.32,1.66-13.12,9-29.07,13.67-43.81,11.24a43.67,43.67,0,0,1-20.15-8.88L549,595.89c7.29-14.46,19.71-25.06,33.49-28.6a51.13,51.13,0,0,1,21.82-.53A74.71,74.71,0,0,1,618,570.64C629.42,575,640.12,581.77,650.75,588.47Z"/><path class="cls-7" d="M650.75,588.47q-1.46,2.13-2.89,4.29c-12.63,18.77-25.26,38.29-42.26,50.85a6.36,6.36,0,0,1-.34-.75c-1.51-4,0-8.7,2.22-12.14s5.15-6.22,7.09-9.9,2.62-8.91.22-12.18c-3-4-9.33-3.5-11.11-8.44-1-2.87.16-6.22,1.8-8.64s3.76-4.42,5-7.13a14.44,14.44,0,0,0-.62-12.58c-1.07-2-4.23-3.23-5.61-5.09A74.71,74.71,0,0,1,618,570.64C629.42,575,640.12,581.77,650.75,588.47Z"/><path class="cls-5" d="M567.62,659.83a47.71,47.71,0,0,1-30-10.11,2.67,2.67,0,0,1,3.32-4.19c19.6,15.51,45,8.37,60.8-2.46,16.85-11.56,29.59-30.54,41.91-48.9l3.3-4.9c-9.63-6.06-19.58-12.14-30-16.14-12.39-4.76-23.79-5.86-33.89-3.26-13,3.34-24.85,13.51-31.76,27.23a2.67,2.67,0,0,1-4.77-2.41c7.59-15.07,20.75-26.28,35.2-30,11.2-2.88,23.69-1.72,37.13,3.45,11.72,4.5,22.66,11.4,33.23,18.07a2.65,2.65,0,0,1,1.19,1.71A2.7,2.7,0,0,1,653,590c-1.62,2.37-3.22,4.77-4.83,7.17-12.6,18.77-25.63,38.18-43.33,50.32C592.82,655.69,579.84,659.83,567.62,659.83Z"/><path class="cls-6" d="M647.64,592.82c-9.52,19.1-26.7,40.34-44.36,52.45a66.67,66.67,0,0,1-38.84,11.48c-5.52-.15-11.25-2.13-14.69-6.45s-3.83-11.22,0-15.15c4-4.08,10.58-3.71,16.32-3.64A85.47,85.47,0,0,0,613,617.78a89,89,0,0,0,18.91-16.52C635.29,597.39,641.64,590.5,647.64,592.82Z"/><path class="cls-1" d="M567.64,599.91c-.69-7.63-1.69-15.25-3.1-22.8-1.37-7.39-.59-11.7.48-19.16a71.32,71.32,0,0,0-6.53-41.5c-1.76-3.59-4-7.23-7.65-9.24-3.38-1.87-7.47-2.09-11.4-2.26-8-.36-17.38.45-25.11-1.73-6.31-1.77-10.83-4.36-17.71-4.89-13.9-1.09-27.64-.39-41.52.19-10.39.43-20.79-8.35-30.72-2.17-5.17,3.24-7.1,9.35-8.66,15-6.06,21.74-4.84,23.64-8,45.92-.31,2.15-.72,4.67-1.2,7.49-3,17.56-8.82,46-7.38,59.48.74,7,2.53,13.58,4.17,20.34,1.7,7,1.57,14.74,2.2,21.91,1,12.09,2.11,24.35,5.37,36,.09.34.19.7.3,1a83.13,83.13,0,0,0,4.44,11.92c3.59,7.71,8.3,14.77,15.92,19.35.76.46,1.55.92,2.35,1.35,6.78,3.71,14.49,6.37,22.38,5.91.75-.07,1.52-.13,2.26-.24,5.39-.74,11.77-3.13,15.11-7.33,2.34-2.92,1.92-6.08,1.8-9.51-.21-5.88.21-11.68.54-17.46.39-6.78.66-13.55-.39-20.5-.62-4.17-1.82-9.58,4.13-10.7,2.07-.39,4,.92,6,1.17,3.5.45,4.95.08,8.47,0-4.54,17.73-3.78,36-2.33,54.22.2,2.6.56,5.37,2.4,7.34,5.31,5.65,16.74,1.76,23.39,1.37,11.33-.67,20.39-7,26.91-15.6,5.82-7.71,9.28-16.73,12.16-25.75,1.06-3.33,2-6.66,3-10A252.44,252.44,0,0,0,567.64,599.91Z"/><path class="cls-2" d="M475.41,725c.13,3.42.55,6.59-1.79,9.5-3.35,4.21-9.72,6.59-15.11,7.34-8.68,1.2-17.23-1.61-24.65-5.67a46.26,46.26,0,0,1-12-13.74c-3.32-5.88-7-13-10.69-18.88-.29-.46-.59-.91-.87-1.34l.58.29a80.71,80.71,0,0,0,64.88,3.6c.08.47.15.95.22,1.43C475.63,713.29,475.21,719.09,475.41,725Z"/><path class="cls-3" d="M456.25,742.05c-7.89.46-15.6-2.2-22.38-5.91-.8-.43-1.59-.89-2.35-1.35-7.62-4.58-12.33-11.64-15.92-19.35a83.13,83.13,0,0,1-4.44-11.92c-.11-.34-.21-.7-.3-1-3.26-11.68-4.35-23.94-5.37-36-.63-7.17-.5-14.9-2.2-21.91-1.64-6.76-3.43-13.31-4.17-20.34-1.44-13.49,4.34-41.92,7.38-59.48.5,15.5,6.26,156.28,49,176.92C455.73,741.77,456,741.91,456.25,742.05Z"/><path class="cls-2" d="M490.09,725c-.13,3.42-.55,6.59,1.79,9.5,3.35,4.21,9.72,6.59,15.11,7.34,8.68,1.2,17.23-1.61,24.65-5.67a46.26,46.26,0,0,0,12-13.74c3.32-5.88,7-13,10.69-18.88.29-.46.59-.91.87-1.34l-.58.29a80.71,80.71,0,0,1-64.88,3.6c-.08.47-.15.95-.22,1.43C489.87,713.29,490.29,719.09,490.09,725Z"/><path class="cls-1" d="M568,640.84l-.18-1.66-7.65-70.28-2.74-25.17-3.5-32.14-.63-5.88C628.78,581.37,583,644.61,568,640.84Z"/><path class="cls-2" d="M593.1,582.21c-.58,3.85-1.21,7.83-3.28,11.1s-6,5.65-9.66,4.63a14.93,14.93,0,0,1-4.17-2.25,10.27,10.27,0,0,0-4.29-1.93,3.93,3.93,0,0,0-4.05,1.87c-.68,15.71,0,31.18-.29,44.59.83-.42,1.61,1.21.78,1.62a45.74,45.74,0,0,0,26-25.05C599,605.18,598,593.78,593.1,582.21Z"/><path class="cls-5" d="M441.47,664a92.83,92.83,0,0,0,50.32,9.79c12.88-.82,25.69-3.68,37.22-9.47a78.13,78.13,0,0,0,11.23-6.63c-1.6,4.4-5,8-8.81,10.69-20.88,14.57-73.52,17.87-90-4.38Z"/><path class="cls-5" d="M407.93,556.17c-2.34,24.13-5.11,48-4.26,72.18,2.27,40.58,8.63,123.44,66.62,109.63,3.17-6.86,2.54-15.77,2.84-23.66,0-12-.75-24.07-1.62-36.11a2.67,2.67,0,0,1,5.32-.47c1.23,12.12,2.11,24.27,2.29,36.54-.36,7.16,1.49,27.87-7.53,29.85-49.16,12.57-66.5-40.62-70.68-79.07-4.27-36.28-4.86-73.94,7-108.89Z"/><path class="cls-5" d="M559.06,556.17c11.9,35,11.29,72.71,7,109-3.75,34.36-18.84,85.8-62.73,80.37A50.55,50.55,0,0,1,494,743.7c-2.64-1.31-3.63-3.87-4.35-6.23-3.87-19.91-1-40.21.49-60.13a2.67,2.67,0,0,1,5.32.47c-.87,12.05-1.58,24.14-1.62,36.16.17,7.75-.1,17.61,2.76,24-.06-.05-.28-.08,0,0l1.05.24C555,751,561.06,667.92,563.31,628.45c.86-24.22-1.91-48.12-4.25-72.28Z"/><path class="cls-5" d="M569.31,643.67a8.05,8.05,0,0,1-2-.24,2.67,2.67,0,0,1,1.31-5.18c2.81.74,9.82-3.24,15.93-14,14.6-25.69,13.56-69.83-33.17-116.66a2.67,2.67,0,1,1,3.78-3.77c48.85,48.95,49.61,95.67,34,123.07C583.4,637.14,575.52,643.67,569.31,643.67Z"/><path class="cls-7" d="M553.11,543.54c0,37.38-31.27,91.05-69.85,91.05s-69.85-53.67-69.85-91.05,31.28-44.32,69.85-44.32S553.11,506.16,553.11,543.54Z"/><path class="cls-6" d="M558.65,690.6c-.4,1.48-.82,3-1.27,4.44-3.62,12-8.8,23.76-17.56,33.15s-21.58,16.08-35,15.71a18.37,18.37,0,0,1-8.09-1.78c-2.43-1.29-4.36-3.61-4.47-6.21-.13-3,60.82,5.74,69.55-148.49.17-3,2-6.15,3.75-2.37,3.54,7.89,1.88,20.2.22,28.31a36.54,36.54,0,0,0-1.22,8.21c.19,6.88,8.82,12.83,11.48,4.16a82,82,0,0,0,4-25.35c-.18-12.45-3-26-9.71-37-.56-.92-1.15-1.83-1.75-2.73a66.66,66.66,0,0,0-9.31-10.9,69.24,69.24,0,0,0-29.79-16.64c-15.29-4-31.16-2.55-46.83-3-15.32-.41-31.39-2.17-46.07-6.35S407.71,512,398.9,500.21l27.7,1.16c8.06.33,15.78-.25,23.71-.21,18.4.1,36.81.28,55.22.42l11.69.09c5.91,0,11.88.09,17.65,1.33,8,1.72,9.37-7.74,14.77-1.72l5.53,7.2c11.55,12.57,21.77,26.45,29.35,41.7,7.41,14.91,12.24,31.19,12.79,47.84a31.77,31.77,0,0,1-1.91,12.48,65.35,65.35,0,0,1-6.52,13.3,73.25,73.25,0,0,1-7.3,9.42c-1.93,2.15-3.5,5.63-6.57,6.4-2.18.54-4.59.39-6.58,1.39-3.7,1.87-4.09,6.55-4.16,10.46A160.76,160.76,0,0,1,558.65,690.6Z"/><path class="cls-8" d="M601.19,568.22a4.43,4.43,0,0,1-.71.73,14.63,14.63,0,0,1-4.45,2c-1.1.38-2.17.72-3,1.13-2.94,1.37-5.82,2.85-8.74,4.26l-.41.19c-3.4,1.64-8.43,5.31-12.17,5.65a22.27,22.27,0,0,1-5.44-.44,11,11,0,0,0-6.19.51c-3.22,1.32-5.75,3.66-8.2,6.17-1.75,1.8-3.45,3.68-5.3,5.32-10.72,9.51-26.61,10.88-40.65,8.05s-27.06-9.27-40.65-13.81a155.2,155.2,0,0,0-40-7.72c-5.26-.3-10.84-.44-15.22-3.37a13.77,13.77,0,0,1-2.18-1.85,59.62,59.62,0,0,0-.57,7.14l-1.59-.72c-9.62-4.35-20.85-10.15-31.25-15.17-3.32-1.6-6.54-3.12-9.61-4.48a203.28,203.28,0,0,1,20.53-40.59c3.55-5.4,10.45-11.77,15.56-15.74a47.36,47.36,0,0,1,8.85-5.39c.78-.38,1.57-.73,2.37-1.06a59.85,59.85,0,0,1,7.91-2.68c9-2.41,18.3-3,27.58-3.33a445,445,0,0,1,60.1,2c12.05,0,24.35,3.71,36,6.29,4.33,1,7.49,1,11.3,3.59l.68.46c5,3.41,9.88,7,14.82,10.52l1.47,1c1.74,1.24,3.48,2.5,5.18,3.81A55.55,55.55,0,0,1,587.72,531c4.7,6.13,7.41,13.51,9.86,20.86l.75,2.23c.49,1.49,1.45,3.43,2.29,5.45C601.9,562.67,602.87,566,601.19,568.22Z"/><path class="cls-3" d="M412.09,499.06a128.67,128.67,0,0,0-37.7,67.26c-3.32-1.6-6.54-3.12-9.61-4.48a203.28,203.28,0,0,1,20.53-40.59c3.55-5.4,10.45-11.77,15.56-15.74a47.36,47.36,0,0,1,8.85-5.39C410.5,499.74,411.29,499.39,412.09,499.06Z"/><path class="cls-5" d="M414.48,503.38c-28,11.69-38.31,33.67-47.79,61L365.28,561c13.48,6,26.42,12.89,39.68,18.81l-3.76,2.39c1-13.07,6.59-25.23,14.25-35.54.11-.18.41,0,.29.19-23.85,43.83,14.83,49.35-52.64,19a2.68,2.68,0,0,1-1.41-3.39c7-19.51,15.06-40.36,32.36-53.24a86.06,86.06,0,0,1,18.29-10.73,2.67,2.67,0,1,1,2.14,4.9Z"/><path class="cls-5" d="M549.75,501.85c30.06,2.76,45.85,38.57,55.66,63a2.68,2.68,0,0,1-1.41,3.39c-11.55,5.1-22.78,11.16-34.56,16.37a2.68,2.68,0,0,1-3.75-2.4c.12-12.52-4.41-23.92-9.06-35.54,9,9.39,14,22.46,14.4,35.45l-3.76-2.39c11.54-5.1,22.78-11.16,34.55-16.37l-1.41,3.39c-5-13.14-11-26-19-37.39-7.64-10.76-18.33-21.39-32-22.22a2.67,2.67,0,0,1,.3-5.33Z"/><path class="cls-9" d="M567,681.94c-4.43,1.3-9,2.62-13.72,3.92-21.13,5.81-44.37,11-65.19,11.46.79-2.69,2.64-7.47,4.21-11.72.94-2.51,1.77-4.84,2.23-6.42-7-1-13.93-.74-20.95-1.75,0,1.9,1,5,2,8.13,1.31,4,2.77,8.12,2.83,10.5-23.53-2.52-53.61-9.11-77.59-11.92l-2.63-.3q-1.69-9.2-2.47-18.51c-2.37-28.15,1.44-56.77,9.88-83.84.82-2.62,1.68-5.24,2.59-7.84,7-.92,15-2.64,22.08-3.57q1.15-28.47,2.34-56.93c1.5.34,3.38.62,5.42.87,5,.65,11,1.15,14.71,2,1.52,18.65,4.4,37.63,5.92,56.27,14.79-4.81,27.35-4.83,41.31,1.47a317,317,0,0,1,6.49-67.31c7.35,1.15,13.79,3.58,21.14,4.74a168.06,168.06,0,0,0,1.7,63.68c6.38-4,31.72-2.86,36.84.7q0,3.11,0,6.23c.18,28.45.49,57.38.7,85.92Q567,674.83,567,681.94Z"/><path class="cls-10" d="M437.82,569.84a7.26,7.26,0,0,1-6,7.77c-6,1-11.44,1.78-17.25,5.3-3.13,18.38-13.43,78.85-9.06,87a2.83,2.83,0,0,0-.28.2c-3.68,2.8-2.13,8.16-3.85,12.61a12.06,12.06,0,0,0-.49,1.47,9,9,0,0,0,.39,7,20,20,0,0,1-4.44-.41c-1.3-.66-2.59-1.33-3.87-2-.86-3.81.22-20.44,1.54-24,.42.23.85.47,1.28.69-2.37-28.15,1.44-56.77,9.88-83.84.82-2.62,1.68-5.24,2.59-7.84,6.72-2.74,14.65-4.94,22.08-3.57q1.15-28.47,2.34-56.93c1.5.34,3.38.62,5.42.87a12.45,12.45,0,0,1,2.41,1.38C436.71,532.33,436.3,552.06,437.82,569.84Z"/><path class="cls-5" d="M488.09,700a2.66,2.66,0,0,1-2.56-3.41c.62-2.14,1.83-6,3.05-9.9l2.12-6.8c-2.18,0-4.35.09-6.62.25a69.2,69.2,0,0,1-7.26.25c.46,1.69,1.12,3.68,1.73,5.52,1.29,3.89,2.51,7.56,2.57,10.1a2.65,2.65,0,0,1-.86,2,2.68,2.68,0,0,1-2.09.69c-12.28-1.32-26.51-3.77-40.28-6.14S410.06,687.8,398,686.5a2.66,2.66,0,0,1-2.34-2.17c-6.54-35.29-3-73.86,10.1-111.55a2.63,2.63,0,0,1,1.53-1.6c8-3.19,14.84-4.57,20.52-4.15L430,513a2.67,2.67,0,0,1,3.25-2.49c2.46.54,6.18,1,9.77,1.37,3.74.42,7.61.86,10.36,1.47a2.66,2.66,0,0,1,2.08,2.39c.76,9.27,1.87,18.8,2.95,28,1,8.22,1.95,16.69,2.7,25,13-3.32,24.17-3,36.21,1a320.72,320.72,0,0,1,6.58-64,2.67,2.67,0,0,1,3-2.1,110.59,110.59,0,0,1,10.83,2.42c3.49.91,6.78,1.76,10.32,2.32a2.67,2.67,0,0,1,2.22,3.08,165.48,165.48,0,0,0,1.07,59.91c12.84-3.15,26.25-1,35.52,1.45a2.66,2.66,0,0,1,2,2.57c.1,17.59.26,35.39.41,53.19s.32,35.61.42,53.2a2.68,2.68,0,0,1-1.92,2.58c-25.15,7.38-54.27,15-79.62,15.49Zm1.58-25.46a34.29,34.29,0,0,1,4.91.32,2.67,2.67,0,0,1,2.19,3.39c-.63,2.16-1.86,6.1-3.09,10-.69,2.2-1.38,4.39-1.95,6.26,23.2-1.08,49.47-7.85,72.59-14.59-.09-16.94-.25-34.06-.4-51.17s-.3-34.22-.4-51.15c-9.16-2.23-21.81-3.83-33.39-.23a2.69,2.69,0,0,1-2.13-.24,2.66,2.66,0,0,1-1.27-1.73,170.52,170.52,0,0,1-2.13-62.09c-2.84-.57-5.55-1.27-8.2-2s-5.18-1.35-7.8-1.87a311.62,311.62,0,0,0-5.92,64.18,2.7,2.7,0,0,1-1.15,2.24,2.65,2.65,0,0,1-2.5.29c-13.26-5.22-25.1-5.63-39.58-1.39a2.7,2.7,0,0,1-2.26-.36,2.66,2.66,0,0,1-1.15-2c-.76-9.28-1.87-18.83-3-28.06-1-8.6-2-17.47-2.8-26.18-2.29-.38-5.12-.7-7.89-1-2.47-.28-5-.57-7.21-.9L433,570.19a2.66,2.66,0,0,1-1,2,2.7,2.7,0,0,1-2.2.5c-4.91-1.05-11.43-.05-19.39,3-12.27,35.75-15.66,72.23-9.84,105.72,11.81,1.35,25.26,3.67,38.29,5.91,12.36,2.13,25.11,4.32,36.38,5.68-.45-1.66-1.1-3.6-1.7-5.41-1.29-3.89-2.51-7.56-2.57-10.1a2.68,2.68,0,0,1,3-2.71,45.38,45.38,0,0,0,9.75,0C485.66,674.66,487.64,674.53,489.67,674.53Z"/><path class="cls-6" d="M437.35,619.28l27.21.52,25,.47c5,.1,11.64,1,16.2-1.59s10.19-4,15.44-2.73a16.61,16.61,0,0,1,10.51,9c2.08,4.28,2.08,9.19,2.12,13.95.16,16.82-27.94,18-36.73,17.87a331.91,331.91,0,0,1-34.94-2.11c-7.73-.89-16.53-1.43-23.75-5C424.89,643.12,441.15,633.84,437.35,619.28Z"/><path class="cls-9" d="M481,704c-28.26,4.92-57.72.09-84.23-13.3-1.3-.66-2.59-1.33-3.87-2-.86-3.81.22-20.44,1.54-24,.42.23.85.47,1.28.69q4.58,2.49,9.44,4.73c22,10.2,47.71,16.71,70.42,15.5,1.35-.07,2.68-.17,4-.29C481.43,692.26,479.23,697,481,704Z"/><path class="cls-10" d="M405.79,671.78a31.08,31.08,0,0,0-5.7,20c-2.2-.56-4.83-1.09-6.15-2.93a8.73,8.73,0,0,1-1.25-4.93,43.26,43.26,0,0,1,3.39-18.11C398.68,668.77,402.08,670.49,405.79,671.78Z"/><path class="cls-5" d="M459.32,708.54A142.32,142.32,0,0,1,391.67,691a2.68,2.68,0,0,1-1.34-1.76c-1-4.26.14-21.45,1.64-25.55a2.66,2.66,0,0,1,3.8-1.42c24.49,13.51,55.53,20,83,17.37a2.66,2.66,0,0,1,2.84,2,47.7,47.7,0,0,1,1.07,11.48,43.59,43.59,0,0,0,.91,10.2,2.68,2.68,0,0,1-2.13,3.3A129.19,129.19,0,0,1,459.32,708.54ZM395.39,687c25.92,13.75,55,19,82.49,14.85a62.87,62.87,0,0,1-.51-8.62,56.05,56.05,0,0,0-.46-8c-26.76,2.06-56.42-4-80.57-16.53A109.79,109.79,0,0,0,395.39,687Z"/><path class="cls-9" d="M574.24,688.68a145.21,145.21,0,0,1-20.43,9.15A133.12,133.12,0,0,1,486.15,704c1.8-7-.4-11.75,1.41-18.74,1.57.15,3.15.25,4.74.33,18.66.86,39.3-3.44,58.2-10.68,5.66-2.17,11.17-4.6,16.42-7.23,2-1,3.9-2,5.79-3.05C574,668.24,575.11,684.87,574.24,688.68Z"/><path class="cls-5" d="M507.87,708.54a129.39,129.39,0,0,1-22.18-1.9,2.68,2.68,0,0,1-2.13-3.3,43.06,43.06,0,0,0,.91-10.2,47.72,47.72,0,0,1,1.08-11.48,2.64,2.64,0,0,1,2.84-2c27.49,2.63,58.53-3.86,83-17.37a2.66,2.66,0,0,1,2.22-.17,2.72,2.72,0,0,1,1.58,1.59c1.49,4.1,2.59,21.29,1.63,25.55a2.67,2.67,0,0,1-1.33,1.76A142.46,142.46,0,0,1,507.87,708.54Zm-18.56-6.72c27.44,4.13,56.57-1.1,82.49-14.85a110.87,110.87,0,0,0-.95-18.31c-24.16,12.49-53.82,18.6-80.58,16.53a57.55,57.55,0,0,0-.46,8A62.85,62.85,0,0,1,489.31,701.82Z"/><path class="cls-11" d="M440.07,617.54h83.25c-3.64,12.37,8.88,22.69-2.87,28s-67.29,3.52-79-1.93S443.57,630,440.07,617.54Z"/><path class="cls-10" d="M456.42,645.12l-1,0a12.31,12.31,0,0,1-1-16.16c2.32-2.8,5.76-4.38,9.16-5.69a98.17,98.17,0,0,1,24.71-5.94c-15.45-.06-30.68,0-46.13,0-1.56,3.29-3.22,6.5-4.78,9.79-1.23,2.58-2.48,5.3-2.38,8.16.18,4.61,4,8.45,8.27,10.12S451.81,645.2,456.42,645.12Z"/><path class="cls-5" d="M489.65,651.43c-19.89,0-42.3-2.13-49.3-5.4-8.85-4.12-6.44-10.42-4.51-15.48,1.45-3.8,3-7.72,1.66-12.28a2.71,2.71,0,0,1,.44-2.34,2.68,2.68,0,0,1,2.13-1.06h83.25a2.68,2.68,0,0,1,2.56,3.43c-1.32,4.49-.14,8.75,1,12.88,1.58,5.69,3.54,12.78-5.33,16.79C516.19,650.39,503.53,651.43,489.65,651.43Zm-46.38-31.22c.41,4.78-1.14,8.85-2.44,12.25-2.08,5.43-2.41,6.79,1.77,8.73,11.56,5.38,66.07,6.74,76.75,1.91,4.49-2,4.14-4.13,2.38-10.5-1-3.53-2.15-7.76-1.65-12.39Z"/><circle class="cls-11" cx="514.25" cy="580.03" r="8.76"/><path class="cls-10" d="M516.86,574.91c.37-.25.77-.57.78-1,0-.67-.79-1-1.44-1.12a12,12,0,0,0-5.09-.29A6,6,0,0,0,507,576c-.81,2-.61,5.1,2.23,4S514.5,576.55,516.86,574.91Z"/><path class="cls-5" d="M514.25,591.45A11.43,11.43,0,1,1,525.68,580,11.43,11.43,0,0,1,514.25,591.45Zm0-17.51a6.09,6.09,0,1,0,6.09,6.09A6.09,6.09,0,0,0,514.25,573.94Z"/><path class="cls-6" d="M520.9,573.82a1.63,1.63,0,0,1,1.36.69,18.55,18.55,0,0,1,3,5.26,11.54,11.54,0,0,1,.21,8.14,9.71,9.71,0,0,1-10.18,5.8,10.4,10.4,0,0,1-6.67-4c-.6-.78-1.92-2.55-1.82-3.6.14-1.33,2.14-2.08,3.23-2.23a40,40,0,0,1,4.24,0,4.74,4.74,0,0,0,3.78-1.59,5.31,5.31,0,0,0,.75-3.29,9.61,9.61,0,0,1,.26-3.39A2.38,2.38,0,0,1,520.9,573.82Z"/><circle class="cls-11" cx="442.35" cy="580.03" r="8.76"/><path class="cls-10" d="M445,574.91c.37-.25.77-.57.78-1,0-.67-.79-1-1.44-1.12a12,12,0,0,0-5.09-.29,6,6,0,0,0-4.12,3.55c-.82,2-.61,5.1,2.23,4S442.6,576.55,445,574.91Z"/><path class="cls-5" d="M442.35,591.45A11.43,11.43,0,1,1,453.78,580,11.44,11.44,0,0,1,442.35,591.45Zm0-17.51a6.09,6.09,0,1,0,6.09,6.09A6.09,6.09,0,0,0,442.35,573.94Z"/><path class="cls-6" d="M449,573.82a1.64,1.64,0,0,1,1.36.69,18.55,18.55,0,0,1,3,5.26,11.59,11.59,0,0,1,.21,8.14,9.71,9.71,0,0,1-10.18,5.8,10.38,10.38,0,0,1-6.67-4c-.6-.78-1.92-2.55-1.82-3.6.14-1.33,2.13-2.08,3.23-2.23a40,40,0,0,1,4.24,0,4.74,4.74,0,0,0,3.78-1.59,5.31,5.31,0,0,0,.75-3.29,9.61,9.61,0,0,1,.26-3.39A2.38,2.38,0,0,1,449,573.82Z"/><path class="cls-6" d="M372.23,569.37a9.07,9.07,0,0,0,6.13,1.48C376,569.8,373.73,569.05,372.23,569.37Z"/><path class="cls-6" d="M416.68,531c-19.15,15.65-24.91,37.58-26.11,40a52,52,0,0,0-2.12,4.85l12,4.78c.65.26,1.31.52,2,.75a66.94,66.94,0,0,1,7.82-24.08c2.57-4.84,5.94-9.37,6.93-14.83a29.57,29.57,0,0,0-.45-11.32A.65.65,0,0,0,416.68,531Z"/><path class="cls-6" d="M600.62,559.51a34.31,34.31,0,0,0-1.16-3.27q-.88-2.22-1.88-4.41a111.25,111.25,0,0,0-13.94-23.07c-1.95-2.5-4.14-5.26-6.52-8-1.17-1.35-2.39-2.69-3.66-4a41.9,41.9,0,0,0-11.09-8.46c-2.21-1.07-4.46-2.05-6.72-2.95l-.12-.06c-4.06-3-7.31-3-11.86-4-11.64-2.58-23.94-6.29-36-6.29a445,445,0,0,0-60.1-2c-9.28.31-18.62.92-27.58,3.33a59.6,59.6,0,0,0-10.28,3.74,5.35,5.35,0,0,0-.65,1.16c-3.06,7.66,9.77,12,14.82,13.71A109.91,109.91,0,0,0,443,519.24c5.39.78,9,.09,10,6.14,2.27,14.08,4.35,28.2,6.52,42.3a6.75,6.75,0,0,0,1.1,3.26c1.74,2.15,5.14,1.39,7.73.43.6-.22-.15-12.3-.15-13.6q0-7.1.17-14.17c.1-4.3-1.82-20.67,4.23-21.25,3.08-.29,7,.95,10.16,1,4.72.09,9.45.06,14.17-.06,9.45-.25,18.89-.88,28.31-1.69l1-.09a113,113,0,0,0,.18,12.34L528,563.71c.21,4,.44,8.15,1.86,11.93,2.67-.09,6.46-.26,9.13-.35a159.3,159.3,0,0,1,6.22-55.58l4.32-.44.18,0a30.91,30.91,0,0,1,31.52,18.26A62.14,62.14,0,0,1,586.05,555c-20.46,30-15,30.3-21.93,8.42l-7.49-16.75c.87,3.64-6.27,10.79-4.8,41.74.64,13.29,3.25,27.16,4.23,39.86,1.21,15.73,0,31.88-5.56,46.61-.25.66-.52,1.33-.79,2,1.91,1.76,2.56,4,3.11,6.53.17.8.32,1.61.46,2.42a50.48,50.48,0,0,1,.53,12,145.21,145.21,0,0,0,20.43-9.15c.87-3.81-.22-20.44-1.53-24-1.89,1-3.82,2.05-5.79,3.05-.21-28.54-.52-57.47-.7-85.92a22.27,22.27,0,0,0,5.44.44c3.74-.34,8.77-4,12.17-5.65l.41-.19c3.08-1.42,8-3,11.79-5.39a12.81,12.81,0,0,0,4-3.6,6.61,6.61,0,0,0,1.12-2.91A12.88,12.88,0,0,0,600.62,559.51Z"/><path class="cls-1" d="M615.38,445.4c-5.36,31-34.17,58.87-110.94,68.12q-5.26.65-10.83,1.15c-3.55.33-7.24.55-11,.66-2.37.06-4.79.09-7.22.06-35.89-.36-77.78-10.66-103.09-32.56-8.35-7.24-14.91-15.75-18.83-25.58a58,58,0,0,1-3.76-14.94c-2-17.46,3.48-38.29,19.52-62.7l-.44-.47c15-10.42,23.75-26.53,35.88-39.86a123.39,123.39,0,0,1,16.06-15.08,79.05,79.05,0,0,1,8.54-5.73c.43-.25.87-.5,1.32-.72,9.68-5.11,20.44-5.84,31.11-7.65a3.81,3.81,0,0,0,3.34-4.52,94.88,94.88,0,0,1,45.17,5.22c1.26.45,2.52.94,3.8,1.45l1-.67,1.08-.68c5.93.48,8.71,2.15,14,4.18,3.73,1.41,8.6,4.53,12,6.56,2.81,1.65,7,1.81,9.62,3.81,16.63,12.54,30.06,30.9,42.73,46.15a4.18,4.18,0,0,0,.92.84,3.73,3.73,0,0,0,.25.39C608.9,393.72,619.67,420.57,615.38,445.4Z"/><path class="cls-7" d="M615.38,445.39c-5.35,31-34.17,58.87-110.94,68.13q-5.26.65-10.82,1.15c-3.57.34-7.26.55-11,.65l-2-.07c-1.72.07-3.45.12-5.2.14-47.75-.48-106.11-18.54-121.94-58.15a57.46,57.46,0,0,1-3.74-14.93c10.43-7.22,29-13,61.43-6.86,14.59,2.77,29.42-1.51,40.92-10.93.43-.36.89-.71,1.36-1.06,5.92-4.84,14.6-8.53,27.17-8.15,12.56-.38,21.24,3.31,27.17,8.15.47.35.92.7,1.36,1.06,11.42,9.36,26.16,13.75,40.67,11C586.91,428.42,605.93,436.92,615.38,445.39Z"/><path class="cls-3" d="M552.23,327.05a209.16,209.16,0,0,0-74.17-8.77,107.47,107.47,0,0,0-78,40.71,200.68,200.68,0,0,0-30.75,54.85c-4.44,12.07-7.75,24.76-7.4,37.63.29,11.19,3.56,22.56,10.34,31.36-8.35-7.24-14.91-15.75-18.83-25.58a58,58,0,0,1-3.76-14.94c-2-17.46,3.48-38.29,19.52-62.7l-.44-.47c15-10.42,23.75-26.53,35.88-39.86a123.39,123.39,0,0,1,16.06-15.08,79.05,79.05,0,0,1,8.54-5.73c.43-.25.87-.5,1.32-.72,9.68-5.11,20.44-5.84,31.11-7.65a3.81,3.81,0,0,0,3.34-4.52,94.88,94.88,0,0,1,45.17,5.22c1.26.45,2.52.94,3.8,1.45l1-.67,1.08-.68c5.93.48,7.49,2.86,12.76,4.88a103.27,103.27,0,0,1,13.26,5.86c2.81,1.65,7,1.81,9.62,3.81C551.92,326,552.07,326.51,552.23,327.05Z"/><path class="cls-6" d="M606.45,386.88A98.46,98.46,0,0,0,593.51,368c-.2-.22,14.35-28.25,15.54-31.64a101.72,101.72,0,0,0,5.64-25.24c.56-6.86,5.62-47.71-4.52-48.34-7.31,23.34-22.14,55.47-37.8,73.14-8.23,9.28-3.51,14.83,1.07,24.4a206.83,206.83,0,0,1,11.45,30.74,108.41,108.41,0,0,1,3.39,17.17l0-1a93.74,93.74,0,0,1,.31,19c-1.93,22.6-17,42.87-35.67,54.9-17.76,11.46-38.83,16.79-59.8,19.43a266.92,266.92,0,0,1-102.44-7.06c1.67.45,4.1,3.44,5.56,4.52a78.44,78.44,0,0,0,7.06,4.68A82.1,82.1,0,0,0,418,509.51a117,117,0,0,0,30.82,5.69,376.54,376.54,0,0,0,76.66-3.05q2.28-.33,4.56-.69c13.42-2.15,26.88-5.06,39.08-11C589.07,490.64,607,474,614,452.89S616.7,406.57,606.45,386.88Z"/><path class="cls-5" d="M477.55,518.06c-47.14,0-109.41-16.89-126.58-59.83-12.4-31,1.49-68.69,41.27-112,.54-.71,68.9-85.52,170.72-13.73,14.28,8.83,66.35,67.35,55.56,116.88-7.88,36.16-46.15,58.62-113.76,66.78-3.53.42-7.17.81-10.89,1.15C488.72,517.81,483.24,518.06,477.55,518.06Zm4.27-209.3a104.83,104.83,0,0,0-40.6,8.3,122.24,122.24,0,0,0-44.91,32.65c-38.41,41.81-51.95,77.6-40.38,106.54,18,45.06,92.68,59.93,137.45,55.76,3.67-.33,7.26-.72,10.75-1.13C569.23,503,606,482,613.3,448.26,623.38,402,573.15,345,560.1,337l-.15-.1C533.37,318.17,507.22,308.76,481.82,308.76Z"/><ellipse class="cls-5" cx="428.14" cy="410.17" rx="21.41" ry="19.4" transform="translate(-87.07 703.59) rotate(-73.43)"/><ellipse class="cls-7" cx="435.58" cy="402.2" rx="6.66" ry="8.62" transform="matrix(0.8, -0.6, 0.6, 0.8, -154.51, 344.83)"/><ellipse class="cls-12" cx="418.27" cy="420.62" rx="3.39" ry="4.15" transform="translate(-173.79 457.13) rotate(-48.69)"/><ellipse class="cls-5" cx="532.58" cy="410.17" rx="19.4" ry="21.41" transform="matrix(0.96, -0.29, 0.29, 0.96, -94.84, 168.88)"/><ellipse class="cls-7" cx="525.15" cy="402.2" rx="8.62" ry="6.66" transform="matrix(0.6, -0.8, 0.8, 0.6, -112.62, 577.71)"/><ellipse class="cls-12" cx="542.46" cy="420.62" rx="4.15" ry="3.39" transform="translate(-142.67 462.77) rotate(-41.31)"/><path class="cls-5" d="M501.87,432.54c.1,5.42-8.95,16.15-20.37,16.36s-20.87-10.17-21-15.6,9.07-10,20.48-10.19S501.77,427.12,501.87,432.54Z"/><path class="cls-5" d="M481.69,462.45a2.68,2.68,0,0,1-2.67-2.67V441.59a2.68,2.68,0,0,1,5.35,0v18.19A2.68,2.68,0,0,1,481.69,462.45Z"/><path class="cls-5" d="M481.18,464.56a29.63,29.63,0,0,1-16.6-5.69,2.67,2.67,0,0,1,3.05-4.39c4.88,3.39,10.15,5.07,14.83,4.69,5.16-.4,9.82-3.59,11.32-7.76a2.67,2.67,0,0,1,5,1.81c-2.23,6.18-8.63,10.71-15.94,11.28C482.32,464.54,481.75,464.56,481.18,464.56Z"/><ellipse class="cls-7" cx="430.81" cy="368.93" rx="13.49" ry="6.74"/><ellipse class="cls-7" cx="532.58" cy="368.93" rx="13.49" ry="6.74"/><path class="cls-6" d="M451.88,672.68c-2.12,2.59,1.84,8.68,3.5,12A108.07,108.07,0,0,1,463,705.94c2.83,11.06,5.84,26.43-.62,36.84,5.59-.8,5.87-2.82,11.46-3.63,1.83-.26,3.76-16.41,4-18.41a117.33,117.33,0,0,0,.89-19.29q-.21-6.16-1-12.27c-.29-2.16-2.22-6.21-.7-8.07a7.78,7.78,0,0,1,3.42-2l8-3.06c-10.69-1.82-21.16-3.76-32-4.51C454,671.32,452.6,671.8,451.88,672.68Z"/><path class="cls-6" d="M480.93,436.35c3.28,9.89,4.28,17.59,2.68,27.89a22.36,22.36,0,0,0,14.77-5.06c4.38-3.68,8-8.6,8.95-14.24s-1.09-12-5.9-15.09c-4.47-2.9-10.22-2.58-15.53-2.17-1.84.15-3.81.34-5.24,1.5S479.46,435.23,480.93,436.35Z"/></svg>