<svg id="Layer_1" data-name="Layer 1" xmlns="http://www.w3.org/2000/svg" xmlns:xlink="http://www.w3.org/1999/xlink" viewBox="0 0 1000 1000"><defs><style>.cls-1{fill:#ff8f06;}.cls-2{fill:#d14f1b;}.cls-10,.cls-3,.cls-4{fill:#fff;}.cls-3,.cls-8{opacity:0.4;}.cls-5,.cls-8{fill:#470000;}.cls-6{fill:#e21d26;}.cls-7{fill:#1381d8;}.cls-9{fill:#004063;}.cls-10,.cls-15{opacity:0.3;}.cls-11{fill:#72cff9;}.cls-12{fill:#3e3eaf;}.cls-13{fill:url(#Безымянный_градиент_5);}.cls-14{fill:#fef6f4;}.cls-15{fill:#fffffd;}.cls-16{fill:#f59b95;}</style><linearGradient id="Безымянный_градиент_5" x1="857.07" y1="1381.69" x2="816.6" y2="1447.13" gradientTransform="translate(-147.88 -866.64) rotate(7.39)" gradientUnits="userSpaceOnUse"><stop offset="0" stop-color="#fff"/><stop offset="1" stop-color="#fff" stop-opacity="0"/></linearGradient></defs><path class="cls-1" d="M520.29,552.05c1.92,9.29-2.14,19.06-.12,28.32a22.59,22.59,0,0,0,8.53,13,15.59,15.59,0,0,0,8,3.34.5.5,0,0,1,0,.16v-.16c1.87.18,3.09,4.6,5.31,4.13,10.56-2.29,23.8,5.37,29.37-4,0-1,0-1.94,0-2.92-.77-33.33-14.34-70-29.94-92.38-1.68-2.4-3.38-4.64-5.09-6.69l0-9.92c-2,.87-4.08,1.79-6.07,2.8a0,0,0,0,1,0,0v0a52.8,52.8,0,0,0-15.68,11.37c-5.85,6.48-9.44,15.49-7.74,24.06C508.83,533.69,518.14,541.59,520.29,552.05Z"/><path class="cls-1" d="M383.44,605.55a19.32,19.32,0,0,1,0,4.86c-.09,1-.22,1.92-.37,2.89-.3,2.17-.68,4.32-.78,6.22-.2,3.55-.32,7.09-.38,10.66A227,227,0,0,0,388,688.5a154,154,0,0,0,7,21.79,98.45,98.45,0,0,0,7.22,14.41,69.78,69.78,0,0,0,11.24,14.16c4.76,4.54,10.47,8.36,16.95,9.9a21.52,21.52,0,0,0,2.39.36,48.87,48.87,0,0,0,10.28.22l.56-.07c2.22-.31,3.93-1,4.26-2.12q.85-3.06,1.57-6.42c2.24-10.45,3.49-23,4.38-35.15v-.09c.8-10.49,1.34-20.72,2-29.13,9.51-2,17.06-2.32,23.79-3-.79,14.9.34,36.7,1.49,52.84q.42,5.9.91,11.78c.27,3.28.77,6.06,4.07,7.72,4,2,9.24-.33,13.17-1.73A65.18,65.18,0,0,0,511.75,738c12.1-7.42,21.44-18.62,27.52-32.46,1.06-2.43,2-4.93,2.88-7.5,10.94-32.65,8.23-69.53,2.47-102.9a332.29,332.29,0,0,0-10.32-43.26c-1.86-5.88-5.22-12.12-5-18.27.09-2.09-.42-16-1.55-28.15-.23-2.67-.5-5.24-.8-7.6-.87-6.74-2-11.61-3.32-11.3-6.32,1.51-12.66,3-19,4.4-16.41,3.62-33,6.48-49.73,6.66-19.5.21-38.95-3.24-58.43-2.68-.72,0-1.43,0-2.15.07-2.13.11-6.2,16.49-6.74,18.63a33,33,0,0,0-.8,5.28,46.65,46.65,0,0,1-1.07,8.35c-3.47,12.88-10.48,23.86-12.19,37.48-1.24,9.81-.25,20.2,3.89,29.26C379.16,597.89,382.83,601.37,383.44,605.55Z"/><path class="cls-2" d="M395,710.29c4.35,10.67,10.26,20.73,18.46,28.57,4.76,4.54,10.47,8.36,16.95,9.9a21.89,21.89,0,0,0,2.36.36h0c6.65-.55,12.1,1.58,16.09-2.79,2.25-10.45,4.07-28.57,5-40.75C436.16,711.52,413.21,711.91,395,710.29Z"/><path class="cls-2" d="M533.75,709.09a113.93,113.93,0,0,1-4.55,10.67c-1.6,3.26-3.31,7.29-5.77,10a53.29,53.29,0,0,1-17.23,12.42c-3,1.34-6.05,2.22-9.13,3.26a11.89,11.89,0,0,1-8.74.08,11.26,11.26,0,0,1-6-6.08,20.35,20.35,0,0,1-1-8,27.17,27.17,0,0,0-.53-3.55c-.17-1.4-.27-2.81-.42-4.21-.36-3.26-.66-6.52-.93-9.78-.08-.91-.3-9.53-.72-9.64C495.28,710.36,516.73,710.76,533.75,709.09Z"/><path class="cls-3" d="M412.43,722.81A47.84,47.84,0,0,0,427.81,747a46.61,46.61,0,0,1-26.76-25.29C404.65,722.28,408.83,722.27,412.43,722.81Z"/><path class="cls-4" d="M413.3,537.13c0,35.9,43.36,87.68,76.4,87.68S533,573,533,537.13s-26.79-42.57-59.83-42.57S413.3,501.22,413.3,537.13Z"/><path class="cls-5" d="M514.7,658.45c-18.43,20.66-34.28,15.91-58.26,20.52l2.12-2.39c-1.43,17.71-2,35.74-4.51,53.46a142.09,142.09,0,0,1-3.58,17.9,2.53,2.53,0,0,1-1.49,1.65c-23.62,10.81-44.6-11.2-53.28-31.1-17.93-40.4-16.56-86-9.42-128.59,4.26-21.15,8.15-42.8,18.11-62.17-3.87,21.28-11,41.47-13.92,62.88-6.21,41.55-7.18,86.62,10.32,125.47,7.81,17.53,25.27,37.63,46.06,28.61l-1.5,1.72c3-11.14,4.3-22.95,5.35-34.7s1.57-23.64,2.54-35.58a2.66,2.66,0,0,1,2.12-2.39c14.68-3.63,31.16-.82,44.2-9.3a64,64,0,0,0,11.29-9.68c2.41-2.48,6.27,1.09,3.85,3.69Z"/><path class="cls-5" d="M532.59,527.73c14.18,23.46,17.8,52,21.23,78.8,5.59,51.68.4,128.4-61.29,142.14-6.64.8-13-4.84-13.17-11.47l-.21-2.54c-.53-6.8-1-13.59-1.4-20.4C477,700.63,476.4,687,477,673.2a2.67,2.67,0,1,1,5.33.29c-.6,13.37,0,27,.73,40.46q.59,10.14,1.39,20.29l.21,2.53a6.75,6.75,0,0,0,8.24,6.42c79.38-20.33,58.44-156.87,39.67-215.46Z"/><path class="cls-5" d="M532.17,486a171.4,171.4,0,0,1,30,50.72c7.09,18.37,11.24,38,11,57.78-1.21,3.72-5,6.34-8.25,8.09-9,4.26-22.57,3.59-28.28-5.48,10.16,6.16,26.24,7.73,33-3.57l-.26,1c-.6-28.81-10.11-57-24.66-81.7a156.89,156.89,0,0,0-16.68-23.29c-2.25-2.63,1.66-6.15,4-3.51Z"/><path class="cls-6" d="M371.57,546.54c.12.73.25,1.46.38,2.18a52.67,52.67,0,0,0,1.38,5.57,28,28,0,0,0,2.22,5.19,1.09,1.09,0,0,0,.14.23c1.68,2.87,4.26,4.72,6.35,7.1a14.65,14.65,0,0,1,1.1,1.37c2.68,3.75,5.94,5.66,10.26,7.24,20.72,7.61,43.48,8.34,65.36,5.41l1.22-.17c21.45-3,42.3-9.29,63-15.58,6.44-2,13-3.94,18.64-7.59l2-.85a60,60,0,0,1,.58,10.46c8.51-.35,17.68-.88,26.2-1.23,1.11,0-4.68-25.4-5.39-27.61a121.05,121.05,0,0,0-12.15-26.41c-3.14-5.09-7.16-13.73-13.09-16-5.18-2-12-2.18-18.58-2.07-4.44.06-8.79.24-12.5.06l-14.24-.71-53.22-2.63a175.3,175.3,0,0,0-20.63-.21c-2.93.2-5.27.93-8.09.1a65.17,65.17,0,0,0-10-2.37,28.44,28.44,0,0,0-6.65-.11,20.17,20.17,0,0,0-6.37,1.69c-5.3,2.43-9,7.24-11.67,12.53-.68,1.34-1.29,2.71-1.84,4.09A76.17,76.17,0,0,0,371.57,546.54ZM534.75,532a66.6,66.6,0,0,1,7.07,16.07Z"/><path class="cls-5" d="M545.19,496.56a122.87,122.87,0,0,1,27.9,69.12,2.67,2.67,0,0,1-2.47,2.86c0,.08-26.24,1.17-26.27,1.23a2.67,2.67,0,0,1-2.8-2.74,70.25,70.25,0,0,0-4-26.22c-1-2.86-2.45-5.43-2.8-8.79,2.84,1.88,4.21,4.78,5.66,7.55a56.75,56.75,0,0,1,6.48,27.63s-2.82-2.79-2.76-2.77l26.19-1.22-2.56,2.86A117.58,117.58,0,0,0,541.08,500c-2.22-2.65,1.85-6.11,4.11-3.41Z"/><path class="cls-7" d="M375.78,608.16c.5-8.3,1.37-16.54,2.61-24.67.77-5.11,1.71-10.17,2.78-15.16,15.42,4.35,35.67-1.93,48.55-8,.21-.61.4-1.22.58-1.83,3.91-13.07,2.35-25.67,0-38.12-1.54-8.12-3.4-16.16-4.33-24.23-.17-1.52-.31-3-.41-4.56,8.08,1.64,16.85,3.82,24.92,5.47l.14.53a207.17,207.17,0,0,1,5.42,25.68c1.62,12.13,1.62,25-2.39,37.06,16.61-.82,34.82-2.51,51.43-3.33a138.91,138.91,0,0,0-4.93-39.38,155.12,155.12,0,0,0-5.89-17.59c4.5,1.85,13.68,1.52,18.15-.37a60,60,0,0,1,5.67,10.43c6,13.89,9.06,31.67,9.86,45.22,4.09,1.52,9.46-5,13.55-3.43,9,36.21,14,73.46,12.66,110.74-.57,16.33-3,32.92-9.53,47.74H475.38c-.75-10.42-1.91-20.76-2.57-31.2-5.72-.24-10.94.14-16.66-.11.34,10.87-.41,21.62-.07,32.49-.89-.1-1.78-.18-2.67-.26a224.7,224.7,0,0,0-23.68-1c-4.74.07-9.48.31-14.19.73l-1,.1a159.74,159.74,0,0,0-18,2.68q-2.66.54-5.27,1.2l-1.44.35c-.15-.44-.31-.88-.45-1.33A284.31,284.31,0,0,1,375.78,608.16Z"/><path class="cls-3" d="M388.54,692.8c2.17.79,4.15,1.45,6.32,2.25a292.64,292.64,0,0,1-10-84.43c-2-.79-5.69-1.31-7.69-2.11-4.09,27.85-2.61,56.71,5.86,83.55l-.45.11c1.93.65,3.85,1.12,5.78,1.61Z"/><path class="cls-5" d="M389.84,718.11a2.68,2.68,0,0,1-2.53-1.81c-15.86-46.57-19.05-100.7-8.75-148.53a2.64,2.64,0,0,1,1.23-1.72,2.67,2.67,0,0,1,2.1-.29c16.54,4.66,38-3.86,45.66-7.33,4.68-14.95,1.85-29.1-1.15-44a171.9,171.9,0,0,1-3.5-22.58,2.68,2.68,0,0,1,3.2-2.79c4.06.83,8.29,1.79,12.52,2.75s8.39,1.9,12.41,2.72a2.67,2.67,0,0,1,2.05,1.93c3.62,13.66,10.21,38.49,4.22,61.09,7.16-.4,14.63-.94,21.89-1.46,7.72-.56,15.67-1.13,23.26-1.54a143.13,143.13,0,0,0-10.65-53.43,2.65,2.65,0,0,1,.59-2.89,2.69,2.69,0,0,1,2.9-.58c3.69,1.52,12.1,1.32,16.09-.35a2.66,2.66,0,0,1,3.23.93c9.73,14,14.5,36.85,15.84,54.5a24.08,24.08,0,0,0,3-1.41c2.71-1.42,5.79-3,9-1.85a2.68,2.68,0,0,1,1.66,1.86c9.66,39,13.95,76.5,12.73,111.48-.68,19.5-3.87,35.43-9.76,48.73a2.68,2.68,0,0,1-2.44,1.58H475.38a2.68,2.68,0,0,1-2.67-2.48c-.33-4.68-.75-9.34-1.17-14-.44-4.83-.88-9.81-1.23-14.78-2,0-3.89,0-5.78,0s-3.72,0-5.64,0c.07,4.55,0,9.1-.1,13.52-.1,5.29-.21,10.76,0,16.13a2.63,2.63,0,0,1-.85,2,2.7,2.7,0,0,1-2.09.7c-24-2.47-45.94-1.19-65.3,3.79A2.63,2.63,0,0,1,389.84,718.11Zm-6.62-146.54C374,617,377,668,391.59,712.25c18.55-4.44,39.29-5.66,61.75-3.62-.06-4.5,0-9,.11-13.37.1-5.27.2-10.73,0-16.09a2.71,2.71,0,0,1,.79-2,2.79,2.79,0,0,1,2-.77c2.79.12,5.54.09,8.19.06s5.53-.07,8.47,0a2.68,2.68,0,0,1,2.55,2.5c.36,5.7.87,11.48,1.38,17.08.35,3.87.69,7.74,1,11.62h65c5.17-12.34,8-27.14,8.62-45.16,1.18-33.91-2.89-70.27-12.11-108.1A19.66,19.66,0,0,0,536,556c-2.71,1.42-5.79,3-8.94,1.85a2.66,2.66,0,0,1-1.74-2.35c-.92-15.78-5.13-38.62-13.95-52.61a35.91,35.91,0,0,1-12.78.88,145.92,145.92,0,0,1,9.2,53.34,2.67,2.67,0,0,1-2.53,2.6c-8.28.41-17.11,1-25.65,1.65s-17.44,1.26-25.77,1.67a2.64,2.64,0,0,1-2.26-1,2.68,2.68,0,0,1-.41-2.46c7.05-21.21.95-45.95-2.8-60.15-3.55-.74-7.22-1.57-10.89-2.4-3-.68-6-1.36-8.9-2,.63,6,1.83,12,3.1,18.35,3.07,15.33,6.24,31.18.61,47.89a2.62,2.62,0,0,1-1.39,1.56C424.21,565.9,401.88,575.34,383.22,571.57Z"/><path class="cls-8" d="M510.73,596.54,484.6,597l-24,.46c-4.8.09-11.18.91-15.56-1.54s-9.78-3.87-14.83-2.61A16,16,0,0,0,420.12,602a25.31,25.31,0,0,0-2,13.41,68.7,68.7,0,0,0,2.8,12.16c.93,3.26,4,3.24,7.07,3.72,8.38,1.33,17,1.37,25.41,1.28a319.14,319.14,0,0,0,33.56-2c7.42-.85,15.88-1.37,22.8-4.76C522.7,619.43,507.08,610.52,510.73,596.54Z"/><path class="cls-9" d="M508.12,594.87H428.17c3.49,11.87-8.53,21.78,2.76,26.88s64.62,3.38,75.85-1.85S504.76,606.78,508.12,594.87Z"/><path class="cls-10" d="M492.42,621.35l.95,0a11.84,11.84,0,0,0,.93-15.53c-2.22-2.69-5.53-4.21-8.79-5.46a94.13,94.13,0,0,0-23.74-5.7c14.84-.07,29.47,0,44.31,0,1.5,3.15,3.09,6.24,4.59,9.4,1.18,2.48,2.38,5.09,2.28,7.83-.17,4.43-3.81,8.12-7.94,9.72S496.85,621.43,492.42,621.35Z"/><path class="cls-5" d="M460.5,627.51c-13.35,0-25.52-1-30.68-3.32-8.6-3.89-6.7-10.75-5.18-16.26,1.1-3.94,2.23-8,1-12.31a2.66,2.66,0,0,1,2.56-3.42h79.95a2.66,2.66,0,0,1,2.57,3.39c-1.23,4.35.21,8.1,1.6,11.73,1.77,4.65,4.2,11-4.39,15C501.17,625.46,479.62,627.51,460.5,627.51Zm-29.1-30c.44,4.41-.67,8.44-1.61,11.82-1.67,6-2,8,2.23,10,10.25,4.63,62.54,3.33,73.63-1.84,3.94-1.83,3.65-3,1.65-8.25-1.24-3.25-2.73-7.14-2.36-11.69Z"/><path class="cls-7" d="M380.06,713.86a139.64,139.64,0,0,0,20.71,5.78,127.74,127.74,0,0,0,65.14-3.78c-2.71-6.38-1.29-11.21-4-17.59-1.46.36-2.95.69-4.45,1-17.6,3.47-37.82,2.33-56.8-1.85-5.69-1.26-11.27-2.78-16.62-4.53-2-.67-4-1.35-5.94-2.07C377.36,694.41,378.69,710.36,380.06,713.86Z"/><path class="cls-3" d="M388.33,693.78c-1.93-.49-3.85-1-5.78-1.61-1.48.3-3.16.8-4.58,1.05,1,7.23,2.46,14.45,3.46,21.67,2.1.69,4.36,1.07,6.45,1.76C386.18,709.17,386.69,701.28,388.33,693.78Z"/><path class="cls-5" d="M426.53,724.8a139.33,139.33,0,0,1-47.38-8.42,2.66,2.66,0,0,1-1.58-1.55c-1.52-3.92-2.93-20.44-2.1-24.56a2.67,2.67,0,0,1,3.55-2c25.18,9.34,55.56,11.08,81.27,4.67a2.69,2.69,0,0,1,3.11,1.54,46.59,46.59,0,0,1,2.67,10.78,41.16,41.16,0,0,0,2.3,9.53,2.66,2.66,0,0,1,0,2.14,2.69,2.69,0,0,1-1.59,1.44A127.5,127.5,0,0,1,426.53,724.8Zm-44.3-13c26.51,9.33,54.83,10.15,80.24,2.35a61.87,61.87,0,0,1-1.68-8,56.35,56.35,0,0,0-1.54-7.43c-25.05,5.73-54,4.17-78.7-4.2A110.87,110.87,0,0,0,382.23,711.81Z"/><path class="cls-7" d="M553.49,710.83a138.44,138.44,0,0,1-20.71,5.78,127.86,127.86,0,0,1-65.14-3.77c2.71-6.39,1.29-11.22,4-17.6,1.46.37,3,.69,4.45,1,17.6,3.47,37.82,2.33,56.8-1.85,5.69-1.25,11.27-2.78,16.62-4.53q3-1,5.94-2.07C556.2,691.39,554.86,707.34,553.49,710.83Z"/><path class="cls-5" d="M507,721.78a127.23,127.23,0,0,1-40.23-6.41,2.67,2.67,0,0,1-1.61-3.58,41.55,41.55,0,0,0,2.31-9.53,46,46,0,0,1,2.66-10.77,2.69,2.69,0,0,1,3.11-1.55c25.71,6.42,56.1,4.67,81.27-4.67a2.67,2.67,0,0,1,3.55,2c.83,4.12-.57,20.65-2.09,24.57a2.7,2.7,0,0,1-1.58,1.54A139.2,139.2,0,0,1,507,721.78Zm-35.94-10.64c25.4,7.79,53.73,7,80.24-2.36a109.55,109.55,0,0,0,1.68-17.3c-24.68,8.38-53.65,9.93-78.7,4.2a56.69,56.69,0,0,0-1.54,7.43A60.72,60.72,0,0,1,471.08,711.14Z"/><path class="cls-8" d="M438.8,653.84a46.55,46.55,0,0,1-4.25-5.62c-7.95-12.72-5.88-30.81,4.73-41.41,1.75-1.76,4.35-3.42,6.56-2.28a4.53,4.53,0,0,1,2.17,3.88,17.23,17.23,0,0,1-.67,4.6,39.56,39.56,0,0,0,4.1,27.5c3.85-8.27,8.07-16.29,13.5-23.44a97.23,97.23,0,0,1,22.63-21.58c4-2.72,4.85-4.12,3.16-9.06a25,25,0,0,0-30.19-16.19c2.78-8.6,12.16-14,21.18-13.71s17.37,5.66,22.94,12.77a59.21,59.21,0,0,1,7.75,13.51,53.07,53.07,0,0,1,3.77,13.54c.58,4.83-.93,9.68-3,14.08s-4.72,8.54-6.63,13c-5.7,13.36-4.33,29,1.44,42.37s15.5,24.62,26.3,34.33a29.14,29.14,0,0,1,5,5.43,8,8,0,0,1,1.39,6.62c-.62,2.19-2.34,3.85-4,5.41-5.38,5.08-10.41,11.47-16.93,15L497.11,745a40.05,40.05,0,0,0,3.38-25.75l-13.8-1a4.32,4.32,0,0,1-3-1c-.91-1-.65-2.58-.54-3.94a17.94,17.94,0,0,0-2.36-9.78,50.21,50.21,0,0,0-5.41-7.69c-1.83-2.26-3.23-3.39-2.62-6.31.95-4.58,3.66-8.46,3.66-13.2-1.19-4.93-16.92-.65-20.49.09-.51,6-.93,13-1.42,20.38h-8.35a49.7,49.7,0,0,1-5.48-8.72c-2.5-5.25-6-12.15-3.24-17.28,1.36-2.55,6.12-9.09,5.71-11.94C442.91,657.26,439.83,655,438.8,653.84Z"/><path class="cls-1" d="M356.2,585.77c.41,4,1.15,8,3.35,11.35a21.87,21.87,0,0,0,7.69,6.77,22.74,22.74,0,0,0,2.15,1.08c2.19.95,4.24,2.18,6.39,3.19a22.42,22.42,0,0,0,3.37,1.31,32,32,0,0,0,4.26.94c6.24,1,12.81.36,18.95-.75,1.1-.21,13.07-3.23,13.07-3.6a27.18,27.18,0,0,0,15.29,14.74,19.4,19.4,0,0,0,8.2,1.22,24.58,24.58,0,0,0,11.55-4.15,28.14,28.14,0,0,0,10.52-13c4.59-11.78.63-25.7-7.86-34.39-6.14-6.29-14.24-10.11-22.83-11.94a60.45,60.45,0,0,0-10-1.24,85.39,85.39,0,0,0-14.65.73c-4.22.55-8.06,1.76-12.35,1.57-8-.37-16.45-.85-24.26,1.47a31.12,31.12,0,0,0-3.39,1.2,17.27,17.27,0,0,0-9,8.11C354.52,574.74,355.71,581.08,356.2,585.77Z"/><path class="cls-3" d="M367.3,602.39A45.79,45.79,0,0,1,361,583.24c-2.57,1-5.35,1.91-8.22,3.16C355.57,592.36,362.86,598.35,367.3,602.39Z"/><path class="cls-11" d="M515.33,572.86c-.16-.28-.32-.57-.49-.85-5.35-8.81-14.59-16.13-25.51-18.31-16.36-3.31-33.16,5.76-41,18.62-5.22,8.6-16.18,40-6.83,61.26,4.64,10.54,14.25,18.6,32,20.16l48-52.86C521.93,591.34,520.29,581.47,515.33,572.86ZM474.54,644.2c-38.13-3.22-23-51.92-17.34-61.76s17.66-16.86,29.3-14.47c7.74,1.59,14.27,7.09,18,13.77s4.91,14.4,4.59,21.9Z"/><path class="cls-5" d="M474.67,646.89h-.22c-11.29-1-19.26-5.72-23.69-14.17-8.62-16.43-.56-43.19,4.25-51.58,6.65-11.59,20.16-18.21,32.15-15.75,8,1.65,15.46,7.28,19.82,15.06,3.66,6.52,5.32,14.37,4.93,23.33a2.63,2.63,0,0,1-2.78,2.56,2.67,2.67,0,0,1-2.55-2.78c.34-8-1.09-14.85-4.26-20.49-3.61-6.45-9.68-11.1-16.23-12.45-11.07-2.27-21.7,4.91-26.44,13.18-4.24,7.39-11.7,32.06-4.16,46.44,3.52,6.73,10.05,10.54,19.4,11.33a2.67,2.67,0,0,1-.22,5.33Z"/><path class="cls-5" d="M473.69,656.43h-.24c-16.16-1.43-27.38-8.12-33.34-19.89-10.9-21.54-.2-55.18,6.11-65.57,9-14.81,27.37-23.17,43.78-19.87a42.49,42.49,0,0,1,27.27,19.56c5.14,8.5,7.54,18.71,7.12,30.34a2.67,2.67,0,1,1-5.34-.19c.39-10.58-1.76-19.79-6.35-27.38A37,37,0,0,0,489,556.33c-16.18-3.26-31.43,6.29-38.16,17.4-5.66,9.33-15.73,41-5.91,60.39,5.07,10,14.84,15.73,29,17a2.67,2.67,0,0,1-.23,5.33Z"/><path class="cls-8" d="M515.33,572.86a5.8,5.8,0,0,1-.4,2.26,3.68,3.68,0,0,1-4,2.38c-4.72-8.07-13.56-13.37-22.76-14.93A32.62,32.62,0,0,0,462,569.79c-5.77,4.93-9.64,11.8-12.11,19s-3.67,14.74-4.83,22.24-4,10-5.19,17.51c4.64,10.54,15.92,23.66,33.68,25.22l48-52.86C521.93,591.34,520.29,581.47,515.33,572.86ZM474.54,644.2c-38.13-3.22-23-51.92-17.34-61.76s17.66-16.86,29.3-14.47c7.74,1.59,14.27,7.09,18,13.77s4.91,14.4,4.59,21.9Z"/><path class="cls-11" d="M578.32,666.93l-32.5,59.44s-47.7-4.1-87.06-51.87c-.66-.8-1.31-1.61-1.95-2.42l35.52-55.91a50,50,0,0,1,32.31-22.23A48.8,48.8,0,0,1,560,600.07l1,.62A49.81,49.81,0,0,1,578.32,666.93Z"/><path class="cls-8" d="M578.15,667.82a49.31,49.31,0,0,0,4.14-37.24c-19.53,11.79-46-6.91-57.76-29.4-2.6,9.65,1,20.7,7.57,28.56,7.65,9.18,18.52,14.93,29.09,20.45-2.67,13.48-14.74,25.17-27.45,30.35s-26.93,5.39-40.52,3.5a140,140,0,0,1-33-8.78c38.78,47.17,85.81,51.23,85.81,51.23Z"/><path class="cls-5" d="M545.81,729h-.22c-2.06-.17-50.9-4.91-90.87-55.27a2.68,2.68,0,0,1-.17-3.1l35.54-55.91c15.25-24,47.23-31.62,71.27-17l1,.63a52.47,52.47,0,0,1,18.28,69.81l-32.5,59.42A2.66,2.66,0,0,1,545.81,729ZM460.09,671.9c34.23,42.13,75.46,50.29,84.25,51.59L576,665.66A47.15,47.15,0,0,0,559.57,603l-1-.61c-21.58-13.16-50.28-6.31-64,15.26Z"/><ellipse class="cls-12" cx="555.25" cy="609.34" rx="9.32" ry="21.86" transform="translate(-253.64 768.36) rotate(-58.78)"/><path class="cls-5" d="M567.76,625.86a21.12,21.12,0,0,1-3.08-.23,47.65,47.65,0,0,1-28.23-17.11c-3.29-4.57-4.06-8.8-2.18-11.9s6-4.38,11.56-3.58a47.78,47.78,0,0,1,28.23,17.11c3.28,4.58,4.06,8.8,2.18,11.91C574.72,624.55,571.76,625.86,567.76,625.86Zm-25-27.71c-2,0-3.42.44-3.9,1.24-.66,1.09.1,3.45,1.94,6a42.53,42.53,0,0,0,24.66,14.94c3.11.45,5.57,0,6.23-1.06h0c.66-1.09-.1-3.46-1.95-6a42.55,42.55,0,0,0-24.65-14.94A16.48,16.48,0,0,0,542.74,598.15Z"/><path class="cls-13" d="M516,609a46,46,0,0,0,10.09,23.57S482.87,654.26,465.78,673C491.05,631.56,506.72,612.49,516,609Z"/><path class="cls-11" d="M633.14,669.6,556.23,706l-8.62,4.09s-11.5-16.38,11.31-33.45l68.55-20,1.08-.32a42.17,42.17,0,0,0,1.34,6c.13.4.25.81.41,1.23A25.11,25.11,0,0,0,633.14,669.6Z"/><path class="cls-5" d="M547.61,712.79a2.68,2.68,0,0,1-2.19-1.13c-.13-.19-12.7-18.72,11.91-37.13a2.42,2.42,0,0,1,.85-.42l69.62-20.3a2.68,2.68,0,0,1,3.4,2.22c0,.08,1,7.4,4.15,12.07a2.66,2.66,0,0,1-1.07,3.91l-85.53,40.53A2.7,2.7,0,0,1,547.61,712.79Zm12.53-33.69c-15.71,11.95-13.27,23.11-11.38,27.52l80.63-38.2a38.92,38.92,0,0,1-2.93-8.66Z"/><path class="cls-11" d="M656.56,678.46s-16.39,2.07-26.26-14.86c-.24-.4-.45-.8-.66-1.19a24.67,24.67,0,0,1-2.17-5.71c-3.33-13.62,7.25-23.83,7.25-23.83l16.51,34.46Z"/><path class="cls-5" d="M652.14,681.55c-6.54,0-17.8-2.32-24.28-16.86A30.92,30.92,0,0,1,632.8,631a2.67,2.67,0,1,1,3.84,3.71,25.67,25.67,0,0,0-3.91,27.8c7.61,17.05,22.54,13.51,23.16,13.35a2.67,2.67,0,0,1,1.34,5.17A22.62,22.62,0,0,1,652.14,681.55Z"/><path class="cls-8" d="M630.3,663.6a25.11,25.11,0,0,0,2.84,6l-87.23,40.52c-.08-8.22-3.46-12.13.61-18.93,21.83-3.45,64.13-17.45,83.12-28.78l.15-.09.1,0a54.45,54.45,0,0,0,21.34,5l5.33,11.13S640.17,680.53,630.3,663.6Z"/><path class="cls-14" d="M659.07,677.69c-3.44,1.52-8-.46-12.34-4.79a46.71,46.71,0,0,1-9.3-14.06c-5.81-13.14-5.55-26,.57-28.71,3-1.34,6.92,0,10.78,3.36s7.91,8.85,10.86,15.51C665.47,662.13,665.21,675,659.07,677.69Z"/><path class="cls-5" d="M656.59,680.88c-3.17,0-6.69-1.59-10.21-4.66C642,672.4,638,666.61,635,659.91s-4.53-13.59-4.42-19.39c.13-6.52,2.39-11.08,6.36-12.83s8.86-.37,13.77,3.91c4.38,3.82,8.42,9.61,11.39,16.31s4.53,13.59,4.42,19.4c-.13,6.51-2.39,11.07-6.36,12.83A8.8,8.8,0,0,1,656.59,680.88ZM640.48,632.3a3.45,3.45,0,0,0-1.39.27c-1.91.85-3.1,3.86-3.18,8-.1,5,1.31,11.13,4,17.13s6.21,11.13,10,14.44c3.17,2.76,6.19,3.91,8.1,3.06s3.1-3.85,3.18-8c.1-5-1.31-11.12-4-17.12h0c-2.66-6-6.22-11.13-10-14.44C644.72,633.47,642.32,632.3,640.48,632.3Z"/><ellipse class="cls-5" cx="639.91" cy="645.87" rx="0.99" ry="2.23" transform="translate(-206.69 314.35) rotate(-23.88)"/><ellipse class="cls-5" cx="645.02" cy="650.28" rx="0.99" ry="2.23" transform="translate(-208.03 316.79) rotate(-23.88)"/><ellipse class="cls-5" cx="642.21" cy="653.5" rx="0.99" ry="2.23" transform="translate(-209.58 315.93) rotate(-23.88)"/><ellipse class="cls-5" cx="647.32" cy="657.91" rx="0.99" ry="2.23" transform="translate(-210.93 318.38) rotate(-23.88)"/><ellipse class="cls-5" cx="650.7" cy="653.98" rx="0.99" ry="2.23" transform="translate(-209.05 319.41) rotate(-23.88)"/><ellipse class="cls-5" cx="655.8" cy="658.39" rx="0.99" ry="2.23" transform="translate(-210.39 321.86) rotate(-23.88)"/><ellipse class="cls-5" cx="653" cy="661.62" rx="0.99" ry="2.23" transform="translate(-211.94 321) rotate(-23.88)"/><ellipse class="cls-5" cx="658.1" cy="666.02" rx="0.99" ry="2.23" transform="translate(-213.29 323.44) rotate(-23.88)"/><ellipse class="cls-5" cx="655.5" cy="669.61" rx="0.99" ry="2.23" transform="translate(-214.96 322.69) rotate(-23.88)"/><ellipse class="cls-5" cx="644.85" cy="661.8" rx="0.99" ry="2.23" transform="translate(-212.71 317.71) rotate(-23.88)"/><ellipse class="cls-5" cx="649.95" cy="666.21" rx="0.99" ry="2.23" transform="translate(-214.06 320.16) rotate(-23.88)"/><ellipse class="cls-5" cx="645.09" cy="637.72" rx="0.99" ry="2.23" transform="translate(-202.94 315.75) rotate(-23.88)"/><ellipse class="cls-5" cx="650.2" cy="642.12" rx="0.99" ry="2.23" transform="translate(-204.29 318.19) rotate(-23.88)"/><ellipse class="cls-5" cx="647.39" cy="645.35" rx="0.99" ry="2.23" transform="translate(-205.84 317.33) rotate(-23.88)"/><ellipse class="cls-5" cx="652.49" cy="649.76" rx="0.99" ry="2.23" transform="translate(-207.18 319.78) rotate(-23.88)"/><ellipse class="cls-5" cx="642.29" cy="640.76" rx="0.99" ry="2.23" transform="translate(-204.41 314.87) rotate(-23.88)"/><path class="cls-8" d="M659.07,677.69c-3.44,1.52-8-.46-12.34-4.79a57.75,57.75,0,0,1-2.34-5.74,6,6,0,0,0,5,.21c2.43-1.1,3.55-4.07,3.3-6.72a18.91,18.91,0,0,0-2.42-7.5,38.32,38.32,0,0,1,4.43,7.38,1.37,1.37,0,0,0,2.61-.6A39.63,39.63,0,0,0,645.21,633c1.26.21,2.47.17,3.57.47,4,3.39,7.91,8.85,10.86,15.51C665.47,662.13,665.21,675,659.07,677.69Z"/><path class="cls-2" d="M533.07,555a16.9,16.9,0,0,0-20.8,8.66,33.39,33.39,0,0,0-3.18,18.23c1.3,11,9,21.15,19.51,24.6s23.21-.53,29.22-9.81C560.87,575.15,549.81,561,533.07,555Z"/><path class="cls-5" d="M536.43,610.42a27.84,27.84,0,0,1-8.66-1.36c-11.3-3.71-19.87-14.49-21.33-26.82a35.93,35.93,0,0,1,2.83-18.4,19.6,19.6,0,0,1,25.81-10.19h0c18.1,7.89,27.6,24.1,25.39,43.36a2.69,2.69,0,0,1-.41,1.15C555.06,605.87,545.8,610.42,536.43,610.42Zm-9.16-53.06a14.28,14.28,0,0,0-13.1,8.6,30.53,30.53,0,0,0-2.43,15.64C513,591.75,520.22,601,529.44,604c9.42,3.11,20.39-.43,25.79-8.21,1.69-16.76-6.41-30.31-22.29-37.22A14,14,0,0,0,527.27,557.36Z"/><path class="cls-5" d="M509.1,585.63a20,20,0,0,1,13.51-12.84c2-.52,4.12-1.11,6.18.15-3.32,2.37-6.6,2.88-9.31,5.79a19.27,19.27,0,0,0-5.28,8.47,2.67,2.67,0,1,1-5.1-1.57Z"/><path class="cls-5" d="M521.48,602.87A20,20,0,0,1,535,590c2-.52,4.13-1.1,6.18.16-3.31,2.37-6.6,2.88-9.31,5.79a19.05,19.05,0,0,0-5.27,8.47,2.67,2.67,0,1,1-5.1-1.58Z"/><path class="cls-2" d="M417.09,610.16c3.28,4.11,8.83,9.69,14.22,11,5.84,1.38,16.3-1.22,21-4.07,3.91-2.35,4.36-7.46,6.31-11.59,2.5-5.27,3.86-12.16,2.7-17.88-1.06-5.3-4.63-10-7.22-14.74-1.83-3.34-6.5-9.81-11.06-8.42-3.93,1.2-7.93,8.39-10.14,11.47a99.23,99.23,0,0,0-9.55,16.37C422.29,594.58,415.47,608.13,417.09,610.16Z"/><path class="cls-3" d="M411.36,559.16c3,1,5.72,3.08,8.87,4,4.07,1.11,8.31,1.19,12.51,1.27,3.66.07,7.06,1.23,10.48,2.41,2.47.85,6.76,1.83,8.63,3.73a23.49,23.49,0,0,0-9.51-7.63C433,558.59,421.47,557.45,411.36,559.16Z"/><path class="cls-5" d="M401.54,479c-10.17,12.48-20.06,24.7-27.54,38.89a153.71,153.71,0,0,0-15.06,44.75c-1.21,7.55-2.19,15.66-1.51,23.16.35,3.6,2.52,6.25,4.57,9,12.65,15.35,35,15.15,52.55,8.86a2.56,2.56,0,0,1,3.24,1.46,24.8,24.8,0,0,0,14.29,13.22c12.86,4.41,26.87-8,27.9-20.92a31.32,31.32,0,0,0-4.56-19.59c-7.29-12.25-22.18-17.84-36.07-18.34-14.8-.7-29.08,2-43.79,4.16,6.13-4.68,13.91-6.22,21.36-7.22,15-1.81,30.92-3,45.16,3.43,18.67,7.38,30.05,31.44,19.72,49.8-5.91,10.71-19.41,18.33-31.51,13.86A29.32,29.32,0,0,1,413.05,607l3.24,1.46c-19.24,8-44.92,7.83-59.15-9.66-2.76-3.46-5.67-7.85-6-12.31-.79-8.57.17-16.67,1.58-25,5.26-29.36,22.48-68,48.84-82.56Z"/><path class="cls-5" d="M458.51,602.43a18.58,18.58,0,0,0-7.84-11.54c-1.41-1-2.92-1.39-4.46-3,2-1.1,4-.37,5.83.27a18.8,18.8,0,0,1,11.69,13.17,2.67,2.67,0,0,1-5.22,1.12Z"/><path class="cls-5" d="M448.27,616.07a18.56,18.56,0,0,0-7.85-11.54c-1.4-1-2.91-1.39-4.45-3,2-1.1,4-.37,5.83.27A18.78,18.78,0,0,1,453.49,615a2.67,2.67,0,0,1-5.22,1.12Z"/><path class="cls-8" d="M525.05,555.15a34.91,34.91,0,0,0-6.86,18.43c5.47-4.59,11.35-4.28,17-1.37-4,2-15.94,10.58-8.68,19.29,4.61-4.5,11.16-5.34,16.95-3.26,2,.72,4.54,1,6-.52a5.83,5.83,0,0,0,1.21-3.88,31.77,31.77,0,0,0-5.47-19,30.76,30.76,0,0,1,13.1,24.92,15.56,15.56,0,0,1-1,6.05c-1.63,3.77-5.25,6-8.82,7.74s-6.67,3.53-10.9,3.91c-7.69.69-15.92-2-21.28-7.65a28.8,28.8,0,0,1-7.38-17.1C507.76,571,515.48,562,525.05,555.15Z"/><path class="cls-6" d="M352.32,584.12a12.92,12.92,0,0,0,1.29,2.29l24.94-15.86c3.79-2.41,7.55-5.27,11.59-7.2a128.43,128.43,0,0,1,13.32-5h0c1.37-.47,2.75-.93,4.13-1.38-4.65-4.7-4.28-12.29-3.14-18.8a137.64,137.64,0,0,1,3.19-13.86q1-3.54,2.21-7a11.85,11.85,0,0,1,.56-1.34c.59-1.32,1.33-2.89,1.1-4-.62-3-7.1-6-9.6-7.26a47.3,47.3,0,0,0-12.78-4.49c-4.75-.93-8.28-.24-11.25,1.87a21,21,0,0,0-5.19,5.69c-13.21,19.82-23.37,42.41-22.25,66.7A26.53,26.53,0,0,0,352.32,584.12Z"/><path class="cls-3" d="M363.18,555.91A143.48,143.48,0,0,1,395,493.84c-1.92-.7-3.27-1.51-5.19-2.21-8.72,9.58-17.82,19.51-24.9,30.4-6.78,10.43-10.08,22.78-11.71,35q-.88,6.62-1.17,13.31c-.18,4.2-1,9.89.06,14a12.57,12.57,0,0,0,.78,2.08c2.87-1.25,5.65-2.15,8.22-3.16C360.05,574.23,361.14,564.78,363.18,555.91Z"/><path class="cls-8" d="M408.08,531.4a47.47,47.47,0,0,0-4,27.29,27.4,27.4,0,0,1,8.42-4.3C408.18,547.44,407,539.52,408.08,531.4Z"/><path class="cls-5" d="M408.47,530.12c-.89,8.12.16,17.93,6.73,23.16a2.48,2.48,0,0,1,.4,3.5,2.67,2.67,0,0,1-1.47.91A181.92,181.92,0,0,0,382,571.94c-10.29,5.7-20.2,12.16-30.05,18.77a2.68,2.68,0,0,1-4.16-2.09c-1.68-27.71,5.51-56.12,22.42-78.39a248.34,248.34,0,0,1,17.5-21.13,2.67,2.67,0,0,1,4,3.58,245.67,245.67,0,0,0-17.13,20.67c-16.25,21.42-23,48.37-21.41,75L349,586.27c19.83-13.35,40.48-26.25,63.47-33.66L411.4,557c-6.4-7.77-5.7-18.14-2.93-26.91Z"/><path class="cls-1" d="M414.28,325.79c7.81-6.49,7.43-3.87,17.07-7.65L358.8,252.35l-1.34,1.86c-21.81,45.63-.69,93.4,10,109.45C385.53,353.74,398.77,338.66,414.28,325.79Z"/><path class="cls-1" d="M513.78,323.23c9.06,5,9,2.37,15.93,9.82,13.71,14.78,24.87,31.45,41.47,43.63,9.83-11.24,32.35-39.93,32.05-72.4-.09-9.47-.34-27.91-3.88-38.77l-.32.12-35.86,23.94Z"/><path class="cls-2" d="M560.06,292.37c.57,1.56,4.25,7.21,5.19,8.6,1.68,2.46,4,5.22,6.92,5,2.39-.17,4-1.39,6,.42,1.69,1.49,2,3.25,4.51,3.73,1.79.34,3.61-.09,5.4.16s2.67,1.12,4.17,1.9a9.54,9.54,0,0,0,9.8-1.16c1.26-1,.79-8.93.85-10.58.13-3.7.08-7.41-.14-11.11-.12-2-2.44-25-3.3-24.73Z"/><path class="cls-2" d="M386.82,278.22a20.55,20.55,0,0,1-2.5,4.39c-1.69,2.47-3.95,5.22-6.92,5-2.39-.17-4-1.39-6,.42-1.69,1.49-2,3.25-4.51,3.73-1.93.37-3.92-.15-5.89.23a24.79,24.79,0,0,0-4.72,1.68c-.86.35-6.65,1.73-7.43,1.94-.53-9.46,3.22-30.33,6.05-41.4l4-2.3Z"/><polygon class="cls-15" points="526.55 331.72 600.83 269.37 599.62 264.95 517.63 325.5 526.55 331.72"/><path class="cls-16" d="M582.82,304.62s-2.68,43.09-22,60.12l-10.53-2.15c-3.5-6-11.6-14.25-16.14-20.74Z"/><path class="cls-5" d="M559.38,367.32a2.65,2.65,0,0,1-2-.86,2.68,2.68,0,0,1,.15-3.78c19.67-18.12,22.47-42.36,22.7-52.74l-44.46,34a2.67,2.67,0,0,1-3.24-4.24L581.2,302.5a2.67,2.67,0,0,1,4.28,1.86c.15,1.49,3.28,36.83-24.29,62.25A2.67,2.67,0,0,1,559.38,367.32Z"/><path class="cls-5" d="M567.86,380.67a2.63,2.63,0,0,1-1.87-.77,2.67,2.67,0,0,1,0-3.77c.49-.5,47.59-49.18,31.88-107.57L514.9,328.05a2.67,2.67,0,0,1-3.11-4.34l86-61.69a2.66,2.66,0,0,1,4.11,1.37c19.66,63.07-31.62,116-32.13,116.49A2.69,2.69,0,0,1,567.86,380.67Z"/><path class="cls-16" d="M368.47,286.47s-2.94,43.08,13.95,62.47l10.73-.76c4.24-5.48,13.35-12.62,18.7-18.47Z"/><polygon class="cls-15" points="415.66 319.42 353.62 255.06 358.38 251 427.48 314.24 415.66 319.42"/><path class="cls-5" d="M383.91,351.71a2.65,2.65,0,0,1-2.05-1c-24-28.78-16.33-63.42-16-64.88a2.68,2.68,0,0,1,4.49-1.29l43.38,43.24A2.67,2.67,0,1,1,410,331.6l-39.64-39.52c-1.13,10.32-1.5,34.72,15.64,55.25a2.67,2.67,0,0,1-2,4.38Z"/><path class="cls-5" d="M370.52,365.4a2.67,2.67,0,0,1-2.13-1.06c-.42-.55-41-55.26-13.28-115.23a2.66,2.66,0,0,1,1.9-1.5,2.69,2.69,0,0,1,2.34.65l73.81,67.91a2.67,2.67,0,1,1-3.62,3.93l-71.06-65.38c-23.33,55.69,13.78,105.89,14.17,106.4a2.67,2.67,0,0,1-2.13,4.28Z"/><path class="cls-1" d="M337.51,432.17c3.2,30.05,29.07,58.56,102.07,72.24,3.33.63,6.77,1.21,10.3,1.78s6.92,1,10.52,1.32c2.26.21,4.58.38,6.9.5,31.13,1.72,67.46-4,93.09-19.51,12.07-7.28,21.75-16.74,27.41-28.57a55.52,55.52,0,0,0,4.53-14.08c2.35-12.91.1-26.22-4.2-38.47a133.5,133.5,0,0,0-8-18c-1.36-2.59-2.26-5.14-3.93-7.56-1.91-2.75-3.81-5.5-5.74-8.23-7.7-10.9-15.77-21.6-25.07-31.21-12.58-13-27.64-24.07-44.9-29.51-16.92-5.33-35.23-5-52.66-1.7a200.84,200.84,0,0,0-24.37,6.42c-6.56,2.14-13,4.52-19.49,7-2.81,1.07-5.51,1.83-7.73,3.86-2.42,2.21-5,4.25-7.38,6.49-9.42,8.79-17.89,18.51-26.75,27.86a4.28,4.28,0,0,1-.92.77l-.27.34C347,383.06,335,408.1,337.51,432.17Z"/><path class="cls-15" d="M525.61,324.9c-17-2.47-34.13-4.94-51.33-5s-34.65,2.35-50.41,9.29c-27.29,12-47.22,36.58-61.3,62.87-8.28,15.47-15,32.31-15.2,49.86-.08,8.51,2.48,21.21,9.22,27.17a60,60,0,0,1-19.37-35.58c-3-20,5.66-38.51,15.67-55.12,12.19-20.23,27.66-39,47.66-51.91a115.49,115.49,0,0,1,42.9-16.58,119.84,119.84,0,0,1,35.22-.86,114.41,114.41,0,0,1,17.29,3.5c5.11,1.46,10.87,2.86,15.59,5.23,4,2,9.81,3.11,13.52,5.79Z"/><path class="cls-4" d="M335.55,437.65c4.41,24.76,25.15,48,76.12,62.27,14.2,2,29.91,4.09,46.81,7.25q5,.94,10.31,1.78c1.62.25,3.26.5,4.93.71,44,.38,95-13.78,111.53-48.37a55.65,55.65,0,0,0,4.53-14.08,59,59,0,0,0,.89-8c-10.64-2.47-24.77-3.13-43.52-.24a34,34,0,0,1-30.72-11.57,31,31,0,0,0-3.41-3.35c-5.37-5-13.46-9.08-25.53-9.51-12-1.14-20.56,1.84-26.55,6.11a30.94,30.94,0,0,0-3.82,2.87,35.4,35.4,0,0,1-32,8C382.82,421,347.28,429.84,335.55,437.65Z"/><path class="cls-8" d="M583.38,394.2A162.32,162.32,0,0,0,571.63,375c18.27-21.31,33.28-49.2,34-77.88a69.35,69.35,0,0,0-1.08-14.53c-.46-2.39-1.81-5-2-7.37a31.94,31.94,0,0,1-.25,7.63,47.55,47.55,0,0,1-2,8.13,65.54,65.54,0,0,1-3.5,8.29,82,82,0,0,1-4.74,8.18,90.63,90.63,0,0,1-5.74,7.78,92.29,92.29,0,0,1-6.47,7.09,80.9,80.9,0,0,1-7,6.11,61.08,61.08,0,0,1-7.19,4.84,41.5,41.5,0,0,1-7.17,3.3,26.77,26.77,0,0,1-6.9,1.45,17.64,17.64,0,0,1-6.38-.67,15.08,15.08,0,0,1-2.91-1.22,14.87,14.87,0,0,1-1.37-.85,9.4,9.4,0,0,0-1.37-1,.74.74,0,0,0-.92.15c-.51.61.42,1.63.76,2.15l1.24,1.94c.9,1.42,1.79,2.84,2.66,4.28q3,4.88,5.78,9.87c2,3.64,4,7.32,5.84,11.06s3.65,7.66,5.26,11.59a113.64,113.64,0,0,1,4.06,11.45,67.52,67.52,0,0,1,1.94,8.56,114.8,114.8,0,0,1,1.49,16.74l.05-1a89.79,89.79,0,0,1-1.63,18.15c-3.17,16.39-13.6,30.64-26.69,40.66-14.76,11.31-32,16.59-50.22,19.5a207,207,0,0,1-41.62,2.2c-27.07-1.18-53.76-6.78-80.06-13.3,3.81.94,8.1,4.52,11.66,6.3q6.18,3.09,12.54,5.76a216.64,216.64,0,0,0,26.07,9.06,221.39,221.39,0,0,0,54.51,8.05c22.28.49,46.68-1.65,67.74-9.33,20-7.31,39.25-20.16,48-39.59,6-13.38,5.69-28.88,3-43A81.62,81.62,0,0,0,583.38,394.2Z"/><path class="cls-5" d="M478.05,511a184.43,184.43,0,0,1-28.6-2.13q-5.32-.84-10.37-1.79c-64.33-12.06-99.63-36-104.93-71.21-7.24-48.2,46.36-101.07,60.61-108.65,102.18-62.48,162.43,23.18,163,24,35.32,43.85,46.28,80.87,32.43,109.85C572.84,497.45,521.23,511,478.05,511ZM467.56,309.48c-22.37,0-45.81,7.44-70.08,22.3l-.15.09c-13,6.82-64.65,58.21-57.89,103.16,4.91,32.71,38.77,55.17,100.62,66.76,3.31.62,6.73,1.21,10.23,1.76,42.63,6.78,115-2.77,135.1-44.78,12.89-27,2.15-62.08-31.89-104.36a117.51,117.51,0,0,0-41.1-34.24A99.87,99.87,0,0,0,467.56,309.48Zm-71.47,20h0Z"/><path class="cls-5" d="M473.75,436c-.43,5.19,7.57,16,18.5,17s20.64-8.44,21.08-13.63-8.07-10.14-19-11.06S474.19,430.84,473.75,436Z"/><path class="cls-5" d="M491.39,466.06h-.18a2.67,2.67,0,0,1-2.49-2.84l1.14-17.43a2.64,2.64,0,0,1,2.84-2.49,2.68,2.68,0,0,1,2.49,2.84l-1.14,17.43A2.67,2.67,0,0,1,491.39,466.06Z"/><path class="cls-5" d="M491.13,468.83a21.55,21.55,0,0,1-3.08-.21c-7-1-12.91-5.74-14.69-11.83a2.67,2.67,0,1,1,5.13-1.49c1.18,4,5.41,7.35,10.3,8,4.44.64,9.57-.66,14.43-3.61a2.67,2.67,0,0,1,2.77,4.57A29.26,29.26,0,0,1,491.13,468.83Z"/><ellipse class="cls-4" cx="537.61" cy="378.85" rx="6.47" ry="12.96" transform="translate(124.52 890.63) rotate(-86.26)"/><ellipse class="cls-4" cx="441.87" cy="372.6" rx="6.47" ry="12.96" transform="translate(41.26 789.25) rotate(-86.26)"/><ellipse class="cls-5" cx="534.83" cy="421.47" rx="18.63" ry="20.57" transform="translate(-80.23 129.28) rotate(-12.83)"/><ellipse class="cls-4" cx="530.16" cy="428.15" rx="6.39" ry="8.28" transform="translate(-128.55 253.57) rotate(-24.08)"/><ellipse class="cls-3" cx="540.35" cy="411.74" rx="3.98" ry="3.26" transform="translate(-138.99 414.9) rotate(-37.57)"/><ellipse class="cls-5" cx="441.37" cy="415.36" rx="20.57" ry="18.63" transform="translate(-101.34 685.18) rotate(-69.7)"/><ellipse class="cls-4" cx="444.04" cy="422.65" rx="8.28" ry="6.39" transform="translate(-125.08 650.48) rotate(-65.4)"/><ellipse class="cls-3" cx="434.39" cy="405.25" rx="3.26" ry="3.98" transform="translate(-159.34 425.37) rotate(-44.95)"/><path class="cls-8" d="M370.76,295.91a70,70,0,0,0,16.81,36,25.41,25.41,0,0,0,17.08-11.05c-6.53-6.84-13.29-14.22-19.82-21.06-4-4.22-9.33-7.64-13.37-11.86C369.31,290.71,370.25,292.47,370.76,295.91Z"/><path class="cls-8" d="M494.84,439.48c.27,9.84-.77,17.87-5.1,26.68,5.42-.85,9.75.89,14.81-1.17s9.74-5.47,12.21-10.26,2.32-11.1-1.24-15.26c-3.31-3.88-8.69-5.23-13.69-6.37-1.74-.39-3.6-.78-5.25-.14S493.8,438.06,494.84,439.48Z"/><path class="cls-8" d="M556.4,566c-5.95-13.94-7.5-25.94-21.65-34,7.19,11.41,9.65,20.76,10.3,34.23C548.79,565,552.45,565.83,556.4,566Z"/><path class="cls-8" d="M408.47,498.48a111.31,111.31,0,0,0,47.2,20.77,90.72,90.72,0,0,1-1.3,39.65,3.79,3.79,0,0,0,4.19,1.83,10.59,10.59,0,0,0,4.21-2.46,11.93,11.93,0,0,1,4.16-2.56,68.62,68.62,0,0,0,.65-33.63,149.55,149.55,0,0,0,54.95,1.35,87.5,87.5,0,0,1,4.67,28.41,6.69,6.69,0,0,0,6.3,3.19,11.31,11.31,0,0,1,7.57-2.92c-1.43-9.84-3.51-19.56-7.34-28.74,7-1.19,13.44,2.73,17.34,8.66s5.36,13.08,6.75,20q3,14.87,5.9,29.73c.63,3.16,1.26,6.43.57,9.58s-3,6.16-6.25,6.55c1.56,1.66,2.86,3.49,4.43,5.15,3.79-.1,6.88-4.06,7.93-7.71s.52-7.54,0-11.29l-2.6-18.32,2-.32a114.17,114.17,0,0,0-28.14-67.27C498.86,511,451.45,510.68,408.47,498.48Z"/><path class="cls-8" d="M369.19,603.29a44.56,44.56,0,0,0,41.44-4.73c2.12-1.48,4.15-3.17,6.58-4s5.46-.73,7.25,1.14c1.2,1.26,1.64,3,2.41,4.59,2.72,5.52,9.89,7.92,15.81,6.26s10.5-6.64,12.93-12.28,3-11.92,3.08-18.07c6.19,7.52,6.79,19,2.86,27.91a26.44,26.44,0,0,1-47.18,2.41C400.32,613.3,382.44,611.57,369.19,603.29Z"/><path class="cls-8" d="M446.79,698A28.14,28.14,0,0,1,450,717.9,24.45,24.45,0,0,1,438.31,720a18.92,18.92,0,0,1,3.35,15.53A18.61,18.61,0,0,1,432,748a28.54,28.54,0,0,0,7.39,1.7,10.05,10.05,0,0,0,7.31-2c2.44-2,3.31-5.36,3.9-8.49a99.44,99.44,0,0,0,1.68-21A18.92,18.92,0,0,0,465,715.11c-1.83-6.37-3.3-12.6-5.13-19C455.9,697.12,450.87,698.22,446.79,698Z"/></svg>