<svg id="Layer_1" data-name="Layer 1" xmlns="http://www.w3.org/2000/svg" viewBox="0 0 1000 1000"><defs><style>.cls-1{fill:#ff8f06;}.cls-2{fill:#d14f1b;}.cls-3{fill:#fffffd;}.cls-10,.cls-3{opacity:0.3;}.cls-4{fill:#f59b95;}.cls-5,.cls-6{fill:#470000;}.cls-13,.cls-6{opacity:0.4;}.cls-10,.cls-13,.cls-7{fill:#fff;}.cls-8{fill:#e21d26;}.cls-9{fill:#1381d8;}.cls-11{fill:#ff87a1;}.cls-12{fill:#004063;}</style></defs><path class="cls-1" d="M566.37,332.69c-7.81-7.13-7.54-4.38-17.38-8.79l79.67-62.71L629,261c20.44,48.52-3.87,97.16-15.78,113.33C594.91,363.18,581.88,346.84,566.37,332.69Z"/><path class="cls-1" d="M462.54,325c-9.67,4.77-9.5,2-17.05,9.43-15,14.7-27.4,31.49-45.27,43.34-9.68-12.17-31.69-43.11-29.79-76.87.56-9.84,1.73-29,5.95-40.13l.32.14,36.12,26.66Z"/><path class="cls-2" d="M416.43,288.55c-.67,1.6-5.59,6.64-6.64,8-1.87,2.48-4.36,5.24-7.44,4.86-2.48-.3-4.05-1.64-6.28.14-1.82,1.47-2.26,3.28-4.87,3.66-1.87.27-3.75-.27-5.62-.1s-2.83,1-4.43,1.77A9.94,9.94,0,0,1,371,305.22c-1.26-1.05-.39-9.33-.36-11,0-3.85.27-7.71.68-11.54.23-2.11,3.42-24.88,4.29-24.56Z"/><path class="cls-2" d="M597.26,284.57a21.6,21.6,0,0,0,2.39,4.69c1.63,2.64,3.85,5.62,7,5.53,2.5-.06,4.18-1.25,6.23.74,1.68,1.63,1.95,3.48,4.51,4.09,2,.48,4.09,0,6.12.54a26.1,26.1,0,0,1,4.82,2c.88.41,6.83,2.13,7.63,2.38,1-9.81-1.86-31.69-4.26-43.35L629.72,258Z"/><polygon class="cls-3" points="448.53 330.47 374.33 261.98 375.19 259.3 458.11 324.44 448.53 330.47"/><path class="cls-4" d="M391.33,299.52s.68,45,19.89,63.61l11.07-1.72c3.93-6.06,12.75-14.25,17.8-20.78Z"/><path class="cls-5" d="M412.77,365.77a2.66,2.66,0,0,1-1.9-.8c-27.39-27.74-22.41-64.29-22.18-65.84a2.66,2.66,0,0,1,4.36-1.65l48.76,41.1a2.67,2.67,0,0,1-3.44,4.09L393.63,305c-.3,10.69,1.31,36.29,21,56.27a2.67,2.67,0,0,1,0,3.78A2.64,2.64,0,0,1,412.77,365.77Z"/><path class="cls-5" d="M403.29,379.25a2.63,2.63,0,0,1-2-.89c-.52-.57-51.21-58-27.69-122.61a2.64,2.64,0,0,1,1.78-1.66,2.67,2.67,0,0,1,2.38.47l86.43,68.38a2.67,2.67,0,1,1-3.31,4.19l-83.47-66c-19.36,60.08,27.37,113.15,27.85,113.69a2.68,2.68,0,0,1-2,4.46Z"/><path class="cls-4" d="M619.24,295.82s1,44.94-17.57,64.29l-11.12-1.32C586.4,352.88,577.28,345,572,338.66Z"/><polygon class="cls-3" points="565.05 328.79 632.92 262.1 630.29 256.88 554.03 319.91 565.05 328.79"/><path class="cls-5" d="M600.12,362.8a2.63,2.63,0,0,1-1.8-.7,2.67,2.67,0,0,1-.17-3.77c19-20.69,19.68-46.33,19-57L573.8,340.64a2.67,2.67,0,0,1-3.59-3.95l47.23-42.85a2.68,2.68,0,0,1,2.65-.55,2.65,2.65,0,0,1,1.77,2c.29,1.54,6.59,37.89-19.77,66.61A2.69,2.69,0,0,1,600.12,362.8Z"/><path class="cls-5" d="M610.08,375.93a2.71,2.71,0,0,1-1.71-.62,2.67,2.67,0,0,1-.34-3.76c.42-.51,41.6-51,19.91-110.22L550.7,326a2.67,2.67,0,1,1-3.42-4.1l80.09-67a2.73,2.73,0,0,1,2.36-.55,2.68,2.68,0,0,1,1.83,1.59c25.84,63.68-19,118.54-19.43,119.09A2.68,2.68,0,0,1,610.08,375.93Z"/><path class="cls-6" d="M397.39,310.84a72.83,72.83,0,0,0,20.08,36.21,26.48,26.48,0,0,0,16.94-12.73c-7.28-6.62-14.84-13.8-22.13-20.42-4.5-4.09-11.71-8.23-16.21-12.32C394,304.57,396.61,307.31,397.39,310.84Z"/><path class="cls-1" d="M670.87,588.47c-1,1.42-1.93,2.85-2.89,4.29-12.63,18.77-25.26,38.29-42.26,50.85-.76.57-1.53,1.13-2.31,1.66-13.12,9-29.08,13.67-43.82,11.24a43.67,43.67,0,0,1-20.15-8.88l9.67-51.74c7.29-14.46,19.71-25.06,33.49-28.6a51.13,51.13,0,0,1,21.82-.53,74.71,74.71,0,0,1,13.69,3.88C649.54,575,660.24,581.77,670.87,588.47Z"/><path class="cls-7" d="M670.87,588.47c-1,1.42-1.93,2.85-2.89,4.29-12.63,18.77-25.26,38.29-42.26,50.85a6.31,6.31,0,0,1-.33-.75c-1.52-4,0-8.7,2.21-12.14s5.15-6.22,7.09-9.9,2.62-8.91.22-12.18c-3-4-9.32-3.5-11.1-8.44-1-2.87.15-6.22,1.79-8.64s3.76-4.42,5-7.13a14.44,14.44,0,0,0-.62-12.58c-1.07-2-4.23-3.23-5.61-5.09a74.71,74.71,0,0,1,13.69,3.88C649.54,575,660.24,581.77,670.87,588.47Z"/><path class="cls-5" d="M587.74,659.83a47.73,47.73,0,0,1-30-10.11,2.67,2.67,0,0,1,3.32-4.19c19.61,15.51,45,8.37,60.8-2.46,16.86-11.56,29.59-30.54,41.91-48.9l3.3-4.9c-9.63-6.06-19.57-12.14-30-16.14-12.38-4.76-23.79-5.86-33.89-3.26-13,3.34-24.85,13.51-31.77,27.22a2.67,2.67,0,1,1-4.76-2.4c7.59-15.07,20.76-26.28,35.2-30,11.2-2.88,23.7-1.72,37.13,3.45,11.72,4.51,22.66,11.4,33.24,18.07a2.66,2.66,0,0,1,.78,3.76c-1.61,2.37-3.22,4.77-4.83,7.17-12.6,18.77-25.63,38.19-43.33,50.32C612.94,655.69,600,659.83,587.74,659.83Z"/><path class="cls-6" d="M667.76,592.82c-9.52,19.1-26.7,40.34-44.36,52.45a66.67,66.67,0,0,1-38.84,11.48c-5.52-.15-11.25-2.13-14.69-6.45s-3.83-11.22,0-15.15c4-4.08,10.58-3.71,16.32-3.64a85.45,85.45,0,0,0,46.88-13.73A89,89,0,0,0,652,601.26C655.41,597.39,661.77,590.5,667.76,592.82Z"/><path class="cls-1" d="M587.76,599.91c-.69-7.63-1.68-15.25-3.1-22.8-1.37-7.39-.59-11.7.48-19.16a71.31,71.31,0,0,0-6.53-41.5c-1.76-3.59-4-7.23-7.65-9.24-3.38-1.87-7.47-2.09-11.4-2.26-8-.36-17.38.45-25.11-1.73-6.31-1.78-10.83-4.36-17.71-4.89-13.9-1.09-27.64-.39-41.52.19-10.39.43-20.8-8.35-30.72-2.17-5.17,3.24-7.1,9.35-8.66,14.95-6.06,21.75-4.85,23.65-8,45.93-.31,2.15-.72,4.67-1.2,7.49-3,17.56-8.82,46-7.39,59.48.75,7,2.54,13.58,4.18,20.34,1.7,7,1.57,14.74,2.19,21.91,1,12.09,2.12,24.35,5.38,36,.09.34.19.7.3,1a84.29,84.29,0,0,0,4.43,11.92c3.6,7.71,8.31,14.77,15.93,19.35.76.47,1.55.92,2.35,1.35,6.77,3.71,14.49,6.38,22.38,5.91.75-.06,1.51-.13,2.26-.24,5.39-.74,11.76-3.13,15.11-7.33,2.34-2.92,1.92-6.08,1.8-9.5-.21-5.89.21-11.69.54-17.47.39-6.77.65-13.55-.39-20.5-.62-4.17-1.82-9.58,4.13-10.7,2.07-.39,4,.92,6,1.17,3.5.45,4.95.08,8.47,0-4.55,17.73-3.78,36-2.33,54.22.2,2.6.56,5.37,2.39,7.34,5.32,5.65,16.75,1.76,23.4,1.37,11.33-.67,20.39-7,26.91-15.6,5.82-7.71,9.28-16.73,12.16-25.75,1.06-3.33,2-6.66,3-10A252.44,252.44,0,0,0,587.76,599.91Z"/><path class="cls-2" d="M495.53,725c.13,3.43.55,6.59-1.79,9.5-3.35,4.21-9.72,6.59-15.11,7.34C470,743,461.4,740.21,454,736.15a46.26,46.26,0,0,1-12-13.74c-3.32-5.87-7-13-10.69-18.88-.3-.45-.59-.91-.87-1.34l.57.29a80.74,80.74,0,0,0,64.89,3.6c.08.47.15.95.22,1.44C495.75,713.3,495.33,719.09,495.53,725Z"/><path class="cls-3" d="M476.37,742.05c-7.89.47-15.61-2.2-22.38-5.91-.8-.43-1.59-.88-2.35-1.35-7.62-4.58-12.33-11.64-15.93-19.35a84.29,84.29,0,0,1-4.43-11.92c-.11-.34-.21-.7-.3-1-3.26-11.68-4.35-23.94-5.38-36-.62-7.17-.49-14.89-2.19-21.91-1.64-6.76-3.43-13.31-4.18-20.34-1.43-13.49,4.35-41.92,7.39-59.48.5,15.5,6.26,156.28,49,176.92Z"/><path class="cls-2" d="M510.21,725c-.13,3.43-.55,6.59,1.79,9.5,3.35,4.21,9.72,6.59,15.11,7.34,8.68,1.2,17.23-1.61,24.65-5.67a46.26,46.26,0,0,0,12-13.74c3.32-5.87,7-13,10.69-18.88l.87-1.34-.58.29a80.71,80.71,0,0,1-64.88,3.6c-.08.47-.15.95-.22,1.44C510,713.3,510.41,719.09,510.21,725Z"/><path class="cls-1" d="M588.12,640.84l-.18-1.66-7.65-70.29-2.74-25.17-3.5-32.13-.63-5.88C648.91,581.37,603.07,644.61,588.12,640.84Z"/><path class="cls-2" d="M613.22,582.21c-.58,3.85-1.21,7.83-3.27,11.1s-6,5.65-9.67,4.63a14.93,14.93,0,0,1-4.17-2.25,10.27,10.27,0,0,0-4.29-1.93,3.93,3.93,0,0,0-4.05,1.87c-.68,15.71,0,31.18-.29,44.59.83-.41,1.61,1.21.78,1.62a45.79,45.79,0,0,0,26-25.05C619.12,605.18,618.16,593.78,613.22,582.21Z"/><path class="cls-5" d="M461.59,664a92.81,92.81,0,0,0,50.32,9.79c12.88-.82,25.69-3.68,37.22-9.47a78.13,78.13,0,0,0,11.23-6.63c-1.59,4.4-5,8-8.81,10.69C530.66,683,478,686.28,461.59,664Z"/><path class="cls-5" d="M428.05,556.17c-2.35,24.12-5.11,48-4.26,72.18,2.27,40.58,8.62,123.44,66.62,109.63,3.17-6.86,2.54-15.77,2.84-23.66,0-12-.75-24.07-1.62-36.11a2.67,2.67,0,0,1,5.32-.47c1.22,12.12,2.11,24.28,2.29,36.54-.36,7.16,1.49,27.87-7.53,29.85-49.16,12.57-66.5-40.61-70.68-79.07-4.27-36.28-4.86-73.94,7-108.89Z"/><path class="cls-5" d="M579.18,556.17c11.9,35,11.29,72.71,7,109-4,36.64-20.48,89.34-67.48,79.63a33.77,33.77,0,0,1-4.56-1.14c-2.64-1.31-3.63-3.86-4.35-6.23-3.87-19.9-1-40.21.49-60.13a2.67,2.67,0,0,1,5.32.47C514.73,689.86,514,702,514,714c.17,7.75-.1,17.61,2.76,24-.06-.05-.28-.08,0,0l1,.24c57.34,12.78,63.37-70.25,65.62-109.72.87-24.22-1.9-48.12-4.25-72.28Z"/><path class="cls-5" d="M589.43,643.67a8.11,8.11,0,0,1-2-.24,2.67,2.67,0,0,1,1.31-5.18c2.79.72,9.82-3.24,15.93-14,14.61-25.69,13.56-69.83-33.17-116.66a2.67,2.67,0,1,1,3.78-3.77c48.85,48.95,49.61,95.67,34,123.07C603.52,637.14,595.64,643.67,589.43,643.67Z"/><path class="cls-7" d="M573.23,543.54c0,37.38-31.27,91.05-69.85,91.05s-69.85-53.67-69.85-91.05,31.27-44.32,69.85-44.32S573.23,506.16,573.23,543.54Z"/><path class="cls-6" d="M578.77,690.6c-.4,1.49-.82,3-1.27,4.44-3.62,12-8.8,23.77-17.56,33.15s-21.58,16.08-35,15.71a18.23,18.23,0,0,1-8.09-1.78c-2.43-1.29-4.36-3.61-4.47-6.2-.13-3,60.82,5.73,69.55-148.5.17-3,2-6.15,3.75-2.37,3.54,7.88,1.88,20.19.22,28.31a36,36,0,0,0-1.21,8.21c.18,6.88,8.81,12.83,11.47,4.16a81.73,81.73,0,0,0,4-25.35c-.18-12.45-3-26-9.71-37-.56-.92-1.15-1.83-1.75-2.73a66.66,66.66,0,0,0-9.31-10.9,69.18,69.18,0,0,0-29.79-16.64c-15.3-4-31.16-2.55-46.83-3-15.32-.42-31.39-2.17-46.07-6.35S427.83,512,419,500.21l27.7,1.15c8.06.34,15.78-.24,23.71-.2,18.4.1,36.81.28,55.22.42l11.69.09c5.91,0,11.88.09,17.65,1.33,8,1.71,9.37-7.74,14.77-1.72l5.53,7.2c11.55,12.57,21.78,26.45,29.35,41.7,7.41,14.91,12.24,31.19,12.79,47.84a31.77,31.77,0,0,1-1.91,12.48A65.35,65.35,0,0,1,609,623.8a73.25,73.25,0,0,1-7.3,9.42c-1.93,2.15-3.5,5.63-6.57,6.4-2.18.54-4.59.39-6.58,1.39-3.7,1.87-4.09,6.55-4.16,10.46A160.76,160.76,0,0,1,578.77,690.6Z"/><path class="cls-8" d="M621.31,568.22a4.43,4.43,0,0,1-.71.73,14.68,14.68,0,0,1-4.44,2c-1.11.38-2.18.72-3.06,1.13-2.94,1.37-5.82,2.85-8.74,4.26l-.41.19c-3.39,1.64-8.43,5.31-12.17,5.65a22.27,22.27,0,0,1-5.44-.44,10.94,10.94,0,0,0-6.19.51c-3.22,1.32-5.75,3.66-8.2,6.17-1.74,1.8-3.44,3.68-5.3,5.32-10.72,9.51-26.61,10.88-40.65,8.05s-27.06-9.27-40.65-13.81a155.2,155.2,0,0,0-40-7.72c-5.37-.31-10.66-1.22-16-1.81A163.31,163.31,0,0,1,412,575.81a68.48,68.48,0,0,1-21.94-8.95l-.26-.39c.36-16.74,6.59-31.44,15.64-45.22,3.55-5.4,10.45-11.78,15.56-15.74a47.36,47.36,0,0,1,8.85-5.39c.78-.38,1.57-.73,2.37-1.07a61.29,61.29,0,0,1,7.91-2.67c9-2.41,18.3-3,27.58-3.33a445,445,0,0,1,60.1,2c12.05,0,24.35,3.71,36,6.29,4.33,1,7.49,1,11.3,3.59l.68.46c5,3.41,9.88,7,14.82,10.52l1.47,1c1.74,1.24,3.48,2.5,5.18,3.81A55.55,55.55,0,0,1,607.84,531c4.7,6.13,7.41,13.51,9.86,20.86l.75,2.23c.49,1.48,1.45,3.43,2.29,5.45C622,562.67,623,566,621.31,568.22Z"/><path class="cls-5" d="M569.87,501.85c30.06,2.76,45.85,38.57,55.66,63a2.68,2.68,0,0,1-1.41,3.39c-11.55,5.1-22.78,11.16-34.55,16.37a2.69,2.69,0,0,1-3.76-2.4c.12-12.52-4.41-23.92-9.06-35.54,9,9.39,14,22.46,14.4,35.45l-3.76-2.39c11.55-5.1,22.78-11.16,34.55-16.37l-1.41,3.38c-5-13.13-11-26-19-37.38-7.63-10.76-18.33-21.39-32-22.22-3.49-.22-3.22-5.48.3-5.33Z"/><path class="cls-9" d="M587.12,681.94c-4.43,1.3-9,2.62-13.72,3.92-21.13,5.81-44.37,11.06-65.19,11.46.79-2.69,2.64-7.47,4.21-11.72.94-2.51,1.77-4.83,2.23-6.42-7-1-13.93-.74-20.95-1.75,0,1.9,1,5,2,8.13,1.31,4,2.77,8.13,2.83,10.51C475,693.54,445,687,421,684.14l-2.62-.3q-1.69-9.2-2.48-18.5c-2.36-28.16,1.45-56.78,9.89-83.85.82-2.62,1.68-5.24,2.59-7.84,7-.92,15-2.64,22.08-3.57q1.15-28.47,2.33-56.93c1.51.34,3.39.61,5.43.87,5,.65,11,1.14,14.71,2,1.52,18.64,4.4,37.63,5.92,56.27,14.79-4.81,27.35-4.83,41.31,1.47a317.16,317.16,0,0,1,6.49-67.32c7.35,1.16,13.79,3.59,21.14,4.75a168.06,168.06,0,0,0,1.7,63.68c6.38-4,31.72-2.86,36.84.7q0,3.11,0,6.23c.18,28.45.49,57.38.7,85.92Q587.09,674.83,587.12,681.94Z"/><path class="cls-10" d="M457.94,569.84a7.26,7.26,0,0,1-6,7.77c-6,1-11.44,1.78-17.25,5.3-3.13,18.38-13.44,78.85-9.06,87l-.28.2c-3.68,2.8-2.13,8.16-3.85,12.61a15,15,0,0,0-.5,1.47,8.91,8.91,0,0,0,.4,7,19.38,19.38,0,0,1-4.44-.41c-1.3-.66-2.59-1.33-3.87-2-.86-3.81.22-20.44,1.53-24l1.28.7c-2.36-28.16,1.45-56.78,9.89-83.85.82-2.62,1.68-5.24,2.59-7.84,6.72-2.74,14.65-4.94,22.08-3.57q1.15-28.47,2.33-56.93c1.51.34,3.39.61,5.43.87a12.45,12.45,0,0,1,2.41,1.38C456.83,532.33,456.42,552.06,457.94,569.84Z"/><path class="cls-5" d="M508.21,700a2.66,2.66,0,0,1-2.56-3.41c.62-2.13,1.82-6,3-9.86.75-2.42,1.51-4.84,2.12-6.84-2.17,0-4.35.09-6.61.25a69,69,0,0,1-7.26.25c.46,1.69,1.12,3.68,1.73,5.53,1.29,3.88,2.51,7.55,2.57,10.09a2.65,2.65,0,0,1-.86,2,2.68,2.68,0,0,1-2.09.69C486,697.4,471.77,695,458,692.58s-27.83-4.78-39.94-6.08a2.69,2.69,0,0,1-2.35-2.17c-6.53-35.29-3-73.87,10.1-111.55a2.72,2.72,0,0,1,1.54-1.61c8-3.18,14.85-4.56,20.51-4.14l2.23-54a2.63,2.63,0,0,1,1-2,2.68,2.68,0,0,1,2.21-.5c2.46.55,6.18,1,9.77,1.38s7.61.85,10.36,1.46a2.68,2.68,0,0,1,2.08,2.4c.76,9.27,1.87,18.81,2.95,28,1,8.21,1.95,16.67,2.7,25,13-3.32,24.16-3,36.21,1a320.74,320.74,0,0,1,6.58-64,2.69,2.69,0,0,1,3-2.1,110.55,110.55,0,0,1,10.83,2.43,105.23,105.23,0,0,0,10.32,2.32,2.62,2.62,0,0,1,1.75,1.07,2.66,2.66,0,0,1,.47,2,165.26,165.26,0,0,0,1.08,59.91c12.83-3.15,26.24-1,35.51,1.45a2.68,2.68,0,0,1,2,2.57c.1,17.49.26,35.19.41,52.89.16,17.9.32,35.81.42,53.5a2.67,2.67,0,0,1-1.92,2.58c-25.15,7.38-54.27,15-79.62,15.49Zm1.58-25.46a34.39,34.39,0,0,1,4.91.32,2.67,2.67,0,0,1,2.19,3.39c-.63,2.17-1.87,6.13-3.11,10.07l-1.94,6.22c23.21-1.07,49.48-7.85,72.6-14.59-.09-17-.25-34.25-.4-51.47-.15-17-.3-34-.4-50.85-9.17-2.23-21.81-3.83-33.39-.23a2.67,2.67,0,0,1-3.4-2,170.51,170.51,0,0,1-2.13-62.09c-2.84-.57-5.55-1.27-8.2-2s-5.18-1.35-7.8-1.87a311.62,311.62,0,0,0-5.92,64.18,2.7,2.7,0,0,1-1.15,2.24,2.65,2.65,0,0,1-2.5.29c-13.27-5.22-25.1-5.63-39.58-1.39a2.67,2.67,0,0,1-3.41-2.34c-.76-9.28-1.87-18.82-3-28-1-8.61-2-17.48-2.8-26.2-2.29-.38-5.12-.7-7.89-1-2.46-.27-5-.56-7.21-.9l-2.22,53.87a2.66,2.66,0,0,1-1,2,2.72,2.72,0,0,1-2.2.5c-4.91-1.06-11.43-.05-19.39,3-12.27,35.75-15.66,72.23-9.84,105.72,11.81,1.36,25.26,3.67,38.28,5.91,12.37,2.13,25.11,4.32,36.4,5.68-.46-1.66-1.11-3.6-1.71-5.41-1.29-3.89-2.51-7.55-2.57-10.1a2.67,2.67,0,0,1,3.05-2.7,46,46,0,0,0,9.75,0C505.78,674.67,507.76,674.53,509.79,674.53Z"/><path class="cls-6" d="M457.47,619.28l27.21.52,25,.47c5,.1,11.64,1,16.2-1.59s10.19-4,15.44-2.73a16.61,16.61,0,0,1,10.51,9c2.08,4.28,2.08,9.19,2.12,13.95.16,16.82-27.94,18-36.73,17.87a332.1,332.1,0,0,1-35-2.11c-7.72-.89-16.52-1.43-23.74-5C445,643.12,461.27,633.84,457.47,619.28Z"/><path class="cls-1" d="M423.56,503.91c-14.24-3.73-24.38-16-33.15-27.82s-18-24.52-31.68-29.87c-7.07-2.76-15.73-3.07-21.67,1.66-4,3.19-6.16,8.2-7.11,13.22-2.22,11.77,1.49,23.88,6.55,34.74a140.81,140.81,0,0,0,53.29,59.86C392.17,534.86,405.75,515,423.56,503.91Z"/><path class="cls-2" d="M336.49,496.7c.79,2.2,1.63,4.38,2.62,6.56,3.25-7.54,11.49-11.52,19.31-14s16.26-4.43,22.27-10a13.86,13.86,0,0,0,4.28-6.78c1.25-5.42-3.62-9-6.7-12.78a56.82,56.82,0,0,0-12.62-12.05c-6.87-4.49-15.9-6.49-23.4-3.13-8.76,3.92-13.23,14.22-13.14,23.83.06,6.35,1.8,12.56,3.93,18.49C334.25,490.12,335.31,493.42,336.49,496.7Z"/><path class="cls-3" d="M330.08,461.3c4.26-6.12,12-9.29,19.43-9.2s14.65,3.11,20.82,7.3,11.45,9.54,16.69,14.84c-4.13-9.48-10.11-18.29-18.74-24-6.57-4.35-14.52-7.28-22.29-5.95S330.19,453.43,330.08,461.3Z"/><path class="cls-5" d="M390.69,559.05a2.62,2.62,0,0,1-1.48-.45,160.06,160.06,0,0,1-33.89-29.8c-18.91-21.76-28.07-40.86-28.82-60.11-.33-8.45,1.29-14.91,5-19.74,5.74-7.53,17-10.55,27.28-7.34,7.88,2.46,15.35,8.21,22.19,17.1,2.83,3.68,5.38,7.59,7.85,11.38,2.34,3.59,4.76,7.3,7.37,10.72,11.17,14.65,26.84,23.37,42,23.37h.25a2.67,2.67,0,0,1,0,5.34h-.27c-16.79,0-34.06-9.51-46.23-25.47-2.73-3.58-5.2-7.37-7.6-11.05s-4.9-7.52-7.6-11c-6.16-8-12.74-13.13-19.55-15.25s-16.53-1-21.44,5.47c-2.85,3.74-4.16,9.23-3.88,16.29.7,18,9.44,36,27.51,56.82a154.82,154.82,0,0,0,32.83,28.86,2.67,2.67,0,0,1-1.49,4.89Z"/><ellipse class="cls-11" cx="353.96" cy="471.92" rx="8.88" ry="10.07" transform="matrix(0.97, -0.26, 0.26, 0.97, -109.07, 106.41)"/><ellipse class="cls-11" cx="339.76" cy="463.89" rx="2.96" ry="4.4" transform="translate(-228.71 550.33) rotate(-62.43)"/><ellipse class="cls-11" cx="347.08" cy="456.31" rx="2.96" ry="4.4" transform="translate(-160.72 190.17) rotate(-25.08)"/><ellipse class="cls-11" cx="357.22" cy="455.53" rx="4.4" ry="2.96" transform="translate(-147.65 738.76) rotate(-81.19)"/><path class="cls-6" d="M330.63,469.52c6.27,19.43,19.26,36.18,34.65,49.62s33.15,23.81,51.08,33.6c3.51,1.91,7.17,3.93,9.35,7.28a16.29,16.29,0,0,1,2.1,10.44c-.16,1.84-.77,3.63-.93,5.45-.11,1.33.47,2.81-1.15,3.55a5.34,5.34,0,0,1-3.12.14A81.14,81.14,0,0,1,390.31,567l.13-11.62c-15.83-9.2-29.69-23.58-40.71-38.1C339.1,503.27,330.26,487.09,330.63,469.52Z"/><path class="cls-9" d="M501.16,704c-28.26,4.92-57.72.09-84.23-13.3-1.3-.66-2.59-1.33-3.87-2-.86-3.81.22-20.44,1.53-24l1.28.7q4.59,2.48,9.45,4.72c22,10.2,47.71,16.71,70.42,15.5,1.35-.07,2.68-.16,4-.29C501.55,692.26,499.35,697,501.16,704Z"/><path class="cls-10" d="M425.91,671.78a31,31,0,0,0-5.7,20c-2.2-.56-4.83-1.09-6.16-2.93a8.81,8.81,0,0,1-1.24-4.93,43.29,43.29,0,0,1,3.39-18.11C418.8,668.77,422.2,670.49,425.91,671.78Z"/><path class="cls-5" d="M479.44,708.54A142.32,142.32,0,0,1,411.79,691a2.67,2.67,0,0,1-1.34-1.75c-1-4.27.14-21.46,1.64-25.56a2.64,2.64,0,0,1,1.57-1.58,2.72,2.72,0,0,1,2.23.16c24.49,13.51,55.53,20,83,17.37a2.7,2.7,0,0,1,2.84,2,47.7,47.7,0,0,1,1.07,11.48,43.63,43.63,0,0,0,.91,10.2,2.68,2.68,0,0,1-2.13,3.3A129.28,129.28,0,0,1,479.44,708.54ZM415.51,687c25.91,13.75,55.05,19,82.48,14.85a64.47,64.47,0,0,1-.5-8.62,56.05,56.05,0,0,0-.46-8c-26.74,2.06-56.42-4-80.58-16.53A109.75,109.75,0,0,0,415.51,687Z"/><path class="cls-9" d="M594.36,688.68a145.21,145.21,0,0,1-20.43,9.15A133,133,0,0,1,506.27,704c1.8-7-.4-11.75,1.41-18.74q2.35.22,4.74.33c18.66.86,39.3-3.44,58.2-10.68,5.66-2.17,11.17-4.6,16.42-7.23q3-1.49,5.79-3.05C594.14,668.24,595.23,684.87,594.36,688.68Z"/><path class="cls-5" d="M528,708.54a129.22,129.22,0,0,1-22.18-1.9,2.68,2.68,0,0,1-2.13-3.3,43.1,43.1,0,0,0,.91-10.2,47.22,47.22,0,0,1,1.08-11.48,2.66,2.66,0,0,1,2.84-2c27.49,2.63,58.53-3.86,83-17.37a2.68,2.68,0,0,1,3.8,1.42c1.49,4.09,2.59,21.29,1.63,25.55a2.65,2.65,0,0,1-1.33,1.76A142.46,142.46,0,0,1,528,708.54Zm-18.56-6.72C536.87,706,566,700.72,591.92,687a109.79,109.79,0,0,0-.95-18.31c-24.16,12.49-53.84,18.58-80.58,16.54a57.31,57.31,0,0,0-.46,8A64.47,64.47,0,0,1,509.43,701.82Z"/><path class="cls-12" d="M460.19,617.54h83.25c-3.64,12.37,8.88,22.69-2.87,28s-67.29,3.52-79-1.93S463.69,630,460.19,617.54Z"/><path class="cls-10" d="M476.54,645.12l-1,0a12.31,12.31,0,0,1-1-16.16c2.31-2.8,5.76-4.38,9.16-5.69a98.17,98.17,0,0,1,24.71-5.94c-15.45-.06-30.68,0-46.13,0-1.57,3.29-3.22,6.5-4.78,9.79-1.23,2.58-2.48,5.3-2.38,8.16.18,4.61,4,8.45,8.27,10.12S471.93,645.2,476.54,645.12Z"/><path class="cls-5" d="M509.77,651.43c-19.89,0-42.3-2.13-49.3-5.4-8.85-4.12-6.44-10.42-4.51-15.48,1.45-3.8,3-7.72,1.66-12.28a2.67,2.67,0,0,1,2.57-3.4h83.25A2.67,2.67,0,0,1,546,618.3c-1.32,4.49-.14,8.75,1,12.88,1.58,5.69,3.54,12.78-5.33,16.79C536.31,650.39,523.65,651.43,509.77,651.43Zm-46.39-31.22c.42,4.78-1.14,8.85-2.43,12.25-2.08,5.43-2.41,6.79,1.77,8.73,11.55,5.38,66.07,6.74,76.75,1.91,4.49-2,4.14-4.13,2.38-10.5-1-3.53-2.14-7.76-1.65-12.39Z"/><circle class="cls-12" cx="534.37" cy="580.03" r="8.76"/><path class="cls-10" d="M537,574.91c.37-.25.77-.57.78-1,0-.67-.79-1-1.44-1.12a12,12,0,0,0-5.09-.29,6,6,0,0,0-4.12,3.55c-.81,2-.61,5.1,2.23,4S534.62,576.55,537,574.91Z"/><path class="cls-5" d="M534.37,591.45A11.43,11.43,0,1,1,545.8,580,11.43,11.43,0,0,1,534.37,591.45Zm0-17.51a6.09,6.09,0,1,0,6.09,6.09A6.09,6.09,0,0,0,534.37,573.94Z"/><path class="cls-6" d="M541,573.82a1.63,1.63,0,0,1,1.36.69,18.55,18.55,0,0,1,3,5.26,11.54,11.54,0,0,1,.21,8.14,9.71,9.71,0,0,1-10.18,5.8,10.4,10.4,0,0,1-6.67-4c-.6-.78-1.92-2.55-1.82-3.6.14-1.33,2.14-2.08,3.23-2.23a37.5,37.5,0,0,1,4.24,0,4.74,4.74,0,0,0,3.78-1.59,5.33,5.33,0,0,0,.75-3.29,9.68,9.68,0,0,1,.26-3.4A2.38,2.38,0,0,1,541,573.82Z"/><circle class="cls-12" cx="462.47" cy="580.03" r="8.76"/><path class="cls-10" d="M465.08,574.91c.37-.25.77-.57.78-1,0-.67-.79-1-1.45-1.12a12,12,0,0,0-5.08-.29,6,6,0,0,0-4.12,3.55c-.82,2-.61,5.1,2.23,4S462.72,576.55,465.08,574.91Z"/><path class="cls-5" d="M462.47,591.45A11.43,11.43,0,1,1,473.9,580,11.44,11.44,0,0,1,462.47,591.45Zm0-17.51a6.09,6.09,0,1,0,6.09,6.09A6.09,6.09,0,0,0,462.47,573.94Z"/><path class="cls-6" d="M469.12,573.82a1.64,1.64,0,0,1,1.36.69,18.52,18.52,0,0,1,3,5.26,11.59,11.59,0,0,1,.22,8.14,9.72,9.72,0,0,1-10.19,5.8,10.36,10.36,0,0,1-6.66-4c-.6-.78-1.92-2.55-1.82-3.6.13-1.33,2.13-2.08,3.23-2.23a37.51,37.51,0,0,1,4.24,0,4.74,4.74,0,0,0,3.78-1.59A5.39,5.39,0,0,0,467,579a9.68,9.68,0,0,1,.26-3.4A2.38,2.38,0,0,1,469.12,573.82Z"/><path class="cls-6" d="M620.74,559.51a34.31,34.31,0,0,0-1.16-3.27c-.59-1.48-1.21-3-1.88-4.41a111.25,111.25,0,0,0-13.94-23.07c-2-2.5-4.14-5.26-6.52-8-1.17-1.35-2.39-2.69-3.66-4-4.42-4.42-11.3-10.4-17.66-11.7-3.91-.8-9.2,1.19-13.09,1.88l-13.67,2.44c-18.65,3.33-37.42,6.67-56.36,6.69a163.92,163.92,0,0,1-115.86-48.65c1.9,1.94,2.92,6.93,4.27,9.43a74.15,74.15,0,0,0,6.4,9.85,75.35,75.35,0,0,0,17,16.06c13.83,9.54,31.22,14.67,47.91,15.76,4.36.28,8.83.31,12.93,1.8,8.52,3.11,8.6,10.81,9.79,18.54,1.48,9.58,2.91,19.17,4.39,28.75a6.64,6.64,0,0,0,1.1,3.26c1.74,2.15,5.14,1.39,7.73.43.6-.22-.15-12.3-.15-13.6q0-7.1.17-14.17c.1-4.3-1.82-20.67,4.23-21.25,3.08-.29,7,.95,10.16,1,4.72.09,9.45.06,14.17-.06,9.45-.25,18.89-.88,28.31-1.69l1-.09a112.73,112.73,0,0,0,.18,12.33l1.59,29.86c.21,4,.44,8.15,1.86,11.93,2.67-.09,6.46-.27,9.13-.35a159.3,159.3,0,0,1,6.22-55.58l4.32-.44.18,0a30.91,30.91,0,0,1,31.52,18.26A62.05,62.05,0,0,1,606.17,555c-20.46,30-15,30.3-21.92,8.42l-7.49-16.75c.86,3.64-6.28,10.79-4.81,41.74.64,13.29,3.25,27.15,4.23,39.86,1.21,15.73,0,31.88-5.56,46.61-.25.66-.52,1.33-.79,2,1.91,1.76,2.56,4,3.11,6.53.17.8.33,1.61.46,2.42a50.48,50.48,0,0,1,.53,12,145.21,145.21,0,0,0,20.43-9.15c.87-3.81-.22-20.44-1.53-24Q590,666.2,587,667.69c-.21-28.54-.52-57.47-.7-85.92a22.27,22.27,0,0,0,5.44.44c3.74-.34,8.78-4,12.17-5.65l.41-.19c3.08-1.42,8-3,11.8-5.39a13,13,0,0,0,4-3.6,6.65,6.65,0,0,0,1.12-2.91A12.88,12.88,0,0,0,620.74,559.51Z"/><path class="cls-1" d="M635.5,445.39c-5.35,31-34.17,58.87-110.94,68.13q-5.26.65-10.83,1.15c-3.55.33-7.24.54-11,.65-2.37.07-4.79.1-7.22.07-35.89-.36-77.78-10.66-103.09-32.56-8.35-7.25-14.91-15.75-18.84-25.58a58,58,0,0,1-3.75-14.94c-2-17.46,3.47-38.29,19.52-62.7l-.44-.47c15-10.42,23.74-26.53,35.88-39.86a123.39,123.39,0,0,1,16.06-15.08,79.14,79.14,0,0,1,8.54-5.74c.43-.25.87-.5,1.32-.71,9.68-5.11,20.44-5.85,31.11-7.65a3.8,3.8,0,0,0,3.33-4.52,94.79,94.79,0,0,1,45.18,5.22c1.26.45,2.52.93,3.8,1.45l1-.67,1.08-.69c5.93.48,8.71,2.16,14,4.18,3.74,1.42,8.6,4.54,12,6.56,2.81,1.65,7,1.82,9.62,3.81,16.64,12.54,30.06,30.91,42.73,46.16a4.44,4.44,0,0,0,.92.84c.08.14.17.27.25.39C629,393.72,639.79,420.56,635.5,445.39Z"/><path class="cls-7" d="M635.5,445.39c-5.35,31-34.17,58.87-110.94,68.13q-5.26.65-10.82,1.15c-3.57.33-7.26.55-11,.65l-2-.07c-1.72.07-3.45.12-5.2.14-47.75-.49-106.11-18.55-121.94-58.15a57.46,57.46,0,0,1-3.74-14.93c10.43-7.22,29-13,61.42-6.86,14.6,2.76,29.43-1.52,40.92-10.93.44-.36.9-.71,1.37-1.06,5.92-4.84,14.6-8.53,27.17-8.16,12.56-.37,21.24,3.32,27.17,8.16.47.35.92.7,1.36,1.06,11.42,9.36,26.16,13.74,40.67,11C607,428.42,626.05,436.92,635.5,445.39Z"/><path class="cls-3" d="M572.35,327.05a209.16,209.16,0,0,0-74.17-8.77,107.5,107.5,0,0,0-78,40.7,201.5,201.5,0,0,0-30.75,54.85c-4.44,12.08-7.74,24.77-7.4,37.64.3,11.18,3.57,22.56,10.35,31.36-8.35-7.25-14.91-15.75-18.84-25.58a58,58,0,0,1-3.75-14.94c-2-17.46,3.47-38.29,19.52-62.7l-.44-.47c15-10.42,23.74-26.53,35.88-39.86a123.39,123.39,0,0,1,16.06-15.08,79.14,79.14,0,0,1,8.54-5.74c.43-.25.87-.5,1.32-.71,9.68-5.11,20.44-5.85,31.11-7.65a3.8,3.8,0,0,0,3.33-4.52,94.79,94.79,0,0,1,45.18,5.22c1.26.45,2.52.93,3.8,1.45l1-.67,1.08-.69c5.93.48,7.49,2.86,12.76,4.89a104.62,104.62,0,0,1,13.26,5.85c2.81,1.65,7,1.82,9.62,3.81C572,326,572.2,326.5,572.35,327.05Z"/><path class="cls-6" d="M626.57,386.87A98.7,98.7,0,0,0,613.63,368c-.2-.23,14.35-28.25,15.54-31.65a100.74,100.74,0,0,0,5.64-25.24c.56-6.86,5.63-47.7-4.52-48.34-7.31,23.34-22.14,55.47-37.8,73.14-8.23,9.28-3.51,14.84,1.07,24.41A204.91,204.91,0,0,1,605,391.06a108.41,108.41,0,0,1,3.39,17.17l0-1a93.83,93.83,0,0,1,.31,19c-1.93,22.6-17,42.87-35.67,54.9-17.76,11.46-38.83,16.79-59.8,19.43a266.78,266.78,0,0,1-102.45-7.07c1.68.45,4.11,3.45,5.56,4.53a79.32,79.32,0,0,0,7.07,4.68,82.79,82.79,0,0,0,14.77,6.84A117,117,0,0,0,469,515.2a376.54,376.54,0,0,0,76.66-3.05q2.28-.33,4.56-.69c13.42-2.15,26.88-5.07,39.08-11,19.93-9.78,37.89-26.43,44.82-47.52S636.82,406.56,626.57,386.87Z"/><path class="cls-5" d="M497.67,518.06c-47.14,0-109.41-16.9-126.58-59.83-12.4-31,1.49-68.69,41.27-112,.55-.71,68.91-85.53,170.72-13.73,14.28,8.82,66.35,67.34,55.56,116.88-7.88,36.15-46.15,58.62-113.76,66.78q-5.29.63-10.89,1.15C508.84,517.81,503.36,518.06,497.67,518.06Zm4.27-209.3a104.65,104.65,0,0,0-40.6,8.3,122.28,122.28,0,0,0-44.91,32.64c-38.41,41.81-51.95,77.61-40.38,106.55,18,45.06,92.68,59.94,137.45,55.76,3.67-.34,7.26-.72,10.75-1.14C589.35,503,626.08,482,633.42,448.26,643.5,402,593.26,345,580.22,337l-.15-.1C553.49,318.17,527.34,308.76,501.94,308.76Z"/><ellipse class="cls-5" cx="448.26" cy="410.16" rx="21.41" ry="19.4" transform="translate(-72.69 722.87) rotate(-73.43)"/><ellipse class="cls-7" cx="455.69" cy="402.2" rx="6.66" ry="8.62" transform="translate(-150.42 356.99) rotate(-37.17)"/><ellipse class="cls-13" cx="438.39" cy="420.62" rx="3.39" ry="4.15" transform="translate(-166.95 472.24) rotate(-48.69)"/><ellipse class="cls-5" cx="552.7" cy="410.16" rx="19.4" ry="21.41" transform="translate(-94 174.62) rotate(-16.57)"/><ellipse class="cls-7" cx="545.27" cy="402.2" rx="8.62" ry="6.66" transform="translate(-104.65 593.74) rotate(-52.83)"/><ellipse class="cls-13" cx="562.58" cy="420.62" rx="4.15" ry="3.39" transform="translate(-137.66 476.05) rotate(-41.31)"/><path class="cls-5" d="M522,432.54c.1,5.42-9,16.15-20.37,16.36s-20.87-10.18-21-15.6,9.07-10,20.48-10.19S521.89,427.12,522,432.54Z"/><path class="cls-5" d="M501.81,462.45a2.68,2.68,0,0,1-2.67-2.67V441.59a2.68,2.68,0,0,1,5.35,0v18.19A2.68,2.68,0,0,1,501.81,462.45Z"/><path class="cls-5" d="M501.22,464.56c-6.82,0-12.69-3-16.52-5.7a2.67,2.67,0,1,1,3.05-4.38c4.88,3.39,10.14,5.06,14.83,4.69,5.16-.4,9.82-3.59,11.32-7.76a2.67,2.67,0,0,1,5,1.81c-2.22,6.18-8.62,10.71-15.93,11.28C502.4,464.54,501.8,464.56,501.22,464.56Z"/><ellipse class="cls-7" cx="450.92" cy="368.93" rx="13.49" ry="6.74"/><ellipse class="cls-7" cx="552.7" cy="368.93" rx="13.49" ry="6.74"/><path class="cls-6" d="M472,672.68c-2.12,2.59,1.83,8.68,3.5,12A107.93,107.93,0,0,1,483.13,706c2.83,11,5.84,26.42-.62,36.83,5.59-.8,5.87-2.82,11.46-3.63,1.83-.26,3.76-16.41,4-18.41a117.33,117.33,0,0,0,.89-19.29c-.14-4.1-.49-8.2-1-12.27-.29-2.16-2.22-6.21-.7-8.07a7.72,7.72,0,0,1,3.42-2l8-3.06c-10.69-1.81-21.16-3.76-32-4.51C474.14,671.32,472.72,671.8,472,672.68Z"/><path class="cls-6" d="M501.05,436.35c3.28,9.89,4.28,17.58,2.68,27.89a22.41,22.41,0,0,0,14.77-5.06c4.38-3.68,8-8.6,9-14.24s-1.09-12-5.9-15.1c-4.47-2.89-10.22-2.58-15.53-2.16-1.84.14-3.81.34-5.24,1.5S499.58,435.22,501.05,436.35Z"/><path class="cls-5" d="M426.66,581.35l-.31,0c-13-1.52-25.19-5.65-38.33-13a2.67,2.67,0,0,1-1.34-2.69l.53-3.86c1.64-12,3.65-23.73,10.26-35.28a75.94,75.94,0,0,1,23.61-25.41,2.66,2.66,0,0,1,3.7.74,2.68,2.68,0,0,1-.74,3.71,70.42,70.42,0,0,0-21.93,23.62C396,539.87,394.06,551,392.5,562.5l-.28,2C404.11,571,415.2,574.65,427,576a2.67,2.67,0,0,1-.31,5.33Z"/></svg>