<svg id="Layer_1" data-name="Layer 1" xmlns="http://www.w3.org/2000/svg" viewBox="0 0 1000 1000"><defs><style>.cls-fds-1{fill:#8cc63f;}.cls-fds-2{fill:#dfffa1;}.cls-fds-3{fill:#754c24;}.cls-fds-4{fill:#603813;}.cls-fds-5{fill:#c69c6d;}.cls-fds-6,.cls-fds-7{fill:#42210b;}.cls-fds-7{opacity:0.4;}</style></defs><path class="cls-fds-1" d="M493.52,443.49c-8.56-2.72-17.33-6-23-12.82-5.36-6.42-7.08-15-7.41-23.12-.38-9.42,3-18.53,2.86-28a46.31,46.31,0,0,0-10.15-28.19c10.84,5,21.25,9.54,30.53,17,12.84,10.34,23.54,22.53,24.32,39.83a46.08,46.08,0,0,1-15.16,35.9Z"/><path class="cls-fds-2" d="M465.15,413.24a72.7,72.7,0,0,0,7.67-24.9c.44-3.73.85-8,3.88-10.23a8.18,8.18,0,0,1,5.75-1.33,19.51,19.51,0,0,1,5.76,1.76,65.55,65.55,0,0,1,17.66,11.51A89.88,89.88,0,0,0,459.61,356c5.1,10.69,7.41,22.32,5.78,34-.53,3.79-1.41,7.54-1.76,11.36S463.56,409.75,465.15,413.24Z"/><path class="cls-fds-1" d="M477.31,453.64c-2.5-5.25-8.62-10-13.43-13.2-10.23-6.83-23-9.32-35.27-8s-23.89,6.26-34.09,13.14c10.14-1.89,20.54,3.67,28.19,10.59,6.12,5.54,10,12.23,17.48,16.38,12.49,6.9,28.56,6.21,41.48.7C482,473.1,481.7,462.83,477.31,453.64Z"/><path class="cls-fds-2" d="M407.11,440.36c10.09-2.12,20.48.74,30.43,3.44S458,449.05,468,446.35c-7.05-8.6-18-12.83-29.06-13.43S417.06,435.38,407.11,440.36Z"/><path class="cls-fds-1" d="M512.77,446.7c-1.49-9.47,2-19.44,8.5-26.45a39,39,0,0,1,25.52-11.77,49.36,49.36,0,0,1,27.57,6.59c-5.27,1.33-9.35,5.82-12.2,10.45s-4.63,9.81-7,14.71-5.4,9.7-10,12.59c-5.06,3.2-11.46,3.71-17.31,2.52S518,449.68,512.77,446.7Z"/><path class="cls-fds-2" d="M524.88,419.27c6.9,2.42,14.51.71,21.54-1.32s14.28-4.41,21.51-3.25a38.48,38.48,0,0,0-22.13-3.62C538.29,412.05,530.55,414.25,524.88,419.27Z"/><path class="cls-fds-3" d="M487.41,538.9c5.69-6.15,13.81-9.73,22.1-10.92s16.78-.15,24.92,1.86c8.45,2.09,17,5.44,22.8,11.91,5.65,6.28,8.09,14.7,11.54,22.41s8.82,15.5,17,17.61c12.4-5.13,27.58-3,38.53,4.74a40.66,40.66,0,0,1,16.77,34.73c-93.19,34.56-186.63,35.55-280.3,0a56.67,56.67,0,0,1,22.74-34.79,55.41,55.41,0,0,1,40.08-9c3.44-13.14,11.53-25.37,23.26-32.22S474.27,535.44,487.41,538.9Z"/><path class="cls-fds-4" d="M362.14,618.14a501.29,501.29,0,0,1,130.44-7.32,48.88,48.88,0,0,1,60.45.69h64.22c1.24-6.49-2.51-14.35-7.81-18.29-6.52-4.84-15-5.63-22.8-5.36a37,37,0,0,0-22.3,8.47,10.53,10.53,0,0,1,.49-7.36,32.28,32.28,0,0,1,4.39-6.27c-6.07.45-11.46-4.73-14.18-10.17s-3.23-11.69-3.85-17.75-1.48-12.31-4.73-17.46c6.22.62,11.17,5.63,14.48,10.93s5.19,11.35,7.76,17,6.11,11.3,11.58,14.33c8-.65,16.78-1.52,24.77-.5s16,3.84,21.87,9.33c8.41,7.81,11.46,19.77,12.8,31.17-89.12,35.27-180.52,42.76-270.81,3.62C365.88,622.88,362.39,619.68,362.14,618.14Z"/><path class="cls-fds-5" d="M513.28,527.33a48.83,48.83,0,0,0-26.8,11.9c-2-.24-4.08-.47-6.13-.67,6.45,2.87,13.83,4.11,20,9-.19-.76.17-1.37,1.33-2.33A55.88,55.88,0,0,1,514,537.65a53.4,53.4,0,0,1,13.69-4.12c3.55-.56,11-2,14.32-.14A48.92,48.92,0,0,0,513.28,527.33Z"/><path class="cls-fds-6" d="M584.42,585.29c-8.72-2.66-15.76-10.48-19.14-16.38-1.62-2.83-3-5.76-4.36-8.6a92.32,92.32,0,0,0-5.37-10.19,43,43,0,0,0-65.7-8l-5.49-5.82a51,51,0,0,1,77.92,9.5,97.69,97.69,0,0,1,5.87,11.08c1.34,2.82,2.6,5.49,4.07,8,2.86,5,8.47,10.86,14.53,12.7Z"/><path class="cls-fds-6" d="M493.4,475a60.26,60.26,0,0,1,37.43-42.28,1.14,1.14,0,0,1,.87,2.11c-16.49,8-28.29,24.43-30.42,41.57-.85,5.47-8.95,4.06-7.88-1.4Z"/><path class="cls-fds-6" d="M490.93,495.76c-5.82-20.39-23.41-37.83-45-43.33a1.12,1.12,0,0,1,.46-2.18c22.8,3.82,43.47,20.37,52.14,43,1.84,5.16-6,7.79-7.59,2.53Z"/><path class="cls-fds-6" d="M495.47,446.78a2.44,2.44,0,0,1-.8-.13l-2-.61c-8.88-2.83-18.07-6.21-24.28-13.66-5-6-7.59-14-8-24.72a73.48,73.48,0,0,1,1.45-15,72.22,72.22,0,0,0,1.41-13.07A43.34,43.34,0,0,0,453.7,353a2.67,2.67,0,0,1,3.19-4.1l1.83.84C469.13,354.54,479,359,488,366.3c11.32,9.12,24.42,22.11,25.3,41.79a48.45,48.45,0,0,1-16,38A2.67,2.67,0,0,1,495.47,446.78Zm-32.4-89.12a48.81,48.81,0,0,1,5.53,21.85,78.37,78.37,0,0,1-1.49,14,68.33,68.33,0,0,0-1.38,13.91c.39,9.46,2.61,16.5,6.79,21.52,5.3,6.35,13.68,9.4,21.81,12h0l.47.15A43.12,43.12,0,0,0,508,408.33c-.78-17.55-12.87-29.46-23.32-37.88C478,365.11,470.74,361.28,463.07,357.66Z"/><path class="cls-fds-6" d="M460.88,480.2a45.46,45.46,0,0,1-22-5.32c-5.22-2.88-8.77-6.86-12.21-10.72a77.53,77.53,0,0,0-5.77-6c-4.07-3.69-14.75-12-25.91-9.95a2.67,2.67,0,0,1-2-4.83c11.28-7.61,23.49-12.31,35.3-13.58,13.54-1.47,26.7,1.53,37,8.43,7.46,5,12.16,9.65,14.36,14.27h0c4.25,8.91,5.22,19.68,4.48,21.65a2.82,2.82,0,0,1-1.49,1.56A55.85,55.85,0,0,1,460.88,480.2Zm-57-37.12c6.87,1.33,14,5.14,20.64,11.11a83.88,83.88,0,0,1,6.18,6.42c3.28,3.68,6.39,7.16,10.81,9.6,10.47,5.79,24.74,6.22,37.61,1.21a47.94,47.94,0,0,0-4.18-16.63c-1.76-3.68-6-7.76-12.51-12.13-9.29-6.21-21.19-8.9-33.5-7.57A69.82,69.82,0,0,0,403.85,443.08Z"/><path class="cls-fds-6" d="M533.63,458.6a31.09,31.09,0,0,1-6.28-.65c-4.47-.9-7.89-3.38-11.2-5.78a56.14,56.14,0,0,0-4.71-3.16,2.64,2.64,0,0,1-1.3-1.89,34.59,34.59,0,0,1,9.19-28.69,41.61,41.61,0,0,1,27.26-12.61,52.24,52.24,0,0,1,29.08,6.93,2.64,2.64,0,0,1,1.33,2.67,2.67,2.67,0,0,1-2,2.24c-4.78,1.21-8.39,5.7-10.58,9.26a71.8,71.8,0,0,0-4.52,9.27c-.75,1.74-1.5,3.48-2.32,5.19-3.16,6.61-6.65,11-11,13.7A24.19,24.19,0,0,1,533.63,458.6Zm-18.38-13.52c1.41.88,2.73,1.84,4,2.77,3,2.16,5.81,4.2,9.14,4.87,5.82,1.19,11.28.42,15.35-2.15,3.45-2.17,6.31-5.82,9-11.49.78-1.64,1.51-3.32,2.23-5a77,77,0,0,1,4.88-10,29.42,29.42,0,0,1,8.33-9.13A45.85,45.85,0,0,0,547,411.14a36.28,36.28,0,0,0-23.76,10.93A29.84,29.84,0,0,0,515.25,445.08Z"/><path class="cls-fds-6" d="M492.17,435.25c8.3,35.56-8.06,69.39-6.28,105.19a32.73,32.73,0,0,1,4.33,1.21,42.44,42.44,0,0,1,9.25,4.88,6.78,6.78,0,0,0,0-2.58c-2.16-11.19-1.9-23.13-.93-35.23s2.6-24.5,2.85-37.12a124.25,124.25,0,0,0-20.21-71.42c-.6-1-2.08,0-1.53.92A120.36,120.36,0,0,1,492.17,435.25Z"/><path class="cls-fds-5" d="M454.57,539.64A44.5,44.5,0,0,0,423,574c-12.22.19-25.08,3.12-35.61,9.35s-19.21,17-22.45,28.83a92.32,92.32,0,0,1,89.89-20.38,46,46,0,0,0-22.63-14.41c6.79-12.05,17-22.74,30.45-26.77A62.15,62.15,0,0,1,505.11,553a10.39,10.39,0,0,1-3.62-3.54,6.43,6.43,0,0,1-1.09-1.92c-6.22-4.89-13.6-6.13-20-9C471.68,537.7,463,537.4,454.57,539.64Z"/><path class="cls-fds-6" d="M418.35,572.46c4-18.94,20.46-33.41,38.88-37.74,17.82-3.9,40.08,1.89,48.68,18.89a93,93,0,0,0-23-10.19c-23.29-6.87-49.73,8-56.84,30.92l-7.77-1.88Z"/><path class="cls-fds-6" d="M562.47,598.29c8.28-18.12,31-26.69,50.19-22.39,20.47,4.09,35.43,25.25,32.53,45.91,0,0-.21,2.46-.21,2.47l-2.36.89c-90.87,35.47-193.94,34.2-284.94,0l-3.23-1.1a64.75,64.75,0,0,1,6.42-20.24,59.93,59.93,0,0,1,41.37-31.2c22.53-5,49.81,4.6,59.69,26.17-16.14-14.21-36.76-22.92-57.82-17.69-20.19,4.55-36.32,21.16-41.16,41.12,0,0-2.59-4.61-2.55-4.58C427.49,642.3,500.79,650.56,571.14,637a408.54,408.54,0,0,0,68.65-19.33L637.22,621c1.21-16.57-10.26-33.09-26.49-37.12-17.35-4.56-34.56,3-48.26,14.37Z"/><path class="cls-fds-7" d="M401.69,443.56a39.84,39.84,0,0,1,22.05,3.75c6.57,3.21,12.1,8.17,18.23,12.16a71.86,71.86,0,0,0,37.81,11.6c-3.18,3.59-8.37,4.18-13.17,4.26-10,.15-20.53.16-29.1-4.94-4.45-2.64-8-6.49-11.47-10.35s-6.82-7.85-11-10.88S406.82,442.94,401.69,443.56Z"/><path class="cls-fds-7" d="M515.51,444.74c4.93.91,9.93,1.84,14.94,1.57s10.13-1.85,13.75-5.32c4.33-4.16,5.94-10.36,9.32-15.32a25.44,25.44,0,0,1,17.26-10.76,38.5,38.5,0,0,0-14,18.67c-1.72,5.17-2.48,10.93-6.08,15-3.08,3.52-7.76,5.19-12.37,5.95a25.11,25.11,0,0,1-12.77-.79C521.56,452.28,516.71,448.88,515.51,444.74Z"/><path class="cls-fds-7" d="M465.05,412.2a34.24,34.24,0,0,0,29,21.13A53.53,53.53,0,0,0,503.79,389c5.83,8.16,8,18.75,6.82,28.7a41,41,0,0,1-13.93,25.88c-8.18.7-17.16-2.85-23-8.59A30.12,30.12,0,0,1,465.05,412.2Z"/></svg>