<svg id="Layer_1" data-name="Layer 1" xmlns="http://www.w3.org/2000/svg" viewBox="0 0 1000 1000"><defs><style>.cls-dasg-1{fill:#8cc63f;}.cls-dasg-2{fill:#dfffa1;}.cls-dasg-3,.cls-dasg-4{fill:#42210b;}.cls-dasg-4{opacity:0.4;}.cls-dasg-5{fill:#754c24;}.cls-dasg-6{fill:#603813;}.cls-dasg-7{fill:#c69c6d;}</style></defs><path class="cls-dasg-1" d="M550.05,401.12c-5.71-.37-11-3.81-14.24-8.5a28.94,28.94,0,0,1-4.76-16.21,57.78,57.78,0,0,1,2.77-16.86,26.33,26.33,0,0,1,20.41,15.75C557.64,383.69,555.55,393.91,550.05,401.12Z"/><path class="cls-dasg-2" d="M534.42,386.43c.57-3.44,1.06-6.91,1.71-10.34s1.72-7.29,6-6.19a35.36,35.36,0,0,1,11.8,5.49,27.87,27.87,0,0,0-19.47-15.66C531.91,368.21,531.21,378.19,534.42,386.43Z"/><path class="cls-dasg-1" d="M511.61,356.17c-4.4,3.64-10.59,4.74-16.19,3.58a28.88,28.88,0,0,1-14.58-8.52,57.32,57.32,0,0,1-9.55-14.16,26.31,26.31,0,0,1,25.64-2.56C505.18,338.28,510.66,347.15,511.61,356.17Z"/><path class="cls-dasg-1" d="M448.92,460.49c.81,5.66-1.48,11.51-5.4,15.68a28.89,28.89,0,0,1-14.88,8,57.44,57.44,0,0,1-17.07.76,26.32,26.32,0,0,1,11.22-23.21C430.31,456.64,440.74,456.59,448.92,460.49Z"/><path class="cls-dasg-2" d="M477.24,344.35a27.15,27.15,0,0,1,30,1.35,24,24,0,0,0-33.78-10.24C473.59,338.58,474.63,342.62,477.24,344.35Z"/><path class="cls-dasg-2" d="M412.75,483.39a7.13,7.13,0,0,0,5.45-2.95,45.52,45.52,0,0,0,3.34-5.48,26.35,26.35,0,0,1,27-12.44c-7.3-4.87-17.66-5.32-25.2-.84S412,474.65,412.75,483.39Z"/><path class="cls-dasg-1" d="M468.24,444a19.38,19.38,0,0,1,9-19.4c6.71-4,15.07-3.41,22.84-2.74-4.19,2.94-4.5,8.51-6.56,13.2a19.68,19.68,0,0,1-10.33,10.14C478.65,447.05,472.85,445.73,468.24,444Z"/><path class="cls-dasg-2" d="M469.34,442.67a21.5,21.5,0,0,1,11.26-12.61c3-1.4,6.33-2.07,9.49-3.09s6.34-2.5,8.43-5.09a38.52,38.52,0,0,0-16.14,2c-4.11,1.38-8.09,3.56-10.78,6.95S467.76,438.63,469.34,442.67Z"/><path class="cls-dasg-1" d="M510.12,380a19.38,19.38,0,0,0-19.46-8.89c-7.68,1.35-13.67,7.2-19.14,12.76,5.1-.49,9,3.55,13.56,5.78a19.72,19.72,0,0,0,14.44,1C504.22,389.15,507.77,384.38,510.12,380Z"/><path class="cls-dasg-2" d="M474.66,383.16a35.63,35.63,0,0,0,26.24-10,22.39,22.39,0,0,0-15.21-.34C480.8,374.5,477.31,378.73,474.66,383.16Z"/><path class="cls-dasg-1" d="M455.62,428.41c-6.1.72-12.48,1.17-18-1.49-5.15-2.48-8.63-7.32-11.14-12.3-2.9-5.76-3.37-12.39-6.12-18.25a31.69,31.69,0,0,0-14.28-14.68c8.15,0,15.92-.06,23.81,2,10.92,2.82,21,7.39,26.39,17.94a31.51,31.51,0,0,1,.7,26.64Z"/><path class="cls-dasg-2" d="M428.93,417.84a25.5,25.5,0,0,0,.28-15.6c-.59-1.91-1.41-4-.72-5.84s2.83-3,4.83-3.59a23,23,0,0,1,17.49,2,57.13,57.13,0,0,0-41.37-11.95c4.45,1.22,7.34,5.42,9.25,9.63s2.67,8.8,3.87,13.25S425.57,414.68,428.93,417.84Z"/><path class="cls-dasg-3" d="M447.87,431.63a25.82,25.82,0,0,1-11.38-2.3c-4.95-2.39-9-6.81-12.36-13.51a49.77,49.77,0,0,1-3.4-9.92,49.1,49.1,0,0,0-2.76-8.39,28.75,28.75,0,0,0-13.06-13.44,2.67,2.67,0,0,1,1.2-5.05h1.39c7.88,0,15.32.05,23.09,2.06,9.8,2.53,21.84,7,28.1,19.31a34,34,0,0,1,.76,28.93,2.7,2.7,0,0,1-2.12,1.57l-1.39.16h0A67.5,67.5,0,0,1,447.87,431.63Zm7.75-3.22h0Zm-40.82-44a34,34,0,0,1,8,10.79,54.7,54.7,0,0,1,3.09,9.29,45.75,45.75,0,0,0,3,8.89c2.82,5.61,6.07,9.24,9.92,11.1,4.84,2.34,10.71,1.92,16.33,1.26a29,29,0,0,0-1.21-23c-5.28-10.4-16-14.32-24.67-16.57A64.74,64.74,0,0,0,414.8,384.45Z"/><path class="cls-dasg-1" d="M574.09,382.25c5.65,2.42,11.64,4.65,17.66,3.66,5.64-.93,10.35-4.58,14.16-8.65,4.41-4.71,6.74-10.93,11-15.77a31.65,31.65,0,0,1,17.85-10.05c-7.83-2.27-15.26-4.56-23.41-4.84-11.26-.39-22.25,1.14-30.38,9.75a31.48,31.48,0,0,0-8.2,25.35Z"/><path class="cls-dasg-2" d="M575.3,371.47c7.2-2,12.52-7.9,18.69-12.14a43.84,43.84,0,0,1,17.47-7c3-.5,6-.59,8.94-.88a27.46,27.46,0,0,1,10,.56c-7.44-2.22-14.9-4.59-22.67-4.69s-15.72,1.57-22.21,5.83a18.81,18.81,0,0,0-6.77,7.77,45,45,0,0,0-2.64,5.12c-.16.48-1,5.52-1,5.5Z"/><path class="cls-dasg-3" d="M588.71,388.82c-5.5,0-10.73-2-15.66-4.12l-1.3-.56a2.65,2.65,0,0,1-1.58-2.1,34,34,0,0,1,8.9-27.53c9.48-10,22.31-10.94,32.42-10.58,8,.28,15.15,2.36,22.72,4.56l1.33.39a2.66,2.66,0,0,1-.27,5.18,28.9,28.9,0,0,0-16.33,9.2,49.91,49.91,0,0,0-5,7.27,49.52,49.52,0,0,1-6.06,8.55c-5.13,5.48-10.26,8.57-15.68,9.46A20.55,20.55,0,0,1,588.71,388.82Zm-13.41-9c5.2,2.22,10.72,4.29,16,3.42,4.21-.7,8.35-3.26,12.65-7.84a46.52,46.52,0,0,0,5.4-7.68,53.94,53.94,0,0,1,5.58-8,34.23,34.23,0,0,1,10.73-8.09,64.68,64.68,0,0,0-14.38-2.37c-9-.3-20.33.43-28.35,8.92A29.06,29.06,0,0,0,575.3,379.86Z"/><path class="cls-dasg-1" d="M569.33,398.49c1.93-4,6.63-7.67,10.33-10.14,7.86-5.25,17.7-7.16,27.09-6.15S625.11,387,633,392.3c-7.79-1.46-15.78,2.82-21.66,8.13-4.7,4.26-7.67,9.4-13.43,12.59-9.6,5.3-22,4.77-31.87.54C565.71,413.44,566,405.55,569.33,398.49Z"/><path class="cls-dasg-2" d="M623.27,388.28c-7.75-1.63-15.73.57-23.38,2.64s-15.74,4-23.39,2c5.42-6.61,13.8-9.86,22.34-10.32S615.63,384.46,623.27,388.28Z"/><path class="cls-dasg-3" d="M582,419.52a43.67,43.67,0,0,1-17-3.51,2.73,2.73,0,0,1-1.47-1.55c-.62-1.64.07-10,3.45-17.12h0c1.75-3.65,5.43-7.32,11.26-11.21,8.05-5.38,18.31-7.72,28.86-6.58,9.17,1,18.64,4.63,27.4,10.54a2.66,2.66,0,0,1-2,4.83c-8.31-1.55-16.32,4.72-19.38,7.49a59.58,59.58,0,0,0-4.39,4.58c-2.67,3-5.44,6.1-9.54,8.36A35.66,35.66,0,0,1,582,419.52Zm-13.35-7.79c9.61,3.62,20.18,3.25,28-1.05,3.3-1.82,5.66-4.46,8.14-7.25a65.18,65.18,0,0,1,4.79-5,35.77,35.77,0,0,1,14.49-8.3,52.29,52.29,0,0,0-17.52-5.3,38.27,38.27,0,0,0-25.33,5.71c-4.94,3.3-8.1,6.35-9.4,9.08h0A36.24,36.24,0,0,0,568.61,411.73Zm.72-13.24h0Z"/><path class="cls-dasg-4" d="M627.44,390.74a30.55,30.55,0,0,0-16.94,2.89c-5,2.46-9.3,6.27-14,9.34a55.15,55.15,0,0,1-29,8.91c2.44,2.76,6.43,3.21,10.11,3.27,7.67.12,15.78.13,22.37-3.79,3.41-2,6.17-5,8.81-8s5.24-6,8.46-8.35S623.49,390.27,627.44,390.74Z"/><path class="cls-dasg-1" d="M515.12,318.72c-.82-4.39.83-10.1,2.36-14.27,3.25-8.88,10.07-16.22,18.26-20.95s17.67-6.94,27.11-7.29c-7.15,3.42-11.08,11.58-12.69,19.34-1.29,6.22-.65,12.12-3.43,18.09-4.63,9.94-14.91,16.79-25.42,19.23C521,332.94,516.57,326.41,515.12,318.72Z"/><path class="cls-dasg-2" d="M552.67,278.67c-7.22,3.26-12.37,9.74-17.32,15.93S525,307.14,517.62,310c.48-8.53,5.32-16.1,12-21.5S544.24,280.09,552.67,278.67Z"/><path class="cls-dasg-3" d="M521.32,335.53a2.77,2.77,0,0,1-1.51-.44c-1.46-1-5.85-8.13-7.31-15.87-.74-4,.06-9.12,2.48-15.69,3.33-9.1,10.23-17,19.43-22.34a61.39,61.39,0,0,1,28.34-7.64,2.67,2.67,0,0,1,1.25,5.07c-7.62,3.64-10.39,13.43-11.23,17.47a62,62,0,0,0-.85,6.28c-.39,4-.8,8.14-2.77,12.39-4.63,10-15.07,17.89-27.24,20.71A2.88,2.88,0,0,1,521.32,335.53Zm-.61-5.26h0Zm-3-12a36.33,36.33,0,0,0,4.61,11.62c9.89-2.75,18.21-9.28,22-17.34,1.59-3.42,1.94-6.94,2.31-10.66a62.09,62.09,0,0,1,.93-6.84,35.59,35.59,0,0,1,6.8-15.25,52.39,52.39,0,0,0-17.28,6.05A38.27,38.27,0,0,0,520,305.36c-2,5.58-2.79,9.91-2.24,12.87Z"/><path class="cls-dasg-4" d="M557.49,278.21a30.61,30.61,0,0,0-12,12.31c-2.62,5-3.81,10.55-5.8,15.81a55.13,55.13,0,0,1-18.21,24.33c3.6.79,7.09-1.2,10.1-3.32,6.26-4.43,12.82-9.21,15.83-16.26,1.56-3.65,2-7.66,2.42-11.61s.68-8,1.9-11.74S554,280.15,557.49,278.21Z"/><path class="cls-dasg-1" d="M417.86,441.87c.1-9.58-4.77-18.95-12.27-24.92A38.9,38.9,0,0,0,378.64,409a49.41,49.41,0,0,0-26.32,10.54c5.4.55,10.1,4.4,13.59,8.56s6,9,9,13.54,6.76,8.8,11.72,11c5.47,2.42,11.87,2,17.5,0S413.16,445.57,417.86,441.87Z"/><path class="cls-dasg-2" d="M401.88,416.5c-6.48,3.4-14.25,2.82-21.5,1.83s-14.77-2.28-21.75-.08a38.58,38.58,0,0,1,21.36-6.8C387.56,411.32,395.54,412.36,401.88,416.5Z"/><path class="cls-dasg-3" d="M394.93,457a23,23,0,0,1-9.33-1.89c-4.68-2.07-8.76-5.87-12.86-12-1.05-1.58-2.05-3.19-3.05-4.81a71.94,71.94,0,0,0-5.83-8.51c-2.68-3.2-6.91-7.12-11.81-7.62a2.66,2.66,0,0,1-1.37-4.76,52.49,52.49,0,0,1,27.76-11.09,41.63,41.63,0,0,1,28.81,8.5,34.58,34.58,0,0,1,13.27,27,2.65,2.65,0,0,1-1,2.07,52.66,52.66,0,0,0-4.19,3.81c-2.93,2.85-6,5.81-10.24,7.35A30,30,0,0,1,394.93,457Zm-36.55-38.4a29.14,29.14,0,0,1,9.57,7.82,76.44,76.44,0,0,1,6.28,9.13c1,1.56,1.92,3.11,2.94,4.63,3.5,5.21,6.87,8.4,10.59,10.05,4.41,1.95,9.92,1.91,15.51-.11,3.2-1.15,5.69-3.58,8.32-6.15,1.14-1.11,2.31-2.25,3.58-3.33A29.83,29.83,0,0,0,403.93,419a36.37,36.37,0,0,0-25.1-7.35A45.72,45.72,0,0,0,358.38,418.59Zm59.48,23.28h0Z"/><path class="cls-dasg-4" d="M414.86,440.33c-4.74,1.63-9.55,3.27-14.55,3.73s-10.28-.35-14.37-3.26c-4.89-3.48-7.4-9.37-11.46-13.8a25.48,25.48,0,0,0-18.64-8.12,38.48,38.48,0,0,1,16.52,16.43c2.46,4.87,4.06,10.46,8.21,14,3.56,3,8.44,4,13.11,4.08a25.07,25.07,0,0,0,12.52-2.64C410,448.67,414.28,444.6,414.86,440.33Z"/><path class="cls-dasg-5" d="M492.32,612.87c4.39,1,8.79,3,13,4.37l7.83-3.4c14.49,0,29.06-2.31,43.16,1,15.19,3.55,29.82,11.87,37.61,25.7,1.67,3,2.86,6.2,4.66,9.09,2.49,4,3.7,4.16,8,4.31a41.72,41.72,0,0,1,22.41,7.51,40.67,40.67,0,0,1,16.77,34.73c-93.25,35.57-186.6,34.53-280.3,0a56.64,56.64,0,0,1,22.74-34.78,55.31,55.31,0,0,1,40.08-9c3.44-13.15,11.53-25.37,23.26-32.23a61.1,61.1,0,0,1,26-7.88,54.79,54.79,0,0,1,13.36.28Z"/><path class="cls-dasg-6" d="M366.91,693.09a500.86,500.86,0,0,1,130.44-7.32,48.85,48.85,0,0,1,60.45.69H622c1.24-6.49-2.51-14.36-7.81-18.29-6.52-4.85-14.94-5.64-22.79-5.37-8.09.28-17.43,4.55-23.65,9.75,1.34-12.35,11.69-22.09,17.8-23.67-1.33-7.47-8.81-22.6-30.88-31.72,29.42,3.65,36.86,22.66,41.27,28.63a25,25,0,0,0,5.72,6.06c2.52,1.7,5.23,1.84,8.14,2.21,8,1,16,3.85,21.88,9.33,8.4,7.81,11.45,19.78,12.79,31.18C557.22,731.12,467,738,374.73,700.09,371.69,699.72,367.68,696.36,366.91,693.09Z"/><path class="cls-dasg-3" d="M517.31,457.24c8.92-39.05,38.41-72.13,75.45-85.83A117.05,117.05,0,0,0,549,407.81c-11.24,15.25-18.85,33.05-21.18,51.29-1.16,7.27-11.91,5.4-10.51-1.86Z"/><path class="cls-dasg-3" d="M504.88,541.9c-15.5-53.15-61.19-96.72-115.44-110.29,57,9.7,107.38,51.44,128.09,106.06,3,8.63-9.82,12.94-12.65,4.23Z"/><path class="cls-dasg-3" d="M515.21,363.79a78,78,0,0,1,1-8.34,92.26,92.26,0,0,1,2.91-12.13c1.24-4,2.72-7.92,4.35-11.78,3.44-8.13,7.24-16,11.09-24a107.51,107.51,0,0,0-14.15,20.67,113.11,113.11,0,0,0-12,54c.47,15,3.94,29.68,6.31,44.48,5.08,31.84-2.36,64.19-7.58,95.66-5.36,32.25-10.48,64.9-7.82,97.69,7.34,3.51,15.43,7.38,21.21,13.33-8-57.73,6.31-114.46,7.67-167.35.67-18-.25-33.81-4.69-51.42C519.25,398,514.2,381.12,515.21,363.79Z"/><path class="cls-dasg-7" d="M459.35,614.62c-13.54,4.43-25.06,13.85-30,28.17a41.72,41.72,0,0,0-1.6,6.12c-12.22.19-25.08,3.12-35.61,9.34s-19.21,17-22.45,28.83a92.34,92.34,0,0,1,89.9-20.38,46.16,46.16,0,0,0-22.64-14.41c6.79-12,17-22.73,30.45-26.76,19.39-5.83,42.6-1.75,56.75,13.42a43.39,43.39,0,0,0-16.2-18.87A53.13,53.13,0,0,0,484.3,612,61.11,61.11,0,0,0,459.35,614.62Z"/><path class="cls-dasg-3" d="M423.12,647.4c8.11-35.93,57.22-52.71,86.5-31.36,9.56,6.8,16.55,17.5,17.39,28.87-10.92-18.35-28.78-31.86-50.43-29.47-19.77,1.76-39.88,14.13-45.69,33.84l-7.77-1.88Z"/><path class="cls-dasg-3" d="M567.25,673.23c8.27-18.11,31-26.69,50.18-22.38,21.69,4.43,36.08,26.73,32.33,48.34a388.11,388.11,0,0,1-72.29,20.94c-72.94,13.92-148.9,4-218.25-21.07a65,65,0,0,1,6.42-20.27A59.92,59.92,0,0,1,407,647.6c22.53-5,49.81,4.59,59.69,26.16-16.14-14.21-36.76-22.91-57.82-17.68-20.19,4.54-36.32,21.15-41.16,41.11,0,0-2.62-4.62-2.57-4.58,67.28,24,140.42,33,210.86,19.65a378.74,378.74,0,0,0,68.51-19.61L642,696c1.2-16.57-10.27-33.09-26.5-37.12-17.34-4.56-34.56,3-48.25,14.37Z"/><path class="cls-dasg-3" d="M595.84,654.53c-1-7.33-6.58-15.95-15.06-23.06a64.68,64.68,0,0,0-26.42-13,103.23,103.23,0,0,0-52.1,1.2l-2.18-7.7a111.17,111.17,0,0,1,56.15-1.28,72.77,72.77,0,0,1,29.69,14.6c4.79,4,16.13,14.8,17.86,28.17Z"/><path class="cls-dasg-3" d="M470.57,477.16c1.49-23.8-8.92-48.6-27.82-64.55,20,14.55,32.87,39.07,33.15,64.68a2.67,2.67,0,1,1-5.33-.13Z"/><path class="cls-dasg-3" d="M541.65,415.9a63.49,63.49,0,0,0,42.42-12.78,66.18,66.18,0,0,1-42.47,18.12c-3.72.09-3.67-5.51,0-5.34Z"/><path class="cls-dasg-3" d="M550.05,403.79h-.18a22,22,0,0,1-16.24-9.63,31.38,31.38,0,0,1-5.24-17.71,59.2,59.2,0,0,1,2.88-17.64,2.65,2.65,0,0,1,2.94-1.88,29.14,29.14,0,0,1,22.49,17.37c3.62,8.92,1.85,20.09-4.53,28.45A2.7,2.7,0,0,1,550.05,403.79Zm-14.33-41.14a50.41,50.41,0,0,0-2,13.73c0,4,.83,9.77,4.28,14.71a17,17,0,0,0,10.8,7.2c4.47-6.65,5.67-15.31,3-22A23.65,23.65,0,0,0,535.72,362.65Z"/><path class="cls-dasg-3" d="M499.76,362.87a23.87,23.87,0,0,1-4.88-.51,31.41,31.41,0,0,1-16-9.28,59.06,59.06,0,0,1-10-14.81,2.66,2.66,0,0,1,.85-3.39A29.15,29.15,0,0,1,498,332.09c8.76,4,15.13,13.34,16.22,23.8a2.64,2.64,0,0,1-1,2.33A21.22,21.22,0,0,1,499.76,362.87Zm-25-24.85a50.49,50.49,0,0,0,8,11.35c2.77,2.87,7.3,6.54,13.21,7.77A17,17,0,0,0,508.76,355c-1.31-7.91-6.38-15-12.94-18A23.64,23.64,0,0,0,474.79,338Z"/><path class="cls-dasg-3" d="M418.21,487.86c-2.14,0-4.41-.1-6.85-.3a2.66,2.66,0,0,1-2.45-2.5,29.17,29.17,0,0,1,12.39-25.57c8-5.38,19.28-5.93,28.77-1.41a2.68,2.68,0,0,1,1.49,2A22,22,0,0,1,445.47,478a31.48,31.48,0,0,1-16.25,8.77A50.31,50.31,0,0,1,418.21,487.86Zm-4-5.45a50.51,50.51,0,0,0,13.85-.86c3.89-.86,9.39-2.82,13.52-7.21a17,17,0,0,0,4.83-12c-7.43-3-16.15-2.41-22.13,1.61A23.69,23.69,0,0,0,414.21,482.41Z"/><path class="cls-dasg-3" d="M478.11,448.75a30.65,30.65,0,0,1-10.83-2.31,2.68,2.68,0,0,1-1.67-2,22,22,0,0,1,10.29-22.15c7.71-4.55,17.37-3.71,24.43-3.1a2.67,2.67,0,0,1,1.3,4.84c-2.18,1.53-3,4.26-4,7.43a45.81,45.81,0,0,1-1.65,4.67,22.36,22.36,0,0,1-11.74,11.52A15.86,15.86,0,0,1,478.11,448.75ZM470.7,442c3.6,1.21,8.09,2.09,11.48.68a17,17,0,0,0,8.92-8.75,38.53,38.53,0,0,0,1.43-4.1,32,32,0,0,1,2.19-5.74c-6.12-.31-11.57.07-16.11,2.75A16.82,16.82,0,0,0,470.7,442Z"/><path class="cls-dasg-3" d="M493.57,394.26a22.28,22.28,0,0,1-9.65-2.18,46.53,46.53,0,0,1-4.28-2.48c-2.8-1.77-5.21-3.3-7.87-3a2.67,2.67,0,0,1-2.15-4.53c5-5,11.77-12,20.58-13.51a22,22,0,0,1,22.21,10.14,2.7,2.7,0,0,1,.06,2.64c-3.49,6.43-7.57,10.43-12.13,11.91A22.26,22.26,0,0,1,493.57,394.26Zm-16.48-12.11a32.43,32.43,0,0,1,5.4,2.94,38.85,38.85,0,0,0,3.75,2.18,17,17,0,0,0,12.46.86c3.5-1.13,6.34-4.72,8.29-8a16.83,16.83,0,0,0-15.87-6.38C485.94,374.68,481.54,377.94,477.09,382.15Z"/><path class="cls-dasg-3" d="M509.37,382.34a46.45,46.45,0,0,0-17.88-1.08,47.74,47.74,0,0,1,18.36-1.54,1.34,1.34,0,1,1-.48,2.62Z"/><path class="cls-dasg-3" d="M549.51,401a64.85,64.85,0,0,1-6-23.67,63.26,63.26,0,0,0,8.34,22.41,1.33,1.33,0,1,1-2.35,1.26Z"/><path class="cls-dasg-3" d="M511.27,357.3a46.22,46.22,0,0,1-20.34-13.94A45,45,0,0,0,512,354.74a1.33,1.33,0,1,1-.73,2.56Z"/><path class="cls-dasg-3" d="M467,442.8c5-3.36,12-8.1,16.81-11.68-2.48,2.3-4.92,4.77-7.5,7l-7.67,6.79A1.34,1.34,0,1,1,467,442.8Z"/><path class="cls-dasg-3" d="M450.42,461.9a66.5,66.5,0,0,0-21,12.1,68,68,0,0,1,20-14.56,1.33,1.33,0,1,1,1,2.46Z"/><path class="cls-dasg-4" d="M428.77,419.16a31.09,31.09,0,0,1,14.7.17c1.7.44,3.58,1,5.14.19s2.19-2.75,2.57-4.49a62.76,62.76,0,0,0,1.38-16.57,35,35,0,0,1,4.82,30.32C447.47,430.8,435.57,426.65,428.77,419.16Z"/><path class="cls-dasg-4" d="M422.85,484.9A33.33,33.33,0,0,1,437,472.72c2.43-1.1,5-1.92,7.21-3.41s4-3.87,4-6.54c.38,6.25-3.67,12.16-8.82,15.71A37.71,37.71,0,0,1,422.85,484.9Z"/><path class="cls-dasg-4" d="M474.44,443.73a16.93,16.93,0,0,1,7.38-6.64c2.4-1.19,5.11-2.13,7.11-4a53.22,53.22,0,0,0,6-6.6,17.45,17.45,0,0,1-6.33,14.08C484.51,444.13,479.74,444.84,474.44,443.73Z"/><path class="cls-dasg-4" d="M491.34,389.89a28.3,28.3,0,0,1,17.79-13,14.46,14.46,0,0,1-5.28,10.74C500.61,390.12,495.37,390.74,491.34,389.89Z"/><path class="cls-dasg-4" d="M482.25,350.15c1.86-3.11,6.18-3.89,9.67-2.93s6.45,3.23,9.55,5.09,6.73,3.39,10.27,2.63c-1.53,2.82-4.74,4.2-7.94,4.48a21,21,0,0,1-9.37-1.75C489.89,355.91,486.07,353.16,482.25,350.15Z"/><path class="cls-dasg-4" d="M534.58,387.86a10.79,10.79,0,0,1,8.21,3.12c1,1,2.11,2.41,3.57,2.29s2.32-1.67,2.9-3L554.17,379a21.27,21.27,0,0,1,.67,14.1,9.81,9.81,0,0,1-3.1,5.14c-2.92,2.25-7.34,1.46-10.24-.82S536.23,391.16,534.58,387.86Z"/><path class="cls-dasg-4" d="M573.8,377.28c2.42-2.2,5.92-2.68,9.18-2.75s6.64.17,9.7-1c4.91-1.83,7.88-6.71,11.88-10.09a22.75,22.75,0,0,1,13.78-5.34c-2.71,4.54-5.74,8.6-8.45,13.15-2.42,4-5.09,8.32-9.38,10.27-5.31,2.4-11.91.65-17,3.48-2.3-.63-4.77-1.19-6.75-2.52A5.79,5.79,0,0,1,573.8,377.28Z"/></svg>