<svg id="Layer_1" data-name="Layer 1" xmlns="http://www.w3.org/2000/svg" viewBox="0 0 1000 1000"><defs><style>.cls-1{fill:#638c23;}.cls-2{fill:#8cc63f;}.cls-3{fill:#dfffa1;}.cls-4,.cls-8{fill:#42210b;}.cls-5{fill:#754c24;}.cls-6{fill:#c69c6d;}.cls-7{fill:#603813;}.cls-8{opacity:0.4;}.cls-9{fill:#ebf700;}.cls-10{fill:#f9ffbd;}</style></defs><path class="cls-1" d="M470.25,361.79c-1.25-1.22-2.11-2.81-3.37-4a8.67,8.67,0,0,0-8.73-1.93,16,16,0,0,0,2-1.37,15.77,15.77,0,0,1,7.36-2c1.42,0,3.69,0,4.93.82.58.38.55,1.08.86,1.68a6.3,6.3,0,0,0,1.73,1.94c1.11.85,2.39,1.49,3.42,2.44.84.77,1.79,2.13,1.55,3.35s-1.71,1.27-2.65,1.39A8.76,8.76,0,0,1,470.25,361.79Z"/><path class="cls-1" d="M484.87,380.69a12.21,12.21,0,0,1,6.89-2c1.24,0,2.44.56,3.63.6s1.31-1.9.88-2.7-1.76-1.11-2.8-1.35a9.19,9.19,0,0,1-6.18-5.2c-1.18-2.4-6-.29-7.46.91-1.78,1.43-2.92,3.49-4.18,5.4s-2.8,3.81-5,4.55a7.87,7.87,0,0,0,9.63,3C482,383.11,483.32,381.72,484.87,380.69Z"/><path class="cls-1" d="M521.4,391.44c.32-2.2.35-7.24-2.93-7.14a21.32,21.32,0,0,1-2.86.29,6.27,6.27,0,0,1-2.07-.74,5.6,5.6,0,0,0-2.08-.68,1.94,1.94,0,0,0-1.86.94c-.59,1.19,1.06,2.12,1.73,2.85a10.92,10.92,0,0,1,2.15,11.36,6.27,6.27,0,0,0,5.48-1.7A9,9,0,0,0,521.4,391.44Z"/><path class="cls-1" d="M532.61,381.71c2.53-.41,4.95,1.22,6.71,3.09s3.18,4.11,5.32,5.52a9.29,9.29,0,0,0,8.07,1,17.18,17.18,0,0,0-3.85-8.62,18.48,18.48,0,0,0-3.57-3.27c-.66-.46-1.44-.78-2.08-1.24s-.89-.91-1.66-.59a6,6,0,0,0-1.32,1,8.31,8.31,0,0,1-3.92,1.34,6.46,6.46,0,0,0-3.78,1.62"/><path class="cls-2" d="M520.12,472.84c-5-.82-8.57-5.94-8.61-11s2.92-9.8,6.88-13,8.82-4.93,13.7-6.27A97.5,97.5,0,0,1,577,441.05c-5,1.86-7.86,7.32-9.49,12.42S565.36,464,563.44,469c-4.64,12-17.86,20.13-30.68,18.81a17.38,17.38,0,0,1-9.94-3.9C520.13,481.48,519,476.28,520.12,472.84Z"/><path class="cls-2" d="M523.54,544.12a19.15,19.15,0,0,1,1.78-34.56c5.51-2.27,11.77-1.86,17.59-.59s11.46,3.33,17.34,4.28,12.25.69,17.33-2.42c-.67,11.11-4.45,21.5-9.67,31.32-3.31,6.24-7.61,12.15-13.51,16s-13.64,5.42-20.18,2.75S521.83,551,523.54,544.12Z"/><path class="cls-2" d="M476.15,500.25c4.63-5.59,1.79-14-2.64-18.74a22.14,22.14,0,0,0-19.41-6.66c-11,1.78-19.56,11.71-30.66,12.54,9.15,3.53,16.83,11.19,19.67,20.57,1.23,4.05,1.69,8.41,3.8,12.08a16,16,0,0,0,14.34,7.71,17.68,17.68,0,0,0,14.05-8.54C478.23,514.32,478.06,505.64,476.15,500.25Z"/><path class="cls-2" d="M481.62,431.49c2.94-4.22,2.8-10.09.54-14.7s-6.36-8.12-10.82-10.68a44.09,44.09,0,0,0-44.56.93c6,1.55,9.61,6.47,12.46,12s4.43,11.63,7,17.31,6.34,11.2,12,13.74a17,17,0,0,0,16.9-2A18.52,18.52,0,0,0,481.62,431.49Z"/><path class="cls-2" d="M495.44,525.08c1.41-13.15,2.56-28,10.3-39.5,11.72-18.05,30.64-38.42,53.89-37.68-7.88,4.72-15.16,8.51-22,13.63-12.91,10.18-25.46,23-30.89,38.86-2.27,8.11-3.1,16.72-4.12,25.46-.6,4.66-7.58,4-7.21-.77Z"/><path class="cls-3" d="M519.78,537.41a20.21,20.21,0,0,1,16.05-17.31c4.64-.84,9.4,0,14,.87s9.39,1.73,14,.93,9.24-3.64,10.77-8.1c-7.94,2.86-16.38-.56-24.39-3.2s-16.88-5.17-24.67-1.92a18.34,18.34,0,0,0-10.72,13.19A16.93,16.93,0,0,0,519.78,537.41Z"/><path class="cls-3" d="M520.85,473.58a33.88,33.88,0,0,1,11.63-20.89c5.52-4.63,12.42-7.37,19.45-8.9s14.27-1.91,21.46-2.29c-15.13-3.13-31-2.42-45.46,3.06-4.1,1.56-8.16,3.51-11.31,6.56s-5.31,7.4-4.87,11.77S516.47,473.23,520.85,473.58Z"/><path class="cls-3" d="M434.85,413a18,18,0,0,1,10-5,34.71,34.71,0,0,1,11.32.26,65.5,65.5,0,0,1,27.86,11.67,42,42,0,0,0-21.6-17.53,42.48,42.48,0,0,0-28-.33c-2.22.75-4.69,2.08-5,4.41A8.71,8.71,0,0,1,434.85,413Z"/><path class="cls-2" d="M498.38,578c1.91-18.89,31.06-52.11,50.45-53.24-9.27,8.26-18.31,15.15-26,24.67-7,8.6-15,19-17.28,29.58-.9,4.45-7.53,3.51-7.15-1Z"/><path class="cls-2" d="M494.65,519.34c-7.32-10.08-19.74-16.73-31.13-21.7-4.09-1.7-8.07-3.36-12.54-5,4.63-1.41,9.57-.81,14.09.29,13.73,4,27.73,10.17,35.85,22.76,2.34,4.17-3.8,7.73-6.27,3.64Z"/><path class="cls-3" d="M445.85,494.18c2.62-1.41,5.09-3.09,7.8-4.33a27.43,27.43,0,0,1,24.55,1,21.41,21.41,0,0,0-26.27-15c-8.38,2.29-14.91,9.51-23.46,11,0,0,1.7,3,1.9,3.24a21.9,21.9,0,0,0,2.47,3c1.57,1.59,3.45,3.14,5.75,3.42S443.81,495.28,445.85,494.18Z"/><path class="cls-2" d="M494.19,457.18c-10.08-20.37-27.16-36.41-47.35-46.85,12.22.29,23.15,7.33,32.19,15,9.12,8.05,16.88,17.59,21.79,28.89a3.62,3.62,0,0,1-6.63,2.92Z"/><path class="cls-4" d="M499.08,530.34a4.89,4.89,0,0,1-.54,0,4.83,4.83,0,0,1-4.43-5.33v0l.25-2.29c1.31-12.49,2.8-26.66,10.27-37.81,9.5-14.64,29.33-39,55-38.27a1.33,1.33,0,0,1,.64,2.47c-2.08,1.25-4.12,2.43-6.12,3.59a155.06,155.06,0,0,0-15.74,10c-16,12.62-25.94,25.13-30.43,38.24-2,7.12-2.84,14.61-3.75,22.55L504,526A4.78,4.78,0,0,1,499.08,530.34Zm-2.31-5.13a2.29,2.29,0,0,0,4.56.47l.3-2.61c.92-8,1.79-15.64,3.86-23,4.67-13.67,14.92-26.59,31.35-39.55a155.65,155.65,0,0,1,16-10.16l1.53-.89c-21.93,2.39-39,23.72-47.54,36.88-7.11,10.61-8.56,24.43-9.84,36.62Z"/><path class="cls-4" d="M502,583.2a5.81,5.81,0,0,1-.72-.05,4.85,4.85,0,0,1-4.25-5.3,0,0,0,0,0,0,0c1.94-19.18,31.64-53.26,51.7-54.43a1.33,1.33,0,0,1,1,2.32c-2.19,2-4.38,3.84-6.53,5.7-6.95,6-13.52,11.65-19.33,18.82-7.46,9.21-14.91,19-17,29A4.79,4.79,0,0,1,502,583.2Zm-2.31-5.12a2.29,2.29,0,0,0,4.52.63c2.23-10.57,9.9-20.69,17.56-30.16,6-7.36,12.61-13.09,19.66-19.16l2.91-2.52C525.92,532.23,501.38,561.57,499.7,578.08Z"/><path class="cls-4" d="M497.66,522.48a4.74,4.74,0,0,1-4.12-2.4c-7.46-10.24-20.24-16.72-30.55-21.22l-.8-.33c-3.87-1.6-7.52-3.12-11.66-4.63a1.33,1.33,0,0,1,.06-2.53c4.14-1.26,8.84-1.17,14.8.27,12.44,3.67,27.8,9.61,36.65,23.34a4.83,4.83,0,0,1-1.78,6.79A5.16,5.16,0,0,1,497.66,522.48ZM456.1,493.17c2.41.95,4.72,1.9,7.11,2.9l.82.34c10.66,4.65,23.86,11.36,31.7,22.15l.07.09a2.29,2.29,0,0,0,4-2.3c-8.34-12.91-23.12-18.61-35.06-22.13A32.53,32.53,0,0,0,456.1,493.17Z"/><path class="cls-4" d="M497.51,460.64a5,5,0,0,1-4.53-2.89c-9.59-19.39-25.76-35.38-46.75-46.23a1.35,1.35,0,0,1-.68-1.52,1.25,1.25,0,0,1,1.32-1c10.53.25,21,5.13,33,15.35,10.12,8.93,17.56,18.81,22.16,29.38a5,5,0,0,1-2.61,6.52A5,5,0,0,1,497.51,460.64Zm-44-48.13c18.56,11,32.95,26.08,41.84,44.07,0,0,0,0,0,.05a2.29,2.29,0,0,0,4.2-1.84C495.16,444.58,488,435,478.14,426.37,469.25,418.79,461.27,414.27,453.54,412.51Z"/><path class="cls-5" d="M411.79,619.68A33.37,33.37,0,0,1,434,613.4c3.07.29,5.39,1.58,8.48.83,4.26-1.05,8.36-3.13,12.57-4.41a72,72,0,0,1,38-.52c2.51.66,5.09,1.46,7.65,1a21,21,0,0,0,4.67-1.67,38.57,38.57,0,0,1,36.58,4l8-3.48c1.31-.57,4.25,0,5.67.14a45.58,45.58,0,0,1,5.94.68,22.46,22.46,0,0,1,10.37,4.48c6.41,5.36,11.11,12.53,11,21.19,3.23-1.07,7.12.46,9.79,2.58a16.9,16.9,0,0,1,5.34,8.51,45,45,0,0,1,1.42,10.09c-66.07,20.63-131.54,20.63-196.39-.81C398.45,643.35,400.88,627.66,411.79,619.68Z"/><path class="cls-6" d="M408,655.89a48,48,0,0,1,3.83-17.67,29.2,29.2,0,0,1,11.76-13.48A21.12,21.12,0,0,1,441.09,623c2,.75,3.89,1.86,6,2.22,2.95.52,6-.49,8.64-1.83s5.21-3,8-4,6.13-1.2,8.68.37a22.57,22.57,0,0,0-8.76-5.4c-3.26-1.15-6.59-.72-10-.53-4.75.26-9.29-1.07-14-1.47a66.56,66.56,0,0,0-16.2.45c-8,1.28-16,5.66-19.46,13-3.34,7.08-2,15.36-.58,23.06C404,651.8,405.06,655.08,408,655.89Z"/><path class="cls-7" d="M543.53,611.9a25.53,25.53,0,0,1,18.06,36.45,173.8,173.8,0,0,1-69.67,7.79c-13.14-1.17-26.12-3.84-39.28-4.59s-26.85.56-38.44,6.86c59.36,18.71,124.46,17.45,183.59-2,1.7-4.21.66-9.36-2-13a13.58,13.58,0,0,0-11.91-5.31A31.64,31.64,0,0,0,570,615.55C562.51,610.54,552.15,609.27,543.53,611.9Z"/><path class="cls-4" d="M475.31,622c-7.21-4.94-15.54-7-23.38-3.94-1.61.74-4.54,1.79-6.79,1.48-2.05-.13-4.36-1.24-5.89-1.67a26.13,26.13,0,0,0-14.64-.3c-16.23,3.61-23.93,23.54-16,37.69l-2.21-1.73a312.4,312.4,0,0,0,95.05,14.69,330.63,330.63,0,0,0,95.15-14.7l-2.27,1.78c3.69-6.39-2.33-16-10.16-15h-.09l-4.25.22c0-5.94-.8-12-4.55-17-8.4-13-25.72-14.37-38.54-6.3,2.37-5.25,7.48-9.25,13.25-11.17,18.43-6.57,40.18,11,37.66,30.54l-4.41-4.25h.18c13.91-1.67,25,14.89,17.77,27.09l-.79,1.33-1.48.45c-63,19.59-132,20.29-194.92,0l-1.47-.47-.74-1.26-.05-.09c-17.8-29.17,12.61-62.32,43.33-47.88,1.75.63,2.16.16,4.15-.46,9.75-3.86,23.07.65,26.05,11Z"/><path class="cls-4" d="M456.66,617.3l-6.24-5c4.21-5.27,14.7-9.13,26.71-9.85,10.74-.64,21.78,1.22,28.9,4.81,6.58-2.43,15.07-3.7,23.73-3.59l2,0c5.68,0,12.11.09,16.71,3l-4.27,6.77c-2.67-1.69-7.89-1.73-12.5-1.76l-2.07,0c-8.26-.12-16.6,1.24-22.3,3.68l-1.89.81-1.76-1.07c-5.49-3.33-16.2-5.23-26.07-4.65C467,611.07,459,614.37,456.66,617.3Z"/><path class="cls-6" d="M473.35,643.48A32.06,32.06,0,0,1,518,640.79C503.08,635.6,487.37,636.2,473.35,643.48Z"/><path class="cls-4" d="M535.51,490.61a28,28,0,0,1-3-.16c-4.77-.49-8.62-2-11.44-4.56s-4.32-7.09-4-11.19a14.22,14.22,0,0,1-8.21-12.84c0-5.47,2.91-11.1,7.87-15.06,4.63-3.7,10.27-5.56,14.67-6.77a100.28,100.28,0,0,1,46.15-1.6,2.67,2.67,0,0,1,.4,5.12c-4.16,1.54-6.58,6.69-7.87,10.73-.68,2.13-1.15,4.3-1.66,6.61a61.46,61.46,0,0,1-2.49,9.06C561.23,482.14,548.51,490.61,535.51,490.61Zm22.36-48.8a94.74,94.74,0,0,0-25.07,3.37c-3.9,1.07-8.88,2.69-12.75,5.79-3.7,2.95-5.89,7-5.87,10.85,0,4.05,2.89,7.81,6.37,8.39a2.67,2.67,0,0,1,2.11,3.46c-.84,2.53.13,6.62,1.94,8.25,2,1.77,4.8,2.85,8.43,3.22C544.74,486.39,556.72,479,561,468a57.44,57.44,0,0,0,2.25-8.29c.51-2.32,1-4.72,1.79-7.08a27.68,27.68,0,0,1,5.29-10A93.6,93.6,0,0,0,557.87,441.81Z"/><path class="cls-4" d="M541.23,564.9a21.14,21.14,0,0,1-8-1.51c-6.92-2.81-13.26-10.23-12.59-17.92a21.81,21.81,0,0,1,3.69-38.38c5.23-2.15,11.49-2.4,19.17-.73,2.51.55,5,1.24,7.41,1.91a89,89,0,0,0,9.79,2.35c4.38.71,10.62.93,15.51-2.06a2.67,2.67,0,0,1,4,2.43c-.62,10.34-3.89,20.94-10,32.41-4.15,7.81-8.86,13.36-14.41,17A27,27,0,0,1,541.23,564.9Zm-7-54.29a20.57,20.57,0,0,0-7.87,1.41,16.48,16.48,0,0,0-1.53,29.75,2.66,2.66,0,0,1,1.32,3c-1.33,5.35,3.72,11.51,9.09,13.69s12.06,1.19,17.71-2.51c4.79-3.13,8.91-8.05,12.62-15,4.84-9.1,7.77-17.57,8.92-25.74a31.49,31.49,0,0,1-14.64.73,96.84,96.84,0,0,1-10.37-2.48c-2.34-.65-4.75-1.32-7.12-1.84A38.8,38.8,0,0,0,534.21,510.61Z"/><path class="cls-4" d="M460.6,530.43a18.77,18.77,0,0,1-16-9.06,31.84,31.84,0,0,1-3.07-8.89c-.3-1.26-.6-2.52-1-3.75-2.52-8.3-9.44-15.52-18.08-18.85a2.67,2.67,0,0,1,.76-5.15c5.23-.39,10-3.11,15-6,4.79-2.75,9.75-5.6,15.45-6.52a24.67,24.67,0,0,1,21.78,7.47c5.11,5.49,7.89,14.48,3.64,21.05,1.7,6,1.62,14.62-1.52,19.84a20.23,20.23,0,0,1-16.21,9.83Zm-29.51-42.11a35.17,35.17,0,0,1,14.57,18.87c.41,1.33.73,2.7,1.06,4.06a27.51,27.51,0,0,0,2.5,7.46,13.38,13.38,0,0,0,11.91,6.37A15.06,15.06,0,0,0,473,517.84c2.46-4.1,2.31-11.94.63-16.7a2.67,2.67,0,0,1,.46-2.59c3.77-4.56.78-11.65-2.54-15.23a19.57,19.57,0,0,0-17-5.84c-4.73.77-9.06,3.25-13.64,5.88A69.81,69.81,0,0,1,431.09,488.32Z"/><path class="cls-4" d="M464.93,454.16a19,19,0,0,1-7.8-1.64c-5.5-2.46-10-7.53-13.36-15.08-1.13-2.52-2.07-5.12-3-7.63a80.28,80.28,0,0,0-3.92-9.54c-3.28-6.37-6.5-9.55-10.76-10.65a2.66,2.66,0,0,1-2-2.17,2.69,2.69,0,0,1,1.21-2.67,47,47,0,0,1,47.32-1c5.63,3.23,9.63,7.21,11.88,11.81,2.68,5.47,2.59,11.81-.16,16.5a21.28,21.28,0,0,1-7.65,18.1A19.39,19.39,0,0,1,464.93,454.16Zm-32.17-47.32c4.2,2.82,6.89,7.17,8.85,11a87.29,87.29,0,0,1,4.2,10.17c.87,2.42,1.78,4.93,2.83,7.28,2.81,6.31,6.4,10.48,10.67,12.38A14.29,14.29,0,0,0,473.49,446a15.79,15.79,0,0,0,5.5-14.07,2.7,2.7,0,0,1,.44-2c2.22-3.18,2.35-7.89.33-12-1.78-3.63-5.06-6.84-9.75-9.54A41.66,41.66,0,0,0,432.76,406.84Z"/><path class="cls-4" d="M460.53,492a15.87,15.87,0,0,0-4.06-6.32,17.3,17.3,0,0,1,6.38,5,1.35,1.35,0,1,1-2.32,1.31Z"/><path class="cls-4" d="M459.38,496.67a10.62,10.62,0,0,1-10.11,3.21,9.27,9.27,0,0,0,8-4.78,1.35,1.35,0,1,1,2.16,1.57Z"/><path class="cls-4" d="M470.68,502a12.36,12.36,0,0,1-10.31,2.73,11.06,11.06,0,0,0,8.37-4.55,1.34,1.34,0,1,1,1.94,1.82Z"/><path class="cls-4" d="M528.19,532a27,27,0,0,1,2.34-11.23,25.64,25.64,0,0,0,.31,10.91,1.34,1.34,0,1,1-2.65.32Z"/><path class="cls-4" d="M533.49,538.08a14.67,14.67,0,0,0,11.22,1.56,16,16,0,0,1-12.33.87,1.35,1.35,0,1,1,1.11-2.43Z"/><path class="cls-4" d="M540.78,524.49a12,12,0,0,1,3.69-6.45,10.62,10.62,0,0,0-1,6.55,1.36,1.36,0,1,1-2.66-.1Z"/><path class="cls-4" d="M544.43,528.49a17.15,17.15,0,0,0,11,.74,18.53,18.53,0,0,1-11.78,1.82,1.34,1.34,0,1,1,.76-2.56Z"/><path class="cls-4" d="M531.6,468.84c-.26.08.36.89,1.3,1.25a25.8,25.8,0,0,0,9.75,2.13c-4,.55-8.52.83-12.29-1a3,3,0,0,1-1.43-2.33l-.1-2a2.16,2.16,0,1,1,2.77,2Z"/><path class="cls-4" d="M543.59,458.16a15.46,15.46,0,0,0,9.16,2.86,16.79,16.79,0,0,1-10.43-.51,1.34,1.34,0,1,1,1.27-2.35Z"/><path class="cls-4" d="M526.34,459a7.15,7.15,0,0,1,3.15-7.17,5.8,5.8,0,0,0-.61,6.36,1.37,1.37,0,1,1-2.54.81Z"/><path class="cls-4" d="M459.41,419.32a10.56,10.56,0,0,1-8.37-.11,9.22,9.22,0,0,0,7-2.18,1.35,1.35,0,1,1,1.36,2.29Z"/><path class="cls-4" d="M470.69,428.23a14.87,14.87,0,0,1-14.51.91,13.54,13.54,0,0,0,12.88-3,1.34,1.34,0,1,1,1.63,2.11Z"/><path class="cls-8" d="M442.3,421.69c2.72-1.34,6,.14,8.27,2.17s4,4.64,6.6,6.21c4.28,2.59,10,1.69,14.23-.92s7.42-6.66,10.48-10.62c.58,4.34,1.48,8.61,1,13a23.51,23.51,0,0,1-4.49,12.14,18.08,18.08,0,0,1-24.71,3.62,24,24,0,0,1-8.21-11.46A66.67,66.67,0,0,1,442.3,421.69Z"/><path class="cls-8" d="M520.55,475.05c.26-.66,1.66-1.23,2.26-1.5,3.62-1.63,7.82-1.34,11.67-.94,4.85.51,10.13,1.09,14.26-1.49,6-3.74,6.7-12.07,10.45-18.06a19.43,19.43,0,0,1,14.27-8.87c-10.64,10.65-8.94,28.95-20,39.18-6.75,6.27-16.76,6.74-25.1,3.62a12.36,12.36,0,0,1-5.7-4c-1.31-1.78-1.47-3.51-1.54-5.62,0-.66-.68-1.62-.63-2.14A.83.83,0,0,1,520.55,475.05Z"/><path class="cls-8" d="M442.19,503.67c2-1.36,4.8-.93,6.85.35a21.57,21.57,0,0,1,5.08,5.14,15.23,15.23,0,0,0,5.38,4.76c3.47,1.53,7.68.45,10.62-1.93s4.8-5.85,6.13-9.39a16,16,0,0,1-23.56,20.65C447,519,443.05,510.71,442.19,503.67Z"/><path class="cls-8" d="M522,541.07c3.34-3.52,9-3.42,13.66-2.08s9.13,3.69,14,3.83c5.06.14,10-2.19,13.83-5.43s6.93-7.38,9.93-11.46a102,102,0,0,1-6.32,16.78c-2.78,5.4-6.6,10.4-11.7,13.69a26.45,26.45,0,0,1-20.31,3.45A18.24,18.24,0,0,1,525,554C522.56,550.89,519.3,543.94,522,541.07Z"/><path class="cls-2" d="M492.82,619.08c.32-57.64,2.72-160.15,2.06-216.75-.06-10.81.18-22.11,5.8-32l5.93,3.44a35.92,35.92,0,0,0-3.81,13.45c-1.07,10.05.11,20.19.39,30.45.15,10,.82,66.28,1,77.51l1.49,123.91Z"/><path class="cls-4" d="M499.32,623.63a15.65,15.65,0,0,1-7.83-2.24,2.68,2.68,0,0,1-1.34-2.33c.13-21.49.53-49.16,1-78.45.71-48.18,1.52-102.78,1.11-138.25-.07-11.76.35-23.15,6.14-33.36a2.68,2.68,0,0,1,3.66-1l5.93,3.45a2.67,2.67,0,0,1,1,3.57,33.05,33.05,0,0,0-3.51,12.44c-.74,7-.37,13.94,0,21.29.15,2.93.31,5.87.39,8.82.12,8.36.61,48.87.85,68.63l1.59,132.84a2.64,2.64,0,0,1-1.28,2.31A14.73,14.73,0,0,1,499.32,623.63Zm-3.82-6.18a8.72,8.72,0,0,0,7.45,0l-1.58-131.22c-.23-19.75-.72-60.25-.84-68.57-.08-2.87-.24-5.77-.39-8.66-.39-7.23-.78-14.72,0-22.11a40.22,40.22,0,0,1,3-12.1l-1.37-.8c-4,8.46-4.27,17.86-4.21,28.29.41,35.52-.39,90.16-1.1,138.37C496,569.23,495.63,596.23,495.5,617.45Z"/><path class="cls-2" d="M498.59,526.9a12,12,0,0,1,12-2.43,13.37,13.37,0,0,1,8.29,9.13,15,15,0,0,1-2.31,12.23c-2.76,3.93-7.14,6.4-11.57,8.26s-9.08,3.25-13.22,5.7a29.82,29.82,0,0,0-11,11.5c-.54-5.22-4-9.78-6.91-14.14C467,547,468.51,529.9,479.44,523a14.11,14.11,0,0,1,10.47-1.84A13.57,13.57,0,0,1,498.59,526.9Z"/><path class="cls-3" d="M471.59,543a24.08,24.08,0,0,1,26.68-16.42,13,13,0,0,0-12.3-5.29,16.7,16.7,0,0,0-11.59,7.45C471.75,532.66,471.36,538.24,471.59,543Z"/><path class="cls-4" d="M480.74,574a2.94,2.94,0,0,1-.51-.05,2.68,2.68,0,0,1-2.14-2.34c-.42-4-3-7.84-5.53-11.54l-.94-1.39a29.65,29.65,0,0,1-3.92-22.24c1.43-6.81,5.1-12.38,10.31-15.69a17,17,0,0,1,21.06,2.51A15,15,0,0,1,511.44,522a16,16,0,0,1,10,11,17.63,17.63,0,0,1-2.71,14.43c-3.42,4.89-8.9,7.58-12.72,9.18-1.37.58-2.76,1.11-4.15,1.64a58,58,0,0,0-8.74,3.9,27,27,0,0,0-10,10.47A2.66,2.66,0,0,1,480.74,574ZM487,523.47a11.47,11.47,0,0,0-6.1,1.74,18.79,18.79,0,0,0-7.95,12.29c-1.34,6.33-.14,13.29,3.13,18.17L477,557a52.66,52.66,0,0,1,4.74,8,32.13,32.13,0,0,1,8.69-7.51,61.42,61.42,0,0,1,9.55-4.3c1.33-.51,2.67-1,4-1.57,5.1-2.14,8.41-4.47,10.42-7.33a12.28,12.28,0,0,0,1.91-10,10.7,10.7,0,0,0-6.59-7.29,9.29,9.29,0,0,0-9.26,1.85,2.63,2.63,0,0,1-2.16.7,2.68,2.68,0,0,1-1.92-1.2,11,11,0,0,0-7-4.62A11.6,11.6,0,0,0,487,523.47Z"/><path class="cls-4" d="M482.63,555.32a1.1,1.1,0,0,1-.31,0,1.33,1.33,0,0,1-1-1.18c-.37-4.32.7-8.9,3.35-14.41a96.65,96.65,0,0,1,11-16.57,1.33,1.33,0,0,1,2,1.71A93.77,93.77,0,0,0,487,540.9a31.57,31.57,0,0,0-2.82,8.19c1.43-2.17,2.86-4.24,4.34-6.39l.48-.7c5.79-8.08,10.92-14,16.15-18.47a1.33,1.33,0,1,1,1.74,2c-5.06,4.38-10.05,10.1-15.71,18l-.46.67c-2.39,3.46-4.64,6.73-7,10.48A1.32,1.32,0,0,1,482.63,555.32Z"/><path class="cls-2" d="M508.83,409.64a10.1,10.1,0,0,0-10.27.06,11.2,11.2,0,0,0-5.26,8.94,12.57,12.57,0,0,0,4,9.67c2.94,2.77,7,4,10.94,4.81s8,1.13,11.86,2.44a25,25,0,0,1,11,7.58c-.45-4.39,1.61-8.74,3.26-12.83,3.87-9.56-.29-23.35-10.48-27.19a11.85,11.85,0,0,0-8.93.28A11.42,11.42,0,0,0,508.83,409.64Z"/><path class="cls-2" d="M518.52,421.25c2.69,2.58,5.32,5.07,8.09,8-.48-4-2.62-7.64-5-10.74a87.94,87.94,0,0,0-9-9.38,42.14,42.14,0,0,0-5.69-4.37,20.6,20.6,0,0,0-7-2.58,1.1,1.1,0,0,0-.8.05,1.08,1.08,0,0,0-.3.87l0,2.84a1.8,1.8,0,0,0,.19,1,1.75,1.75,0,0,0,.73.52,60.6,60.6,0,0,1,9.64,6.13A82.57,82.57,0,0,1,518.52,421.25Z"/><path class="cls-3" d="M495,416.38c3-1.74,6.67-1.23,10.06-.68l12.58,2.07a29.71,29.71,0,0,0,2.09-15.64,16.92,16.92,0,0,0-8.05,4.07c-1.28,1.23-2.4,2.73-4.05,3.38-2,.77-4.15.16-6.21-.22s-4.52-.37-5.89,1.22S494.71,414.44,495,416.38Z"/><path class="cls-4" d="M526.61,430.54a1.33,1.33,0,0,1-1-.41c-2.58-2.68-5-5-7.54-7.43l-.51-.48a85.3,85.3,0,0,0-16-12.08,1.33,1.33,0,1,1,1.29-2.32,87.73,87.73,0,0,1,16.49,12.45l.53.5c1.32,1.26,2.6,2.49,3.89,3.76a29.31,29.31,0,0,0-3.29-5.25,85.76,85.76,0,0,0-8.85-9.19,43.94,43.94,0,0,0-12.41-7.17,1.33,1.33,0,0,1,.85-2.53,46.53,46.53,0,0,1,13.32,7.7,89.19,89.19,0,0,1,9.17,9.52c3.2,4.16,4.87,7.78,5.31,11.44a1.34,1.34,0,0,1-.76,1.37A1.39,1.39,0,0,1,526.61,430.54Z"/><path class="cls-4" d="M490.54,532.52a18.53,18.53,0,0,0-10.81,2.9,19.89,19.89,0,0,1,10.64-5.57,1.35,1.35,0,1,1,.17,2.67Z"/><path class="cls-4" d="M485.18,543a11,11,0,0,0-5.82,1.42,12.38,12.38,0,0,1,5.32-4,1.37,1.37,0,1,1,.5,2.62Z"/><path class="cls-4" d="M492.45,542.18a11.24,11.24,0,0,1-.64,4.92,9.82,9.82,0,0,0-1.87-4,1.4,1.4,0,1,1,2.51-.9Z"/><path class="cls-4" d="M498.78,533.22a17.59,17.59,0,0,1,0,9.55,16.17,16.17,0,0,0-2.44-8.49,1.35,1.35,0,1,1,2.45-1.06Z"/><path class="cls-4" d="M531.14,445.8a2.67,2.67,0,0,1-2-.95,22.12,22.12,0,0,0-9.85-6.77,46.91,46.91,0,0,0-7.81-1.7c-1.23-.2-2.47-.4-3.7-.64-3.47-.67-8.52-2-12.26-5.48a15.28,15.28,0,0,1-4.83-11.76,13.84,13.84,0,0,1,6.54-11.09,13.07,13.07,0,0,1,10.44-1.22,14.63,14.63,0,0,1,6.27-5.22,14.43,14.43,0,0,1,11-.34A20.63,20.63,0,0,1,536.28,412a25.41,25.41,0,0,1,.6,19.31l-.54,1.3c-1.41,3.44-2.88,7-2.55,10.26a2.63,2.63,0,0,1-2.65,2.93Zm-27.35-34.87a7.54,7.54,0,0,0-3.86,1.05,8.61,8.61,0,0,0-4,6.8,9.93,9.93,0,0,0,3.16,7.59c2.08,1.95,5.14,3.26,9.63,4.14,1.17.22,2.35.41,3.53.6A52.64,52.64,0,0,1,521,433a27.59,27.59,0,0,1,8,4.35,48.22,48.22,0,0,1,2.41-6.8l.52-1.27a20.25,20.25,0,0,0-.53-15.17,15.37,15.37,0,0,0-8.42-8.52,9.25,9.25,0,0,0-6.9.21,8.78,8.78,0,0,0-4.76,4.77,2.67,2.67,0,0,1-1.63,1.57,2.62,2.62,0,0,1-2.25-.25A7,7,0,0,0,503.79,410.93Z"/><path class="cls-4" d="M509.9,414.94a9.9,9.9,0,0,0-5,7.43,11.19,11.19,0,0,1,3.45-9.57,1.35,1.35,0,1,1,1.58,2.14Z"/><path class="cls-4" d="M518.61,421.14l-1.34,5.93-1.33-5.93a1.36,1.36,0,1,1,2.67,0Z"/><path class="cls-4" d="M518.11,413.14a9.2,9.2,0,0,1,8.68,2.05,7.83,7.83,0,0,0-7.63.41,1.36,1.36,0,1,1-1-2.46Z"/><path class="cls-8" d="M472.63,554.39a19.9,19.9,0,0,1,15-10.46c5.47-.66,11.23,1,16.41-.87A12.78,12.78,0,0,0,511.53,526c4.19,2.45,7.32,6.71,7.57,11.55a14.93,14.93,0,0,1-6,12.58c-4.1,3-9.39,3.64-14.17,5.32a33.78,33.78,0,0,0-17.09,13.49C478.8,564,475.66,559.36,472.63,554.39Z"/><path class="cls-8" d="M495.49,420.28c1.3,3.63,5.1,5.87,8.89,6.6s7.7.26,11.56.16,7.94.24,11.17,2.36a29.1,29.1,0,0,0-4.53-25.76c4.78.5,8.89,4.24,11,8.54a22.29,22.29,0,0,1,1.5,14.1c-1,5.08-3.27,9.8-5.53,14.45-2.1-3-5.21-4.14-8.73-5.09s-7.2-1.19-10.8-1.83-7.23-1.73-10-4.07S494.57,423.81,495.49,420.28Z"/><path class="cls-8" d="M477.5,501.5c6,1.74,10.2,7.53,16.2,9.33-.26,2.36-.46,4.55-.72,6.91a52,52,0,0,0-14-11.38A15.42,15.42,0,0,1,477.5,501.5Z"/><path class="cls-8" d="M519,474.76a37,37,0,0,0-13.9,19.94c-.87,3.13-.76,6.57-1.07,9.81,2.65-4.22,4.38-8.89,6.58-13.36s4.92-8.86,9-11.8C519.47,478.23,519.17,475.88,519,474.76Z"/><path class="cls-8" d="M483.33,436a23.77,23.77,0,0,0,10.88,8.08c0,3.5.05,6.89,0,10.39-3.94-5.05-7.87-10-11.81-15C482.73,438.2,483,437.21,483.33,436Z"/><path class="cls-8" d="M506.13,564.58c2.24-3.75,5.74-6.53,8.91-9.52s6.19-6.53,6.94-10.82c.52,1.52,1.23,3.13,1.75,4.66a106,106,0,0,0-16.93,25C506.05,570.91,504.54,567.25,506.13,564.58Z"/><path class="cls-8" d="M493.68,572.68a12.51,12.51,0,0,1,5.62-3.38c.11,7,.25,13.83.36,20.78a43.64,43.64,0,0,1-.66,10.41,14.74,14.74,0,0,1-5.27,8.76c.11,3.2.12,6.51.23,9.72a28.17,28.17,0,0,0,6.52.64,9.07,9.07,0,0,0,5.87-2.44,385.85,385.85,0,0,0-1.81-61.46c-3.17,1.18-6.33,2.29-9.5,3.47C494.61,563.51,494.11,568.36,493.68,572.68Z"/><path class="cls-8" d="M495.56,438.7l3.58,1.19a317.42,317.42,0,0,1-3.24,79,21.24,21.24,0,0,0-.46,3.35c1.11,1.13,2.17,2.46,3.28,3.58l6.1-1.68c-.5-8.19-.68-16.35-1.18-24.55l-.9-66.61a11.12,11.12,0,0,0-6.56-4.58C494.8,431.91,495.22,434.91,495.56,438.7Z"/><path class="cls-9" d="M495.83,374.37a9,9,0,0,1,1.3-3.39,33.87,33.87,0,0,0,6-16c2.82,2.91,6.67,6.31,8.74,9.79a17.65,17.65,0,0,1,2.72,11.59c-.63,4-3.43,7.79-7.34,8.83a10.35,10.35,0,0,1-9.13-2.33C495.92,381,495.28,377.41,495.83,374.37Z"/><path class="cls-9" d="M500.74,364.38a26.31,26.31,0,0,0-8.42-14.65c1.44,1.58.87,4.39.07,6.38a27.54,27.54,0,0,1-3.48,5.39,9.86,9.86,0,0,0-2.23,5.91,7.89,7.89,0,0,0,3.14,5.58,23.5,23.5,0,0,0,5.8,3.12"/><path class="cls-9" d="M490.2,359.32a31,31,0,0,0-.51-8.86,9.79,9.79,0,0,0-5-6.67c.37,2.09-.65,4.18-1.86,5.92s-2.68,3.33-3.48,5.29a8.82,8.82,0,0,0,6.95,12.09"/><path class="cls-9" d="M514.48,371.2a10.45,10.45,0,0,1,11-10.45,7.9,7.9,0,0,0-2.15,7.45c.45,1.93,1.59,3.63,2.1,5.54a8.71,8.71,0,0,1-13.65,9.19"/><path class="cls-9" d="M483.76,348.28a15.82,15.82,0,0,0-8-10.33c.38,4-2.78,7.59-3.28,11.55a9.59,9.59,0,0,0,5.61,9.76"/><path class="cls-9" d="M524.84,372a11,11,0,0,1,9.71-8.33c3.33,3.83,3.56,10,.88,14.3a12.32,12.32,0,0,1-13.23,5.24"/><path class="cls-9" d="M479.49,332a26.08,26.08,0,0,1,4.6,7.34,12.83,12.83,0,0,1,1.27,4.2c0,.89-.6,2.68-1.75,2.46a1.78,1.78,0,0,1-1-.8l-2.17-2.87-2.08-2.76c-.53-.7-1-1.15-.86-2a13.88,13.88,0,0,1,.73-2.92C478.32,334.33,479.5,332,479.49,332Z"/><path class="cls-9" d="M493.68,340.77a13.52,13.52,0,0,1,3.17,6c.27,1.14,1.15,5.43-.59,5.86a2.36,2.36,0,0,1-1.35-.22,2.1,2.1,0,0,0-1.36-.18,1.61,1.61,0,0,0-.94,1.1,14.61,14.61,0,0,0-.27,1.47,4.37,4.37,0,0,1-1.64,2.55,33.2,33.2,0,0,1-2.15-5.94c-.5-2.23-.64-4.79.6-6.77a10,10,0,0,1,2-2.39C491.34,342.05,493.42,340.5,493.68,340.77Z"/><path class="cls-9" d="M534.22,380.14a9.28,9.28,0,0,0,8.5-5.28c1.15-2.65.93-5.67,1.33-8.53s1.83-6,4.62-6.76A15.1,15.1,0,0,0,535.26,364"/><path class="cls-9" d="M507.26,344.85a19.84,19.84,0,0,1,2.17,7.82c.08,1.24.43,6.54-1.61,6.31a2.25,2.25,0,0,1-1.42-1,15,15,0,0,0-1-1.43,1.7,1.7,0,0,0-1.6-.54c-.83.25-1.08,1.28-1.2,2.14l-.35,2.48a2.84,2.84,0,0,1-.35,1.18,1,1,0,0,1-1.07.42,1.42,1.42,0,0,1-.62-.68l-1.92-3.47a12.33,12.33,0,0,1-1.74-4.47c-.25-2.39,1.36-4.27,3.25-5.48a28.42,28.42,0,0,1,3.7-2C503.78,346.05,507.15,344.64,507.26,344.85Z"/><path class="cls-9" d="M532.6,352.86c-5.47,2.71-10.2,9.2-8.57,15.52.2.77.62,1.62,1.4,1.74a1.62,1.62,0,0,0,1.45-.75,8.16,8.16,0,0,0,.74-1.55,7.38,7.38,0,0,1,6.27-4.31c.65,0,1.3,0,1.94,0a2.69,2.69,0,0,0,1.74-.77c.73-.82.22-1.5-.1-2.3s-.59-1.91-1-2.82A12.77,12.77,0,0,0,532.6,352.86Z"/><path class="cls-9" d="M519.09,349.43a16.61,16.61,0,0,1,4.15,5.54c.54,1.19,2.27,4.9.79,5.86a4.34,4.34,0,0,1-1.71.45,8,8,0,0,0-6.24,5.49,4.26,4.26,0,0,1-.43,1.11,1,1,0,0,1-1,.47,1.46,1.46,0,0,1-.72-.63l-4-5.76a4.49,4.49,0,0,1-.88-1.76,6.6,6.6,0,0,1,0-1.66c.1-1.36-.22-2.72-.06-4.07.24-2,1.8-2.92,3.53-3.61a21,21,0,0,1,3.31-1C516.32,349.75,518.68,349.08,519.09,349.43Z"/><path class="cls-9" d="M544.56,353.53a10,10,0,0,1,3.26-4.31c-.24.16-1.6-.14-1.94-.14a15.71,15.71,0,0,0-2.06.11,16.94,16.94,0,0,0-4,1c-1.85.69-5.87,2.23-5.43,4.77a6,6,0,0,0,.94,2.05l2.48,3.95a2.1,2.1,0,0,0,.77.82c.63.29,1.34-.13,1.87-.57a9.68,9.68,0,0,0,2.73-3.11C543.81,356.64,543.94,355,544.56,353.53Z"/><path class="cls-9" d="M489.08,331.45c1.51,1.52,2.33,4.42,2.74,6.45a6.34,6.34,0,0,1,.19,3.19,19.81,19.81,0,0,1-2.25,3.27c-.48.71-1.2,1.51-2,1.29a2.92,2.92,0,0,1-1-.72,1.26,1.26,0,0,0-1.16-.38,51.77,51.77,0,0,0-3.36-9.57c-.65-1.41-.41-3.32-.63-4.87a32,32,0,0,0-1.14-4.93A18.17,18.17,0,0,1,489.08,331.45Z"/><path class="cls-9" d="M525.86,337.41c.4.15,0,3.36-.05,3.77a15.79,15.79,0,0,1-2.91,7.16c-.75,1-1.76,1.41-1.52,2.91a6.35,6.35,0,0,0,.88,2.1l2.9,5.17c.19.32.41.68.77.75s.8-.27,1.07-.6c.83-1.05,1.36-2.3,2.17-3.37a4.12,4.12,0,0,1,3.36-1.86,9.82,9.82,0,0,0,2.2.32,2.5,2.5,0,0,0,1.62-1.17c1.94-2.92-.58-6.83-2.41-9.17A18.54,18.54,0,0,0,525.86,337.41Z"/><path class="cls-9" d="M498.13,332.33a16.31,16.31,0,0,1,5.47,9.86,16.52,16.52,0,0,1,.18,2.81,2.68,2.68,0,0,1-1.07,1.91,13,13,0,0,1-2.27,1.85c-.2.13-2.48,1.33-2.5,1.28a24.19,24.19,0,0,0-2-5.41c-.69-1.32-1.8-2.47-1.74-4a11.8,11.8,0,0,1,1-4.73C495.33,335.51,497.65,331.91,498.13,332.33Z"/><path class="cls-9" d="M515.43,340.19c-.3-.33-2.86.62-3.27.77a12.73,12.73,0,0,0-3,1.51c-.92.64-1.69,1.12-1.89,2.28a6.16,6.16,0,0,0,.55,3.33c.66,1.53,1.62,3,1.69,4.68l3.55-1.35,3.87-1.48C521,348.41,517.29,342.19,515.43,340.19Z"/><path class="cls-9" d="M519.2,333.36a14,14,0,0,0-6.32,3.35c-.54.48-4.46,4.13-1.95,4.64.61.12,1.16-.36,1.75-.57a2.73,2.73,0,0,1,2.67.76A8.27,8.27,0,0,1,516.9,344l2.14,4.53c.29.63.67,1.33,1.35,1.47a2.11,2.11,0,0,0,1.88-1c1.6-1.9,3.27-5.47,2.45-8C523.79,338.19,521.33,335.38,519.2,333.36Z"/><path class="cls-9" d="M498.71,327c.6.92,3.42,6.38,1,6.44-.48,0-.94-.19-1.43-.23a3.23,3.23,0,0,0-3,2.17,23.4,23.4,0,0,0-.88,3.83c-.1.44-.37,1-.82.92s-.51-.37-.65-.66l-3.54-7.4a9.51,9.51,0,0,1-.71-1.68c-.17-.65-.14-.66.4-1a13.69,13.69,0,0,1,3-1.45,16.36,16.36,0,0,1,3.28-.8C495.9,327.09,498.47,326.66,498.71,327Z"/><path class="cls-9" d="M510,329.89a12.24,12.24,0,0,0-6.11.68,11.48,11.48,0,0,0-2.69,1.4c-.88.62-.66,1.41-.3,2.4l3.86,10.5a.94.94,0,0,0,.48.64c.37.14.73-.21,1-.53l5.8-7.43a12,12,0,0,0,1.29-1.87c.44-.85.33-1.13-.14-1.91A16,16,0,0,0,510,329.89Z"/><path class="cls-10" d="M501.43,333a14.4,14.4,0,0,0,5.35,1.05,4.87,4.87,0,0,0,4.34-2.83,7.44,7.44,0,0,0-5.31-1.31C503.9,330.16,502.68,331.54,501.43,333Z"/><path class="cls-10" d="M474.12,346.26a7.11,7.11,0,0,0,7-4.82,12.66,12.66,0,0,0-4.56-2.47A19.72,19.72,0,0,0,474.12,346.26Z"/><path class="cls-10" d="M482.55,332.75a5.05,5.05,0,0,0,4.22-3.37,16.34,16.34,0,0,0-5.26-3.34A25.44,25.44,0,0,0,482.55,332.75Z"/><path class="cls-10" d="M499.79,367.82a8.55,8.55,0,0,0,7.64-8.56,7.91,7.91,0,0,0-3.66-3C502.53,360.1,501,363.94,499.79,367.82Z"/><path class="cls-4" d="M505,386.77a12.1,12.1,0,0,1-7.74-2.93c-2.37-2-3.44-5.82-2.73-9.71h0a10.47,10.47,0,0,1,1.5-3.89,32.42,32.42,0,0,0,5.78-15.42,1.33,1.33,0,0,1,2.28-.81c.62.64,1.29,1.3,2,2,2.46,2.43,5.25,5.2,6.95,8.05s3.67,7.47,2.89,12.48c-.75,4.81-4.1,8.79-8.32,9.91A10.22,10.22,0,0,1,505,386.77Zm-7.85-12.16h0c-.44,2.43,0,5.6,1.84,7.2a9,9,0,0,0,7.92,2.05c3.16-.84,5.78-4,6.36-7.74a16.36,16.36,0,0,0-2.54-10.7c-1.53-2.57-4.19-5.2-6.54-7.53l-.09-.09a36.13,36.13,0,0,1-5.85,13.93A7.63,7.63,0,0,0,497.14,374.61Z"/><path class="cls-4" d="M495.62,377.44a1.37,1.37,0,0,1-.52-.1A24.65,24.65,0,0,1,489,374a9.13,9.13,0,0,1-3.63-6.56c-.12-2.73,1.36-5.15,2.47-6.73.3-.43.62-.84.93-1.26a18.4,18.4,0,0,0,2.41-3.86c.7-1.73,1.11-3.95.17-5a1.33,1.33,0,0,1,1.84-1.91,27.46,27.46,0,0,1,8.88,15.42,1.33,1.33,0,0,1-2.62.5,25.64,25.64,0,0,0-5-10.81,13.42,13.42,0,0,1-.79,2.79,20,20,0,0,1-2.75,4.45c-.29.4-.59.8-.88,1.21-1.42,2-2.05,3.62-2,5.08a6.54,6.54,0,0,0,2.65,4.6,22.32,22.32,0,0,0,5.48,2.93,1.33,1.33,0,0,1-.52,2.56Z"/><path class="cls-4" d="M486.34,368.42h-.18a10.15,10.15,0,0,1-8-13.91,18.46,18.46,0,0,1,2.59-4.16c.35-.46.7-.92,1-1.39,1.34-1.93,1.88-3.54,1.64-4.93a1.33,1.33,0,0,1,1.87-1.44,11,11,0,0,1,5.7,7.56,32.62,32.62,0,0,1,.54,9.26,1.33,1.33,0,0,1-2.66-.15,30.4,30.4,0,0,0-.47-8.47,9.66,9.66,0,0,0-2.44-4.51,12.13,12.13,0,0,1-2,4.2c-.35.5-.72,1-1.09,1.48a16.45,16.45,0,0,0-2.26,3.56,7.49,7.49,0,0,0,5.9,10.26,1.33,1.33,0,0,1-.18,2.65Z"/><path class="cls-4" d="M517.07,386a10.1,10.1,0,0,1-6.05-2,1.33,1.33,0,1,1,1.6-2.13,7.37,7.37,0,0,0,11.56-7.78,15.61,15.61,0,0,0-.95-2.45,17.59,17.59,0,0,1-1.16-3.13,9.37,9.37,0,0,1,.68-6.16,9.06,9.06,0,0,0-6.93,8.86,1.34,1.34,0,1,1-2.67,0,12,12,0,0,1,3.68-8.58,11.87,11.87,0,0,1,8.77-3.2,1.31,1.31,0,0,1,1.17.86,1.33,1.33,0,0,1-.32,1.43,6.57,6.57,0,0,0-1.78,6.19,15.08,15.08,0,0,0,1,2.64,19,19,0,0,1,1.09,2.86,10.31,10.31,0,0,1-4.1,10.89A10,10,0,0,1,517.07,386Z"/><path class="cls-4" d="M478.13,360.6a1.39,1.39,0,0,1-.52-.11,11,11,0,0,1-6.42-11.15,19.8,19.8,0,0,1,1.74-5.36c.89-2.05,1.72-4,1.54-5.9a1.34,1.34,0,0,1,1.89-1.34,17.11,17.11,0,0,1,8.7,11.26,1.34,1.34,0,1,1-2.61.57,14.92,14.92,0,0,0-5.43-8.33,21.6,21.6,0,0,1-1.64,4.8,17.37,17.37,0,0,0-1.54,4.63,8.25,8.25,0,0,0,4.81,8.37,1.32,1.32,0,0,1,.71,1.74A1.34,1.34,0,0,1,478.13,360.6Z"/><path class="cls-4" d="M525.11,384.92a12.83,12.83,0,0,1-3.25-.42,1.33,1.33,0,0,1,.68-2.58,11,11,0,0,0,11.76-4.65,11.23,11.23,0,0,0-.32-12.19,9.7,9.7,0,0,0-7.85,7.24,1.33,1.33,0,0,1-2.59-.64,12.33,12.33,0,0,1,10.89-9.34,1.37,1.37,0,0,1,1.13.45c3.62,4.17,4,11,1,15.89A13.65,13.65,0,0,1,525.11,384.92Z"/><path class="cls-4" d="M485.46,345.23a1.34,1.34,0,0,1-1.31-1.09,23.79,23.79,0,0,0-4.41-9.77,12.44,12.44,0,0,0-.92,3.79,1.33,1.33,0,0,1-2.66-.21,15.17,15.17,0,0,1,2.19-6.69,1.34,1.34,0,0,1,1-.63,1.38,1.38,0,0,1,1.12.45,26.74,26.74,0,0,1,6.28,12.57,1.34,1.34,0,0,1-1.07,1.55A1,1,0,0,1,485.46,345.23Z"/><path class="cls-4" d="M496.51,355.21a1.16,1.16,0,0,1-.45-.08,1.33,1.33,0,0,1-.8-1.71,11.83,11.83,0,0,0-2-11,7,7,0,0,0-3.54,4.24,1.33,1.33,0,0,1-2.56-.75,9.78,9.78,0,0,1,6-6.36,1.35,1.35,0,0,1,1.43.36,14.57,14.57,0,0,1,3.1,14.46A1.31,1.31,0,0,1,496.51,355.21Z"/><path class="cls-4" d="M534.44,381.48h-.26a1.34,1.34,0,0,1-1.29-1.37,1.42,1.42,0,0,1,1.37-1.3,7.85,7.85,0,0,0,7.24-4.48,16.55,16.55,0,0,0,1-5.39c.07-.94.13-1.88.26-2.8a11.56,11.56,0,0,1,2.09-5.41,14.16,14.16,0,0,0-8.61,4.15A1.33,1.33,0,1,1,534.3,363a16.39,16.39,0,0,1,14.63-4.76,1.33,1.33,0,0,1,.09,2.59c-2.19.6-3.32,3.32-3.65,5.66-.12.86-.18,1.74-.24,2.62a18.52,18.52,0,0,1-1.19,6.26A10.62,10.62,0,0,1,534.44,381.48Z"/><path class="cls-4" d="M508.46,361.19a1.42,1.42,0,0,1-.45-.08,1.34,1.34,0,0,1-.81-1.7,17.77,17.77,0,0,0-.65-13,26.47,26.47,0,0,0-8.32,4.43,1.33,1.33,0,0,1-1.66-2.09,29,29,0,0,1,10.34-5.22,1.33,1.33,0,0,1,1.53.67,20.27,20.27,0,0,1,1.28,16.06A1.34,1.34,0,0,1,508.46,361.19Z"/><path class="cls-4" d="M537.64,362.57a1.34,1.34,0,0,1-1.31-1.1,12.47,12.47,0,0,0-3.87-7,16.3,16.3,0,0,0-6.51,7.09,1.34,1.34,0,0,1-2.42-1.13,18.72,18.72,0,0,1,8.48-8.74,1.34,1.34,0,0,1,1.38.11A15,15,0,0,1,539,361a1.33,1.33,0,0,1-1.08,1.55Z"/><path class="cls-4" d="M524.58,361.28a1.34,1.34,0,0,1-1.33-1.22,14.58,14.58,0,0,0-4.64-9.26,19.43,19.43,0,0,0-8.41,2.67,1.33,1.33,0,1,1-1.37-2.29A22.27,22.27,0,0,1,519,348.1a1.2,1.2,0,0,1,.94.33,17.31,17.31,0,0,1,5.95,11.4,1.35,1.35,0,0,1-1.21,1.45Z"/><path class="cls-4" d="M543,360.12a1,1,0,0,1-.29,0,1.33,1.33,0,0,1-1-1.59,31.61,31.61,0,0,1,1.6-5.48,13.07,13.07,0,0,1,1.43-2.56,16.27,16.27,0,0,0-9.91,4.34,1.33,1.33,0,1,1-1.8-2A18.62,18.62,0,0,1,548,347.89a1.33,1.33,0,0,1,.6,2.41,8.64,8.64,0,0,0-2.8,3.76,28.46,28.46,0,0,0-1.46,5A1.33,1.33,0,0,1,543,360.12Z"/><path class="cls-4" d="M492.15,342.79h0a1.34,1.34,0,0,1-1.32-1.35,15.87,15.87,0,0,0-2.84-9.22,15.54,15.54,0,0,0-5.56-4.71,32.2,32.2,0,0,1,.79,6.78,1.35,1.35,0,0,1-1.33,1.35h0a1.33,1.33,0,0,1-1.33-1.32,29.68,29.68,0,0,0-1.4-8.73,1.31,1.31,0,0,1,.34-1.37,1.33,1.33,0,0,1,1.37-.3,19.4,19.4,0,0,1,9.32,6.77,18.61,18.61,0,0,1,3.32,10.78A1.34,1.34,0,0,1,492.15,342.79Z"/><path class="cls-4" d="M537.5,352.5a1.32,1.32,0,0,1-1.3-1.08,17.47,17.47,0,0,0-8.92-11.91,17.13,17.13,0,0,1-5.52,12.09,1.33,1.33,0,0,1-1.79-2,14.33,14.33,0,0,0,4.56-12.06,1.35,1.35,0,0,1,.5-1.2,1.33,1.33,0,0,1,1.29-.2,20.11,20.11,0,0,1,12.49,14.75,1.34,1.34,0,0,1-1,1.57Z"/><path class="cls-4" d="M503.62,347.46h-.18a1.35,1.35,0,0,1-1.15-1.5,14.2,14.2,0,0,0-4.24-11.86,7.9,7.9,0,0,0-2.32,7.26,1.34,1.34,0,1,1-2.59.65,10.58,10.58,0,0,1,4.25-10.78,1.32,1.32,0,0,1,1.62.11,17,17,0,0,1,5.93,15A1.34,1.34,0,0,1,503.62,347.46Z"/><path class="cls-4" d="M518.75,350.52h0a1.35,1.35,0,0,1-1.28-1.39,11.21,11.21,0,0,0-2.52-7.51,11.69,11.69,0,0,0-7.3,4.09,1.33,1.33,0,1,1-2.05-1.71,14.47,14.47,0,0,1,9.7-5.14,1.37,1.37,0,0,1,1.16.42,13.92,13.92,0,0,1,3.67,10A1.34,1.34,0,0,1,518.75,350.52Z"/><path class="cls-4" d="M508.66,344a1.23,1.23,0,0,1-.49-.1,1.33,1.33,0,0,1-.75-1.73c1.94-4.93,6.68-9.08,11.51-10.09a1.34,1.34,0,0,1,1.19.33,26.57,26.57,0,0,1,6.37,9.4,1.33,1.33,0,1,1-2.47,1,23.82,23.82,0,0,0-5.22-7.95,14.63,14.63,0,0,0-8.9,8.3A1.33,1.33,0,0,1,508.66,344Z"/><path class="cls-4" d="M500.68,336.22h-.14a1.34,1.34,0,0,1-1.19-1.47,10.69,10.69,0,0,0-1.41-6.42,14.7,14.7,0,0,0-8.6,2.53,1.33,1.33,0,1,1-1.48-2.22,17.7,17.7,0,0,1,10.93-2.95,1.33,1.33,0,0,1,1,.61A13.47,13.47,0,0,1,502,335,1.35,1.35,0,0,1,500.68,336.22Z"/><path class="cls-4" d="M514,336.68a1.34,1.34,0,0,1-1.23-.82,13.56,13.56,0,0,0-3.29-4.7,11.15,11.15,0,0,0-7.95,2.28,1.34,1.34,0,0,1-1.68-2.08,14,14,0,0,1,10.42-2.78,1.22,1.22,0,0,1,.67.31,16.24,16.24,0,0,1,4.29,5.94,1.32,1.32,0,0,1-.71,1.74A1.35,1.35,0,0,1,514,336.68Z"/><path class="cls-4" d="M476.26,365.51a10,10,0,0,1-6.94-2.76,19,19,0,0,1-1.82-2.17,14.55,14.55,0,0,0-1.55-1.86,7.28,7.28,0,0,0-7.36-1.63,1.33,1.33,0,0,1-1.27-2.3,16.39,16.39,0,0,1,15.87-2.64,1.33,1.33,0,1,1-1,2.49,13.28,13.28,0,0,0-8.61-.22,9.91,9.91,0,0,1,4.19,2.38,19,19,0,0,1,1.82,2.17,16.38,16.38,0,0,0,1.55,1.87,7.41,7.41,0,0,0,8.11,1.33,1.34,1.34,0,0,1,1.15,2.41A9.66,9.66,0,0,1,476.26,365.51Z"/><path class="cls-4" d="M477.38,385.87a9.28,9.28,0,0,1-7.83-4.25,1.35,1.35,0,0,1,.7-2c1.88-.64,3.28-2.49,4.29-4l.63-1a18.36,18.36,0,0,1,3.83-4.73,10,10,0,0,1,8-2,1.33,1.33,0,0,1-.49,2.62,7.32,7.32,0,0,0-5.85,1.45,16.11,16.11,0,0,0-3.25,4.09l-.65,1a14.31,14.31,0,0,1-4,4.29,6.55,6.55,0,0,0,7,1.31,14.13,14.13,0,0,0,2.58-1.77c.59-.47,1.18-.94,1.81-1.35a13.56,13.56,0,0,1,12.35-1.28,1.33,1.33,0,0,1,.75,1.73,1.35,1.35,0,0,1-1.73.75,10.87,10.87,0,0,0-9.9,1c-.56.37-1.09.8-1.62,1.22a16.33,16.33,0,0,1-3.1,2.09A8.34,8.34,0,0,1,477.38,385.87Z"/><path class="cls-4" d="M514.54,399.77a6.55,6.55,0,0,1-1.34-.14,1.35,1.35,0,0,1-1-1.79,9.67,9.67,0,0,0-4.33-11.91,1.33,1.33,0,0,1,1.3-2.33,12.31,12.31,0,0,1,6,13.45,5.18,5.18,0,0,0,2.77-1.38,7.69,7.69,0,0,0,2.06-4.42,10.77,10.77,0,0,0-1.12-6.5,1.33,1.33,0,0,1,2.36-1.24,13.45,13.45,0,0,1,1.4,8.12,10.35,10.35,0,0,1-2.83,5.94A7.85,7.85,0,0,1,514.54,399.77Z"/><path class="cls-4" d="M549.71,393.13a10.6,10.6,0,0,1-5.8-1.7,19.47,19.47,0,0,1-4.07-4c-.49-.59-1-1.18-1.5-1.74-1.08-1.16-3.24-3-5.52-2.68a1.33,1.33,0,1,1-.42-2.63c2.59-.43,5.39.82,7.89,3.49.55.59,1.08,1.22,1.6,1.85a17,17,0,0,0,3.49,3.46,7.92,7.92,0,0,0,5.81,1.13,16.35,16.35,0,0,0-10.44-11.76,1.33,1.33,0,0,1,.88-2.52A19,19,0,0,1,554,391.12a1.34,1.34,0,0,1-.88,1.43A10.31,10.31,0,0,1,549.71,393.13Z"/><path class="cls-8" d="M465.18,356.08c1.28-.61,2.81,0,4.05.67s2.5,1.58,3.92,1.58a3.38,3.38,0,0,0,2.09-.73A4.94,4.94,0,0,0,479,359c.38,1.57.8,3.18,1.18,4.75a9.13,9.13,0,0,1-10.4-2.86c-.7-.91-1.21-1.95-2-2.82S466.32,356,465.18,356.08Z"/><path class="cls-8" d="M471.53,381.39c2.24,1,4.89-.16,6.68-1.82s3.1-3.81,4.94-5.43,4.58-2.62,6.73-1.44a6,6,0,0,0,4.94,2.71c.37,1.15.74,2.42,1.11,3.56-3.44-.46-7.27-.58-10.35,1-2.42,1.28-4.23,3.75-6.89,4.42C476.38,385,472.78,383.42,471.53,381.39Z"/><path class="cls-8" d="M509.08,384.74c2.23,1.18,2.59,4.4,4.66,5.82a8.62,8.62,0,0,0,2.67,1A5.69,5.69,0,0,1,519,392.8a2.18,2.18,0,0,1,.5,2.6c.73-1.85,1.88-3.48,2.11-5.46a7.76,7.76,0,0,0-1.33-5.68,8.28,8.28,0,0,1-6.22.29,11.57,11.57,0,0,0-2.51-.95A2.3,2.3,0,0,0,509.08,384.74Z"/><path class="cls-8" d="M536.67,381.72l6.26,2.37a83.42,83.42,0,0,0,8,2.74,33.39,33.39,0,0,0-9.34-9.2,7.64,7.64,0,0,1-5.59,3c-.37,0-.85.09-.93.46a.56.56,0,0,0,.4.58A4.16,4.16,0,0,0,536.67,381.72Z"/><path class="cls-8" d="M473,348.94a6.81,6.81,0,0,1,7.24,4.86,2,2,0,0,1,2,.07,6.64,6.64,0,0,1,1.53,1.28,3.6,3.6,0,0,0,1.68,1.07,2.74,2.74,0,0,0,2.42-.85,8.08,8.08,0,0,0,1.45-2.23,7.71,7.71,0,0,1-.17,7.91c-.66,1-1.56,1.82-2.28,2.78a4.49,4.49,0,0,0-1.06,3.33,9.49,9.49,0,0,1-5.53-3.15,9.18,9.18,0,0,1-2.13-5.89,3.77,3.77,0,0,1-2.41-.83,6.37,6.37,0,0,1-1.44-1.93A12.3,12.3,0,0,1,473,348.94Z"/><path class="cls-8" d="M537.51,371.09c1.68-1,2.51-2.91,3.34-4.68s1.9-3.65,3.75-4.27a48.68,48.68,0,0,1-2.27,10.51,13.34,13.34,0,0,1-2.27,4.76,5.46,5.46,0,0,1-4.61,2.15A35.3,35.3,0,0,0,537.51,371.09Z"/><path class="cls-8" d="M487.38,367.05a2.72,2.72,0,0,1,1.71-3.11,6.82,6.82,0,0,1,3.83-.17,11.78,11.78,0,0,0,3.87.28,3.23,3.23,0,0,0,2.76-2.38,6.18,6.18,0,0,1,.32,4.35,17.87,17.87,0,0,1-2.64,4.15,6.06,6.06,0,0,0-1.35,4.6,9.19,9.19,0,0,1-5.64-1.87C488.71,371.66,488,368.92,487.38,367.05Z"/><path class="cls-8" d="M496.33,377.49c.06-1.52,1.64-2.57,3.15-2.79s3,.11,4.57,0a7.74,7.74,0,0,0,7-9.34,12,12,0,0,1,1.74,16,8.12,8.12,0,0,1-4.35,3.37,9.2,9.2,0,0,1-4.27-.07,11.46,11.46,0,0,1-5.11-2.28C497.59,381.15,496.25,379.38,496.33,377.49Z"/><path class="cls-8" d="M515.5,376.21c.67-.84,1.92-.81,3-1a5.79,5.79,0,0,0,4.63-6.87c1.35,2.27,2.64,4.78,2.78,7.42a8.16,8.16,0,0,1-13.33,6.71C514.14,380.59,514,378.14,515.5,376.21Z"/><path class="cls-8" d="M536.31,367.69a15.34,15.34,0,0,1-9.39,8.29,21.29,21.29,0,0,1-3.59,6.66,6.82,6.82,0,0,0,4.78,1.11,9.66,9.66,0,0,0,4.63-2.08C536.56,378.62,538,372.29,536.31,367.69Z"/><path class="cls-8" d="M478.47,338.74a9.25,9.25,0,0,1,5.68,1.24c.53,1.48,1.1,3,1.63,4.49a2.46,2.46,0,0,1-2.64.72,4.39,4.39,0,0,1-2.16-1.88,22.73,22.73,0,0,1-1.29-2.62A4.56,4.56,0,0,0,478.47,338.74Z"/><path class="cls-8" d="M489.73,348.62a10.38,10.38,0,0,0,5.4-4.73,8.8,8.8,0,0,1,1.35,9.32,4.83,4.83,0,0,0-1.34-1,1.49,1.49,0,0,0-1.54,0c-.6.42-.64,1.27-.66,2s-.17,1.6-.85,1.87a1.35,1.35,0,0,1-1.5-.57,3.67,3.67,0,0,1-.51-1.63A26.65,26.65,0,0,1,489.73,348.62Z"/><path class="cls-8" d="M497.87,353a4.76,4.76,0,0,0,3.76-.69,5.68,5.68,0,0,1,1.55-.95,2.29,2.29,0,0,1,2,.54,6.75,6.75,0,0,1,1.32,1.64,8.57,8.57,0,0,0,1-4.95,10.32,10.32,0,0,1,1.65,10.77c-1.48-1-3.08-1.86-4.56-2.87-.48-.33-1.1-.68-1.63-.42s-.62.9-.68,1.46l-.38,3.59a8,8,0,0,1-3.89-3.26C497.25,356.36,497.54,354.59,497.87,353Z"/><path class="cls-8" d="M522.89,352A11.78,11.78,0,0,0,533,341.88c.64.89.91,1.89,1.55,2.78,1.37,1.91,2.78,3.92,3.15,6.25-1.25.89-2.53,1.84-3.78,2.73a2.41,2.41,0,0,0-2.65-.23,7,7,0,0,0-2.25,1.67l-3.69,3.64a27.54,27.54,0,0,0-1.7-3.5C523.06,354,522.39,353.19,522.89,352Z"/><path class="cls-8" d="M509,357.6a14.16,14.16,0,0,0,7.49.4c2.44-.67,4.66-2.66,5-5.17.93,2.21,2.16,4.41,3.09,6.63a5.29,5.29,0,0,1-2.63,1.94c-1,.36-2,.57-3,1a7.44,7.44,0,0,0-4.22,5.21,28.49,28.49,0,0,1-6.74-8.13,2.29,2.29,0,0,1-.42-1.08C507.49,358,508.6,357.61,509,357.6Z"/><path class="cls-8" d="M524.3,364.17c1.38-1.8,3.74-2.47,5.92-3.08s4.54-1.37,5.8-3.26a9.31,9.31,0,0,0,2.2,3.42,5.39,5.39,0,0,1-3.69,2.63c-1.48.39-3,.47-4.49.95a8.51,8.51,0,0,0-5.29,5.37C523.46,368.49,523,365.87,524.3,364.17Z"/><path class="cls-8" d="M485.1,339.65a2.92,2.92,0,0,0,1.59-2,19.26,19.26,0,0,0,1.14-7,19.16,19.16,0,0,1,5.64,10.87,6.49,6.49,0,0,0-4.68,4.43A6.41,6.41,0,0,1,485.1,339.65Z"/><path class="cls-8" d="M496.84,345.09a6.15,6.15,0,0,0,3.79-2.7,6.09,6.09,0,0,0,.75-4.58,13,13,0,0,1,2.58,8.57c-2.07.79-4.16,1.55-6.22,2.34C497.53,347.35,497.05,346.45,496.84,345.09Z"/><path class="cls-8" d="M504.14,340.31a14.74,14.74,0,0,0,6-5c.68-1,1.35-2.11,2.5-2.42.51.79,1.08,1.58,1.59,2.37a10,10,0,0,0-5.16,7.28c-1.43,1-2.84,2.07-4.27,3A16.92,16.92,0,0,1,504.14,340.31Z"/><path class="cls-8" d="M537.27,357.74c1.62-.51,2.64-2.06,3.57-3.48s2.09-2.93,3.76-3.21c-.15,2.67-.31,5.27-.46,7.94-2.14.7-4.21,1.48-6.36,2.18C537.64,360,537.42,358.87,537.27,357.74Z"/><path class="cls-8" d="M518.87,344.53a13.36,13.36,0,0,0,1.71-8.85A11.81,11.81,0,0,1,526,342a22.71,22.71,0,0,1-4.88,9,3.5,3.5,0,0,1-2-2.64C519,347.29,518.28,345.52,518.87,344.53Z"/><path class="cls-8" d="M509.49,349.09a19.5,19.5,0,0,0,4.64-2.3,6.53,6.53,0,0,0,2.75-4.24,9.86,9.86,0,0,1,2,6.53c-1.67.56-3.27,1.22-5,1.63L509,351.86C509.09,350.82,509.43,350.13,509.49,349.09Z"/><path class="cls-8" d="M492.07,335.57c.46-1.75,2.07-2.9,3.59-3.87s3.16-2,3.76-3.73c.5,1.51.77,2.92,1.27,4.43-.88,0-1.73.44-2.61.47a2.82,2.82,0,0,0-1.67.42,2.79,2.79,0,0,0-.79,1.46c-.48,1.66-.89,3.33-1.23,5A4,4,0,0,1,492.07,335.57Z"/></svg>