<svg id="Layer_1" data-name="Layer 1" xmlns="http://www.w3.org/2000/svg" viewBox="0 0 1000 1000"><defs><style>.cls-1{fill:#754c24;}.cls-2{fill:#c69c6d;}.cls-3{fill:#603813;}.cls-4,.cls-7{fill:#42210b;}.cls-5{fill:#8cc63f;}.cls-6{fill:#dfffa1;}.cls-7{opacity:0.4;}.cls-8{fill:#cc9b11;}.cls-9{fill:#ffcf06;}.cls-10{fill:#ffda03;}.cls-11{fill:#fff;opacity:0.5;}.cls-12{fill:#ffb208;}.cls-13{fill:#231005;}</style></defs><path class="cls-1" d="M411.79,687.36A33.37,33.37,0,0,1,434,681.08c3.07.29,5.39,1.59,8.48.83,4.26-1,8.36-3.13,12.57-4.4a71.77,71.77,0,0,1,38-.52c2.51.65,5.09,1.46,7.65,1a21,21,0,0,0,4.67-1.67,38.56,38.56,0,0,1,36.58,4l8-3.48c1.31-.57,4.25.06,5.67.14a47.39,47.39,0,0,1,5.94.69,22.44,22.44,0,0,1,10.37,4.47c6.41,5.37,11.11,12.53,11,21.2,3.23-1.07,7.12.45,9.79,2.57a16.88,16.88,0,0,1,5.34,8.52,45,45,0,0,1,1.42,10.09c-66.07,20.62-131.54,20.63-196.39-.81C398.45,711,400.88,695.34,411.79,687.36Z"/><path class="cls-2" d="M408,723.58a47.93,47.93,0,0,1,3.83-17.67,29.2,29.2,0,0,1,11.76-13.48,21,21,0,0,1,17.53-1.78c2,.75,3.89,1.85,6,2.22,2.95.51,6-.5,8.64-1.83s5.21-3,8-4,6.13-1.2,8.68.37a22.57,22.57,0,0,0-8.76-5.4c-3.26-1.15-6.59-.71-10-.52-4.75.26-9.29-1.07-14-1.48a67.06,67.06,0,0,0-16.2.45c-8,1.29-16,5.67-19.46,13-3.34,7.07-2,15.36-.58,23C404,719.49,405.06,722.76,408,723.58Z"/><path class="cls-3" d="M543.53,679.59A25.53,25.53,0,0,1,561.59,716a174,174,0,0,1-69.67,7.78c-13.14-1.16-26.12-3.84-39.28-4.59s-26.85.57-38.44,6.86c59.36,18.71,124.46,17.45,183.59-2,1.7-4.21.66-9.37-2-13a13.57,13.57,0,0,0-11.91-5.32A31.67,31.67,0,0,0,570,683.23,32.29,32.29,0,0,0,543.53,679.59Z"/><path class="cls-4" d="M475.31,689.71c-7.21-5-15.54-7-23.38-4-1.61.74-4.54,1.79-6.79,1.48-2.05-.13-4.36-1.23-5.89-1.67a26.22,26.22,0,0,0-14.64-.29c-16.23,3.6-23.93,23.53-16,37.69l-2.21-1.73a312.7,312.7,0,0,0,95.05,14.68,330.62,330.62,0,0,0,95.15-14.69L594.37,723c3.69-6.39-2.33-16-10.16-15h-.09l-4.25.23c0-5.94-.8-12-4.55-17-8.4-13-25.72-14.36-38.54-6.29,2.37-5.26,7.48-9.26,13.25-11.17,18.43-6.57,40.18,11,37.66,30.54L583.28,700h.18c13.91-1.67,25,14.9,17.77,27.1l-.79,1.32-1.48.45c-63,19.6-132,20.29-194.92,0l-1.47-.46-.74-1.27-.05-.08c-17.8-29.18,12.61-62.33,43.33-47.88,1.75.62,2.16.16,4.15-.46,9.75-3.86,23.07.64,26.05,11Z"/><path class="cls-4" d="M456.66,685l-6.24-5c4.21-5.26,14.69-9.13,26.71-9.84,10.74-.64,21.79,1.22,28.9,4.8,6.58-2.43,15.1-3.71,23.73-3.59l2,0c5.68,0,12.11.1,16.71,3l-4.27,6.76c-2.67-1.68-7.89-1.72-12.5-1.76l-2.07,0c-8.26-.11-16.6,1.25-22.3,3.69l-1.89.81-1.76-1.07c-5.48-3.34-16.2-5.24-26.07-4.66C467,678.76,459,682.06,456.66,685Z"/><path class="cls-2" d="M473.35,711.17A32.06,32.06,0,0,1,518,708.48C503.08,703.29,487.37,703.89,473.35,711.17Z"/><path class="cls-5" d="M483.79,439.71a5.17,5.17,0,0,0,3-5.72,7.89,7.89,0,0,0-4.21-5.32,17.47,17.47,0,0,0-6.76-1.7,45.11,45.11,0,0,0-20.56,3c2.44.43,4.19,2.68,5.35,4.86s1.87,4.6,3.17,6.71a14.1,14.1,0,0,0,15.53,6,8.08,8.08,0,0,0,4.19-2.6A5.41,5.41,0,0,0,483.79,439.71Z"/><path class="cls-5" d="M499.39,461.4c-1.74-5.87-3.51-12.5-8-17.1-6.85-7.23-17.16-14.9-27.67-12.62A114.65,114.65,0,0,1,474.86,436c6.73,3.55,13.51,8.32,17.31,15.08a77.62,77.62,0,0,1,4,11.23,1.67,1.67,0,0,0,3.21-1Z"/><path class="cls-6" d="M458.24,432.43c2.66-1.32,5.78-1.23,8.71-.79s5.83,1.23,8.8,1.2,6.11-1,7.86-3.41a37.85,37.85,0,0,0-21.29-1,9.63,9.63,0,0,0-3.3,1.29,3.91,3.91,0,0,0-1.78,2.94C457.45,432.62,458,432.42,458.24,432.43Z"/><path class="cls-4" d="M497.73,464.85a2.94,2.94,0,0,1-2.82-2.09l-.36-1.16a65.82,65.82,0,0,0-3.58-9.89c-3-5.39-8.52-10.16-16.73-14.49a68.16,68.16,0,0,0-7.86-3.16c-1-.36-2.06-.73-3.12-1.13a1.33,1.33,0,0,1,.18-2.55c12-2.61,23.27,7,28.92,13,4.45,4.56,6.34,11,8,16.62l.3,1a0,0,0,0,0,0,0,3,3,0,0,1-2.06,3.67A3.09,3.09,0,0,1,497.73,464.85ZM471.15,433c1.45.56,2.88,1.16,4.31,1.87,8.71,4.6,14.54,9.71,17.87,15.63a67.94,67.94,0,0,1,3.77,10.35l.35,1.14c0,.09.1.31.42.2a.29.29,0,0,0,.24-.4l-.3-1c-1.66-5.62-3.37-11.43-7.37-15.53C486.35,440.91,479.15,434.53,471.15,433Z"/><path class="cls-4" d="M475.71,450.75A16.9,16.9,0,0,1,461.49,443a30.3,30.3,0,0,1-2-4.11,29.48,29.48,0,0,0-1.25-2.74c-1.09-2.05-2.32-3.29-3.46-3.49a2.67,2.67,0,0,1-.53-5.1A47.65,47.65,0,0,1,476,424.31a19.9,19.9,0,0,1,7.78,2,10.5,10.5,0,0,1,5.58,7.2,8.09,8.09,0,0,1-2.49,7.36,7.86,7.86,0,0,1-1.31,5.72,10.54,10.54,0,0,1-5.55,3.53A15.28,15.28,0,0,1,475.71,450.75Zm-14.55-19.87a17.1,17.1,0,0,1,1.8,2.74c.55,1,1,2.11,1.46,3.19A26,26,0,0,0,466,440.2,11.47,11.47,0,0,0,478.55,445a5.56,5.56,0,0,0,2.82-1.67,2.84,2.84,0,0,0,.07-2.35,2.72,2.72,0,0,1-.15-2.23,2.66,2.66,0,0,1,1.59-1.56,2.55,2.55,0,0,0,1.27-2.74,5.3,5.3,0,0,0-2.84-3.44,15.33,15.33,0,0,0-5.73-1.4A42.49,42.49,0,0,0,461.16,430.88Z"/><path class="cls-4" d="M480.16,438.53c.08,2.05-1.9,2.41-3.38,2.68a12.17,12.17,0,0,1-3.29.11,11.53,11.53,0,0,0,4-2.26c.39-.33.18-.69,0-.09a1.33,1.33,0,0,1,2.63-.44Z"/><path class="cls-4" d="M473.09,436.54a8,8,0,0,1-5.13.53,6.62,6.62,0,0,0,3.48-2.63,1.41,1.41,0,0,1,1.95-.43,1.43,1.43,0,0,1-.3,2.53Z"/><path class="cls-4" d="M477.86,433.7a2.22,2.22,0,0,0-.09-2.76,3.57,3.57,0,0,1,2.74,3.09,1.78,1.78,0,0,1-1.29,2.43,1.63,1.63,0,0,1-1.36-2.76Z"/><path class="cls-7" d="M483.78,440.75c-.18-.28-.86-.42-1.16-.49a10.42,10.42,0,0,0-5.38.55c-2.16.64-4.52,1.35-6.61.52-3-1.2-4.06-4.93-6.27-7.34a9,9,0,0,0-7.23-2.83c5.73,3.94,6.49,12.41,12.37,16.14,3.6,2.28,8.19,1.66,11.72-.46a5.75,5.75,0,0,0,2.25-2.31,4.15,4.15,0,0,0,.23-2.69c-.05-.3.18-.79.11-1Z"/><path class="cls-7" d="M484.44,440.49a17.1,17.1,0,0,1,8,7.9,26.48,26.48,0,0,1,1.31,4.37,63.72,63.72,0,0,1-4.11-5.52,14.41,14.41,0,0,0-5.06-4.61C484.53,442.11,484.48,441,484.44,440.49Z"/><path class="cls-5" d="M526,530.72c-5.21-1.19-8.65-6.82-8.35-12.16s3.71-10.14,8.09-13.2,9.63-4.62,14.86-5.72a103,103,0,0,1,47.45,1.3c-5.42,1.63-8.77,7.21-10.82,12.48s-3,11-5.33,16.08c-5.67,12.38-20.14,20-33.56,17.82-3.77-.63-7.55-2-10.22-4.76S524.54,534.27,526,530.72Z"/><path class="cls-5" d="M532.21,609.94a21.86,21.86,0,0,1,7.68-38.76c6.6-1.67,13.6-.17,20,2.22s12.4,5.64,18.89,7.68,13.73,2.79,20,.11c-2.58,12.44-8.56,23.56-16.07,33.81-4.76,6.5-10.59,12.48-17.9,15.88s-16.3,3.89-23.25-.19S529.15,617.4,532.21,609.94Z"/><path class="cls-5" d="M473.48,550.57c3.91-6.59-.43-14.88-5.83-19.12a23.38,23.38,0,0,0-21.34-3.76c-11.16,3.66-18.49,15.43-29.92,18.12,10.11,2.17,19.38,8.9,23.89,18.22,1.94,4,3.14,8.5,5.94,12a16.92,16.92,0,0,0,16.23,5.69,18.66,18.66,0,0,0,13.25-11.21C478,564.9,476.35,555.87,473.48,550.57Z"/><path class="cls-5" d="M479.21,487.42c2.36-4.89,1.23-11-1.9-15.42s-8-7.39-13.08-9.32a46.58,46.58,0,0,0-46.3,8.44c6.55.61,11.11,5.14,15,10.43s6.56,11.38,10.16,16.88,8.48,10.61,14.83,12.3a17.89,17.89,0,0,0,17.28-4.9A19.57,19.57,0,0,0,479.21,487.42Z"/><path class="cls-5" d="M496.51,584.17c2.35-13.78,4.54-29.3,13.44-41C523.49,525,544.77,504.72,569.23,507c-8.62,4.45-16.54,8-24.05,12.92-14.27,9.89-28.35,22.58-35.11,38.94-2.92,8.4-4.36,17.42-6,26.56-.94,4.87-8.25,3.67-7.55-1.28Z"/><path class="cls-6" d="M529.06,601.74a23.07,23.07,0,0,1,21-16.93c5.38-.18,10.61,1.56,15.71,3.29s10.33,3.5,15.71,3.35,11-2.6,13.49-7.39c-9.44,1.93-18.41-3.31-27-7.62s-18.24-8.61-27.57-6.21a21,21,0,0,0-14.28,13.15A19.31,19.31,0,0,0,529.06,601.74Z"/><path class="cls-6" d="M526.67,531.55A35.71,35.71,0,0,1,540.3,510.3c6.11-4.52,13.57-7,21.08-8.11s15.16-1.08,22.77-1c-15.75-4.29-32.53-4.59-48.12.25-4.42,1.38-8.83,3.16-12.35,6.18s-6.08,7.44-5.91,12.08S522.08,530.9,526.67,531.55Z"/><path class="cls-6" d="M427.34,475.93a19,19,0,0,1,9.62-6.85,36.23,36.23,0,0,1,11.85-1.62,69,69,0,0,1,31,7.49,44.24,44.24,0,0,0-25.45-14.65,44.87,44.87,0,0,0-29.23,4.34c-2.19,1.16-4.54,3-4.45,5.43A9.22,9.22,0,0,1,427.34,475.93Z"/><path class="cls-5" d="M498.21,644.05c5.26-21,43.66-53.78,65.76-51.88-11.83,7.81-23.17,14.12-33.45,23.61-9.28,8.58-20.12,19-24.39,30.6-1.74,4.88-9.08,2.72-7.92-2.33Z"/><path class="cls-5" d="M495.92,567.45c-9.3-9.32-23.35-14.21-36-17.53-4.55-1.1-9-2.18-13.9-3.15,4.6-2.23,9.85-2.41,14.74-2,15,2,30.59,6.06,41.14,17.86,3.12,4-2.7,8.69-5.94,4.83Z"/><path class="cls-6" d="M440.87,549.21c2.5-1.9,4.81-4.06,7.43-5.8a29,29,0,0,1,25.78-2.94,22.59,22.59,0,0,0-29.87-11.31c-8.36,3.76-14,12.36-22.65,15.37,0,0,2.26,2.82,2.51,3.08a25.2,25.2,0,0,0,3.06,2.68c1.9,1.4,4.12,2.7,6.57,2.62S438.92,550.7,440.87,549.21Z"/><path class="cls-5" d="M496.62,512.1c-13.92-19.55-34.42-33.41-57.21-40.91,12.78-1.74,25.35,3.77,36.07,10.28C486.35,488.35,496,497,503.05,508a3.83,3.83,0,0,1-6.43,4.15Z"/><path class="cls-4" d="M500.35,589.88a5.46,5.46,0,0,1-.9-.07,5,5,0,0,1-4.26-5.83v0l.4-2.4c2.2-13.08,4.7-27.9,13.29-39.15,11-14.79,33.43-39.26,60.46-36.7a1.33,1.33,0,0,1,.49,2.51c-2.28,1.18-4.5,2.29-6.69,3.38a163.88,163.88,0,0,0-17.24,9.47c-17.69,12.26-29,24.81-34.6,38.34-2.57,7.39-4,15.25-5.45,23.57l-.49,2.71A5,5,0,0,1,500.35,589.88Zm-2.52-5.51a2.49,2.49,0,0,0,4.92.82l.48-2.69c1.5-8.42,2.92-16.38,5.59-24,5.81-14.09,17.45-27,35.6-39.6A166.77,166.77,0,0,1,562,509.2l2-1c-23.46.87-43,22.41-52.93,35.79-8.2,10.74-10.64,25.22-12.79,38Z"/><path class="cls-4" d="M502.32,650.45a5.8,5.8,0,0,1-1.61-.23,5.36,5.36,0,0,1-3.8-6.47v0c5.33-21.3,44.32-54.86,67.16-52.89a1.33,1.33,0,0,1,.62,2.44c-2.8,1.85-5.57,3.62-8.31,5.36-8.85,5.63-17.21,11-25,18.12-9.95,9.2-20,19.11-24,30.08A5.24,5.24,0,0,1,502.32,650.45Zm-2.81-6.09a2.8,2.8,0,0,0,5.36,1.57c4.25-11.54,14.55-21.71,24.74-31.13,7.94-7.33,16.4-12.71,25.35-18.41l4.4-2.81C537.59,596,504.19,625.71,499.51,644.36Z"/><path class="cls-4" d="M498.78,570.22a5,5,0,0,1-3.85-1.87c-9.48-9.47-23.89-14.13-35.39-17.14l-.87-.21c-4.3-1-8.37-2-12.95-2.92a1.33,1.33,0,0,1-.33-2.51c4.1-2,9-2.68,15.44-2.13,13.57,1.77,30.55,5.44,42,18.29a5,5,0,0,1-.73,7.27A5.33,5.33,0,0,1,498.78,570.22ZM451,546.47c2.79.62,5.48,1.26,8.26,1.94l.89.21c11.87,3.1,26.73,7.94,36.67,17.88l.08.09a2.49,2.49,0,0,0,3.87-3.14c-10.84-12.13-27.21-15.66-40.26-17.36A32.92,32.92,0,0,0,451,546.47Z"/><path class="cls-4" d="M499.83,515.15a5.17,5.17,0,0,1-4.31-2.29c-13.26-18.62-32.81-32.59-56.53-40.4a1.33,1.33,0,0,1,.24-2.59c11-1.5,22.74,1.82,36.94,10.47,12,7.6,21.45,16.65,28,26.89a5.15,5.15,0,0,1-4.34,7.92Zm-53.54-42.91c21.37,8.3,39,21.71,51.41,39.09l0,0a2.5,2.5,0,0,0,4.19-2.71c-6.34-9.9-15.47-18.67-27.15-26.06C464,476.06,454.79,472.69,446.29,472.24Z"/><path class="cls-4" d="M543,550.37a31.64,31.64,0,0,1-5.14-.42c-5-.83-8.9-2.69-11.69-5.52s-4.06-7.76-3.4-12a14.85,14.85,0,0,1-7.83-14c.33-5.72,3.77-11.42,9.23-15.24C529.26,499.6,535.3,498,540,497a105.71,105.71,0,0,1,48.69,1.34,2.66,2.66,0,0,1,2,2.53,2.69,2.69,0,0,1-1.9,2.6c-3.66,1.1-6.72,4.76-9.1,10.88-.85,2.2-1.5,4.47-2.19,6.87a64,64,0,0,1-3.2,9.37C568.83,542.5,556,550.37,543,550.37Zm18.52-50.22a100,100,0,0,0-20.42,2.1c-4.19.88-9.57,2.27-13.87,5.29-4.13,2.9-6.73,7.07-7,11.17-.24,4.34,2.58,8.56,6.28,9.41a2.67,2.67,0,0,1,1.89,3.59c-1.06,2.66-.3,7.11,1.54,9s4.92,3.36,8.75,4a29.42,29.42,0,0,0,30.71-16.29,60,60,0,0,0,2.93-8.61c.68-2.41,1.4-4.9,2.34-7.33a28.67,28.67,0,0,1,6.4-10.37A99.87,99.87,0,0,0,561.51,500.15Z"/><path class="cls-4" d="M552.83,636.24A25,25,0,0,1,540.17,633c-7.31-4.29-13.2-13.66-11.06-22.13a24.53,24.53,0,0,1,10.13-42.27c6.19-1.56,13.24-.81,21.56,2.31,2.75,1,5.45,2.22,8.05,3.37a104.21,104.21,0,0,0,10.71,4.27c4.89,1.54,12,2.82,18.13.2a2.67,2.67,0,0,1,3.66,3c-2.39,11.53-7.8,22.93-16.53,34.85-5.92,8.08-12.11,13.55-18.92,16.72A31.21,31.21,0,0,1,552.83,636.24Zm-7-63.1a21.7,21.7,0,0,0-5.25.62,19.2,19.2,0,0,0-6.74,34,2.67,2.67,0,0,1,.88,3.15c-2.5,6.09,2.22,13.93,8.19,17.44,5.71,3.35,13.67,3.38,20.78.08,6-2.79,11.49-7.7,16.87-15.05,7.13-9.73,11.91-19,14.52-28.33-5.06,1-10.87.49-17.08-1.46a109.52,109.52,0,0,1-11.26-4.48c-2.54-1.12-5.16-2.28-7.77-3.26A38,38,0,0,0,545.79,573.14Z"/><path class="cls-4" d="M459.24,584.68a19.59,19.59,0,0,1-15.09-7,33.75,33.75,0,0,1-4.64-8.73c-.52-1.27-1-2.54-1.63-3.76-4-8.3-12.46-14.72-22.06-16.78a2.67,2.67,0,0,1,0-5.21c5.41-1.27,9.93-4.9,14.71-8.74,4.54-3.65,9.23-7.42,15-9.31a25.93,25.93,0,0,1,23.82,4.19c6.19,4.87,10.55,13.75,7.17,21.24,2.77,6,4.11,14.95,1.7,20.9A21.21,21.21,0,0,1,463,584.31,18.82,18.82,0,0,1,459.24,584.68Zm-35.06-39.14a37.07,37.07,0,0,1,18.5,17.33c.64,1.33,1.2,2.7,1.76,4.07a29.91,29.91,0,0,0,3.86,7.4,14.19,14.19,0,0,0,13.62,4.74,16.06,16.06,0,0,0,11.31-9.59c1.91-4.71.46-12.93-2.09-17.65a2.65,2.65,0,0,1,.05-2.63c3.23-5.45-1.09-12.44-5.19-15.66a20.83,20.83,0,0,0-18.86-3.32c-4.84,1.58-8.95,4.89-13.31,8.4A71.74,71.74,0,0,1,424.18,545.54Z"/><path class="cls-4" d="M462.34,514a19.62,19.62,0,0,1-5.1-.67c-6.11-1.63-11.62-6.15-16.37-13.42-1.6-2.44-3-5-4.38-7.46a86.57,86.57,0,0,0-5.69-9.3c-4.52-6.12-8.44-8.92-13.11-9.35a2.67,2.67,0,0,1-1.52-4.66,49.43,49.43,0,0,1,49-8.93c6.38,2.42,11.19,5.87,14.31,10.27,3.69,5.23,4.64,11.83,2.55,17.13,1.81,6.78-.16,15.06-4.89,20.07A20.48,20.48,0,0,1,462.34,514Zm-38.51-44c4.95,2.19,8.54,6.34,11.26,10a89.63,89.63,0,0,1,6.06,9.87c1.32,2.39,2.69,4.85,4.18,7.13,4,6.14,8.48,9.9,13.29,11.19A15.22,15.22,0,0,0,473.27,504a16.79,16.79,0,0,0,3.41-15.73,2.62,2.62,0,0,1,.13-2c1.8-3.73,1.14-8.72-1.68-12.72-2.49-3.51-6.47-6.33-11.84-8.36A44.1,44.1,0,0,0,423.83,469.94Z"/><path class="cls-4" d="M455.89,544.48a16.86,16.86,0,0,0-5.33-5.88,18.29,18.29,0,0,1,7.44,4.24,1.35,1.35,0,1,1-2.11,1.64Z"/><path class="cls-4" d="M455.33,549.55a11.19,11.19,0,0,1-9.95,5.05,9.86,9.86,0,0,0,7.57-6.26,1.34,1.34,0,1,1,2.38,1.21Z"/><path class="cls-4" d="M468,553.21a13.07,13.07,0,0,1-10.25,4.58,11.7,11.7,0,0,0,8-6.08,1.34,1.34,0,1,1,2.21,1.5Z"/><path class="cls-4" d="M539.63,597a31,31,0,0,1,4.3-12.3,29.46,29.46,0,0,0-1.63,12.37,1.34,1.34,0,1,1-2.67-.07Z"/><path class="cls-4" d="M544.33,604.91a16.92,16.92,0,0,0,12.53,3.44,18.18,18.18,0,0,1-14-1.2,1.34,1.34,0,1,1,1.43-2.24Z"/><path class="cls-4" d="M555.1,590.62a13.64,13.64,0,0,1,5-6.71,12.3,12.3,0,0,0-2.41,7.2,1.35,1.35,0,1,1-2.62-.49Z"/><path class="cls-4" d="M558.3,595.88a19.78,19.78,0,0,0,12.41,2.47,21,21,0,0,1-13.5,0,1.34,1.34,0,1,1,1.09-2.43Z"/><path class="cls-4" d="M538.23,527.26c-.26.12.38,1,1.35,1.46a27.17,27.17,0,0,0,10.15,2.82c-4.25.3-9,.27-12.84-1.92a3.13,3.13,0,0,1-1.32-2.49l0-1.55a1.84,1.84,0,1,1,2.64,1.68Z"/><path class="cls-4" d="M551.61,516.85a16.4,16.4,0,0,0,9.5,3.55,17.65,17.65,0,0,1-10.88-1.27,1.34,1.34,0,1,1,1.38-2.28Z"/><path class="cls-4" d="M533.48,516.54a7.53,7.53,0,0,1,3.72-7.34,6.18,6.18,0,0,0-1.13,6.69,1.36,1.36,0,1,1-2.59.65Z"/><path class="cls-4" d="M454,478.4a11.1,11.1,0,0,1-8.7,1.34,9.77,9.77,0,0,0,7-3.38c1.39-1.58,3.51.95,1.71,2Z"/><path class="cls-4" d="M467.22,485.8a15.68,15.68,0,0,1-14.93,3.44,14.34,14.34,0,0,0,13-5.26,1.34,1.34,0,1,1,2,1.82Z"/><path class="cls-7" d="M436.58,483.8c2.61-1.85,6.3-.86,9,.88s4.95,4.16,7.92,5.36c4.89,2,10.67.1,14.68-3.34s6.63-8.19,9.15-12.83c1.34,4.42,3,8.73,3.26,13.34a24.83,24.83,0,0,1-2.65,13.42,19.09,19.09,0,0,1-25.15,7.92A25.24,25.24,0,0,1,442.29,498,69.83,69.83,0,0,1,436.58,483.8Z"/><path class="cls-7" d="M526.25,533.08c.32-.68,1.84-1.19,2.49-1.43,3.92-1.48,8.33-.91,12.36-.23,5.07.86,10.6,1.82,15.13-.64,6.55-3.55,7.85-12.28,12.19-18.34A20.45,20.45,0,0,1,584,504c-11.91,10.52-11.32,29.91-23.62,40-7.53,6.16-18.11,6-26.7,2.17a13,13,0,0,1-5.74-4.63c-1.26-2-1.32-3.79-1.25-6,0-.69-.62-1.76-.53-2.29A.75.75,0,0,1,526.25,533.08Z"/><path class="cls-7" d="M438.61,559.71c1.87-1.74,4.86-1.76,7.21-.76s4.24,2.81,6.14,4.53,3.93,3.42,6.4,4.08c3.86,1,8.08-.79,10.76-3.75s4-6.9,4.85-10.81a16.93,16.93,0,0,1-21.19,25.41C446.14,574.94,440.67,566.92,438.61,559.71Z"/><path class="cls-7" d="M531,606.25c4.35-3.43,10.73-2.4,15.78-.11s9.71,5.66,15.16,6.62c5.7,1,11.61-.84,16.53-3.87s9-7.2,13.1-11.32c-3,6.25-5.88,12.29-9.9,17.93s-9.16,10.66-15.46,13.55a30.26,30.26,0,0,1-23.53.56,20.8,20.8,0,0,1-10.37-8.29C530,617.44,527.44,609,531,606.25Z"/><path class="cls-5" d="M493.66,686.66c.34-60.87,2.87-169.12,2.17-228.89-.06-11.42.19-23.35,6.13-33.8l6.26,3.63a38,38,0,0,0-4,14.21c-1.13,10.61.12,21.31.42,32.15.16,10.54.86,70,1,81.85l1.57,130.85Z"/><path class="cls-4" d="M500.52,691.31a16.35,16.35,0,0,1-8.19-2.34,2.64,2.64,0,0,1-1.34-2.32c.13-22.7.56-51.92,1-82.86.75-50.87,1.6-108.53,1.17-146-.07-12.4.37-24.41,6.47-35.15a2.66,2.66,0,0,1,3.66-1l6.26,3.64a2.66,2.66,0,0,1,1,3.56,35.09,35.09,0,0,0-3.72,13.21c-.79,7.38-.4,14.72,0,22.48.16,3.1.33,6.21.41,9.33.14,8.78.65,51.22.9,72.18l1.69,140.57a2.67,2.67,0,0,1-1.29,2.31A15.37,15.37,0,0,1,500.52,691.31ZM496.33,685a9.37,9.37,0,0,0,8.17,0l-1.67-139c-.25-21-.76-63.39-.89-72.13-.08-3-.25-6.11-.41-9.17-.4-7.63-.82-15.52,0-23.3a42.33,42.33,0,0,1,3.2-12.87l-1.71-1c-4.27,9-4.59,19-4.53,30.09.44,37.51-.41,95.21-1.16,146.11C496.89,634.05,496.47,662.61,496.33,685Z"/><path class="cls-5" d="M499.47,589.06a12.68,12.68,0,0,1,12.86,1.07,14.11,14.11,0,0,1,5.71,11.7,15.85,15.85,0,0,1-5.95,11.72c-4,3.17-9.13,4.38-14.17,5s-10.17.62-15.08,1.88a31.46,31.46,0,0,0-14.56,8.41c1-5.45-1.16-11.09-2.84-16.37-3.91-12.34,2.65-29.21,15.78-33a15,15,0,0,1,11.16,1.23A14.34,14.34,0,0,1,499.47,589.06Z"/><path class="cls-6" d="M467.35,597.39a25.45,25.45,0,0,1,31.9-8.78,13.76,13.76,0,0,0-10.91-9,17.62,17.62,0,0,0-13.95,4.13C470.56,587,468.52,592.52,467.35,597.39Z"/><path class="cls-4" d="M468.28,631.47a2.67,2.67,0,0,1-2.63-3.14c.77-4.23-.74-8.9-2.21-13.42l-.54-1.67c-2.34-7.38-1.37-16.2,2.58-23.59,3.44-6.45,8.77-11,15-12.8a17.76,17.76,0,0,1,20.49,8.8,15.64,15.64,0,0,1,12.91,2.3,16.76,16.76,0,0,1,6.83,14,18.52,18.52,0,0,1-7,13.72c-4.89,3.92-11.21,5-15.54,5.52-1.56.18-3.13.31-4.7.44a60.2,60.2,0,0,0-10,1.38,28.58,28.58,0,0,0-13.32,7.7A2.67,2.67,0,0,1,468.28,631.47Zm17-50a11.85,11.85,0,0,0-3.3.46c-4.83,1.4-9,5-11.78,10.18-3.23,6.06-4.08,13.52-2.19,19.47l.53,1.64A54.25,54.25,0,0,1,471,623a33.72,33.72,0,0,1,11.17-5.18,63.92,63.92,0,0,1,10.91-1.53c1.52-.13,3-.25,4.53-.42,3.68-.42,9-1.33,12.81-4.39a13.1,13.1,0,0,0,4.95-9.7,11.46,11.46,0,0,0-4.59-9.47,10,10,0,0,0-10.09-.87,2.66,2.66,0,0,1-3.77-1.62A11.76,11.76,0,0,0,491.1,583,12.3,12.3,0,0,0,485.26,581.52Z"/><path class="cls-4" d="M475.3,613.15a1.34,1.34,0,0,1-1.3-1.6c.89-4.47,3.31-8.79,7.63-13.59a101.39,101.39,0,0,1,16-13.56,1.34,1.34,0,0,1,1.48,2.23,97.76,97.76,0,0,0-15.52,13.16,33.4,33.4,0,0,0-5.45,7.8c2.2-1.86,4.35-3.62,6.59-5.44l.66-.54c8.26-6.49,15.18-10.92,21.81-14a1.34,1.34,0,1,1,1.11,2.43c-6.43,2.95-13.18,7.27-21.25,13.61l-.65.53c-3.45,2.81-6.7,5.47-10.2,8.59A1.36,1.36,0,0,1,475.3,613.15Z"/><path class="cls-5" d="M514.17,456.7a11.9,11.9,0,0,0-11.52,3.65,13.21,13.21,0,0,0-2.78,11.88,14.83,14.83,0,0,0,7.86,9.46c4.28,2.08,9.25,2.1,14,1.58s9.42-1.54,14.17-1.41a29.47,29.47,0,0,1,15,4.66c-2-4.77-1.24-10.37-.81-15.54,1-12.09-8.48-26.12-21.27-26.87a13.93,13.93,0,0,0-9.93,3.43A13.42,13.42,0,0,0,514.17,456.7Z"/><path class="cls-5" d="M529.1,466.35c3.93,2,7.75,3.84,11.87,6.11-2-4.37-5.62-7.66-9.38-10.31a102.83,102.83,0,0,0-13.41-7.38,49.71,49.71,0,0,0-7.91-2.92,24.14,24.14,0,0,0-8.76-.45,1.21,1.21,0,0,0-.89.34,1.24,1.24,0,0,0,0,1.08l.94,3.2a2.11,2.11,0,0,0,.56,1.05,2,2,0,0,0,1,.33,71.63,71.63,0,0,1,13,3.52A96.41,96.41,0,0,1,529.1,466.35Z"/><path class="cls-6" d="M501,469.1c2.73-3,7.07-3.72,11.07-4.28l14.85-2.07a35,35,0,0,0-3.12-18.29,19.86,19.86,0,0,0-7.62,7.38c-1,1.83-1.74,3.91-3.37,5.22-1.92,1.54-4.6,1.61-7,1.91s-5.2,1.16-6.19,3.43S500,467,501,469.1Z"/><path class="cls-4" d="M541,473.8a1.34,1.34,0,0,1-.65-.17c-3.81-2.11-7.32-3.85-11-5.69l-.8-.39c-8.66-4.1-15.72-6.64-22.19-8a1.34,1.34,0,0,1-1-1.58,1.31,1.31,0,0,1,1.58-1c6.68,1.4,13.93,4,22.81,8.21l.81.4c2.28,1.13,4.47,2.22,6.71,3.39a31.65,31.65,0,0,0-6.37-5.7A101.51,101.51,0,0,0,517.63,456a51.83,51.83,0,0,0-16.52-3.74,1.32,1.32,0,0,1-1.3-1.36,1.26,1.26,0,0,1,1.36-1.3,55.15,55.15,0,0,1,17.55,4A106.84,106.84,0,0,1,532.31,461c5,3.53,8.12,7,9.87,10.9A1.34,1.34,0,0,1,541,473.8Z"/><path class="cls-4" d="M489.67,592.31a19.54,19.54,0,0,0-11.83-.18,20.9,20.9,0,0,1,12.41-2.43,1.34,1.34,0,1,1-.58,2.61Z"/><path class="cls-4" d="M481.13,601.36a11.75,11.75,0,0,0-6.33-.2,13.07,13.07,0,0,1,6.58-2.45,1.36,1.36,0,1,1-.25,2.65Z"/><path class="cls-4" d="M488.66,602.74a11.84,11.84,0,0,1-2,4.8,10.52,10.52,0,0,0-.64-4.63,1.39,1.39,0,1,1,2.66-.17Z"/><path class="cls-4" d="M497.73,595.54a18.59,18.59,0,0,1-2.76,9.67,17.19,17.19,0,0,0,.11-9.35,1.34,1.34,0,1,1,2.65-.32Z"/><path class="cls-4" d="M550.91,489.19a2.61,2.61,0,0,1-1.44-.43,26.62,26.62,0,0,0-13.68-4.23,55,55,0,0,0-9.42.82c-1.46.21-2.92.41-4.37.58-4.08.45-10.12.75-15.43-1.84a17.48,17.48,0,0,1-9.29-11.2,15.83,15.83,0,0,1,3.38-14.32,15,15,0,0,1,11.3-4.85,16.81,16.81,0,0,1,17-12.28c6.11.36,12,3.43,16.47,8.63a29.39,29.39,0,0,1,7.3,21.13l-.15,1.65c-.39,4.41-.8,9,.76,12.62a2.68,2.68,0,0,1-.74,3.09A2.63,2.63,0,0,1,550.91,489.19Zm-15.88-10h.91A32.1,32.1,0,0,1,547,481.51a52.15,52.15,0,0,1,.27-9.14l.14-1.61a24.26,24.26,0,0,0-6-17.19c-3.56-4.11-8.09-6.53-12.75-6.8a11.33,11.33,0,0,0-8,2.77,10.79,10.79,0,0,0-3.84,7.33,2.68,2.68,0,0,1-1.09,2,2.72,2.72,0,0,1-2.23.43,9.21,9.21,0,0,0-8.87,2.83,10.58,10.58,0,0,0-2.19,9.45,12.1,12.1,0,0,0,6.45,7.72c4.07,2,9.09,1.71,12.51,1.33,1.4-.15,2.8-.35,4.2-.55A65.94,65.94,0,0,1,535,479.18Z"/><path class="cls-4" d="M517,462.14a11.71,11.71,0,0,0-2.86,10.24,13,13,0,0,1,.73-11.85,1.34,1.34,0,1,1,2.13,1.61Z"/><path class="cls-4" d="M528.93,466.27l.8,7.05-3.34-6.26a1.35,1.35,0,1,1,2.54-.79Z"/><path class="cls-4" d="M526,457.57a10.71,10.71,0,0,1,10.31-.91,9.39,9.39,0,0,0-8.58,2.94,1.35,1.35,0,1,1-1.73-2Z"/><path class="cls-7" d="M465,609.27a21,21,0,0,1,18.33-6.17c5.74.95,11.1,4.31,16.91,4A13.51,13.51,0,0,0,512.87,592c3.52,3.71,5.44,9,4.26,13.94a15.77,15.77,0,0,1-9.8,11c-5,1.82-10.59.93-15.94,1.22a35.68,35.68,0,0,0-21.31,8.63C468.48,620.78,466.64,615.21,465,609.27Z"/><path class="cls-7" d="M502.89,473.3c2.74,3.63,7.78,4.82,12.3,4.31s8.73-2.4,13-3.86,9-2.5,13.36-1.24a34.25,34.25,0,0,0-14.09-27.36c5.55-1.1,11.46,1.67,15.38,5.75s6,9.68,6.61,15.3c.67,6.05-.25,12.15-1.16,18.16-3.4-2.61-7.29-2.83-11.58-2.66s-8.5,1.17-12.76,1.71-8.72.58-12.69-1.07S503.1,477.59,502.89,473.3Z"/><path class="cls-7" d="M475.09,551.65c6.57.83,11.88,6.18,18.44,7.07.11,2.51.26,4.82.38,7.32a55,55,0,0,0-16.48-9.56A16.12,16.12,0,0,1,475.09,551.65Z"/><path class="cls-7" d="M524.68,532.67a39.08,39.08,0,0,0-15.95,20.11C507.6,556,507.49,559.65,507,563c3.08-4.27,5.21-9.07,7.82-13.65s5.77-9,10.2-11.84C524.91,536.36,524.74,533.86,524.68,532.67Z"/><path class="cls-7" d="M481.75,491.82a25.11,25.11,0,0,0,12.69,6.6c.56,3.65,1.21,7.17,1.76,10.83-4.95-4.6-9.87-9.08-14.82-13.68C481.49,494.24,481.64,493.15,481.75,491.82Z"/><path class="cls-7" d="M509.18,630.21c3.14-3.87,7.55-6.43,11.63-9.3s8.06-6.36,9.61-11.09c.34,1.81.88,3.74,1.22,5.55A120.76,120.76,0,0,0,508.4,640.9C508.05,637.36,506.93,633,509.18,630.21Z"/><path class="cls-7" d="M494.56,637.66a13.3,13.3,0,0,1,5.94-3.57c.12,7.35.26,14.61.38,21.95a46.41,46.41,0,0,1-.69,11,15.61,15.61,0,0,1-5.57,9.25c.12,3.38.12,6.88.24,10.26a29.11,29.11,0,0,0,6.88.68,9.55,9.55,0,0,0,6.2-2.58,406.61,406.61,0,0,0-1.91-64.9c-3.35,1.25-6.69,2.42-10,3.67Z"/><path class="cls-7" d="M496.55,496.17l3.78,1.27a335.12,335.12,0,0,1-3.43,83.39,22.31,22.31,0,0,0-.48,3.54c1.18,1.19,2.29,2.59,3.46,3.78l6.45-1.77c-.53-8.66-.72-17.28-1.25-25.93l-.94-70.34a11.79,11.79,0,0,0-6.94-4.84C495.75,489,496.19,492.18,496.55,496.17Z"/><path class="cls-8" d="M475,293.59c3.66,13,12.71,22.73,23.52,27.11,6.92-9.39,9.5-22.46,5.84-35.41A41.49,41.49,0,0,0,484.72,260a4.56,4.56,0,0,0-6.25,1.76A41.53,41.53,0,0,0,475,293.59Z"/><path class="cls-8" d="M451.86,316.55c9.64,9.39,22.36,13.34,33.92,11.72,1.29-11.59-3-24.2-12.65-33.58a41.55,41.55,0,0,0-29.61-12.07,4.57,4.57,0,0,0-4.53,4.66A41.49,41.49,0,0,0,451.86,316.55Z"/><path class="cls-8" d="M443.32,348c13,3.3,26,.36,35.23-6.81-4.67-10.69-14.69-19.46-27.74-22.77a41.57,41.57,0,0,0-31.68,4.36,4.58,4.58,0,0,0-1.6,6.3A41.52,41.52,0,0,0,443.32,348Z"/><path class="cls-8" d="M451.64,379.5c12.95-3.66,22.74-12.7,27.12-23.51-9.4-6.92-22.46-9.51-35.41-5.85a41.52,41.52,0,0,0-25.26,19.62,4.57,4.57,0,0,0,1.77,6.25A41.5,41.5,0,0,0,451.64,379.5Z"/><path class="cls-8" d="M474.61,402.62c9.38-9.65,13.33-22.37,11.72-33.92-11.6-1.3-24.2,3-33.59,12.64A41.52,41.52,0,0,0,440.68,411a4.57,4.57,0,0,0,4.65,4.53A41.55,41.55,0,0,0,474.61,402.62Z"/><path class="cls-8" d="M506.05,411.16c3.31-13.05.37-26-6.81-35.24-10.69,4.68-19.46,14.7-22.76,27.75a41.49,41.49,0,0,0,4.36,31.68,4.56,4.56,0,0,0,6.29,1.59A41.5,41.5,0,0,0,506.05,411.16Z"/><path class="cls-8" d="M537.55,402.83c-3.66-12.95-12.7-22.73-23.51-27.11-6.92,9.39-9.5,22.46-5.84,35.41a41.49,41.49,0,0,0,19.61,25.25,4.55,4.55,0,0,0,6.25-1.76A41.48,41.48,0,0,0,537.55,402.83Z"/><path class="cls-8" d="M560.67,379.87c-9.64-9.39-22.36-13.34-33.92-11.72-1.29,11.59,3,24.2,12.65,33.58A41.47,41.47,0,0,0,569,413.8a4.57,4.57,0,0,0,4.53-4.66A41.49,41.49,0,0,0,560.67,379.87Z"/><path class="cls-8" d="M569.21,348.42c-13-3.3-26-.36-35.23,6.81,4.67,10.69,14.69,19.46,27.74,22.77a41.53,41.53,0,0,0,31.68-4.36,4.57,4.57,0,0,0,1.59-6.3A41.54,41.54,0,0,0,569.21,348.42Z"/><path class="cls-8" d="M560.88,316.92c-13,3.66-22.73,12.7-27.11,23.52,9.4,6.92,22.46,9.5,35.41,5.84a41.52,41.52,0,0,0,25.26-19.62,4.57,4.57,0,0,0-1.77-6.25A41.52,41.52,0,0,0,560.88,316.92Z"/><path class="cls-8" d="M537.92,293.8c-9.38,9.65-13.33,22.37-11.72,33.92,11.59,1.3,24.2-3,33.59-12.64a41.52,41.52,0,0,0,12.06-29.62,4.57,4.57,0,0,0-4.65-4.53A41.55,41.55,0,0,0,537.92,293.8Z"/><path class="cls-8" d="M506.48,285.26c-3.31,13.05-.37,26,6.81,35.24,10.68-4.67,19.46-14.7,22.76-27.74a41.52,41.52,0,0,0-4.36-31.68,4.57,4.57,0,0,0-6.3-1.6A41.52,41.52,0,0,0,506.48,285.26Z"/><path class="cls-4" d="M498.49,323.37a2.48,2.48,0,0,1-1-.2c-12-4.85-21.35-15.63-25.08-28.85h0a44.39,44.39,0,0,1,3.74-33.84A7.24,7.24,0,0,1,486,257.7a44.36,44.36,0,0,1,20.9,26.87c3.74,13.22,1.4,27.32-6.26,37.71A2.68,2.68,0,0,1,498.49,323.37Zm-16-61.26a1.9,1.9,0,0,0-1.66,1,39,39,0,0,0-3.25,29.74h0c3.09,10.91,10.49,19.92,20,24.5,5.71-8.88,7.3-20.43,4.22-31.35a39,39,0,0,0-18.34-23.65A2.08,2.08,0,0,0,482.45,262.11Z"/><path class="cls-4" d="M480.71,331.29a45.29,45.29,0,0,1-44.39-44,7.23,7.23,0,0,1,7.14-7.33A44.38,44.38,0,0,1,475,292.78c9.85,9.58,14.87,23,13.44,35.79a2.68,2.68,0,0,1-2.29,2.35A39.42,39.42,0,0,1,480.71,331.29Zm-36.41-46h-.73a1.9,1.9,0,0,0-1.92,2,39,39,0,0,0,12.07,27.38h0c8.13,7.91,19,12,29.57,11.22.52-10.55-3.89-21.35-12-29.26A39.1,39.1,0,0,0,444.3,285.28Z"/><path class="cls-4" d="M454,352a46.37,46.37,0,0,1-11.35-1.41h0a44.44,44.44,0,0,1-27.43-20.16,7.25,7.25,0,0,1,2.52-9.93,44.35,44.35,0,0,1,33.72-4.66c13.32,3.37,24.35,12.45,29.53,24.28a2.68,2.68,0,0,1-.81,3.17A42.57,42.57,0,0,1,454,352Zm-10-6.59a38.71,38.71,0,0,0,31.23-5.07c-4.84-9.39-14.05-16.54-25-19.33a39.06,39.06,0,0,0-29.65,4.05,1.9,1.9,0,0,0-.67,2.67A39,39,0,0,0,444,345.41Z"/><path class="cls-4" d="M439.8,383.81a43.08,43.08,0,0,1-21.26-5.48,7.24,7.24,0,0,1-2.79-9.86,44.41,44.41,0,0,1,26.87-20.89c13.23-3.74,27.32-1.4,37.72,6.26a2.67,2.67,0,0,1,.89,3.15c-4.85,12-15.64,21.34-28.86,25.08h0A46.26,46.26,0,0,1,439.8,383.81Zm15.39-32.65a40.93,40.93,0,0,0-11.12,1.55A39,39,0,0,0,420.43,371a1.9,1.9,0,0,0,.75,2.65,39,39,0,0,0,29.74,3.24h0c10.92-3.08,19.93-10.48,24.5-20A37.39,37.39,0,0,0,455.19,351.16Z"/><path class="cls-4" d="M445.3,418.15A7.23,7.23,0,0,1,438,411a44.38,44.38,0,0,1,12.82-31.53c9.58-9.85,22.95-14.87,35.79-13.43a2.65,2.65,0,0,1,2.35,2.28c1.79,12.79-2.87,26.3-12.45,36.15a44.37,44.37,0,0,1-31.17,13.67Zm37-47a39.91,39.91,0,0,0-38.92,39.76,1.9,1.9,0,0,0,2,1.92h0a39,39,0,0,0,27.38-12.06h0c7.91-8.13,12-19.05,11.21-29.58C483.36,371.15,482.81,371.14,482.26,371.14Z"/><path class="cls-4" d="M484.77,440.26a7.23,7.23,0,0,1-6.21-3.53A44.39,44.39,0,0,1,473.89,403c3.38-13.32,12.45-24.36,24.28-29.53a2.68,2.68,0,0,1,3.18.8c7.94,10.18,10.66,24.22,7.29,37.53h0a44.38,44.38,0,0,1-20.16,27.43A7.34,7.34,0,0,1,484.77,440.26Zm13.62-61c-9.39,4.83-16.54,14.05-19.33,25A39,39,0,0,0,483.12,434a1.91,1.91,0,0,0,2.67.68,39,39,0,0,0,17.68-24.14C506.25,399.51,504.35,388,498.39,379.28Zm7.66,31.88h0Z"/><path class="cls-4" d="M530.07,439.64a7.25,7.25,0,0,1-3.54-.92,44.36,44.36,0,0,1-20.9-26.87c-3.74-13.22-1.4-27.32,6.26-37.71a2.67,2.67,0,0,1,3.15-.89c12,4.84,21.34,15.63,25.08,28.86h0a44.37,44.37,0,0,1-3.74,33.83A7.23,7.23,0,0,1,530.07,439.64ZM515,379.05c-5.72,8.88-7.3,20.44-4.22,31.36a39,39,0,0,0,18.34,23.64,1.9,1.9,0,0,0,2.64-.75A39,39,0,0,0,535,403.56h0C531.9,392.64,524.5,383.63,515,379.05Z"/><path class="cls-4" d="M568.22,416.47a44.44,44.44,0,0,1-30.68-12.82c-9.85-9.59-14.87-23-13.44-35.8a2.66,2.66,0,0,1,2.28-2.34c12.79-1.8,26.31,2.87,36.15,12.45h0a44.36,44.36,0,0,1,13.68,31.17,7.24,7.24,0,0,1-7.15,7.33Zm-39-45.91c-.51,10.55,3.9,21.35,12,29.26A38.79,38.79,0,0,0,569,411.13a1.9,1.9,0,0,0,1.92-2,39.83,39.83,0,0,0-41.64-38.6Z"/><path class="cls-4" d="M572.42,382a46.4,46.4,0,0,1-11.36-1.42c-13.32-3.37-24.35-12.45-29.53-24.28a2.65,2.65,0,0,1,.81-3.17c10.18-7.94,24.21-10.67,37.53-7.29A44.42,44.42,0,0,1,597.3,366a7.25,7.25,0,0,1-2.52,9.93A43.19,43.19,0,0,1,572.42,382Zm-35.09-25.92c4.83,9.39,14,16.55,25,19.33A39,39,0,0,0,592,371.36a1.91,1.91,0,0,0,.67-2.67A39,39,0,0,0,568.56,351h0C557.56,348.22,546.05,350.12,537.33,356.08Z"/><path class="cls-4" d="M557.35,350.59a42.41,42.41,0,0,1-25.16-8,2.66,2.66,0,0,1-.89-3.14c4.85-12,15.64-21.35,28.86-25.09h0A44.41,44.41,0,0,1,594,318.09a7.25,7.25,0,0,1,2.79,9.86,44.36,44.36,0,0,1-26.87,20.89A45.92,45.92,0,0,1,557.35,350.59Zm-20.25-11.1c8.89,5.72,20.44,7.31,31.36,4.22a39,39,0,0,0,23.64-18.33,1.9,1.9,0,0,0-.75-2.65,39,39,0,0,0-29.74-3.24h0C550.69,322.57,541.68,330,537.1,339.49Z"/><path class="cls-4" d="M530.25,330.61a39.62,39.62,0,0,1-4.35-.23,2.67,2.67,0,0,1-2.34-2.29c-1.79-12.79,2.87-26.3,12.45-36.15a44.37,44.37,0,0,1,31.17-13.67h.05a7.23,7.23,0,0,1,7.29,7.14,45.23,45.23,0,0,1-44.27,45.2Zm-1.64-5.37a39.81,39.81,0,0,0,40.57-39.72,1.9,1.9,0,0,0-1.95-1.92h0a39,39,0,0,0-27.39,12.06h0C531.92,303.79,527.82,314.71,528.61,325.24Zm9.31-31.44h0Z"/><path class="cls-4" d="M513.29,323.17a2.69,2.69,0,0,1-2.11-1c-7.94-10.18-10.66-24.21-7.29-37.53h0a44.34,44.34,0,0,1,20.16-27.43,7.24,7.24,0,0,1,9.92,2.51,44.39,44.39,0,0,1,4.67,33.72c-3.38,13.32-12.46,24.36-24.29,29.53A2.66,2.66,0,0,1,513.29,323.17Zm-4.23-37.25c-2.79,11-.88,22.5,5.08,31.22,9.39-4.83,16.54-14,19.33-25a39,39,0,0,0-4.06-29.64,1.91,1.91,0,0,0-2.67-.68,39.06,39.06,0,0,0-17.68,24.14Z"/><path class="cls-9" d="M491.72,290c0,12.83,5.76,24.15,14.54,31,8.79-6.82,14.55-18.14,14.55-31a39.59,39.59,0,0,0-11.45-28.26,4.36,4.36,0,0,0-6.19,0A39.59,39.59,0,0,0,491.72,290Z"/><path class="cls-10" d="M464.56,305.06c6.41,11.11,17.06,18,28.08,19.55,4.19-10.3,3.52-23-2.89-34.09a39.59,39.59,0,0,0-24-18.75,4.36,4.36,0,0,0-5.37,3.1A39.6,39.6,0,0,0,464.56,305.06Z"/><path class="cls-9" d="M448.57,331.69c11.11,6.42,23.79,7.09,34.09,2.89-1.51-11-8.43-21.66-19.55-28.07a39.55,39.55,0,0,0-30.19-4.22,4.35,4.35,0,0,0-3.09,5.36A39.52,39.52,0,0,0,448.57,331.69Z"/><path class="cls-10" d="M448,362.75c12.83,0,24.15-5.76,31-14.54-6.82-8.78-18.14-14.54-31-14.54a39.59,39.59,0,0,0-28.25,11.44,4.35,4.35,0,0,0,0,6.2A39.59,39.59,0,0,0,448,362.75Z"/><path class="cls-9" d="M463.11,389.92c11.12-6.42,18-17.07,19.55-28.08-10.3-4.2-23-3.53-34.09,2.89a39.54,39.54,0,0,0-18.74,24,4.35,4.35,0,0,0,3.09,5.36A39.59,39.59,0,0,0,463.11,389.92Z"/><path class="cls-10" d="M489.75,405.9c6.41-11.11,7.08-23.79,2.89-34.09-11,1.52-21.67,8.44-28.08,19.55a39.61,39.61,0,0,0-4.22,30.19,4.36,4.36,0,0,0,5.37,3.1A39.59,39.59,0,0,0,489.75,405.9Z"/><path class="cls-9" d="M520.81,406.43c0-12.83-5.76-24.14-14.55-31-8.78,6.83-14.54,18.14-14.54,31a39.58,39.58,0,0,0,11.45,28.26,4.36,4.36,0,0,0,6.19,0A39.58,39.58,0,0,0,520.81,406.43Z"/><path class="cls-10" d="M548,391.36c-6.42-11.11-17.06-18-28.08-19.55-4.2,10.3-3.52,23,2.89,34.09a39.59,39.59,0,0,0,24,18.75,4.35,4.35,0,0,0,5.36-3.1A39.56,39.56,0,0,0,548,391.36Z"/><path class="cls-9" d="M564,364.73c-11.11-6.42-23.79-7.09-34.09-2.89,1.51,11,8.43,21.66,19.54,28.08a39.62,39.62,0,0,0,30.2,4.21,4.35,4.35,0,0,0,3.09-5.36A39.58,39.58,0,0,0,564,364.73Z"/><path class="cls-10" d="M564.49,333.67c-12.83,0-24.15,5.76-31,14.54,6.82,8.78,18.14,14.54,31,14.54a39.59,39.59,0,0,0,28.25-11.44,4.36,4.36,0,0,0,0-6.19A39.55,39.55,0,0,0,564.49,333.67Z"/><path class="cls-9" d="M549.41,306.51c-11.11,6.41-18,17.06-19.54,28.07,10.3,4.2,23,3.53,34.09-2.89a39.55,39.55,0,0,0,18.74-24,4.35,4.35,0,0,0-3.09-5.36A39.58,39.58,0,0,0,549.41,306.51Z"/><path class="cls-10" d="M522.78,290.52c-6.41,11.11-7.09,23.79-2.89,34.09,11-1.52,21.66-8.44,28.08-19.55a39.55,39.55,0,0,0,4.21-30.19,4.35,4.35,0,0,0-5.36-3.1A39.59,39.59,0,0,0,522.78,290.52Z"/><path class="cls-11" d="M443,302a7.62,7.62,0,0,0-4.14,5.45,16.18,16.18,0,0,0,.35,7.05,37.2,37.2,0,0,0,7.19,14.73c-6.75-4.78-12.27-11.16-14.82-19a8.22,8.22,0,0,1-.41-5,6.18,6.18,0,0,1,5.11-3.79A18.41,18.41,0,0,1,443,302Z"/><path class="cls-11" d="M465.24,304.73a55.37,55.37,0,0,1-1.35-13.64c.06-2.28.48-4.55.55-6.82.05-1.83.53-3.22,2.37-4.1a9.17,9.17,0,0,1,4.82-.58,25.11,25.11,0,0,1,14.2,6.19,25.43,25.43,0,0,0-18.62-14.07c-2.36-.39-5.11-.3-6.7,1.48-1.17,1.31-1.39,3.18-1.48,4.93C458.54,287.41,461.19,296.35,465.24,304.73Z"/><path class="cls-11" d="M434.42,380.68A39.74,39.74,0,0,1,468.83,367c-1.31-2.36-2.45-5.1-3.76-7.46a62.1,62.1,0,0,0-18,6.9C441.51,369.79,436.66,374.58,434.42,380.68Z"/><path class="cls-11" d="M463.81,395.58a25.39,25.39,0,0,1,27-9,50.26,50.26,0,0,1-13.09-8.26C470.73,381.5,465,388,463.81,395.58Z"/><path class="cls-11" d="M493.52,397.94c5.1-.47,9.71-3.26,14.91-3.7a17.11,17.11,0,0,1,5.76.71,20.37,20.37,0,0,0,4.69.17c-1.22-2.42-2.38-4.87-3.6-7.3a29.79,29.79,0,0,1-18.23.35A16.81,16.81,0,0,0,493.52,397.94Z"/><path class="cls-11" d="M520.68,394.82a25.76,25.76,0,0,1,23.75-7.73,33.58,33.58,0,0,1-9.85-8.85,73.42,73.42,0,0,1-16.42,9.11A18.21,18.21,0,0,0,520.68,394.82Z"/><path class="cls-11" d="M537.5,375.16c4.69-3,8.75-6.78,14.38-7.89s11.32-.31,16.89.78a46,46,0,0,0-21.58-8.67c-1,1.6-1.91,3.23-2.79,4.89a35.72,35.72,0,0,1-2.15,4.39c-.93,1.28-2.41,2.29-3.43,3.54-.7.87-1.66,3.19-2.55,3.71C536.69,375.67,537.09,375.42,537.5,375.16Z"/><path class="cls-11" d="M547.56,356.72c1.71-1,2.5-3.07,3-5s.7-4,1.79-5.66a11.34,11.34,0,0,1,4.87-3.69,47.94,47.94,0,0,1,25-4.41,35.75,35.75,0,0,0-35.78-.54C548.81,343.24,548.53,350.47,547.56,356.72Z"/><path class="cls-11" d="M543,327.52a25.38,25.38,0,0,1,1.43-7.56,16.32,16.32,0,0,1,6.28-7.26,33.61,33.61,0,0,1,8.9-3.87,71.2,71.2,0,0,1,15.1-2.76c2.82-.21,5.77-.22,8.32,1a5.48,5.48,0,0,0-2.77-3.89,12.64,12.64,0,0,0-4.69-1.61,38,38,0,0,0-22,3,47.89,47.89,0,0,0-17.48,13.83C538.42,321.48,540.75,324.44,543,327.52Z"/><path class="cls-11" d="M492.92,293.45l9-19.08c1.07-2.26,2.18-4.59,4.06-6.24s4.75-2.45,6.94-1.23a7,7,0,0,0-3.54-5,6.43,6.43,0,0,0-5.84-.08,11.17,11.17,0,0,0-3.87,3.86A40.7,40.7,0,0,0,492.92,293.45Z"/><path class="cls-11" d="M519.18,303.37a90.09,90.09,0,0,1,18.58-20.62c4.32-3.52,9.36-6.76,14.93-6.75-.31-2.21-2.92-3.58-5.15-3.49s-4.25,1.25-6.18,2.37a87.6,87.6,0,0,0-11.18,7.35,29.42,29.42,0,0,0-8.39,10.29A23.71,23.71,0,0,0,519.18,303.37Z"/><path class="cls-12" d="M457.78,335.07c-1.83-2.48-3.77-5.44-3-8.42.65-2.35,2.86-3.93,5.11-4.87s4.69-1.44,6.8-2.66,3.91-3.47,3.6-5.89c1.85,2,4.11,3.89,6,5.92a37.29,37.29,0,0,0-11,17.78C462.74,336.49,459.33,337.17,457.78,335.07Z"/><path class="cls-12" d="M472.48,312.4c.49-2.35,2.94-3.73,5.25-4.42s4.83-1.08,6.62-2.69c1.3-1.16,2-2.83,3.11-4.21s2.84-2.54,4.51-2a25.88,25.88,0,0,0,3.89,9.66,39.07,39.07,0,0,0-17.28,10.17C476.7,316.83,474.36,314.47,472.48,312.4Z"/><path class="cls-12" d="M494.87,298.37c4.1-2.32,9.21-1.46,13.82-2.4a17.77,17.77,0,0,0,11.13-7.52c1,3.13.19,6.53-.79,9.65s-2.3,6.2-2.64,9.46a32.86,32.86,0,0,0-18.44.11,1.59,1.59,0,0,1-1.58-.79,5,5,0,0,1-.63-1.69A35.57,35.57,0,0,1,494.87,298.37Z"/><path class="cls-12" d="M545.45,334.39a23.8,23.8,0,0,1,14.92-13.48c6-1.8,12.66-1.21,18.24-4A46.2,46.2,0,0,1,546,337C545.82,336.43,545.61,334.94,545.45,334.39Z"/><path class="cls-12" d="M523.31,310.19a18.59,18.59,0,0,1,12.16,7.94A45.49,45.49,0,0,0,552,295.64a15.06,15.06,0,0,0-13.45,5.78c-1.39,1.85-2.45,4.16-4.55,5.11a8.83,8.83,0,0,1-4.25.44,11.38,11.38,0,0,0-4.28.2A3,3,0,0,0,523.31,310.19Z"/><path class="cls-12" d="M557.63,360.1a11,11,0,0,1,6.38-5.91,31.59,31.59,0,0,1,8.75-1.72,34.55,34.55,0,0,0,8.77-1.61,17.11,17.11,0,0,0,8.47-6.95c1.56-.28,3.22,1.38,3.61,2.92a5.23,5.23,0,0,1-1.22,4.44,13.5,13.5,0,0,1-3.74,2.91,66.32,66.32,0,0,1-13.74,6.06C569.33,362,562.92,362.61,557.63,360.1Z"/><path class="cls-12" d="M542.53,383.06a11.42,11.42,0,0,1,8.21.27c2.63,1,5,2.45,7.56,3.65a15.08,15.08,0,0,0,8.1,1.76c2.66-.32,5-1.74,7.48-2.86s5.26-1.94,7.78-1c1,2.14,1.67,5,.41,7-1.1,1.72-3.38,2.17-5.42,2.41-6.15.71-12.48.85-18.47-.74S545.76,388.35,542.53,383.06Z"/><path class="cls-12" d="M526,410.51a19.77,19.77,0,0,1,12.35.51c2.58,1,5.22,2.52,7.89,1.88a6.93,6.93,0,0,0,4.39-4,20,20,0,0,0,1.37-6,26.88,26.88,0,0,1,.93,14.84,29.16,29.16,0,0,1-1,3.68c-.34.93-.62,2.28-1.36,3-1.52,1.38-3.78.3-5.32-.45a63.78,63.78,0,0,1-6.79-3.85A107.13,107.13,0,0,1,526,410.51Z"/><path class="cls-12" d="M493.91,417.54a11.39,11.39,0,0,1,7.19,3.58c1.42,1.55,2.64,3.65,4.71,4a6.17,6.17,0,0,0,4.05-1.22,38.22,38.22,0,0,0,8.61-7.11A25.07,25.07,0,0,1,512.05,432c-1.54,1.7-3.54,3.28-5.84,3.24-2.63,0-4.71-2.18-6.29-4.29C497.16,427.24,495.44,421.87,493.91,417.54Z"/><path class="cls-12" d="M462.26,408.26a4.43,4.43,0,0,1,3.05.69c.92.53,1.73,1.23,2.64,1.78,3.3,2,7.55,1.76,11.13.35s6.62-3.87,9.6-6.3c.45,1.83-.63,3.66-1.76,5.16a40.32,40.32,0,0,1-19.78,13.93c-1.8.57-3.95,1-5.43-.21a5.51,5.51,0,0,1-1.69-3.4C459.48,417.6,458.36,409.07,462.26,408.26Z"/><path class="cls-12" d="M431.6,386.43c7.06-2.52,15-.32,22.28-2.29,3.63-1,6.89-3,10.36-4.43s7.43-2.37,11-1.1a69.44,69.44,0,0,1-13.73,11.17,36.45,36.45,0,0,1-28,3.8,4.93,4.93,0,0,1-2.78-1.54,3.54,3.54,0,0,1-.38-3A8.7,8.7,0,0,1,431.6,386.43Z"/><path class="cls-12" d="M430.55,357.69c1.65-2.31,4.6-3.39,7.43-3.56a44,44,0,0,1,8.47.8,17.07,17.07,0,0,0,8.41-.47,13.54,13.54,0,0,0,5.9-4.75,40.85,40.85,0,0,0,3.75-6.68,28.87,28.87,0,0,0,2.06,14.15C456,363.13,441.53,362.88,430.55,357.69Z"/><path class="cls-11" d="M424.07,353.86c.07-4.86,3.41-9.23,7.59-11.7s9.1-3.34,13.93-3.84,9.74-.67,14.43-1.93a38.57,38.57,0,0,0-20.48-1.72,37.77,37.77,0,0,0-18.25,8.88,6.64,6.64,0,0,0-2.42,3.49,4.9,4.9,0,0,0,1.45,4.13A15.2,15.2,0,0,0,424.07,353.86Z"/><path class="cls-4" d="M506.26,323.62a2.62,2.62,0,0,1-1.63-.56c-9.75-7.57-15.58-19.93-15.58-33.07a42.41,42.41,0,0,1,12.25-30.15,7,7,0,0,1,9.93,0A42.4,42.4,0,0,1,523.47,290c0,13.14-5.82,25.5-15.57,33.07A2.63,2.63,0,0,1,506.26,323.62Zm0-60.51a1.74,1.74,0,0,0-1.22.52,37.87,37.87,0,0,0,1.22,53.86,37.85,37.85,0,0,0,1.23-53.86A1.75,1.75,0,0,0,506.26,263.11Z"/><path class="cls-4" d="M492.64,327.28l-.36,0c-12.24-1.68-23.46-9.48-30-20.85h0a42.46,42.46,0,0,1-4.48-32.24,7,7,0,0,1,8.61-5,42.42,42.42,0,0,1,25.68,20c6.57,11.38,7.71,25,3.05,36.43A2.68,2.68,0,0,1,492.64,327.28Zm-25.77-23.55a36.84,36.84,0,0,0,24,17.88A37.87,37.87,0,0,0,465,274.35a1.69,1.69,0,0,0-2.12,1.23,37.05,37.05,0,0,0,3.95,28.15Z"/><path class="cls-4" d="M468.92,339.89A43.56,43.56,0,0,1,447.24,334h0a42.47,42.47,0,0,1-20-25.68,7,7,0,0,1,5-8.61,42.45,42.45,0,0,1,32.24,4.48c11.37,6.56,19.17,17.79,20.86,30a2.66,2.66,0,0,1-1.64,2.83A39,39,0,0,1,468.92,339.89Zm-19-10.5a36.82,36.82,0,0,0,29.75,3.46,37.87,37.87,0,0,0-46-28,1.69,1.69,0,0,0-1.22,2.12,37.07,37.07,0,0,0,17.5,22.41Z"/><path class="cls-4" d="M448,365.42a42.4,42.4,0,0,1-30.15-12.24,7,7,0,0,1,0-9.94A42.4,42.4,0,0,1,448,331c13.14,0,25.51,5.82,33.08,15.58a2.67,2.67,0,0,1,0,3.27C473.54,359.6,461.18,365.42,448,365.42Zm0-29.09A37.06,37.06,0,0,0,421.69,347a1.68,1.68,0,0,0,0,2.44,37.83,37.83,0,0,0,53.85-1.22A36.84,36.84,0,0,0,448,336.33Z"/><path class="cls-4" d="M442.76,398.11a39.51,39.51,0,0,1-10.55-1.41,7,7,0,0,1-5-8.6,42.41,42.41,0,0,1,20-25.68c11.37-6.57,25-7.71,36.43-3.05a2.67,2.67,0,0,1,1.64,2.83c-1.69,12.23-9.48,23.46-20.86,30h0A43.56,43.56,0,0,1,442.76,398.11Zm26.15-36.25a38.1,38.1,0,0,0-19,5.18,37,37,0,0,0-17.5,22.4,1.69,1.69,0,0,0,1.22,2.12,37.85,37.85,0,0,0,46-28A34.16,34.16,0,0,0,468.91,361.86Zm-5.8,28.06h0Z"/><path class="cls-4" d="M464.55,427.47a7,7,0,0,1-6.78-5.21A42.43,42.43,0,0,1,462.25,390c6.57-11.38,17.79-19.18,30-20.86a2.65,2.65,0,0,1,2.84,1.64c4.66,11.43,3.52,25.05-3.05,36.43a42.46,42.46,0,0,1-25.68,20A7.25,7.25,0,0,1,464.55,427.47Zm26.35-52.66a37.85,37.85,0,0,0-28,46,1.69,1.69,0,0,0,2.12,1.23,37.08,37.08,0,0,0,22.4-17.5h0A36.84,36.84,0,0,0,490.9,374.81Z"/><path class="cls-4" d="M506.26,438.64a7,7,0,0,1-5-2.05,42.45,42.45,0,0,1-12.25-30.16c0-13.14,5.83-25.5,15.58-33.07a2.66,2.66,0,0,1,3.27,0c9.75,7.57,15.57,19.93,15.57,33.07a42.44,42.44,0,0,1-12.24,30.16A7.05,7.05,0,0,1,506.26,438.64Zm0-59.71A37.87,37.87,0,0,0,505,432.79a1.71,1.71,0,0,0,2.45,0,37.85,37.85,0,0,0-1.23-53.86Z"/><path class="cls-4" d="M548,427.47a7.19,7.19,0,0,1-1.83-.24,42.46,42.46,0,0,1-25.68-20c-6.57-11.38-7.71-25-3.05-36.43a2.65,2.65,0,0,1,2.83-1.64c12.24,1.69,23.46,9.48,30,20.86a42.38,42.38,0,0,1,4.47,32.23A7,7,0,0,1,548,427.47Zm-26.36-52.66a37.87,37.87,0,0,0,25.87,47.26,1.69,1.69,0,0,0,2.12-1.23,37.05,37.05,0,0,0-4-28.15h0A36.84,36.84,0,0,0,521.62,374.81Z"/><path class="cls-4" d="M569.77,398.11a43.56,43.56,0,0,1-21.69-5.88c-11.38-6.57-19.17-17.8-20.86-30a2.67,2.67,0,0,1,1.64-2.83c11.44-4.66,25-3.52,36.43,3.05h0a42.36,42.36,0,0,1,20,25.68,7,7,0,0,1-5,8.6A39.51,39.51,0,0,1,569.77,398.11Zm-36.9-34.54c2,9.79,8.58,18.66,17.88,24a37.05,37.05,0,0,0,28.15,3.95,1.69,1.69,0,0,0,1.22-2.12,37,37,0,0,0-17.5-22.4h0A36.78,36.78,0,0,0,532.87,363.57Z"/><path class="cls-4" d="M564.49,365.42c-13.14,0-25.51-5.82-33.08-15.57a2.66,2.66,0,0,1,0-3.27C539,336.82,551.35,331,564.49,331a42.42,42.42,0,0,1,30.15,12.24,7,7,0,0,1,0,9.94A42.44,42.44,0,0,1,564.49,365.42ZM537,348.21a37.85,37.85,0,0,0,53.86,1.23,1.7,1.7,0,0,0,0-2.46A37.85,37.85,0,0,0,537,348.21Z"/><path class="cls-4" d="M543.61,339.89a39,39,0,0,1-14.75-2.84,2.66,2.66,0,0,1-1.64-2.83c1.69-12.23,9.48-23.46,20.86-30a42.45,42.45,0,0,1,32.24-4.48,7,7,0,0,1,5,8.61,42.44,42.44,0,0,1-20,25.68A43.59,43.59,0,0,1,543.61,339.89Zm-10.74-7A37.84,37.84,0,0,0,580.12,307a1.69,1.69,0,0,0-1.22-2.12,37.1,37.1,0,0,0-28.15,4h0A36.81,36.81,0,0,0,532.87,332.85Zm16.54-26.34h0Z"/><path class="cls-4" d="M519.89,327.28a2.67,2.67,0,0,1-2.47-1.67c-4.66-11.43-3.52-25.05,3.05-36.43h0a42.42,42.42,0,0,1,25.68-20,7,7,0,0,1,8.6,5,42.41,42.41,0,0,1-4.47,32.24c-6.57,11.37-17.79,19.17-30,20.85Zm5.2-35.43a36.85,36.85,0,0,0-3.47,29.76,37.85,37.85,0,0,0,28-46,1.69,1.69,0,0,0-2.12-1.23,37.08,37.08,0,0,0-22.4,17.5Z"/><circle class="cls-13" cx="506.26" cy="348.21" r="41.09"/><path class="cls-4" d="M506.26,392A43.76,43.76,0,1,1,550,348.21,43.81,43.81,0,0,1,506.26,392Zm0-82.18a38.42,38.42,0,1,0,38.43,38.42A38.47,38.47,0,0,0,506.26,309.79Z"/><path class="cls-4" d="M482.51,314.64a25.23,25.23,0,0,1-9.17-16.56A23.93,23.93,0,0,0,484,312.46a1.33,1.33,0,1,1-1.53,2.18Z"/><path class="cls-4" d="M486,311.54a54,54,0,0,0-8.48-21.32A55.26,55.26,0,0,1,488.62,311a1.33,1.33,0,1,1-2.6.58Z"/><path class="cls-4" d="M501,306.63a70.78,70.78,0,0,1,.93-13.29,69.79,69.79,0,0,0,1.71,13,1.33,1.33,0,1,1-2.64.33Z"/><path class="cls-4" d="M507.51,305.94a53.34,53.34,0,0,0-.73-18.4,54.59,54.59,0,0,1,3.39,18.57,1.33,1.33,0,1,1-2.66-.17Z"/><path class="cls-4" d="M524.18,309.83a42.19,42.19,0,0,1,6.2-11.4,40.88,40.88,0,0,0-3.61,12.05,1.34,1.34,0,1,1-2.59-.65Z"/><path class="cls-4" d="M528.53,312.08a28.3,28.3,0,0,0,5.33-5.53,29.77,29.77,0,0,1-3.35,7.32,1.35,1.35,0,1,1-2-1.79Z"/><path class="cls-4" d="M541.5,323.5a53.23,53.23,0,0,1,22.11-9.12,52.1,52.1,0,0,0-20.46,11.2,1.33,1.33,0,1,1-1.65-2.08Z"/><path class="cls-4" d="M547.84,344.63c3.91,1,7.82-2.91,11.7-3.55-4.3,1.8-6.73,6.31-12,6.2a1.35,1.35,0,1,1,.35-2.65Z"/><path class="cls-4" d="M547.25,349.57a41,41,0,0,0,17-1,42.24,42.24,0,0,1-17.14,3.69,1.34,1.34,0,1,1,.19-2.66Z"/><path class="cls-4" d="M545.35,364.45a12.05,12.05,0,0,0,9.54,6.92,13.41,13.41,0,0,1-11.87-5.6,1.34,1.34,0,1,1,2.33-1.32Z"/><path class="cls-4" d="M530.31,382.78l6.16,14.82L527.94,384a1.34,1.34,0,1,1,2.37-1.23Z"/><path class="cls-4" d="M526.56,385.39l1.58,9.26L524,386.2a1.34,1.34,0,1,1,2.54-.81Z"/><path class="cls-4" d="M504.59,389.27a20.47,20.47,0,0,1-5.49,14.33,19.16,19.16,0,0,0,2.84-14.06,1.34,1.34,0,1,1,2.65-.27Z"/><path class="cls-4" d="M486.16,384.41a37.53,37.53,0,0,0-8.37,12.9,39,39,0,0,1,6.32-14.61,1.33,1.33,0,0,1,1.86-.34,1.35,1.35,0,0,1,.19,2.05Z"/><path class="cls-4" d="M490.57,387.52a18.49,18.49,0,0,0-4.73,7.42,19.56,19.56,0,0,1,2.64-9.07,1.35,1.35,0,1,1,2.09,1.65Z"/><path class="cls-4" d="M472.41,372.18a34.77,34.77,0,0,1-18.52,6.45,33.47,33.47,0,0,0,16.83-8.51,1.33,1.33,0,1,1,1.69,2.06Z"/><path class="cls-4" d="M468.69,366.56l-5,.2,4.18-2.74a1.38,1.38,0,1,1,.81,2.54Z"/><path class="cls-4" d="M464.71,350.43a27.93,27.93,0,0,1-13.09-3,26.63,26.63,0,0,0,12.78.31,1.34,1.34,0,1,1,.31,2.65Z"/><path class="cls-4" d="M468.13,331.5a15.42,15.42,0,0,0-7.54-4.16c1.75-.31,11,.82,9.69,3.86a1.36,1.36,0,0,1-2.15.3Z"/></svg>