<svg id="Layer_1" data-name="Layer 1" xmlns="http://www.w3.org/2000/svg" viewBox="0 0 1000 1000"><defs><style>.cls-1{fill:#8cc63f;}.cls-2{fill:#dfffa1;}.cls-3,.cls-7{fill:#42210b;}.cls-4{fill:#754c24;}.cls-5{fill:#c69c6d;}.cls-6{fill:#603813;}.cls-7{opacity:0.4;}</style></defs><path class="cls-1" d="M492.9,513.58c-4.53-16.51-9.41-35.06-6.58-52.88,2.3-19.61,18.06-40.1,39.92-35.15,13.62,2.51,24.13,16.34,21.31,30.1l-8.24-1.23c2.12-14.74-15.94-24-27.61-16.41-21.64,16.29-11,49.07-3.72,71l-15.08,4.58Z"/><path class="cls-2" d="M532.85,429.82c-9.24-2.76-19.59.36-26.94,6.59s-12,15.19-14.57,24.47-3.32,19-4,28.58c-4.74-11.67-4.36-25.13-.57-37.14,2-6.46,5.06-12.76,9.83-17.58A30.55,30.55,0,0,1,514.3,426,28,28,0,0,1,532.85,429.82Z"/><path class="cls-3" d="M492.9,516.24a2.66,2.66,0,0,1-1.29-.33,2.7,2.7,0,0,1-1.29-1.63c-4.29-15.66-9.63-35.15-6.63-54,1.52-13,8.5-25.48,18.19-32.33a30.5,30.5,0,0,1,25-5,29.8,29.8,0,0,1,19,12.72,26.91,26.91,0,0,1,4.35,20.53,2.68,2.68,0,0,1-3,2.1l-8.24-1.23a2.66,2.66,0,0,1-2.25-3c.77-5.31-1.67-10.33-6.52-13.42-5.41-3.44-12.08-3.6-17-.38-20.22,15.22-9.65,46.93-2.65,67.91a2.67,2.67,0,0,1-1.76,3.4l-15.08,4.58A2.52,2.52,0,0,1,492.9,516.24Zm26.86-88.76A25.32,25.32,0,0,0,505,432.3c-8.49,6-14.62,17-16,28.71-2.67,16.8,1.77,34.54,5.78,49.22l9.83-3c-7-21.27-17-54.44,5.51-71.36a21.13,21.13,0,0,1,22.93.24,18.81,18.81,0,0,1,9.13,16l3.14.47a22,22,0,0,0-3.91-14,24.45,24.45,0,0,0-15.63-10.47A26.94,26.94,0,0,0,519.76,427.48Z"/><path class="cls-4" d="M411.79,521.39a34.13,34.13,0,0,1,33.26-3.6c3.46-10.3,13.27-18.17,23.91-20.37a31.88,31.88,0,0,1,29.58,9.77c14.31-7.47,32.64-5.26,45.58,4.38,7.74-.72,15.63-.58,22.86,2.26a25.66,25.66,0,0,1,15.87,23.59c3.23-1.07,7.12.45,9.79,2.57a16.88,16.88,0,0,1,5.34,8.52,45,45,0,0,1,1.42,10.08c-66.07,20.63-131.54,20.63-196.39-.8C398.45,545.06,400.88,529.37,411.79,521.39Z"/><path class="cls-5" d="M499.38,513c6.26-3.9,14-5,21.33-4.19s14.39,3.24,21.25,6l2.06-3.26c-7.45-7.53-18.2-11.68-28.68-10.15a24.83,24.83,0,0,0-9.54,3.3A17.84,17.84,0,0,0,499.38,513Z"/><path class="cls-5" d="M408,557.61a47.93,47.93,0,0,1,3.83-17.67,29.27,29.27,0,0,1,11.76-13.49,21.08,21.08,0,0,1,17.53-1.77c2,.75,3.89,1.85,6,2.22,2.95.51,6-.5,8.64-1.83s5.21-3,8-4,6.13-1.2,8.68.37a20.41,20.41,0,0,0-14.55-6.26c10.86-8.65,26.6-10.34,38.9-3.89a22.37,22.37,0,0,0-15-11.62,29.79,29.79,0,0,0-19.31,2.62,42.34,42.34,0,0,0-15,12.77,74.5,74.5,0,0,0-24.11-.57c-8,1.28-16,5.67-19.46,13-3.34,7.07-2,15.36-.58,23C404,553.52,405.06,556.79,408,557.61Z"/><path class="cls-6" d="M543.53,513.61a25.53,25.53,0,0,1,18.06,36.45,173.8,173.8,0,0,1-69.67,7.79c-13.14-1.17-26.12-3.84-39.28-4.59s-26.85.57-38.44,6.86c59.36,18.71,124.46,17.45,183.59-2,1.7-4.21.66-9.36-2-13a13.57,13.57,0,0,0-11.91-5.32A31.67,31.67,0,0,0,570,517.26C562.51,512.26,552.15,511,543.53,513.61Z"/><path class="cls-3" d="M475.31,523.74c-7.21-5-15.54-7-23.38-4-1.61.74-4.54,1.79-6.79,1.48-2.05-.13-4.36-1.23-5.89-1.67a26.13,26.13,0,0,0-14.64-.29c-16.23,3.6-23.93,23.53-16,37.69l-2.21-1.73A312.7,312.7,0,0,0,501.49,570a330.62,330.62,0,0,0,95.15-14.69L594.37,557c3.69-6.39-2.33-16-10.16-15h-.09l-4.25.23c0-5.94-.8-12-4.55-17-8.4-13-25.72-14.36-38.54-6.3,2.37-5.25,7.48-9.25,13.25-11.16,18.43-6.57,40.18,11,37.66,30.53l-4.41-4.25h.18c13.91-1.67,25,14.9,17.77,27.1l-.79,1.32-1.48.45c-63,19.59-132,20.29-194.92,0l-1.47-.46-.74-1.27-.05-.08c-17.8-29.18,12.61-62.33,43.33-47.88,1.75.62,2.16.16,4.15-.46,9.75-3.86,23.07.64,26.05,11Z"/><path class="cls-3" d="M449.3,518.41l-7.58-2.56A33.5,33.5,0,0,1,498.2,504a36.62,36.62,0,0,1,23.62-7.72c9.71.37,20.33,5.72,27.07,13.63l-6.1,5.19c-5.26-6.19-13.81-10.54-21.27-10.82a28.35,28.35,0,0,0-20.95,8.3L497.19,516l-2.75-4a25.52,25.52,0,0,0-45.14,6.39Z"/><path class="cls-5" d="M478.22,538.84a32,32,0,0,1,44.65-2.68C508,531,492.24,531.57,478.22,538.84Z"/><path class="cls-1" d="M538.48,436.62c8.28-.15,15.61,3.72,19.38,11.26a21.54,21.54,0,0,1,.13,18.94c-2.7,5.35-8.85,15.42-16.3,13.7a23.39,23.39,0,0,1-10.27-40.29C533.33,438.53,535.93,436.66,538.48,436.62Z"/><path class="cls-2" d="M525.24,460.13a20.53,20.53,0,0,0,17.23-23.39,20.13,20.13,0,0,0-13.32,8.33C526.1,449.63,524.11,454.75,525.24,460.13Z"/><path class="cls-3" d="M543.38,483.39a10,10,0,0,1-2.29-.27,26.07,26.07,0,0,1-11.44-44.89c3.19-2.83,6.06-4.23,8.78-4.28a2,2,0,0,0,.49,0c9.37,0,17.31,4.74,21.32,12.74a24.18,24.18,0,0,1,.13,21.34C555.32,478,549.36,483.39,543.38,483.39Zm-4.85-44.11c-.95,0-2.64.54-5.34,2.94a20.74,20.74,0,0,0,9.1,35.71c5.9,1.36,11.69-9.08,13.32-12.32a19,19,0,0,0-.14-16.54c-3.18-6.36-9.33-9.88-16.94-9.79Z"/><path class="cls-3" d="M544.15,483a2.66,2.66,0,0,1-2.5-3.59,64.17,64.17,0,0,0,4-14.94,27,27,0,0,0-2-14.36c-1.7-3.6-4.64-7.08-9-10.63a2.67,2.67,0,1,1,3.36-4.14c5,4.07,8.42,8.16,10.46,12.5a32.19,32.19,0,0,1,2.46,17.22,68.57,68.57,0,0,1-4.25,16.2A2.65,2.65,0,0,1,544.15,483Z"/><path class="cls-7" d="M527.14,463.63a27.63,27.63,0,0,0,20.17,2.9,40.59,40.59,0,0,0,7.41-21.28c3.12,1.78,4.2,5.47,4.44,9.05A30,30,0,0,1,545.75,481C536.92,479.94,529.32,472.26,527.14,463.63Z"/><path class="cls-7" d="M490.36,500.56a50.62,50.62,0,0,0,4-19.95,34.4,34.4,0,0,1,.29-7.32,8,8,0,0,1,4-5.82A68.22,68.22,0,0,0,506.61,501a20,20,0,0,0-5,7.1C497.36,506.68,492.85,504.25,490.36,500.56Z"/></svg>