<svg id="Layer_1" data-name="Layer 1" xmlns="http://www.w3.org/2000/svg" viewBox="0 0 1000 1000"><defs><style>.cls-1{fill:#8cc63f;}.cls-2{fill:#dfffa1;}.cls-3,.cls-9{fill:#42210b;}.cls-4{fill:#754c24;}.cls-5{fill:#c69c6d;}.cls-6{fill:#603813;}.cls-7{fill:#ebf700;}.cls-8{fill:#f9ffbd;}.cls-9{opacity:0.4;}</style></defs><path class="cls-1" d="M509.66,446.12c-3.68-.61-6.32-4.37-6.34-8.1s2.15-7.21,5.06-9.53a27.74,27.74,0,0,1,10.08-4.62,71.75,71.75,0,0,1,33.06-1.14c-3.69,1.36-5.78,5.39-7,9.14s-1.59,7.74-3,11.42A22.45,22.45,0,0,1,519,457.13a12.83,12.83,0,0,1-7.31-2.87C509.66,452.48,508.83,448.65,509.66,446.12Z"/><path class="cls-1" d="M517,508.43a14.09,14.09,0,0,1-1.91-25.4c3.81-2.16,8.42-2.44,12.78-2.06s8.68,1.37,13.06,1.52,9-.64,12.42-3.38c.55,8.17-1.25,16.11-4.15,23.76-1.83,4.86-4.42,9.58-8.37,13s-9.45,5.22-14.48,3.89S516.37,513.59,517,508.43Z"/><path class="cls-1" d="M475.44,501c3.41-4.11,1.32-10.29-1.94-13.79a16.29,16.29,0,0,0-14.28-4.9c-8.08,1.31-14.4,8.62-22.56,9.23a24.26,24.26,0,0,1,14.47,15.13c.9,3,1.24,6.19,2.79,8.89a11.78,11.78,0,0,0,10.56,5.67,13,13,0,0,0,10.33-6.28C477,511.31,476.84,504.92,475.44,501Z"/><path class="cls-1" d="M472.4,438.82c2.17-3.1,2.07-7.42.4-10.82a19.18,19.18,0,0,0-8-7.85,32.45,32.45,0,0,0-32.79.68c4.43,1.14,7.07,4.77,9.17,8.84s3.26,8.55,5.12,12.73,4.66,8.24,8.84,10.11A12.49,12.49,0,0,0,467.62,451,13.6,13.6,0,0,0,472.4,438.82Z"/><path class="cls-1" d="M491.49,484.56c1-9.68,1.89-20.57,7.58-29.06,8.62-13.29,22.55-28.28,39.66-27.73-5.8,3.47-11.15,6.26-16.17,10-9.5,7.5-18.74,16.94-22.73,28.61-1.67,6-2.28,12.3-3,18.73a2.67,2.67,0,0,1-5.31-.57Z"/><path class="cls-2" d="M513.61,503.88a14.87,14.87,0,0,1,10.11-14.13c3.31-1,6.86-.86,10.32-.66s7,.39,10.33-.63,6.41-3.52,7.1-6.91c-5.52,2.82-12,1.11-18.09-.07s-12.81-2.21-18.19.89a13.49,13.49,0,0,0-6.6,10.63A12.46,12.46,0,0,0,513.61,503.88Z"/><path class="cls-2" d="M510.19,446.67a24.93,24.93,0,0,1,8.56-15.38,33.14,33.14,0,0,1,14.32-6.55,99.16,99.16,0,0,1,15.78-1.69,60.11,60.11,0,0,0-33.45,2.26,23.83,23.83,0,0,0-8.32,4.83,11,11,0,0,0-3.59,8.66C503.81,442,507,446.41,510.19,446.67Z"/><path class="cls-2" d="M438,425.18a13.22,13.22,0,0,1,7.38-3.65,25.07,25.07,0,0,1,8.33.2,48.1,48.1,0,0,1,20.5,8.58,30.92,30.92,0,0,0-15.89-12.9,31.27,31.27,0,0,0-20.59-.24c-1.64.55-3.45,1.53-3.66,3.24A6.43,6.43,0,0,1,438,425.18Z"/><path class="cls-1" d="M501.75,535.47c-.36-14,17.84-40.92,31.89-43.55-6,6.89-12,12.76-16.7,20.43-4.29,6.92-9.23,15.25-9.87,23.2a2.67,2.67,0,0,1-5.32-.08Z"/><path class="cls-1" d="M489.06,515c-5.39-7.42-14.53-12.31-22.91-16-3-1.25-5.94-2.48-9.23-3.67,3.41-1,7-.6,10.37.21,10.1,3,20.4,7.48,26.38,16.75a2.67,2.67,0,0,1-4.61,2.68Z"/><path class="cls-2" d="M453.14,496.49c1.93-1,3.75-2.27,5.74-3.19a20.21,20.21,0,0,1,18.07.77,15.75,15.75,0,0,0-19.33-11c-6.17,1.68-11,7-17.27,8.13,0,0,1.26,2.18,1.4,2.39a17.15,17.15,0,0,0,1.82,2.17,7.57,7.57,0,0,0,4.24,2.52C449.57,498.47,451.64,497.3,453.14,496.49Z"/><path class="cls-1" d="M481.65,457.73c-7.41-15-20-26.79-34.84-34.47,9,.21,17,5.39,23.69,11.06a61.26,61.26,0,0,1,16,21.26,2.67,2.67,0,0,1-4.89,2.15Z"/><path class="cls-3" d="M494.18,488.78a3.39,3.39,0,0,1-.45,0,3.9,3.9,0,0,1-3.57-4.3v0l.18-1.67c1-9.24,2.06-19.72,7.61-28,7-10.82,21.67-29,40.81-28.31a1.33,1.33,0,0,1,1.25,1,1.32,1.32,0,0,1-.61,1.47c-1.53.92-3,1.79-4.5,2.64a113.75,113.75,0,0,0-11.55,7.31c-11.7,9.24-19,18.39-22.27,28a105.91,105.91,0,0,0-2.74,16.51l-.23,1.94A3.86,3.86,0,0,1,494.18,488.78Zm-1.36-4.1a1.33,1.33,0,0,0,2.65.27l.23-1.91a109.9,109.9,0,0,1,2.85-17c3.47-10.15,11-19.71,23.19-29.29a109.84,109.84,0,0,1,11.39-7.25C518,432.14,506.21,447,500.19,456.22,495,464,493.93,474.09,493,483Z"/><path class="cls-3" d="M504.42,539.34h-.06a3.9,3.9,0,0,1-3.94-3.81v0c-.38-14.64,18-42.09,33-44.89a1.34,1.34,0,0,1,1.25,2.19c-1.42,1.63-2.84,3.21-4.24,4.76-4.51,5-8.77,9.74-12.33,15.49-4.57,7.38-9.07,15.21-9.68,22.61A3.89,3.89,0,0,1,504.42,539.34Zm-1.34-3.92a1.23,1.23,0,0,0,1.33,1.25,1.26,1.26,0,0,0,1.33-1.22c.65-8,5.33-16.15,10.06-23.8,3.69-6,8-10.77,12.62-15.87l.7-.78C516.66,501.67,502.8,523.8,503.08,535.42Z"/><path class="cls-3" d="M491.26,517.68a3.82,3.82,0,0,1-3.31-1.93c-5.45-7.46-14.79-12.2-22.33-15.49l-.54-.22c-2.86-1.18-5.55-2.3-8.61-3.42a1.33,1.33,0,0,1,.06-2.53c3.11-.95,6.63-.89,11.08.2,9.23,2.71,20.6,7.12,27.18,17.32a3.9,3.9,0,0,1-1.43,5.49A4.17,4.17,0,0,1,491.26,517.68Zm-28.63-21.54,3.47,1.44.56.23c7.89,3.44,17.66,8.41,23.48,16.41l.06.1a1.34,1.34,0,0,0,2.31-1.34c-6.06-9.39-16.87-13.55-25.6-16.12A27.71,27.71,0,0,0,462.63,496.14Z"/><path class="cls-3" d="M484.1,460.63a4,4,0,0,1-3.65-2.33c-7-14.2-18.87-25.91-34.25-33.86a1.35,1.35,0,0,1-.68-1.52,1.38,1.38,0,0,1,1.33-1c7.83.19,15.62,3.8,24.51,11.38a62.57,62.57,0,0,1,16.4,21.75,4,4,0,0,1-2.1,5.26A4.11,4.11,0,0,1,484.1,460.63Zm-30-34.75a77.79,77.79,0,0,1,28.77,31.26l0,0a1.33,1.33,0,0,0,2.44-1.08,59.82,59.82,0,0,0-15.7-20.78C464.05,430.57,459,427.47,454.08,425.88Z"/><path class="cls-1" d="M493.2,567.33c8.75-37.85-10.28-75.67-10.67-113.88-.28-13.32,1.58-27.1,7.31-39.42a2.73,2.73,0,0,1,5,2.17c-9.51,23.92-4.2,50.23,2,74.52,6.57,25.66,14.56,52.19,9.44,79.4-1.88,8.82-14.93,6.09-13-2.79Z"/><path class="cls-3" d="M499.82,578.19a10.52,10.52,0,0,1-2.09-.22,9.09,9.09,0,0,1-7.14-11.2v0c5.09-22,.59-43.76-4.18-66.75-3.14-15.17-6.4-30.86-6.55-46.5-.34-15.42,2.21-29.09,7.56-40.58a5.39,5.39,0,0,1,9.89,4.29c-9.25,23.26-4.05,48.75,2.06,72.87l1.64,6.35c6.22,23.91,12.65,48.65,7.84,74.2A9,9,0,0,1,499.82,578.19Zm-4-10.29a4,4,0,1,0,7.83,1.66c4.58-24.32-1.7-48.46-7.77-71.81l-1.65-6.37c-6.33-25-11.69-51.42-1.85-76.17-5.1,10.69-7.48,23.56-7.16,38.19.15,15.15,3.35,30.57,6.45,45.49C496.32,521.43,501.15,544.73,495.8,567.9Z"/><path class="cls-4" d="M411.79,569.3a34.13,34.13,0,0,1,33.26-3.6c3.46-10.3,13.27-18.18,23.91-20.37a31.9,31.9,0,0,1,29.58,9.76c14.31-7.46,32.64-5.25,45.58,4.39,7.74-.72,15.63-.58,22.86,2.25a25.66,25.66,0,0,1,15.87,23.59c3.23-1.07,7.12.46,9.79,2.58a16.9,16.9,0,0,1,5.34,8.51,45,45,0,0,1,1.42,10.09c-66.07,20.63-131.54,20.63-196.39-.81C398.45,593,400.88,577.28,411.79,569.3Z"/><path class="cls-5" d="M499.38,560.86c6.26-3.9,14-5,21.33-4.19s14.39,3.23,21.25,6l2.06-3.27c-7.45-7.52-18.2-11.68-28.68-10.14a24.82,24.82,0,0,0-9.54,3.29A17.92,17.92,0,0,0,499.38,560.86Z"/><path class="cls-5" d="M408,605.51a48,48,0,0,1,3.83-17.67,29.3,29.3,0,0,1,11.76-13.48,21.12,21.12,0,0,1,17.53-1.78c2,.75,3.89,1.86,6,2.23,2.95.51,6-.5,8.64-1.84s5.21-3,8-4,6.13-1.2,8.68.37a20.37,20.37,0,0,0-14.55-6.26c10.86-8.65,26.6-10.34,38.9-3.9a22.43,22.43,0,0,0-15-11.62,29.79,29.79,0,0,0-19.31,2.63,42.34,42.34,0,0,0-15,12.77,74.5,74.5,0,0,0-24.11-.57c-8,1.28-16,5.66-19.46,13-3.34,7.07-2,15.36-.58,23.05C404,601.42,405.06,604.7,408,605.51Z"/><path class="cls-6" d="M543.53,561.52A25.53,25.53,0,0,1,561.59,598a173.8,173.8,0,0,1-69.67,7.79c-13.14-1.17-26.12-3.84-39.28-4.59s-26.85.56-38.44,6.86c59.36,18.71,124.46,17.45,183.59-2,1.7-4.21.66-9.36-2-13a13.58,13.58,0,0,0-11.91-5.31A31.65,31.65,0,0,0,570,565.17C562.51,560.16,552.15,558.89,543.53,561.52Z"/><path class="cls-3" d="M475.31,571.64c-7.21-4.94-15.54-7-23.38-3.94-1.61.74-4.54,1.79-6.79,1.48-2.05-.13-4.36-1.23-5.89-1.67a26.13,26.13,0,0,0-14.64-.3c-16.23,3.61-23.93,23.54-16,37.69l-2.21-1.73a312.4,312.4,0,0,0,95.05,14.69,330.63,330.63,0,0,0,95.15-14.7l-2.27,1.78c3.69-6.39-2.33-16-10.16-15h-.09l-4.25.22c0-5.94-.8-12-4.55-17-8.4-13-25.72-14.36-38.54-6.3,2.37-5.25,7.48-9.25,13.25-11.16,18.43-6.58,40.18,10.94,37.66,30.53L583.28,582h.18c13.91-1.67,25,14.89,17.77,27.09l-.79,1.33-1.48.45c-63,19.59-132,20.29-194.92,0l-1.47-.46-.74-1.27-.05-.08c-17.8-29.18,12.61-62.33,43.33-47.89,1.75.63,2.16.16,4.15-.46,9.75-3.85,23.07.65,26.05,11Z"/><path class="cls-3" d="M449.3,566.32l-7.58-2.56a33.5,33.5,0,0,1,56.48-11.88,36.55,36.55,0,0,1,23.61-7.72c9.72.36,20.34,5.71,27.08,13.63l-6.1,5.18c-5.26-6.19-13.81-10.53-21.27-10.81a28.37,28.37,0,0,0-20.95,8.29l-3.38,3.43-2.75-4a25.53,25.53,0,0,0-45.14,6.4Z"/><path class="cls-5" d="M478.22,586.75a32.06,32.06,0,0,1,44.65-2.69C508,578.87,492.24,579.47,478.22,586.75Z"/><path class="cls-3" d="M521,459.9a22,22,0,0,1-2.29-.12,15.15,15.15,0,0,1-8.82-3.54,11.14,11.14,0,0,1-3.19-8.32,11.25,11.25,0,0,1-6-9.88,15.23,15.23,0,0,1,6.06-11.64,30.69,30.69,0,0,1,11.05-5.1,74.44,74.44,0,0,1,34.29-1.19,2.67,2.67,0,0,1,.4,5.12c-2.8,1-4.47,4.62-5.37,7.45-.49,1.53-.83,3.12-1.2,4.8a47.16,47.16,0,0,1-1.86,6.77A25.26,25.26,0,0,1,521,459.9ZM537.43,424a69.1,69.1,0,0,0-18.26,2.45,25.77,25.77,0,0,0-9.13,4.13A9.88,9.88,0,0,0,506,438c0,2.6,1.89,5.11,4.1,5.48a2.66,2.66,0,0,1,2.1,3.46,6,6,0,0,0,1.23,5.33,10.39,10.39,0,0,0,5.81,2.19A19.67,19.67,0,0,0,539,442.33a42,42,0,0,0,1.63-6c.37-1.72.77-3.51,1.33-5.27a22.57,22.57,0,0,1,3.22-6.62A67.69,67.69,0,0,0,537.43,424Z"/><path class="cls-3" d="M529.69,522.8a15.54,15.54,0,0,1-4-.52c-5.44-1.44-10.88-6.33-11.35-12.15a16.74,16.74,0,0,1-.55-29.41c3.75-2.14,8.43-2.92,14.34-2.4,1.88.16,3.76.43,5.64.71a67.2,67.2,0,0,0,7.27.79c3.16.1,7.55-.29,10.67-2.79a2.67,2.67,0,0,1,4.33,1.91c.51,7.71-.91,15.85-4.32,24.88-2.35,6.19-5.34,10.78-9.14,14A20.16,20.16,0,0,1,529.69,522.8Zm-5-39.3a16.6,16.6,0,0,0-8.33,1.85,11.42,11.42,0,0,0,1.55,20.59,2.66,2.66,0,0,1,1.69,2.8c-.44,3.67,3.54,7.37,7.39,8.39s8.45-.26,12.06-3.34c3.1-2.65,5.59-6.53,7.61-11.86a57.87,57.87,0,0,0,4-18.29,24.47,24.47,0,0,1-9.91,1.51,70.81,70.81,0,0,1-7.86-.84c-1.78-.26-3.55-.52-5.34-.68C526.6,483.54,525.64,483.5,524.72,483.5Z"/><path class="cls-3" d="M464,523.87a14.56,14.56,0,0,1-12.4-7,24.28,24.28,0,0,1-2.33-6.73c-.22-.91-.43-1.82-.7-2.71A21.65,21.65,0,0,0,435.7,494a2.67,2.67,0,0,1,.76-5.15c3.68-.28,7.1-2.24,10.73-4.32s7.29-4.19,11.6-4.89a18.89,18.89,0,0,1,16.66,5.72c3.88,4.17,6,11,2.93,16.08,1.19,4.5,1.16,10.79-1.28,14.86a15.62,15.62,0,0,1-12.5,7.57Zm-20.25-31.53a26.42,26.42,0,0,1,9.92,13.52c.3,1,.55,2,.79,3a19.77,19.77,0,0,0,1.77,5.3,9.08,9.08,0,0,0,8.12,4.34,10.36,10.36,0,0,0,8.17-5c1.68-2.8,1.56-8.41.4-11.69a2.67,2.67,0,0,1,.46-2.59c2.5-3,.43-7.83-1.84-10.28a13.67,13.67,0,0,0-11.9-4.08c-3.36.54-6.49,2.34-9.81,4.25A62.65,62.65,0,0,1,443.76,492.34Z"/><path class="cls-3" d="M460.13,456.21a14.67,14.67,0,0,1-6-1.27c-4.21-1.88-7.64-5.73-10.19-11.45-.84-1.88-1.54-3.8-2.21-5.66a58.83,58.83,0,0,0-2.85-6.94c-2.31-4.49-4.55-6.72-7.46-7.47a2.67,2.67,0,0,1-.77-4.84,35.3,35.3,0,0,1,35.55-.75,21.7,21.7,0,0,1,9,9,13.78,13.78,0,0,1,0,12.6,16.41,16.41,0,0,1-5.91,13.73A15,15,0,0,1,460.13,456.21Zm-22.27-35.36a23.12,23.12,0,0,1,5.73,7.59,62.31,62.31,0,0,1,3.12,7.57c.68,1.85,1.31,3.6,2.07,5.31,2,4.48,4.52,7.42,7.49,8.75a9.77,9.77,0,0,0,9.72-1.14,11,11,0,0,0,3.78-9.69,2.66,2.66,0,0,1,.45-1.95c1.46-2.09,1.54-5.36.19-8.11a16.45,16.45,0,0,0-6.9-6.72A29.9,29.9,0,0,0,437.86,420.85Z"/><path class="cls-3" d="M463.64,495.06a11.32,11.32,0,0,0-2.68-4.82A12.68,12.68,0,0,1,466,493.8a1.37,1.37,0,1,1-2.37,1.26Z"/><path class="cls-3" d="M463.39,498.53a8,8,0,0,1-7.73,2.16,6.62,6.62,0,0,0,5.57-3.72,1.36,1.36,0,1,1,2.16,1.56Z"/><path class="cls-3" d="M471.68,502.46a9.26,9.26,0,0,1-7.85,1.77,7.91,7.91,0,0,0,5.9-3.59,1.36,1.36,0,1,1,1.95,1.82Z"/><path class="cls-3" d="M518.91,499.26a19.74,19.74,0,0,1,1-8.5,18.64,18.64,0,0,0,1.57,7.85,1.35,1.35,0,1,1-2.58.65Z"/><path class="cls-3" d="M523.78,502.76a10.55,10.55,0,0,0,8.23.43,11.9,11.9,0,0,1-9,2.12,1.35,1.35,0,1,1,.79-2.55Z"/><path class="cls-3" d="M527.39,492.53a8.89,8.89,0,0,1,2.44-5.08,7.58,7.58,0,0,0,.22,4.85,1.39,1.39,0,1,1-2.66.23Z"/><path class="cls-3" d="M530.83,494.73a12.39,12.39,0,0,0,8.06-.13c-1.2,1.27-9.56,4.78-9.85,1.4a1.36,1.36,0,0,1,1.79-1.27Z"/><path class="cls-3" d="M518.45,443.17c-.06-.09-.17-.05,0,.15,2.15,1.61,5.11,2.1,7.8,2.34-3,.51-6.37.85-9.23-.5a2.56,2.56,0,0,1-1.22-2,1.34,1.34,0,0,1,2.67,0Z"/><path class="cls-3" d="M527.09,435a11.11,11.11,0,0,0,6.57,2.42c-1.51.7-9.43,1.36-8.72-1.79a1.36,1.36,0,0,1,2.15-.63Z"/><path class="cls-3" d="M513.9,436.05a5.4,5.4,0,0,1,2.65-5.39,4,4,0,0,0-.11,4.58,1.41,1.41,0,0,1-.25,2,1.44,1.44,0,0,1-2.29-1.17Z"/><path class="cls-3" d="M456.24,430.17a7.83,7.83,0,0,1-6.33-.38,6.54,6.54,0,0,0,5-1.91,1.38,1.38,0,1,1,1.36,2.29Z"/><path class="cls-3" d="M464.58,436.7a11.1,11.1,0,0,1-10.9.4,9.75,9.75,0,0,0,9.26-2.51,1.35,1.35,0,1,1,1.64,2.11Z"/><path class="cls-7" d="M491.41,414.87c-5.57-.57-10.4-4.74-12.56-9.9s-1.9-11.12-.13-16.43a19.07,19.07,0,0,1,12.69,26.33Z"/><path class="cls-7" d="M493.21,411.42a22.93,22.93,0,0,1,24.32-17.06,19.34,19.34,0,0,1-1.92,12.7,15.64,15.64,0,0,1-9.88,7.66A14.73,14.73,0,0,1,493.21,411.42Z"/><path class="cls-8" d="M497.52,407a17.56,17.56,0,0,1,19.74-4.26,14.94,14.94,0,0,0,.31-4.27,5.11,5.11,0,0,0-1.92-3.71,6.27,6.27,0,0,0-4.51-.74,16.36,16.36,0,0,0-8.87,4.27A16.56,16.56,0,0,0,497.52,407Z"/><path class="cls-7" d="M504.86,376.89l.07.12a22.81,22.81,0,0,1,2.82,13.46c-.12,1.11-.37,2.19-.54,3.28a4.14,4.14,0,0,1-1.37,2.29,25.46,25.46,0,0,1-5.36,4c-2.6,1.59-5.31,3.21-7,5.72-.11-1.92-1.17-3.64-2.17-5.3a11.57,11.57,0,0,1-1.86-4.5,12.44,12.44,0,0,1,.41-4.29A19.52,19.52,0,0,1,493.7,384,20.43,20.43,0,0,1,504.86,376.89Z"/><path class="cls-8" d="M492.63,388.5A17.08,17.08,0,0,1,507.34,386a13.44,13.44,0,0,0-.8-5.71c-.78-1.78-2.62-3.26-4.54-3a6.11,6.11,0,0,0-3.42,2.26A38.33,38.33,0,0,0,492.63,388.5Z"/><path class="cls-8" d="M480.5,405.09a13.33,13.33,0,0,1,6.61-11.95,12.29,12.29,0,0,0-3.68-3.06,4.43,4.43,0,0,0-4.68.27c-1.21,1-1.51,2.76-1.55,4.35C477.11,398.42,478.71,401.83,480.5,405.09Z"/><path class="cls-3" d="M491.41,417.54l-.27,0c-6.29-.64-12.08-5.16-14.75-11.52a26.07,26.07,0,0,1-.2-18.31,2.64,2.64,0,0,1,3.11-1.75A21.73,21.73,0,0,1,493.82,416,2.66,2.66,0,0,1,491.41,417.54Zm-10.87-25.63a19.86,19.86,0,0,0,.77,12,13.83,13.83,0,0,0,8.44,7.89,16.3,16.3,0,0,0-.95-11.95A16.48,16.48,0,0,0,480.54,391.91Z"/><path class="cls-3" d="M503,417.69a17.75,17.75,0,0,1-11.56-4.29,2.68,2.68,0,0,1-.79-2.65,25.59,25.59,0,0,1,27.14-19,2.69,2.69,0,0,1,2.38,2.15,21.82,21.82,0,0,1-2.2,14.49,18.44,18.44,0,0,1-11.61,9A14.92,14.92,0,0,1,503,417.69Zm-6.68-7.25a12.1,12.1,0,0,0,8.81,1.69,13,13,0,0,0,8.17-6.37,16.39,16.39,0,0,0,1.89-8.82,20.26,20.26,0,0,0-18.87,13.5Z"/><path class="cls-3" d="M506.39,398.75a2.58,2.58,0,0,1-1-.19,2.66,2.66,0,0,1-1.51-3.45,19.66,19.66,0,0,0-.41-15,17.62,17.62,0,0,0-7.71,5.59,15.38,15.38,0,0,0-3.77,10,2.67,2.67,0,0,1-2.67,2.66h0a2.67,2.67,0,0,1-2.66-2.67,20.72,20.72,0,0,1,4.92-13.29,23,23,0,0,1,12.64-8.07,2.66,2.66,0,0,1,2.93,1.26,25.13,25.13,0,0,1,1.71,21.49A2.66,2.66,0,0,1,506.39,398.75Z"/><path class="cls-9" d="M443.47,431.61c2-1,4.43.11,6.09,1.6s2.94,3.42,4.85,4.57c3.15,1.91,7.34,1.25,10.48-.68s5.46-4.9,7.71-7.81c.43,3.19,1.09,6.34.76,9.54a17.29,17.29,0,0,1-3.3,8.94,13.31,13.31,0,0,1-18.18,2.66,17.58,17.58,0,0,1-6-8.44A48.86,48.86,0,0,1,443.47,431.61Z"/><path class="cls-9" d="M509.9,447.71c2.77-2.28,6.75-2.13,10.32-1.76s7.45.8,10.5-1.1c4.4-2.75,4.93-8.88,7.68-13.28A14.3,14.3,0,0,1,548.9,425c-7.83,7.83-6.57,21.3-14.69,28.83a15.64,15.64,0,0,1-13.86,3.71C515.5,456.48,511.72,452.34,509.9,447.71Z"/><path class="cls-9" d="M450.45,503.47a4.79,4.79,0,0,1,5.05.26,16,16,0,0,1,3.73,3.79,11.24,11.24,0,0,0,4,3.5A7.8,7.8,0,0,0,471,509.6a15.89,15.89,0,0,0,4.51-6.91,11.8,11.8,0,0,1-17.34,15.19C454,514.78,451.09,508.66,450.45,503.47Z"/><path class="cls-9" d="M515.58,506.35c2.11-2.88,6.25-3.34,9.78-2.79s7,1.84,10.55,1.49a15.56,15.56,0,0,0,9.6-5.25,46.14,46.14,0,0,0,6.18-9.28,75,75,0,0,1-3.05,12.84,25.84,25.84,0,0,1-7.27,11.08,19.52,19.52,0,0,1-14.51,4.4,13.41,13.41,0,0,1-7.87-3.36C516.89,513.46,513.86,508.69,515.58,506.35Z"/><path class="cls-9" d="M495.8,495.61l3.4,27.3a53.91,53.91,0,0,1,.6,11.41,18,18,0,0,1-4.12,10.47c-.24,2.55-.46,5.26-.7,7.81,3.51,2.37,8.52,2.26,11.21-1,3.06-3.72,2.48-9.13,1.74-13.89C505.68,523.2,503,508.37,495.8,495.61Z"/><path class="cls-9" d="M480.86,406.3a14.6,14.6,0,0,0,4.05,1,7.11,7.11,0,0,0,4-.84,5.68,5.68,0,0,0,2.69-5.3,26.74,26.74,0,0,1,1.12,8,4.75,4.75,0,0,1-1,3.26,4,4,0,0,1-3.79.76C484.7,412.39,481.27,409.64,480.86,406.3Z"/><path class="cls-9" d="M491,391.93a8.94,8.94,0,0,1,4.23,2.6,23.08,23.08,0,0,1,11.48-2.81c-.06,1.35-.14,2.7-.2,4a21.11,21.11,0,0,0-11.18,9.58,19.33,19.33,0,0,1-4.83-6.21,9.81,9.81,0,0,1-1.27-3.88C489.15,393.88,490.09,392.93,491,391.93Z"/><path class="cls-9" d="M495.45,409.91A20.41,20.41,0,0,1,514,407.52a13.53,13.53,0,0,1-11.61,6.23,9.45,9.45,0,0,1-4.27-1.11C496.8,411.91,495.87,411.33,495.45,409.91Z"/></svg>